<svg width="120" height="120" viewBox="0 0 120 120" fill="none" xmlns="http://www.w3.org/2000/svg" xmlns:xlink="http://www.w3.org/1999/xlink">
<g clip-path="url(#clip0_1064_6353)">
<rect width="120" height="120" fill="#47B48F"/>
<path d="M75.9254 95.6743C73.9915 95.3359 71.5575 94.7975 68.6236 94.0589C65.6896 93.3204 62.7038 92.4544 59.6661 91.461C56.6944 90.4585 53.8548 89.4377 51.1473 88.3986C48.4398 87.3596 46.3785 86.3658 44.9635 85.4173C47.0955 86.1994 49.0389 86.8393 50.7936 87.3371C52.6238 87.8917 54.4256 88.4839 56.1992 89.1136L56.553 88.7619C52.6945 87.68 48.9635 86.3113 45.3597 84.6559C41.756 83.0004 38.2702 81.4633 34.9024 80.0444C33.9024 79.6442 33.2184 79.335 32.8505 79.1166C32.5486 78.8891 32.2892 78.7231 32.0722 78.6185L31.3364 78.4174C31.2704 78.4265 31.2373 78.4311 31.2373 78.4311C31.2279 78.3651 31.1902 78.3366 31.1241 78.3458C29.2844 79.1384 27.6051 79.8753 26.0862 80.5564C24.5673 81.2374 23.0107 81.8901 21.4163 82.5142C21.1521 82.5508 20.8596 82.8604 20.5389 83.4431C20.2086 83.9599 19.8973 84.6086 19.6048 85.3893C19.3029 86.1041 18.9726 86.8564 18.6141 87.6462C18.331 88.4929 18.0998 89.2315 17.9206 89.862C17.7602 90.1534 17.5856 90.5813 17.3969 91.1458C17.0383 92.4068 16.7364 93.3571 16.4911 93.9967C16.3118 94.6271 16.3118 94.8627 16.491 94.7033L18.2175 93.3542C19.1893 92.6142 20.1186 91.8127 21.0054 90.9499C21.9017 90.153 22.8546 89.281 23.8641 88.3338C24.883 87.4527 25.8925 86.5055 26.8926 85.4924C27.9587 84.4701 28.9304 83.4946 29.8078 82.5657C29.2417 83.788 28.3926 84.9149 27.2605 85.9463C26.1849 86.9026 25.2556 87.9396 24.4725 89.0573C24.4065 89.0664 24.3782 89.104 24.3876 89.17C24.3216 89.1791 24.2933 89.2167 24.3027 89.2827C25.7839 88.3376 26.4915 87.8697 26.4255 87.8788C25.548 88.8077 24.8169 89.5818 24.2319 90.201C23.6564 90.8863 23.1092 91.534 22.5903 92.1441C22.0808 92.8202 21.5053 93.5055 20.8637 94.1998C20.2977 94.9511 19.5193 95.8663 18.5287 96.9454C18.4155 97.0957 18.0569 97.4144 17.4531 97.9017C16.9248 98.4458 16.3493 98.8955 15.7266 99.2508C15.6134 99.401 15.4908 99.4853 15.3587 99.5035C15.2266 99.5218 15.0993 99.573 14.9766 99.6573C14.6747 99.9009 14.3304 99.8476 13.9436 99.4972C13.6323 99.2038 13.4012 99.0002 13.2502 98.8864C12.6276 98.2995 12.2597 97.61 12.1465 96.8181C12.0994 96.017 12.1466 95.1692 12.2882 94.2748C12.5052 93.4372 12.7836 92.5574 13.1233 91.6356C13.4629 90.7137 13.7743 89.8295 14.0574 88.9827L14.5244 88.0096C15.166 85.9019 15.8077 84.0298 16.4493 82.3932C17.1475 80.6815 17.8646 78.8662 18.6005 76.9474C19.4025 75.0195 20.2659 72.8138 21.1905 70.3305C22.1152 67.8472 23.1578 64.7755 24.3184 61.1155L23.1297 61.2798C23.0637 61.289 22.9929 61.2651 22.9175 61.2082L21.3042 61.2293C20.1816 61.3845 19.1014 61.3656 18.0636 61.1725C17.092 60.9703 15.7146 60.9925 13.9315 61.2389L13.507 61.0957L12.5872 61.021L11.5117 60.5639C10.3136 60.1911 9.28535 59.8285 8.42687 59.4761C7.63443 59.1145 6.93634 58.7063 6.33258 58.2513C5.7194 57.7304 5.19584 57.1298 4.76192 56.4494C4.31856 55.7031 3.91295 54.7497 3.54508 53.5891L3.68669 51.7525C3.53581 50.6965 3.7387 49.5244 4.29538 48.236C4.85206 46.9477 5.57855 45.6695 6.47486 44.4015C7.37116 43.1336 8.34765 41.9554 9.40432 40.8672C10.5176 39.7038 11.5931 38.7475 12.6309 37.9984L13.9046 37.0147C14.3291 36.6868 15.4329 35.9286 17.216 34.7399C18.9897 33.4852 21.353 32.1154 24.3059 30.6304C27.2589 29.1455 30.726 27.724 34.7072 26.3661C38.679 24.9422 43.0753 23.897 47.8962 23.2307C50.4717 22.8747 53.1226 22.8111 55.8491 23.0399C58.6321 23.1936 61.2028 23.7468 63.5613 24.6995C65.9103 25.5862 67.9197 26.9237 69.5894 28.7119C71.3252 30.4909 72.3958 32.7994 72.8013 35.6372C73.1974 38.4091 72.8105 41.3564 71.6405 44.4794C70.461 47.5363 68.7109 50.6048 66.3899 53.6849C64.069 56.765 61.2622 59.744 57.9695 62.622C54.6769 65.4999 51.1107 68.1128 47.2709 70.4606C47.0822 70.554 46.9266 70.6428 46.8039 70.7271C46.7379 70.7362 46.5398 70.7636 46.2096 70.8092C50.3984 68.0766 54.1156 65.1064 57.3611 61.8985C60.6632 58.6154 63.3049 55.4237 65.2862 52.3232C62.5973 55.6561 58.9509 59.3569 54.3468 63.4256C49.7334 67.4283 44.1907 71.2902 37.7187 75.0114C38.2942 75.2684 38.7659 75.506 39.1338 75.7244C39.5677 75.9336 40.0064 76.1758 40.4498 76.451C44.6666 79.0985 48.9213 81.5389 53.2136 83.7722C57.506 86.0054 61.8408 87.829 66.2182 89.243C70.5955 90.6569 75.0436 91.6236 79.5624 92.1431C84.1473 92.6534 88.8785 92.5378 93.756 91.7963C94.9447 91.632 96.1145 91.3357 97.2655 90.9074C98.4825 90.47 99.5674 90.0508 100.52 89.6499C101.473 89.249 102.261 88.8709 102.884 88.5156C103.506 88.1604 103.851 87.9782 103.917 87.969C104.039 87.8848 103.893 88.0396 103.478 88.4335C103.063 88.8274 102.322 89.2999 101.256 89.851C100.256 90.3931 98.9589 90.9762 97.3645 91.6004C95.7701 92.2246 93.8597 92.7578 91.6332 93.2002C91.0483 93.3483 90.454 93.4305 89.8502 93.4467C89.2464 93.4628 88.6473 93.512 88.053 93.5941C88.7322 93.6348 89.4398 93.638 90.1756 93.6036C90.9775 93.56 91.8408 93.4744 92.7653 93.3466C96.2654 92.8628 99.3268 91.9012 101.949 90.4618C104.648 89.0794 106.893 87.8268 108.686 86.7041L109.676 85.8606C111.356 84.417 112.629 82.9623 113.497 81.4963C114.365 80.0303 114.931 78.808 115.196 77.8293C115.469 76.9165 115.677 76.2485 115.818 75.8251C116.035 75.4586 116.205 75.2333 116.328 75.149C116.45 75.0648 116.554 75.0841 116.639 75.2069C116.724 75.3298 116.804 75.4197 116.88 75.4765C116.993 75.7974 116.941 76.3766 116.724 77.2142C116.582 78.1087 116.318 79.0874 115.931 80.1504C115.544 81.2133 115.054 82.257 114.459 83.2813C113.874 84.3717 113.219 85.2026 112.492 85.7742L111.898 86.563L110.893 87.3075C109.487 88.3095 108.001 89.2215 106.435 90.0437C104.869 90.8659 103.52 91.7926 102.388 92.824C104.294 92.0222 106.143 91.06 107.935 89.9373C109.737 88.8806 111.403 87.5736 112.931 86.0164C110.384 88.9259 107.36 91.0936 103.86 92.5196C100.369 94.0116 96.7747 95.0132 93.0765 95.5244C90.1048 95.9352 87.2793 96.1912 84.6 96.2923C81.9207 96.3935 79.0292 96.1875 75.9254 95.6743ZM34.6905 72.9062C37.1528 71.7583 39.7426 70.3235 42.4597 68.6019C45.2428 66.8712 47.9693 64.9801 50.6393 62.9286C53.3092 60.877 55.8329 58.7447 58.2104 56.5317C60.654 54.3095 62.7626 52.1 64.5363 49.9031C66.3006 47.6403 67.6404 45.4697 68.5556 43.3915C69.5368 41.3042 69.9002 39.3696 69.6455 37.5877C69.5229 36.7297 69.4098 36.1733 69.306 35.9185C69.2683 35.6545 69.2259 35.3575 69.1787 35.0275C69.3484 37.1576 68.9001 39.4405 67.834 41.8761C66.7678 44.3116 65.3667 46.7599 63.6307 49.2207C61.8853 51.6156 59.8946 53.9434 57.6586 56.2042C55.4226 58.4649 53.2149 60.4526 51.0356 62.1671C49.6393 63.235 48.1722 64.2791 46.6344 65.2992C45.1626 66.3103 43.7097 67.2177 42.2757 68.0217C40.9077 68.8165 39.6577 69.494 38.5256 70.0543C37.4501 70.5395 36.6482 70.8185 36.1199 70.8916C37.1293 70.4155 38.6294 69.6025 40.62 68.4524C42.6012 67.2364 44.7193 65.7995 46.9741 64.1418C49.295 62.475 51.5592 60.6478 53.7669 58.6601C55.9746 56.6725 57.8096 54.669 59.272 52.6498C60.0268 51.8052 60.8759 50.6783 61.8194 49.2692C62.7534 47.7941 63.612 46.2621 64.3951 44.6733C65.2348 43.0093 65.8764 41.3727 66.3199 39.7635C66.8294 38.1452 67.0041 36.7751 66.8437 35.6531C66.7306 34.8612 66.5749 34.2433 66.3769 33.7996C66.1693 33.2899 66.0137 32.9076 65.9099 32.6527C65.8722 32.3888 65.91 32.1816 66.0232 32.0314C66.2024 31.872 66.5515 31.7228 67.0704 31.5838C66.0893 30.3734 64.8535 29.5011 63.3629 28.9668C61.863 28.3666 60.2969 28.011 58.6649 27.9001C57.0233 27.7232 55.3724 27.7158 53.712 27.8781C52.0422 27.9743 50.5138 28.1182 49.127 28.3099C47.0138 28.602 45.0562 29.0409 43.2543 29.6264C41.5184 30.2029 39.7919 30.8453 38.0749 31.5538C36.4144 32.1871 34.7587 32.8534 33.1077 33.5527C31.4473 34.186 29.6407 34.7386 27.6878 35.2104C28.1878 34.9394 28.7161 34.6309 29.2728 34.2847C29.886 33.8634 30.4898 33.6117 31.0841 33.5296L31.3672 33.3895C31.8672 33.1185 32.3672 32.8475 32.8672 32.5765C33.3578 32.2395 33.8861 31.9309 34.4522 31.6507C34.0748 31.8375 33.6927 31.9913 33.3059 32.112C32.9097 32.1668 32.5182 32.2546 32.1314 32.3753L30.504 33.0041C29.2681 33.7806 27.5133 34.6962 25.2396 35.7508C23.0226 36.7302 20.7678 37.9168 18.4752 39.3105C16.1733 40.6382 14.1354 42.1649 12.3617 43.8907C10.5786 45.5504 9.56905 47.4398 9.33309 49.5587C9.08769 51.6116 9.75743 52.9996 11.3423 53.7228C12.9932 54.4368 14.9602 54.7706 17.2432 54.7242C19.5829 54.6027 21.9509 54.2081 24.3471 53.5403C26.8 52.7975 28.7388 51.9911 30.1634 51.1212C30.2671 50.9049 30.4983 50.4019 30.8568 49.612C31.272 48.747 31.7532 47.8729 32.3004 46.9897C32.9136 46.0973 33.5741 45.2994 34.2817 44.5959C35.0459 43.8172 35.8572 43.3686 36.7157 43.2499C37.5742 43.1313 38.3289 43.2288 38.9799 43.5427C38.4798 44.2848 38.0411 44.9848 37.6637 45.6426C37.2863 46.3005 36.8712 46.9299 36.4183 47.5309L35.8805 48.0091L33.6586 51.5466L33.8709 51.6182C34.4464 50.9329 34.9559 50.2568 35.3993 49.5898C35.6352 49.3553 35.9701 48.8716 36.4041 48.1386C36.8381 47.4056 37.3382 46.6635 37.9043 45.9122C38.5364 45.1519 39.1779 44.4575 39.8289 43.8291C40.4799 43.2007 41.1356 42.8409 41.796 42.7496C41.9941 42.7222 42.3667 42.738 42.9139 42.797C41.4987 44.6751 40.0882 46.3506 38.6825 47.8237C37.3428 49.2875 36.1068 50.7707 34.9746 52.2732C34.3142 52.8356 33.5783 53.8122 32.7669 55.2031C32.0121 56.5188 31.2196 58.0417 30.3893 59.7716C29.5496 61.4356 28.7523 63.161 27.9975 64.9478C27.2332 66.6687 26.5445 68.2108 25.9312 69.5743L26.1293 69.5469C28.2236 70.065 29.851 70.614 31.0113 71.1939C32.2283 71.6987 33.4547 72.2695 34.6905 72.9062ZM25.2525 58.4627C25.262 58.5287 25.2997 58.5571 25.3657 58.548L25.4648 58.5343C25.578 58.384 25.729 58.2622 25.9176 58.1688C26.1063 58.0754 26.2856 57.9161 26.4554 57.6907L26.0025 58.7628C26.21 59.2725 26.3091 59.4944 26.2997 59.4284C26.6582 58.6385 26.9601 57.9238 27.2054 57.2842C27.5074 56.5694 27.8187 55.9207 28.1395 55.338C27.6301 55.543 27.2574 55.7627 27.0216 55.9972C26.8423 56.1566 26.5545 56.4992 26.1583 57.0251C26.1583 57.0251 26.1205 56.9967 26.0451 56.9398L25.7479 56.9809C25.6064 56.9332 25.3375 56.9367 24.9413 56.9914L22.4648 57.3338L19.0827 57.7003C18.0827 57.7712 16.8751 57.8036 15.46 57.7973C14.0355 57.725 12.6581 57.5116 11.328 57.157C9.99779 56.8025 8.80913 56.2602 7.76199 55.53C6.77146 54.7247 6.17246 53.5961 5.96499 52.1442C5.83297 51.2203 5.95095 50.1608 6.31894 48.9658C6.67751 47.7049 7.17756 46.7272 7.81912 46.0328C7.68704 46.0511 7.61628 46.0272 7.60685 45.9612L7.38045 45.7906C6.78605 46.815 6.27183 47.9292 5.8378 49.1333C5.40377 50.3374 5.26691 51.5004 5.42723 52.6223C5.63469 54.0743 6.20067 55.2074 7.12517 56.0218C8.1157 56.8271 9.31378 57.4354 10.7194 57.8468C12.1911 58.2491 13.8138 58.5296 15.5874 58.6882C17.4175 58.7717 19.2713 58.7847 21.1487 58.7271L22.1534 58.6891C22.2195 58.68 22.2902 58.7039 22.3657 58.7608C22.4978 58.7425 22.6629 58.7197 22.861 58.6923L24.545 58.4595L25.2525 58.4627ZM16.211 39.7244C16.1167 40.0066 16.0648 40.1148 16.0554 40.0488C16.2252 39.8234 16.9092 39.1904 18.1074 38.1499C19.2961 37.0434 20.9 35.7786 22.9189 34.3554C25.0039 32.9231 27.4521 31.4406 30.2636 29.9079C33.141 28.366 36.3157 27.0187 39.7875 25.8658C39.6554 25.884 38.712 26.1154 36.9572 26.5598C35.2025 27.0043 33.0892 27.7675 30.6174 28.8495C28.2117 29.9223 25.688 31.3479 23.0464 33.1264C20.4047 34.9048 18.1263 37.1042 16.211 39.7244ZM35.4688 73.4044C36.4216 73.0035 37.4311 72.5274 38.4972 71.9763C39.6293 71.416 40.7237 70.8272 41.7803 70.2101C42.903 69.5838 43.9266 68.9712 44.8512 68.3723C45.8324 67.6983 46.6437 67.0141 47.2853 66.3197C45.3041 67.5358 43.2238 68.7655 41.0445 70.009C38.9218 71.1773 36.8462 72.2045 34.8178 73.0905L35.4688 73.4044ZM31.0678 73.7099C31.2848 73.8145 31.464 73.8906 31.6055 73.9384C31.8131 73.977 32.0206 74.0156 32.2281 74.0542C32.4263 74.0268 32.5866 73.971 32.7093 73.8868C31.9169 73.5252 30.7706 73.0443 29.2707 72.444C27.7707 71.8438 26.4028 71.4608 25.1669 71.2951C25.1009 71.3042 25.0254 71.4829 24.9405 71.8312C24.8461 72.1134 24.7518 72.3957 24.6574 72.6779C25.931 72.6365 27.0914 72.7453 28.1385 73.0043C29.1763 73.1974 30.1527 73.4325 31.0678 73.7099ZM22.6052 78.8167C23.3033 78.5183 24.0392 78.2483 24.8128 78.0068C25.577 77.6992 26.4072 77.3826 27.3034 77.0568C27.3128 77.1228 27.3128 77.1228 27.3034 77.0568C27.36 76.9817 27.3223 76.9532 27.1902 76.9715C26.86 77.0171 26.2751 76.9297 25.4355 76.7093C24.6525 76.4137 23.9827 76.2035 23.4261 76.0785C23.1713 76.6521 22.9779 77.1836 22.8458 77.673C22.7043 78.0963 22.6241 78.4775 22.6052 78.8167ZM41.1147 78.9838C41.1713 78.9086 40.9732 78.7005 40.5204 78.3593C40.1242 77.9429 39.6667 77.5687 39.1478 77.2367C38.6196 76.8386 38.0677 76.5111 37.4922 76.2541C36.9734 75.922 36.6149 75.7697 36.4168 75.7971C36.3507 75.8062 36.129 75.9041 35.7516 76.0909C36.0347 76.1864 36.3271 76.3479 36.629 76.5753C36.9309 76.8028 37.1903 76.9688 37.4073 77.0735L41.1147 78.9838ZM65.5388 91.5578C65.6048 91.5486 65.4161 91.4065 64.9727 91.1313C64.5388 90.922 63.9964 90.6605 63.3454 90.3467C62.7605 90.0238 62.1473 89.7384 61.5058 89.4905C60.9398 89.2996 60.5624 89.2508 60.3738 89.3442L59.7369 89.836C60.086 89.9223 60.402 90.0133 60.685 90.1087C61.0341 90.1951 61.3171 90.2906 61.5341 90.3952L65.5388 91.5578ZM48.9573 27.122C47.3063 27.3502 45.7072 27.7058 44.16 28.1889C42.6788 28.6628 41.1694 29.1743 39.6316 29.7234C41.4335 29.1378 43.1505 28.6649 44.7826 28.3047C46.4808 27.9354 47.8252 27.6823 48.8157 27.5454L48.9573 27.122ZM18.9539 85.0755C18.5765 85.7334 18.133 86.6359 17.6235 87.7831C17.114 88.9304 16.5903 90.2141 16.0525 91.6345L17.1705 90.2685C17.5008 89.2807 17.8074 88.3634 18.0905 87.5167C18.4302 86.5948 18.718 85.7811 18.9539 85.0755ZM25.2382 61.1903C24.9835 61.7639 24.724 62.3045 24.4598 62.8121C24.2617 63.3106 24.04 63.8797 23.7946 64.5193L24.3041 64.5498C24.4268 63.9944 24.6107 63.397 24.8561 62.7574C25.092 62.0518 25.3514 61.5111 25.6345 61.1355L25.5213 61.0502L25.2241 61.0913L25.2382 61.1903ZM33.6715 74.2585L32.9216 73.9584C32.5914 74.004 32.398 74.0644 32.3414 74.1395L33.1055 74.5386L33.6715 74.2585Z" fill="white"/>
<path d="M87.4074 48.2225C88.0426 47.0032 88.8873 45.694 89.9414 44.2951C90.9899 42.8566 92.1289 41.4863 93.3584 40.1841C94.5822 38.8423 95.8257 37.6391 97.0888 36.5746C98.3463 35.4704 99.4818 34.6458 100.495 34.1006C101.209 33.7185 101.71 33.5477 101.998 33.5883C102.281 33.5892 102.457 33.6859 102.524 33.8784C101.692 34.2771 100.993 34.6169 100.427 34.8978C99.8604 35.1786 99.3394 35.4935 98.8637 35.8426C98.4219 36.1465 97.9886 36.5097 97.5637 36.9324C97.1388 37.3551 96.6657 37.8653 96.1444 38.463C97.0847 37.6858 98.0758 36.9822 99.1177 36.3524C100.154 35.6829 101.236 35.0475 102.362 34.4462L104.545 33.1727L105.055 32.9199C104.698 32.9696 104.441 33.0055 104.282 33.0276C104.124 33.0497 104.217 32.9963 104.563 32.8674C105.785 32.3738 107.008 32.0217 108.231 31.8109C109.453 31.6001 110.701 31.5676 111.974 31.7132C112.262 31.7538 112.554 31.8141 112.848 31.8943C113.182 31.9689 113.459 32.0717 113.679 32.2025C114.698 32.5452 115.368 32.997 115.69 33.558C116.051 34.1134 115.974 34.8511 115.458 35.7711C115.265 36.1211 115.109 36.4458 114.99 36.7451C114.91 37.0389 114.746 37.3041 114.497 37.5408C114.281 37.7323 114.072 37.9635 113.868 38.2342C113.664 38.505 113.479 38.773 113.315 39.0382C113.598 38.7564 113.864 38.4972 114.114 38.2605C114.397 37.9787 114.658 37.6799 114.896 37.364C115.094 37.0536 115.293 36.7433 115.491 36.4329C115.723 36.0774 115.976 35.7192 116.248 35.3582C115.986 36.3639 115.547 37.2531 114.929 38.0257C114.062 39.3178 113.025 40.4114 111.818 41.3065C110.612 42.2016 109.332 43.006 107.979 43.7196C106.926 44.2703 105.879 44.7192 104.837 45.0663C103.795 45.4134 102.689 45.5878 101.518 45.5895C100.952 45.5876 100.372 45.4867 99.7778 45.2868C99.2179 45.0417 98.6778 44.7939 98.1575 44.5433C97.8353 44.2651 97.5413 44.0436 97.2755 43.8787C97.0438 43.6687 96.8348 43.3343 96.6486 42.8757C98.2382 43.2599 99.8197 43.302 101.393 43.0019C102.186 42.8915 102.95 42.7244 103.686 42.5007C104.455 42.2318 105.194 41.8865 105.902 41.4648C104.662 41.8395 103.414 42.1548 102.158 42.4107C100.901 42.6666 99.6395 42.6001 98.3724 42.2113C99.5325 42.1304 100.684 41.9901 101.828 41.7903C103.01 41.5851 104.202 41.2979 105.402 40.9287C106.642 40.5539 107.845 40.0632 109.011 39.4564C110.172 38.8099 111.273 38.0304 112.316 37.1178C112.486 36.8922 112.661 36.7061 112.843 36.5597C113.018 36.3737 113.191 36.1679 113.361 35.9422C114.058 35.1585 114.33 34.3734 114.179 33.5868C114.603 34.0124 114.667 34.4678 114.372 34.9532C114.219 35.2976 114.009 35.6701 113.743 36.0708C113.516 36.4658 113.264 36.8241 112.986 37.1455C112.527 37.6133 112.043 38.0443 111.533 38.4384C111.057 38.7875 110.568 39.1788 110.063 39.6126C110.097 39.5675 110.174 39.5366 110.293 39.52L110.624 39.2921C111.224 38.9662 111.782 38.6259 112.297 38.2714C112.807 37.8772 113.306 37.4039 113.793 36.8513C113.923 36.6312 114.071 36.3885 114.235 36.1233C114.399 35.8581 114.547 35.6154 114.677 35.3953C115.296 33.7744 114.808 32.8934 113.212 32.7523C112.635 32.6712 112.052 32.6918 111.463 32.8142C110.914 32.9312 110.374 33.1075 109.842 33.3432C110.385 33.1867 110.914 33.0725 111.429 33.0008C111.944 32.929 112.493 32.9534 113.076 33.0742C108.542 34.1503 104.415 35.816 100.694 38.0712C97.0137 40.3208 93.762 43.4597 90.9393 47.488C90.9904 47.2789 91.0444 47.0896 91.1012 46.9202C91.1976 46.7452 91.3308 46.5449 91.5008 46.3192C91.1664 46.8101 90.832 47.301 90.4975 47.7918C90.1575 48.2431 89.8599 48.7086 89.6047 49.1885C89.5819 49.3128 89.5393 49.4399 89.4769 49.5697C89.4145 49.6996 89.2899 49.8179 89.103 49.9248C88.6494 50.7149 88.1984 51.6663 87.7501 52.7788C87.2961 53.8518 86.848 54.8229 86.4056 55.6923C86.4792 55.6417 86.7849 55.5183 87.3227 55.3222C87.9001 55.1205 88.5964 54.9023 89.4115 54.6676C90.221 54.3932 91.0928 54.1303 92.0267 53.879C92.9947 53.5825 93.9287 53.3312 94.8287 53.125C95.7682 52.9133 96.6144 52.7549 97.3671 52.65C98.1539 52.5 98.7537 52.4568 99.1667 52.5204C98.7197 52.5019 98.3093 52.5995 97.9356 52.8131C97.5619 53.0267 97.1656 53.2233 96.7466 53.4029C97.2108 53.2574 97.6664 53.1939 98.1134 53.2124C98.9962 53.1701 99.709 53.3535 100.252 53.7625C100.834 54.1659 101.142 54.7692 101.175 55.5724C101.208 56.3755 100.845 57.3752 100.085 58.5715C100.017 58.6618 99.9234 58.7152 99.8046 58.7318C99.7253 58.7428 99.6319 58.7962 99.5243 58.892C99.5642 58.6037 99.6268 58.3325 99.712 58.0783C99.8311 57.779 99.9361 57.522 100.027 57.3074C100.288 56.5845 100.272 56.0415 99.9779 55.6786C99.6841 55.3157 99.226 55.0766 98.6037 54.9614C97.9814 54.8463 97.2514 54.8268 96.4138 54.9032C95.6159 54.974 94.8065 55.107 93.9858 55.3022C93.1595 55.4577 92.3953 55.6248 91.6935 55.8034C91.0312 55.9765 90.5246 56.1077 90.1737 56.197C91.2829 56.0424 92.3554 55.9131 93.3911 55.8091C94.4663 55.6997 95.4988 55.8586 96.4886 56.2861C95.9228 56.2842 95.3767 56.2795 94.8504 56.2721C94.3242 56.2647 93.8064 56.3167 93.297 56.4281C92.1197 56.6729 90.9478 57.0988 89.7815 57.7056C88.6094 58.2728 87.4348 58.6788 86.2575 58.9237C85.8613 58.9789 85.5584 59.1221 85.3488 59.3533C85.1788 59.5789 85.02 59.8837 84.8724 60.2678C84.0325 62.3234 83.3369 64.3993 82.7856 66.4955C82.2682 68.5465 81.8103 70.5893 81.4119 72.6237C81.3551 72.7932 81.2701 72.906 81.1568 72.9622L81.2192 70.4091L81.4683 67.8907C81.531 67.478 81.5938 67.0654 81.6565 66.6528C81.7532 66.1951 81.8103 65.7429 81.8278 65.2962C81.2035 66.8775 80.7882 68.7932 80.5819 71.0432C80.4152 73.2877 80.5992 75.5843 81.134 77.9329C80.206 77.9411 79.5837 77.8259 79.2671 77.5873C78.9505 77.3488 78.7785 76.8477 78.7511 76.0842C78.7461 75.4791 78.7438 75.0351 78.7441 74.7524C78.7897 74.5037 78.8183 74.2776 78.8298 74.0741C78.881 73.865 78.9265 73.6163 78.9665 73.3281C79.0121 73.0794 79.0522 72.6497 79.0868 72.0391C79.0475 71.7619 79.0053 71.6062 78.9601 71.5721C78.8973 71.9847 78.8292 72.2164 78.7555 72.267C78.6875 72.3573 78.6337 72.4052 78.5941 72.4107C78.5545 72.4162 78.5007 72.4641 78.4327 72.5543C78.4043 72.6391 78.3587 72.8877 78.296 73.3004C78.2748 72.0109 78.3384 70.8914 78.4866 69.9419C78.6293 68.9527 78.8199 68.0175 79.0586 67.1361C79.2917 66.2151 79.5616 65.2688 79.8683 64.2971C80.2146 63.32 80.5781 62.1789 80.9587 60.8738C80.9984 60.8683 80.9503 60.8144 80.8146 60.7122C79.8972 61.3651 78.9825 62.0378 78.0707 62.7303C77.1532 63.3832 76.2045 64.101 75.2247 64.8838C76.1316 63.5862 77.1486 62.4953 78.2757 61.6113C79.4028 60.7272 80.5525 59.8602 81.7248 59.0102C79.8222 60.1235 78.0355 61.3419 76.3646 62.6652C74.6938 63.9885 73.3648 65.7286 72.3777 67.8855C71.7663 68.1323 71.2285 68.3284 70.7643 68.4739C70.3397 68.6138 69.9492 68.7086 69.5926 68.7583C69.2757 68.8025 69.123 68.7228 69.1345 68.5193C69.0837 68.4456 69.3755 68.0818 70.0101 67.428C70.639 66.7345 71.3613 65.9877 72.1771 65.1874C73.0325 64.3816 73.8737 63.6182 74.7007 62.8971C75.5277 62.176 76.1253 61.6889 76.4934 61.4356C77.1844 60.8951 77.9064 60.431 78.6595 60.0433C79.4521 59.6501 80.2562 59.1947 81.0716 58.6772C81.2473 58.4912 81.4399 58.2826 81.6496 58.0515C81.8988 57.8148 82.066 57.5693 82.1512 57.3152C83.1156 55.2826 84.0629 53.2726 84.9932 51.2851C85.918 49.2581 86.8823 47.2255 87.8863 45.1874C88.1246 44.5887 88.5045 43.9906 89.0258 43.3929C89.1278 43.2575 89.2524 43.1392 89.3996 43.0379C89.5469 42.9366 89.7706 42.8045 90.0707 42.6415L86.7191 48.9243C86.8095 48.9924 86.9142 49.0182 87.033 49.0017C87.0954 48.8718 87.1578 48.742 87.2202 48.6121C87.277 48.4426 87.3394 48.3128 87.4074 48.2225ZM100.067 37.4922C99.9198 37.5935 99.7782 37.7344 99.6421 37.9149C99.5005 38.0558 99.4663 38.2423 99.5396 38.4744C100.276 37.968 100.998 37.5038 101.706 37.0821C102.448 36.6152 103.189 36.1484 103.931 35.6815C103.659 35.7597 103.388 35.838 103.116 35.9162C102.878 35.9494 102.666 36.0194 102.479 36.1262C102.071 36.3849 101.661 36.6239 101.248 36.843C100.829 37.0226 100.435 37.239 100.067 37.4922ZM106.77 32.6203C106.492 32.659 106.235 32.6949 105.997 32.728C105.799 32.7556 105.604 32.803 105.411 32.8702C105.609 32.8426 105.816 32.8744 106.031 32.9656C106.139 32.8699 106.385 32.7548 106.77 32.6203ZM95.8721 53.6459L95.5155 53.6956C95.5267 53.7748 95.5126 53.8172 95.4729 53.8227L95.8721 53.6459Z" fill="white"/>
</g>
<defs>
<clipPath id="clip0_1064_6353">
<rect width="120" height="120" fill="white"/>
</clipPath>
</defs>
</svg>
