<svg width="50" height="30" viewBox="0 0 50 30" fill="none" xmlns="http://www.w3.org/2000/svg">
<path d="M5.44174 29.455C6.20282 26.1671 6.90302 23.3967 7.51188 20.6264C7.75543 19.5609 8.30341 18.9825 9.36893 18.7389C10.9215 18.3736 12.4437 17.8256 13.9963 17.4603C17.1624 16.7297 19.6892 14.7509 22.4595 13.2287C25.1994 11.737 27.8175 10.093 30.527 8.54044C31.1967 8.14467 31.7447 8.11423 32.2623 8.96664C33.1755 10.4279 34.2106 11.8588 35.3675 13.1069C35.9459 13.7158 36.9505 14.2638 37.7725 14.2942C40.8473 14.416 43.9525 14.416 47.0577 14.2942C49.7671 14.2029 49.9802 15.5119 49.2192 17.7343C47.7579 21.9964 44.6831 25.0102 41.0604 27.5066C40.6646 27.7806 39.9948 27.7806 39.4469 27.7501C37.4985 27.6588 35.7632 28.085 33.9671 28.9679C32.8407 29.5158 30.9532 29.455 29.7659 28.8765C26.9042 27.4761 24.347 27.4153 21.4549 28.8765C20.2372 29.4854 18.2888 29.3636 17.0102 28.8157C14.1181 27.5675 11.5304 27.263 8.72961 28.9679C7.93809 29.4854 6.72036 29.3027 5.44174 29.455ZM34.1193 14.3551C33.0233 12.9243 32.3231 11.9196 31.5012 11.0063C31.2576 10.7324 30.5574 10.5497 30.2834 10.7019C27.7262 12.1632 25.2299 13.7158 22.7031 15.2684C22.7335 15.3902 22.764 15.4815 22.7944 15.6033C26.4172 15.2379 30.0399 14.8118 34.1193 14.3551Z" fill="#0E2A36"/>
<path d="M16.3405 14.7508C16.6144 14.3246 16.8275 13.8679 17.132 13.4722C19.6588 10.2147 22.1856 6.95731 24.7732 3.73032C25.5343 2.78658 25.6865 2.0255 24.7124 1.20354C25.7474 -0.349071 26.9347 -0.409956 28.1829 1.08176C27.4218 1.96462 27.2696 2.84747 28.2438 3.79121C28.8831 4.40008 29.3702 5.16116 29.7964 5.95269C29.979 6.28756 29.7355 6.86598 29.6746 7.32263C29.2484 7.20086 28.7004 7.2313 28.4264 6.95731C27.7567 6.318 27.2087 5.55692 26.5694 4.73496C23.1293 8.05327 21.2418 12.8024 16.3405 14.7508Z" fill="#0E2A36"/>
<path d="M5.31996 20.2612C4.9242 22.1791 4.58932 23.9144 4.19356 25.6496C3.91957 26.8065 3.52381 27.9633 3.18893 29.1202C2.8845 30.1857 2.00164 30.0943 1.39278 29.8204C0.8448 29.6072 0.144605 28.9375 0.114162 28.4504C-0.0380541 26.228 -0.0380541 24.0057 0.114162 21.7833C0.144605 21.2354 0.93613 20.4438 1.48411 20.3221C2.61051 20.1089 3.85869 20.2612 5.31996 20.2612Z" fill="#0E2A36"/>
</svg>
