<svg width="34" height="20" viewBox="0 0 34 20" xmlns="http://www.w3.org/2000/svg">
<path d="M3.62842 19.6355C4.13581 17.4436 4.6026 15.5967 5.00851 13.7498C5.17088 13.0395 5.5362 12.6539 6.24654 12.4915C7.28161 12.248 8.29638 11.8827 9.33145 11.6391C11.4422 11.152 13.1267 9.83281 14.9736 8.81803C16.8002 7.82355 18.5456 6.7276 20.3519 5.69253C20.7984 5.42868 21.1637 5.40839 21.5088 5.97666C22.1176 6.95085 22.8077 7.90474 23.5789 8.73685C23.9645 9.14276 24.6343 9.50808 25.1822 9.52838C27.2321 9.60956 29.3022 9.60956 31.3724 9.52838C33.1787 9.46749 33.3207 10.3402 32.8134 11.8218C31.8392 14.6631 29.7893 16.6724 27.3742 18.3366C27.1103 18.5193 26.6638 18.5193 26.2985 18.499C24.9996 18.4381 23.8427 18.7222 22.6453 19.3108C21.8944 19.6761 20.6361 19.6355 19.8445 19.2499C17.9368 18.3163 16.2319 18.2757 14.3039 19.2499C13.492 19.6558 12.1931 19.5747 11.3407 19.2093C9.41264 18.3772 7.68752 18.1743 5.82033 19.3108C5.29265 19.6558 4.48083 19.5341 3.62842 19.6355ZM22.7468 9.56897C22.0161 8.61508 21.5494 7.94533 21.0014 7.33646C20.839 7.1538 20.3722 7.03203 20.1896 7.13351C18.4847 8.10769 16.8205 9.14276 15.136 10.1778C15.1563 10.259 15.1766 10.3199 15.1969 10.4011C17.612 10.1575 20.0272 9.8734 22.7468 9.56897Z" fill=""/>
<path d="M10.8937 9.83288C11.0763 9.54874 11.2184 9.24431 11.4214 8.98047C13.1059 6.80885 14.7904 4.63723 16.5155 2.4859C17.0229 1.85674 17.1244 1.34936 16.4749 0.80138C17.165 -0.233691 17.9565 -0.274281 18.7886 0.720199C18.2812 1.30877 18.1798 1.89734 18.8292 2.5265C19.2554 2.93241 19.5802 3.4398 19.8643 3.96748C19.9861 4.19073 19.8237 4.57635 19.7831 4.88078C19.499 4.7996 19.1337 4.81989 18.951 4.63723C18.5045 4.21102 18.1392 3.70364 17.713 3.15566C15.4196 5.36787 14.1613 8.53397 10.8937 9.83288Z" fill=""/>
<path d="M3.54701 13.5064C3.28317 14.785 3.05992 15.9419 2.79607 17.0987C2.61341 17.87 2.34957 18.6412 2.12632 19.4124C1.92337 20.1228 1.3348 20.0619 0.928885 19.8792C0.563566 19.7371 0.0967699 19.2906 0.0764744 18.9659C-0.0250032 17.4843 -0.0250032 16.0028 0.0764744 14.5212C0.0967699 14.1559 0.624453 13.6282 0.989772 13.547C1.74071 13.4049 2.57282 13.5064 3.54701 13.5064Z" fill=""/>
</svg>
