<svg width="35" height="22" viewBox="0 0 35 22" fill="none" xmlns="http://www.w3.org/2000/svg">
<path d="M3.83984 20.7843C4.37689 18.4642 4.87097 16.5094 5.30061 14.5546C5.47246 13.8027 5.85913 13.3945 6.611 13.2227C7.70657 12.9649 8.78065 12.5782 9.87623 12.3205C12.1103 11.8049 13.8933 10.4086 15.8482 9.33449C17.7815 8.28188 19.629 7.12187 21.5408 6.02629C22.0134 5.74703 22.4001 5.72555 22.7653 6.32704C23.4098 7.35816 24.1401 8.36781 24.9564 9.24856C25.3646 9.6782 26.0735 10.0649 26.6535 10.0864C28.8232 10.1723 31.0143 10.1723 33.2055 10.0864C35.1173 10.0219 35.2677 10.9456 34.7307 12.5138C33.6995 15.5212 31.5299 17.6479 28.9735 19.4094C28.6943 19.6028 28.2217 19.6028 27.835 19.5813C26.4602 19.5169 25.2357 19.8176 23.9683 20.4406C23.1735 20.8273 21.8416 20.7843 21.0038 20.3761C18.9845 19.388 17.18 19.345 15.1393 20.3761C14.28 20.8058 12.9052 20.7198 12.0029 20.3332C9.96216 19.4524 8.1362 19.2376 6.15988 20.4406C5.60135 20.8058 4.74208 20.6769 3.83984 20.7843ZM24.0757 10.1293C23.3023 9.11967 22.8083 8.41077 22.2283 7.76632C22.0564 7.57298 21.5623 7.44409 21.369 7.5515C19.5645 8.58263 17.803 9.6782 16.02 10.7738C16.0415 10.8597 16.063 10.9241 16.0845 11.0101C18.6408 10.7523 21.1971 10.4515 24.0757 10.1293Z" fill="white"/>
<path d="M11.5303 10.4087C11.7236 10.1079 11.874 9.78568 12.0888 9.50642C13.8718 7.20786 15.6548 4.90931 17.4807 2.63224C18.0178 1.96631 18.1252 1.42926 17.4378 0.849255C18.1681 -0.246316 19.0059 -0.289279 19.8867 0.763329C19.3496 1.3863 19.2422 2.00927 19.9297 2.67521C20.3808 3.10484 20.7245 3.64189 21.0252 4.20042C21.1541 4.43672 20.9823 4.84487 20.9393 5.1671C20.6386 5.08117 20.2519 5.10265 20.0585 4.90931C19.5859 4.45819 19.1993 3.92115 18.7482 3.34114C16.3207 5.68266 14.9888 9.03382 11.5303 10.4087Z" fill="white"/>
<path d="M3.75394 14.2969C3.47468 15.6503 3.23838 16.8747 2.95912 18.0992C2.76578 18.9155 2.48652 19.7318 2.25022 20.5481C2.0354 21.3 1.41243 21.2356 0.982791 21.0422C0.596119 20.8918 0.102039 20.4192 0.0805567 20.0755C-0.0268522 18.5074 -0.0268522 16.9392 0.0805567 15.371C0.102039 14.9844 0.660565 14.4258 1.04724 14.3399C1.84206 14.1895 2.72282 14.2969 3.75394 14.2969Z" fill="white"/>
</svg>
