<svg width="30" height="35" viewBox="0 0 30 35" fill="none" xmlns="http://www.w3.org/2000/svg">
<path d="M14.9009 11.1329C11.8077 11.1464 9.33585 8.60134 9.34598 5.54998C9.35949 2.52225 11.828 -0.053172 15.0225 0.000834306C18.0583 0.0514652 20.5201 2.53576 20.4998 5.62762C20.4795 8.6891 17.9232 11.1801 14.9009 11.1329Z" fill="white"/>
<path d="M6.59391 22.9499C5.42213 24.1246 4.54752 25.4781 3.95319 27.0139C3.22716 27.0139 2.50789 27.0139 1.76498 27.0139C1.76498 26.9498 1.76498 26.889 1.76498 26.8283C1.76498 25.981 1.76498 25.1338 1.76498 24.2866C1.76498 23.382 1.74809 22.4774 1.77511 21.5728C1.82576 19.9526 2.31203 18.464 3.24405 17.1341C4.31452 15.6051 5.76657 14.5486 7.43813 13.7621C8.41742 13.3031 9.44061 12.9723 10.4908 12.7326C10.5381 12.7225 10.6124 12.7427 10.6495 12.7731C11.6964 13.6777 12.7364 14.5857 13.7799 15.4937C14.1817 15.8447 14.5836 16.1958 14.999 16.5569C15.2286 16.3578 15.4582 16.162 15.6845 15.9662C16.89 14.9199 18.0922 13.8701 19.2943 12.8204C19.3889 12.736 19.4699 12.7157 19.5915 12.7461C21.3306 13.1647 22.9718 13.806 24.4441 14.8389C25.8691 15.8414 26.9734 17.1071 27.6352 18.7307C27.9493 19.5003 28.1553 20.2969 28.2025 21.1238C28.2329 21.6673 28.2262 22.2141 28.2295 22.7575C28.2363 24.1009 28.2363 25.4443 28.2397 26.7878C28.2397 26.8553 28.2397 26.9228 28.2397 27.0038C27.5103 27.0038 26.7876 27.0038 26.0481 27.0038C25.4639 25.4815 24.5724 24.1414 23.4276 22.9398C23.7687 22.4504 24.0996 21.9576 24.4508 21.4783C24.8696 20.9011 25.0823 20.2699 25.035 19.5543C24.954 18.3391 24.1131 17.2658 22.8569 16.9957C21.5231 16.7122 20.3918 17.2523 19.7198 18.4404C19.4429 18.9298 19.1728 19.4193 18.8992 19.9121C18.8722 19.9593 18.8452 20.0066 18.8182 20.0538C18.4332 19.9492 18.055 19.8378 17.6768 19.7467C16.5287 19.4632 15.3603 19.3788 14.1817 19.4598C13.2227 19.5273 12.2806 19.7028 11.3688 20.0167C11.2236 20.0673 11.1662 20.0336 11.0987 19.9053C10.7981 19.3518 10.4976 18.8016 10.1802 18.2581C9.59933 17.2725 8.38028 16.7325 7.28955 16.9586C6.05361 17.2151 5.16887 18.1299 5.00002 19.3079C4.89196 20.0673 5.05743 20.7559 5.49305 21.3804C5.77671 21.7854 6.05023 22.1972 6.33051 22.6023C6.41493 22.7272 6.50273 22.8352 6.59391 22.9499Z" fill="white"/>
<path d="M21.5232 23.1696C23.6979 24.9653 24.9777 27.2538 25.3458 30.0183C25.6362 30.0183 25.9131 30.0284 26.1934 30.0149C26.7202 29.9913 27.2503 29.9575 27.7771 29.9271C28.0642 29.9136 28.3512 29.8934 28.6349 29.89C29.4251 29.8866 30.0261 30.5347 29.9991 31.3516C29.9755 32.1076 29.317 32.6983 28.5538 32.6612C27.7501 32.6207 26.9464 32.587 26.1461 32.5498C25.8827 32.5363 25.6227 32.5194 25.3525 32.5026C25.312 32.7793 25.2715 33.0325 25.2344 33.2857C25.1634 33.7447 24.7818 34.1363 24.3665 34.1734C23.8633 34.2173 23.4379 33.9472 23.2724 33.4882C23.1812 33.2316 23.2454 32.9785 23.2893 32.7253C23.4682 31.7093 23.4581 30.6967 23.2589 29.6807C22.982 28.2631 22.3843 26.9973 21.4523 25.8969C20.169 24.378 18.5515 23.389 16.5862 23.038C13.5706 22.5013 10.9839 23.362 8.86326 25.5594C7.75227 26.707 7.06676 28.0943 6.75609 29.6672C6.54672 30.7271 6.54672 31.7836 6.75609 32.8435C6.78986 33.0122 6.8135 33.1844 6.83038 33.3599C6.88779 33.9709 6.43191 34.3793 5.96928 34.4434C5.43573 34.5177 4.98661 34.2071 4.85153 33.6434C4.77386 33.3228 4.72321 32.9954 4.67931 32.668C4.66243 32.5397 4.61853 32.5093 4.50034 32.5161C3.59196 32.5667 2.6802 32.6106 1.77182 32.6545C1.46453 32.668 1.15723 32.6916 0.860065 32.5667C0.255604 32.3135 -0.102345 31.6621 0.0259764 31.0174C0.150921 30.3761 0.718236 29.8833 1.35984 29.9001C2.17367 29.9238 2.9875 29.9778 3.80132 30.0183C4.04784 30.0318 4.29435 30.0419 4.54086 30.0588C4.63541 30.0655 4.66243 30.0318 4.67593 29.9373C4.87855 28.3947 5.39859 26.9703 6.23943 25.6606C6.67167 24.9889 7.17482 24.3712 7.74889 23.8177C7.97852 23.5949 8.22503 23.3924 8.4783 23.1662C8.30607 22.9097 8.13723 22.6565 7.96163 22.4034C7.76577 22.1165 7.56316 21.8329 7.36393 21.5494C7.11741 21.2017 6.86077 20.8608 6.62439 20.5064C6.10435 19.7233 6.49945 18.6668 7.40783 18.4069C8.01567 18.2314 8.67415 18.4947 8.98483 19.0449C9.4711 19.909 9.95399 20.7798 10.4369 21.6473C10.4774 21.7182 10.5213 21.7891 10.5618 21.8599C13.5267 20.53 16.4815 20.53 19.4498 21.8599C19.5781 21.6338 19.7064 21.4043 19.8347 21.1781C20.2264 20.476 20.6114 19.774 21.0065 19.0752C21.4995 18.201 22.6645 18.0964 23.3062 18.8693C23.6979 19.3385 23.7249 20.0136 23.3568 20.5435C22.9685 21.1072 22.5632 21.6608 22.1715 22.2211C21.952 22.5316 21.7427 22.8456 21.5232 23.1696Z" fill="white"/>
<path d="M22.327 30.214C22.4553 30.9363 22.4519 31.635 22.3371 32.3101C22.0332 32.3101 21.7461 32.3202 21.4591 32.3067C20.9492 32.2831 20.4393 32.246 19.926 32.219C19.254 32.1818 18.5786 32.1514 17.9033 32.1143C17.7783 32.1076 17.7243 32.1447 17.677 32.2662C17.2819 33.2788 16.5424 33.9067 15.4787 34.0923C14.1144 34.332 12.8076 33.5725 12.3179 32.2493C12.274 32.1312 12.22 32.1109 12.1119 32.1143C11.3589 32.1582 10.6092 32.1987 9.85616 32.2392C9.32262 32.2662 8.78907 32.2898 8.25552 32.3168C8.06642 32.327 7.87731 32.3371 7.6747 32.3472C7.54976 31.6316 7.54976 30.9296 7.67132 30.214C8.12045 30.2342 8.56282 30.2511 9.00519 30.2747C9.7785 30.3152 10.5552 30.3557 11.3285 30.3962C11.5919 30.4097 11.8553 30.4165 12.122 30.4334C12.2267 30.4401 12.2706 30.4097 12.3179 30.3085C12.4631 29.9946 12.6353 29.6942 12.8109 29.3634C11.96 28.1449 11.082 26.8926 10.2006 25.6302C10.7544 25.161 11.3487 24.7863 12.0106 24.4927C12.2504 24.9247 12.4901 25.3568 12.7299 25.7888C13.2026 26.6361 13.6754 27.4833 14.1414 28.3373C14.2157 28.4723 14.2866 28.5026 14.4521 28.4891C14.8168 28.4588 15.1916 28.4655 15.5563 28.4925C15.6914 28.5026 15.7556 28.4858 15.8197 28.371C16.5086 27.1221 17.2042 25.88 17.8965 24.6344C17.9168 24.5939 17.9404 24.5568 17.9742 24.5028C18.6327 24.7863 19.227 25.1711 19.7876 25.6369C18.9062 26.896 18.0282 28.1516 17.1806 29.3634C17.3596 29.7178 17.525 30.0486 17.6973 30.3692C17.7175 30.4064 17.7952 30.4367 17.8458 30.4334C18.4571 30.4064 19.0717 30.376 19.6829 30.3456C20.5642 30.3017 21.4355 30.2578 22.327 30.214Z" fill="white"/>
</svg>
