<svg width="34" height="39" viewBox="0 0 34 39" fill="none" xmlns="http://www.w3.org/2000/svg">
<path d="M16.5485 12.7407C13.1133 12.7557 10.3681 9.92928 10.3794 6.54056C10.3944 3.17807 13.1358 0.317902 16.6835 0.37788C20.055 0.434108 22.7889 3.19307 22.7664 6.62678C22.7439 10.0267 19.905 12.7932 16.5485 12.7407Z" fill="#0E2A36"/>
<path d="M7.32299 25.8645C6.02166 27.1691 5.05035 28.6722 4.39031 30.3778C3.58401 30.3778 2.78521 30.3778 1.96016 30.3778C1.96016 30.3066 1.96016 30.2391 1.96016 30.1717C1.96016 29.2308 1.96016 28.2899 1.96016 27.349C1.96016 26.3444 1.94141 25.3397 1.97141 24.3351C2.02767 22.5358 2.5677 20.8827 3.60277 19.4057C4.79159 17.7076 6.40419 16.5343 8.26055 15.6609C9.34812 15.1511 10.4844 14.7837 11.6508 14.5176C11.7033 14.5063 11.7858 14.5288 11.827 14.5626C12.9896 15.5672 14.1447 16.5755 15.3035 17.5839C15.7498 17.9738 16.196 18.3636 16.6573 18.7647C16.9123 18.5436 17.1674 18.3261 17.4186 18.1087C18.7575 16.9467 20.0925 15.7808 21.4276 14.615C21.5326 14.5213 21.6226 14.4988 21.7576 14.5326C23.689 14.9974 25.5116 15.7096 27.1467 16.8567C28.7293 17.97 29.9556 19.3757 30.6907 21.1788C31.0395 22.0335 31.2682 22.9182 31.3207 23.8366C31.3545 24.4401 31.347 25.0474 31.3507 25.6509C31.3582 27.1428 31.3582 28.6348 31.362 30.1267C31.362 30.2017 31.362 30.2766 31.362 30.3666C30.5519 30.3666 29.7494 30.3666 28.9281 30.3666C28.2793 28.676 27.2892 27.1878 26.0179 25.8533C26.3967 25.3098 26.7642 24.7625 27.1542 24.2302C27.6192 23.5892 27.8555 22.8882 27.803 22.0935C27.713 20.744 26.7792 19.5519 25.3841 19.252C23.9028 18.9372 22.6464 19.5369 21.9001 20.8564C21.5926 21.4 21.2926 21.9435 20.9888 22.4908C20.9588 22.5433 20.9288 22.5958 20.8988 22.6483C20.4713 22.5321 20.0513 22.4083 19.6313 22.3071C18.3562 21.9923 17.0586 21.8985 15.7498 21.9885C14.6847 22.0635 13.6384 22.2584 12.6258 22.607C12.4646 22.6633 12.4008 22.6258 12.3258 22.4833C11.992 21.8686 11.6583 21.2575 11.3057 20.654C10.6607 19.5594 9.30687 18.9597 8.09554 19.2108C6.72296 19.4957 5.7404 20.5116 5.55289 21.8198C5.43288 22.6633 5.61664 23.428 6.10042 24.1215C6.41544 24.5713 6.71921 25.0286 7.03048 25.4784C7.12423 25.6171 7.22174 25.7371 7.32299 25.8645Z" fill="#0E2A36"/>
<path d="M23.9028 26.1081C26.318 28.1023 27.7393 30.6439 28.1481 33.714C28.4706 33.714 28.7781 33.7252 29.0894 33.7102C29.6744 33.684 30.2632 33.6465 30.8483 33.6128C31.167 33.5978 31.4858 33.5753 31.8008 33.5715C32.6784 33.5678 33.3459 34.2875 33.3159 35.1947C33.2897 36.0343 32.5584 36.6903 31.7108 36.6491C30.8183 36.6041 29.9257 36.5666 29.0369 36.5254C28.7444 36.5104 28.4556 36.4917 28.1556 36.4729C28.1106 36.7803 28.0656 37.0615 28.0243 37.3426C27.9456 37.8524 27.5218 38.2872 27.0605 38.3285C26.5017 38.3772 26.0292 38.0773 25.8454 37.5675C25.7442 37.2826 25.8154 37.0015 25.8642 36.7203C26.063 35.592 26.0517 34.4674 25.8304 33.3391C25.5229 31.7647 24.8591 30.359 23.8241 29.1369C22.399 27.4501 20.6026 26.3517 18.42 25.9619C15.071 25.3659 12.1984 26.3218 9.84321 28.7621C8.60938 30.0366 7.84808 31.5773 7.50306 33.3241C7.27055 34.5012 7.27055 35.6745 7.50306 36.8515C7.54056 37.039 7.56681 37.2301 7.58557 37.4251C7.64932 38.1036 7.14304 38.5571 6.62926 38.6284C6.03672 38.7108 5.53794 38.366 5.38793 37.7399C5.30168 37.3838 5.24542 37.0202 5.19667 36.6566C5.17792 36.5142 5.12916 36.4804 4.99791 36.4879C3.98909 36.5441 2.97653 36.5929 1.96772 36.6416C1.62645 36.6566 1.28518 36.6828 0.955156 36.5441C0.283865 36.263 -0.11366 35.5395 0.0288484 34.8235C0.167607 34.1113 0.797646 33.564 1.51019 33.5828C2.414 33.609 3.3178 33.669 4.22161 33.714C4.49538 33.729 4.76914 33.7402 5.04291 33.7589C5.14792 33.7664 5.17792 33.729 5.19292 33.624C5.41793 31.9109 5.99547 30.329 6.92928 28.8745C7.4093 28.1286 7.96809 27.4426 8.60563 26.8278C8.86065 26.5804 9.13441 26.3555 9.41568 26.1043C9.22442 25.8194 9.03691 25.5383 8.84189 25.2572C8.62438 24.9385 8.39937 24.6236 8.1781 24.3088C7.90433 23.9227 7.61932 23.544 7.3568 23.1504C6.77927 22.2808 7.21804 21.1075 8.22686 20.8188C8.9019 20.6239 9.63319 20.9163 9.97821 21.5273C10.5182 22.4869 11.0545 23.4541 11.5908 24.4175C11.6358 24.4962 11.6846 24.5749 11.7296 24.6536C15.0223 23.1767 18.3037 23.1767 21.6002 24.6536C21.7427 24.4025 21.8852 24.1476 22.0277 23.8964C22.4627 23.1167 22.8903 22.337 23.329 21.561C23.8766 20.5902 25.1704 20.474 25.8829 21.3324C26.318 21.8534 26.348 22.6032 25.9392 23.1917C25.5079 23.8177 25.0579 24.4325 24.6229 25.0547C24.3791 25.3996 24.1466 25.7482 23.9028 26.1081Z" fill="#0E2A36"/>
<path d="M24.7955 33.9317C24.938 34.7339 24.9343 35.5099 24.8067 36.2596C24.4692 36.2596 24.1505 36.2709 23.8317 36.2559C23.2654 36.2296 22.6991 36.1884 22.1291 36.1584C21.3828 36.1172 20.6327 36.0834 19.8827 36.0422C19.7439 36.0347 19.6839 36.0759 19.6314 36.2109C19.1927 37.3355 18.3714 38.0327 17.19 38.2389C15.6749 38.505 14.2236 37.6616 13.6798 36.1921C13.6311 36.0609 13.5711 36.0384 13.451 36.0422C12.6147 36.0909 11.7822 36.1359 10.9459 36.1809C10.3534 36.2109 9.76082 36.2371 9.16828 36.2671C8.95827 36.2784 8.74826 36.2896 8.52324 36.3008C8.38448 35.5061 8.38449 34.7264 8.51949 33.9317C9.01827 33.9542 9.50955 33.973 10.0008 33.9992C10.8596 34.0442 11.7222 34.0892 12.581 34.1342C12.8735 34.1492 13.166 34.1567 13.4623 34.1754C13.5786 34.1829 13.6273 34.1492 13.6798 34.0367C13.8411 33.6881 14.0323 33.3545 14.2273 32.9871C13.2823 31.6339 12.3072 30.2431 11.3284 28.8412C11.9435 28.3201 12.6035 27.904 13.3385 27.5779C13.6048 28.0577 13.8711 28.5375 14.1373 29.0173C14.6624 29.9582 15.1874 30.8991 15.7049 31.8475C15.7874 31.9975 15.8662 32.0312 16.05 32.0162C16.455 31.9825 16.8713 31.99 17.2763 32.02C17.4263 32.0312 17.4975 32.0125 17.5688 31.885C18.3338 30.498 19.1064 29.1186 19.8752 27.7353C19.8977 27.6903 19.9239 27.6491 19.9614 27.5891C20.6927 27.904 21.3528 28.3313 21.9753 28.8487C20.9965 30.2469 20.0215 31.6414 19.0801 32.9871C19.2789 33.3807 19.4627 33.7481 19.6539 34.1042C19.6764 34.1454 19.7627 34.1791 19.8189 34.1754C20.4977 34.1454 21.1803 34.1117 21.8591 34.0779C22.8379 34.0292 23.8054 33.9805 24.7955 33.9317Z" fill="#0E2A36"/>
</svg>
