<svg width="30" height="35" viewBox="0 0 30 35" fill="none" xmlns="http://www.w3.org/2000/svg">
<path d="M14.9009 11.1329C11.8077 11.1464 9.33585 8.60134 9.34598 5.54998C9.35949 2.52225 11.828 -0.053172 15.0225 0.000834306C18.0583 0.0514652 20.5201 2.53576 20.4998 5.62762C20.4795 8.6891 17.9232 11.1801 14.9009 11.1329Z" fill="#00A2D1"/>
<path d="M6.59391 22.9502C5.42213 24.1248 4.54752 25.4783 3.95319 27.0142C3.22716 27.0142 2.50789 27.0142 1.76498 27.0142C1.76498 26.95 1.76498 26.8893 1.76498 26.8285C1.76498 25.9813 1.76498 25.1341 1.76498 24.2868C1.76498 23.3822 1.74809 22.4776 1.77511 21.573C1.82576 19.9528 2.31203 18.4643 3.24405 17.1344C4.31452 15.6053 5.76657 14.5488 7.43813 13.7624C8.41742 13.3033 9.44061 12.9725 10.4908 12.7329C10.5381 12.7227 10.6124 12.743 10.6495 12.7734C11.6964 13.678 12.7364 14.586 13.7799 15.4939C14.1817 15.845 14.5836 16.196 14.999 16.5572C15.2286 16.358 15.4582 16.1623 15.6845 15.9665C16.89 14.9201 18.0922 13.8704 19.2943 12.8206C19.3889 12.7362 19.4699 12.716 19.5915 12.7464C21.3306 13.1649 22.9718 13.8062 24.4441 14.8391C25.8691 15.8416 26.9734 17.1074 27.6352 18.7309C27.9493 19.5005 28.1553 20.2971 28.2025 21.1241C28.2329 21.6675 28.2262 22.2143 28.2295 22.7578C28.2363 24.1012 28.2363 25.4446 28.2397 26.788C28.2397 26.8555 28.2397 26.923 28.2397 27.004C27.5103 27.004 26.7876 27.004 26.0481 27.004C25.4639 25.4817 24.5724 24.1417 23.4276 22.9401C23.7687 22.4506 24.0996 21.9578 24.4508 21.4785C24.8696 20.9013 25.0823 20.2701 25.035 19.5545C24.954 18.3394 24.1131 17.266 22.8569 16.996C21.5231 16.7124 20.3918 17.2525 19.7198 18.4407C19.4429 18.9301 19.1728 19.4195 18.8992 19.9123C18.8722 19.9596 18.8452 20.0068 18.8182 20.0541C18.4332 19.9495 18.055 19.8381 17.6768 19.7469C16.5287 19.4634 15.3603 19.379 14.1817 19.46C13.2227 19.5275 12.2806 19.703 11.3688 20.017C11.2236 20.0676 11.1662 20.0338 11.0987 19.9056C10.7981 19.352 10.4976 18.8018 10.1802 18.2584C9.59933 17.2728 8.38028 16.7327 7.28955 16.9589C6.05361 17.2154 5.16887 18.1301 5.00002 19.3081C4.89196 20.0676 5.05743 20.7562 5.49305 21.3806C5.77671 21.7857 6.05023 22.1975 6.33051 22.6025C6.41493 22.7274 6.50273 22.8354 6.59391 22.9502Z" fill="#00A2D1"/>
<path d="M21.5232 23.1694C23.6979 24.9651 24.9777 27.2536 25.3458 30.018C25.6362 30.018 25.9131 30.0282 26.1934 30.0147C26.7202 29.991 27.2503 29.9573 27.7771 29.9269C28.0642 29.9134 28.3512 29.8931 28.6349 29.8898C29.4251 29.8864 30.0261 30.5345 29.9991 31.3513C29.9755 32.1074 29.317 32.6981 28.5538 32.661C27.7501 32.6205 26.9464 32.5867 26.1461 32.5496C25.8827 32.5361 25.6227 32.5192 25.3525 32.5023C25.312 32.7791 25.2715 33.0323 25.2344 33.2854C25.1634 33.7445 24.7818 34.136 24.3665 34.1731C23.8633 34.217 23.4379 33.947 23.2724 33.4879C23.1812 33.2314 23.2454 32.9783 23.2893 32.7251C23.4682 31.7091 23.4581 30.6965 23.2589 29.6805C22.982 28.2628 22.3843 26.9971 21.4523 25.8967C20.169 24.3777 18.5515 23.3888 16.5862 23.0377C13.5706 22.501 10.9839 23.3618 8.86326 25.5591C7.75227 26.7068 7.06676 28.0941 6.75609 29.667C6.54672 30.7269 6.54672 31.7834 6.75609 32.8432C6.78986 33.012 6.8135 33.1842 6.83038 33.3597C6.88779 33.9706 6.43191 34.379 5.96928 34.4432C5.43573 34.5174 4.98661 34.2069 4.85153 33.6432C4.77386 33.3225 4.72321 32.9951 4.67931 32.6677C4.66243 32.5395 4.61853 32.5091 4.50034 32.5158C3.59196 32.5665 2.6802 32.6103 1.77182 32.6542C1.46453 32.6677 1.15723 32.6913 0.860065 32.5665C0.255604 32.3133 -0.102345 31.6618 0.0259764 31.0171C0.150921 30.3758 0.718236 29.883 1.35984 29.8999C2.17367 29.9235 2.9875 29.9775 3.80132 30.018C4.04784 30.0315 4.29435 30.0417 4.54086 30.0585C4.63541 30.0653 4.66243 30.0315 4.67593 29.937C4.87855 28.3945 5.39859 26.97 6.23943 25.6604C6.67167 24.9887 7.17482 24.371 7.74889 23.8174C7.97852 23.5947 8.22503 23.3921 8.4783 23.166C8.30607 22.9094 8.13723 22.6563 7.96163 22.4031C7.76577 22.1162 7.56316 21.8327 7.36393 21.5492C7.11741 21.2015 6.86077 20.8606 6.62439 20.5062C6.10435 19.7231 6.49945 18.6666 7.40783 18.4067C8.01566 18.2312 8.67415 18.4944 8.98483 19.0446C9.4711 19.9087 9.95399 20.7796 10.4369 21.6471C10.4774 21.7179 10.5213 21.7888 10.5618 21.8597C13.5267 20.5298 16.4815 20.5298 19.4498 21.8597C19.5781 21.6335 19.7064 21.404 19.8347 21.1779C20.2264 20.4758 20.6114 19.7737 21.0065 19.075C21.4995 18.2008 22.6645 18.0961 23.3062 18.8691C23.6979 19.3383 23.7249 20.0134 23.3568 20.5433C22.9685 21.107 22.5632 21.6606 22.1715 22.2209C21.952 22.5314 21.7427 22.8453 21.5232 23.1694Z" fill="#00A2D1"/>
<path d="M22.327 30.2142C22.4553 30.9365 22.4519 31.6353 22.3371 32.3103C22.0332 32.3103 21.7461 32.3205 21.4591 32.307C20.9492 32.2833 20.4393 32.2462 19.926 32.2192C19.254 32.1821 18.5786 32.1517 17.9033 32.1146C17.7783 32.1078 17.7243 32.1449 17.677 32.2665C17.2819 33.2791 16.5424 33.9069 15.4787 34.0925C14.1144 34.3322 12.8076 33.5727 12.3179 32.2496C12.274 32.1314 12.22 32.1112 12.1119 32.1146C11.3589 32.1584 10.6092 32.1989 9.85616 32.2394C9.32262 32.2665 8.78907 32.2901 8.25552 32.3171C8.06642 32.3272 7.87731 32.3373 7.6747 32.3475C7.54976 31.6319 7.54976 30.9298 7.67132 30.2142C8.12045 30.2345 8.56282 30.2513 9.00519 30.275C9.77849 30.3155 10.5552 30.356 11.3285 30.3965C11.5919 30.41 11.8553 30.4167 12.122 30.4336C12.2267 30.4404 12.2706 30.41 12.3179 30.3087C12.4631 29.9948 12.6353 29.6944 12.8109 29.3636C11.96 28.1451 11.082 26.8928 10.2006 25.6304C10.7544 25.1612 11.3487 24.7866 12.0106 24.4929C12.2504 24.925 12.4901 25.357 12.7299 25.7891C13.2026 26.6363 13.6754 27.4835 14.1414 28.3375C14.2157 28.4725 14.2866 28.5029 14.4521 28.4894C14.8168 28.459 15.1916 28.4658 15.5563 28.4928C15.6914 28.5029 15.7556 28.486 15.8197 28.3712C16.5086 27.1224 17.2042 25.8802 17.8965 24.6347C17.9168 24.5942 17.9404 24.5571 17.9742 24.503C18.6327 24.7866 19.227 25.1714 19.7876 25.6372C18.9062 26.8962 18.0282 28.1518 17.1806 29.3636C17.3596 29.718 17.525 30.0488 17.6973 30.3695C17.7175 30.4066 17.7952 30.437 17.8459 30.4336C18.4571 30.4066 19.0717 30.3762 19.6829 30.3459C20.5642 30.302 21.4355 30.2581 22.327 30.2142Z" fill="#00A2D1"/>
</svg>
