<svg width="40" height="40" viewBox="0 0 40 40" fill="none" xmlns="http://www.w3.org/2000/svg">
<path d="M19.9886 2.46522e-05C31.04 -0.0171182 39.9771 8.90858 40 19.9828C40.0228 31.0285 31.0857 39.9714 20.0114 39.9942C8.96572 40.0114 0.0171674 31.0743 2.46208e-05 20.0057C-0.0171182 8.96572 8.92001 0.0171675 19.9886 2.46522e-05ZM15.9943 27.9943C15.9943 28.6914 15.9829 29.3143 15.9943 29.9371C16.0171 30.8743 16.5314 31.6057 17.3371 31.8914C18.6114 32.3314 19.9486 31.4285 19.9943 30.0685C20.0171 29.3885 20 28.7085 20 27.9943C20.24 27.9943 20.4114 27.9943 20.5771 27.9943C22.3143 27.9943 24.0457 28 25.7828 27.9885C26.1028 27.9885 26.4457 27.96 26.7485 27.8457C27.64 27.52 28.1428 26.5657 27.9714 25.6114C27.8114 24.72 27.0285 24.0286 26.0857 24.0171C24.24 23.9943 22.4 24.0057 20.5543 24.0057C20.3886 24.0057 20.2171 24.0057 20.0457 24.0057C20.0457 23.3086 20.0457 22.6628 20.0457 21.9714C21.2686 21.9714 22.4571 22.0114 23.64 21.96C25.0686 21.8971 26.36 21.4114 27.4571 20.4743C29.2685 18.92 29.9543 16.4686 29.2285 14.1771C28.5085 11.9029 26.44 10.2172 23.9771 10.0686C22.0743 9.95429 20.1657 9.99429 18.2629 9.98286C16.8057 9.97715 16.0057 10.7886 16 12.2514C15.9943 13.9886 16 15.72 16 17.4571C16 17.6229 16 17.7886 16 18C15.6743 18 15.4114 17.9943 15.1486 18C14.6171 18.0114 14.0743 17.9657 13.56 18.0514C12.5771 18.2229 11.9371 19.1657 12.0286 20.2057C12.1086 21.1428 12.8914 21.9257 13.8514 21.9657C14.5486 21.9943 15.2514 21.9714 15.96 21.9714C15.96 22.68 15.96 23.32 15.96 23.9943C15.3257 23.9943 14.7314 23.9886 14.1429 23.9943C12.88 24.0057 12.0171 24.8228 12.0229 25.9943C12.0286 27.16 12.8914 27.9657 14.1657 27.9771C14.7429 27.9943 15.3314 27.9943 15.9943 27.9943Z" fill="#B44748"/>
<path d="M20.0287 14.0056C21.1715 14.0056 22.2801 13.9599 23.3829 14.017C24.3087 14.0627 25.0915 14.4399 25.4058 15.3999C25.7887 16.5542 25.0572 17.6742 23.7772 17.9142C23.5029 17.9656 23.2172 17.9942 22.9429 17.9942C21.9772 18.0056 21.0172 17.9999 20.0229 17.9999C20.0287 16.657 20.0287 15.3542 20.0287 14.0056Z" fill="#B44748"/>
</svg>
