<svg width="35" height="35" viewBox="0 0 35 35" fill="none" xmlns="http://www.w3.org/2000/svg">
<path d="M17.49 2.15707e-05C27.16 -0.0149784 34.98 7.79501 35 17.485C35.02 27.15 27.2 34.975 17.51 34.995C7.84501 35.01 0.0150215 27.19 2.15432e-05 17.505C-0.0149784 7.84501 7.80501 0.0150215 17.49 2.15707e-05ZM13.995 24.495C13.995 25.105 13.985 25.65 13.995 26.195C14.015 27.015 14.465 27.655 15.17 27.905C16.285 28.29 17.455 27.5 17.495 26.31C17.515 25.715 17.5 25.12 17.5 24.495C17.71 24.495 17.86 24.495 18.005 24.495C19.525 24.495 21.04 24.5 22.56 24.49C22.84 24.49 23.14 24.465 23.405 24.365C24.185 24.08 24.625 23.245 24.475 22.41C24.335 21.63 23.65 21.025 22.825 21.015C21.21 20.995 19.6 21.005 17.985 21.005C17.84 21.005 17.69 21.005 17.54 21.005C17.54 20.395 17.54 19.83 17.54 19.225C18.61 19.225 19.65 19.26 20.685 19.215C21.935 19.16 23.065 18.735 24.025 17.915C25.61 16.555 26.21 14.41 25.575 12.405C24.945 10.415 23.135 8.94001 20.98 8.81001C19.315 8.71001 17.645 8.74501 15.98 8.73501C14.705 8.73001 14.005 9.44001 14 10.72C13.995 12.24 14 13.755 14 15.275C14 15.42 14 15.565 14 15.75C13.715 15.75 13.485 15.745 13.255 15.75C12.79 15.76 12.315 15.72 11.865 15.795C11.005 15.945 10.445 16.77 10.525 17.68C10.595 18.5 11.28 19.185 12.12 19.22C12.73 19.245 13.345 19.225 13.965 19.225C13.965 19.845 13.965 20.405 13.965 20.995C13.41 20.995 12.89 20.99 12.375 20.995C11.27 21.005 10.515 21.72 10.52 22.745C10.525 23.765 11.28 24.47 12.395 24.48C12.9 24.495 13.415 24.495 13.995 24.495Z" fill="#00A2D1"/>
<path d="M17.525 12.2549C18.525 12.2549 19.495 12.2149 20.46 12.2649C21.27 12.3049 21.955 12.6349 22.23 13.4749C22.565 14.4849 21.925 15.4649 20.805 15.6749C20.565 15.7199 20.315 15.7449 20.075 15.7449C19.23 15.7549 18.39 15.7499 17.52 15.7499C17.525 14.5749 17.525 13.4349 17.525 12.2549Z" fill="#00A2D1"/>
</svg>
