<svg width="32" height="33" viewBox="0 0 32 33" fill="none" xmlns="http://www.w3.org/2000/svg">
<path d="M26.2355 32.0608C25.7921 31.7508 25.7525 31.5516 26.0423 31.0732C26.5066 30.3064 26.9776 29.5435 27.4298 28.77C27.4888 28.6687 27.5022 28.4889 27.4532 28.3829C26.7065 26.7546 25.9484 25.131 25.1815 23.512C25.1366 23.4168 24.9957 23.2967 24.9065 23.3027C23.6156 23.3886 22.5469 22.8921 21.6062 22.0635C20.0558 20.6982 18.8817 19.0592 18.0612 17.1625C17.3238 15.4591 16.6569 13.7322 16.1886 11.9335C16.137 11.7349 16.1001 11.5323 16.0102 11.3223C15.98 11.4571 15.9518 11.592 15.9189 11.7255C15.4755 13.5423 14.7985 15.2773 14.0719 16.9962C13.2507 18.9384 12.0699 20.6184 10.498 22.028C9.68819 22.7539 8.76502 23.2095 7.6768 23.3135C7.61507 23.3195 7.55201 23.3296 7.49029 23.3269C6.96697 23.3034 6.96697 23.3027 6.7496 23.7683C6.04447 25.2786 5.34471 26.7908 4.62952 28.2963C4.52687 28.5117 4.54432 28.6646 4.66843 28.8619C5.12935 29.5939 5.57081 30.3379 6.01831 31.0786C6.3068 31.5556 6.26252 31.7636 5.81502 32.0621C5.71036 32.0621 5.60637 32.0621 5.50171 32.0621C4.35445 31.5194 3.20786 30.9753 2.0606 30.4345C1.51381 30.1769 0.965007 29.9226 0.416202 29.6697C0.159914 29.5516 -0.0312951 29.3805 0.00426316 29.0746C0.0418342 28.7539 0.270615 28.6291 0.567157 28.5855C1.46416 28.452 2.3605 28.3091 3.25818 28.1802C3.45207 28.1521 3.56613 28.0789 3.65201 27.8917C4.39672 26.2728 5.15619 24.6606 5.90291 23.0424C5.94384 22.9532 5.95323 22.7781 5.89821 22.7264C5.11929 21.9911 4.84421 21.0431 4.75096 20.0253C4.57115 18.0522 5.03274 16.1857 5.79825 14.3937C6.64762 12.4044 7.71102 10.5266 8.95891 8.75737C9.10852 8.5447 9.28229 8.34812 9.45136 8.14953C9.64525 7.92075 9.88745 7.87378 10.1558 7.99857C11.9981 8.856 13.8405 9.71342 15.6794 10.5796C15.8129 10.6426 15.9156 10.7701 16.0129 10.8513C16.1866 10.7345 16.357 10.5863 16.5543 10.4937C18.2893 9.67719 20.0289 8.86942 21.7673 8.06097C22.2161 7.85232 22.406 7.86775 22.6878 8.25822C23.2419 9.02641 23.8042 9.7946 24.2885 10.6077C25.2641 12.2468 26.1946 13.914 26.7582 15.7536C27.1855 17.1498 27.4532 18.5668 27.305 20.0374C27.1976 21.1021 26.9017 22.083 26.0443 22.8203C26.6166 24.0488 27.1835 25.2658 27.7504 26.4822C27.9752 26.9639 28.1906 27.4503 28.4334 27.9226C28.4884 28.03 28.63 28.142 28.7474 28.1615C29.6209 28.3084 30.4992 28.4332 31.3754 28.5647C31.9148 28.6459 32.0007 28.7498 32 29.2228C32 29.508 31.8014 29.5898 31.6042 29.6817C30.3965 30.248 29.1862 30.8095 27.9786 31.3758C27.4995 31.6005 27.0239 31.8333 26.5468 32.0628C26.4449 32.0608 26.3402 32.0608 26.2355 32.0608ZM17.1152 11.4034C17.456 12.4474 17.7794 13.4564 18.1209 14.4594C18.1558 14.5628 18.2866 14.6728 18.3946 14.7057C19.4117 15.0129 20.4456 15.072 21.4768 14.7962C22.4187 14.544 23.362 14.3474 24.3436 14.4641C24.6139 14.4963 24.8816 14.546 25.199 14.595C24.2986 12.6373 23.26 10.8305 22.0236 9.11564C20.3939 9.87511 18.7831 10.6259 17.1152 11.4034ZM6.83413 14.6654C7.6815 14.9989 9.00185 15.0411 9.95119 14.8184C10.5979 14.6668 11.2528 14.5024 11.9116 14.4601C12.5563 14.4192 13.2111 14.5252 13.9324 14.5715C14.2497 13.5678 14.5905 12.4903 14.9361 11.3987C13.2755 10.6252 11.6634 9.87444 10.0344 9.11564C8.78313 10.8654 7.71974 12.6976 6.83413 14.6654Z" fill="white"/>
<path d="M21.3661 2.14708C21.3581 3.3252 20.4101 4.26649 19.234 4.26447C18.0653 4.26246 17.1045 3.30641 17.0991 2.14037C17.0938 0.972313 18.0887 -0.0145966 19.2568 0.000163451C20.4275 0.0149235 21.3742 0.978351 21.3661 2.14708ZM20.2974 2.13769C20.298 1.54057 19.8157 1.05953 19.2239 1.06758C18.6496 1.07563 18.1692 1.56003 18.1672 2.13299C18.1652 2.72004 18.6563 3.20242 19.2508 3.19705C19.8371 3.19169 20.2967 2.72674 20.2974 2.13769Z" fill="white"/>
<path d="M15.5412 5.88419C16.4141 5.90365 17.1098 6.63628 17.0924 7.51786C17.0749 8.39138 16.3423 9.0945 15.4661 9.0784C14.5798 9.0623 13.872 8.31624 13.8982 7.42661C13.9243 6.55376 14.6583 5.86473 15.5412 5.88419ZM15.4909 6.95161C15.2165 6.95429 14.9723 7.19582 14.9663 7.47022C14.9602 7.75536 15.2165 8.01366 15.5016 8.01031C15.7754 8.00695 16.0189 7.76475 16.025 7.49035C16.0303 7.20186 15.7787 6.94826 15.4909 6.95161Z" fill="white"/>
<path d="M13.0876 4.24977C12.412 4.84554 12.1953 4.918 11.9223 4.6503C11.6465 4.37993 11.7223 4.14913 12.3644 3.41314C12.2456 3.32324 12.1094 3.24273 12.0014 3.13404C11.717 2.84891 11.6928 2.54029 11.9203 2.30815C12.151 2.07333 12.4583 2.09547 12.7461 2.37524C12.8501 2.47655 12.9407 2.59262 13.0621 2.73083C13.2279 2.57048 13.3627 2.4316 13.5063 2.30346C13.7559 2.08004 14.0491 2.07468 14.2644 2.28065C14.4831 2.4893 14.4851 2.81603 14.2476 3.06092C14.1188 3.19376 13.9578 3.29573 13.8189 3.40576C14.4503 4.17865 14.5348 4.41213 14.2416 4.64225C13.6928 5.07298 13.4432 4.50472 13.0876 4.24977Z" fill="white"/>
</svg>
