<svg width="58" height="40" viewBox="0 0 58 40" fill="none" xmlns="http://www.w3.org/2000/svg">
<path d="M45.3503 0.394775C53.6366 4.51448 58.0572 11.2491 57.9903 20.3446C57.9302 29.2996 53.5296 35.9272 45.3503 40.0001C50.4331 34.3355 53.5831 27.8818 53.563 20.1774C53.5429 12.4596 50.5 5.99249 45.3503 0.394775Z" fill="#D9C108"/>
<path d="M36.5894 39.7322C47.3902 26.5371 47.3166 13.7567 36.79 0.829102C43.5714 3.10965 48.788 11.1284 49.0354 19.2942C49.3029 28.2626 44.3941 36.6291 36.5894 39.7322Z" fill="#D9C108"/>
<path d="M19.4482 3.46555e-05C30.2023 -0.0200288 38.9031 8.67415 38.9232 19.4482C38.9433 30.2023 30.2491 38.9098 19.475 38.9299C8.72766 38.95 0.0200981 30.2491 3.46555e-05 19.4817C-0.0200288 8.72766 8.67415 0.0200981 19.4482 3.46555e-05ZM15.5559 27.2463C15.5559 27.9284 15.5426 28.5303 15.5559 29.1389C15.576 30.0485 16.0776 30.7641 16.8667 31.0383C18.1107 31.4663 19.4081 30.5835 19.4549 29.266C19.475 28.6039 19.4616 27.9418 19.4616 27.2463C19.6957 27.2463 19.8629 27.2463 20.0234 27.2463C21.7087 27.2463 23.4008 27.2529 25.0861 27.2396C25.4004 27.2396 25.7348 27.2128 26.0224 27.1058C26.8918 26.7848 27.38 25.8619 27.2128 24.9323C27.059 24.0629 26.2966 23.3941 25.3804 23.3807C23.588 23.3606 21.789 23.374 19.9967 23.374C19.8361 23.374 19.6689 23.374 19.5018 23.374C19.5018 22.6918 19.5018 22.0699 19.5018 21.3944C20.6922 21.3944 21.8492 21.4345 22.9995 21.381C24.3906 21.3208 25.6479 20.846 26.7112 19.9365C28.4768 18.425 29.1389 16.0375 28.4367 13.8104C27.7345 11.5967 25.7214 9.95822 23.3272 9.81108C21.4747 9.69739 19.6221 9.7442 17.7629 9.73083C16.3451 9.72414 15.5626 10.5133 15.5626 11.9378C15.5626 13.6231 15.5626 15.3152 15.5626 17.0005C15.5626 17.161 15.5626 17.3215 15.5626 17.5288C15.2483 17.5288 14.9875 17.5222 14.7333 17.5288C14.2184 17.5422 13.69 17.4954 13.1884 17.5823C12.2321 17.7495 11.6101 18.6658 11.6971 19.6823C11.7706 20.5986 12.5397 21.3543 13.476 21.3944C14.1582 21.4212 14.8336 21.4011 15.5225 21.4011C15.5225 22.0899 15.5225 22.7186 15.5225 23.374C14.9072 23.374 14.3321 23.3673 13.7502 23.374C12.5197 23.3874 11.6837 24.1832 11.6837 25.3202C11.6904 26.4571 12.533 27.2396 13.7703 27.2529C14.3387 27.2529 14.9139 27.2463 15.5559 27.2463Z" fill="#D9C108"/>
<path d="M19.4884 13.6365C20.6052 13.6365 21.682 13.5964 22.752 13.6499C23.6482 13.6967 24.4173 14.0578 24.7249 15.0008C25.0928 16.1244 24.3839 17.2145 23.1399 17.4486C22.8724 17.4954 22.5982 17.5221 22.324 17.5288C21.3877 17.5355 20.4514 17.5355 19.4817 17.5355C19.4884 16.2113 19.4884 14.9473 19.4884 13.6365Z" fill="#D9C108"/>
</svg>
