<svg width="35" height="35" viewBox="0 0 35 35" fill="none" xmlns="http://www.w3.org/2000/svg">
<g clip-path="url(#clip0_1036_6367)">
<path d="M8.13798e-05 10.1625C0.483154 9.58829 0.966227 9.01407 1.4493 8.43985C2.87118 6.77188 5.36857 6.70808 6.87248 8.31225C7.10946 8.55834 7.30086 8.80443 7.12768 9.17813C7.08211 9.27839 7.10034 9.39688 7.08211 9.5336C6.58081 9.58829 6.09774 9.66121 5.70581 9.16902C5.35946 8.73152 4.92196 8.35782 4.5118 7.94766C4.22013 8.24845 3.95581 8.52188 3.64591 8.85001C3.88289 9.04141 4.1381 9.25105 4.3842 9.45157C4.36597 9.48803 4.33862 9.52449 4.32039 9.57006C3.6368 9.57006 2.95321 9.57006 2.2605 9.57006C2.2605 9.98933 2.2605 10.363 2.2605 10.7823C2.94409 10.7823 3.62769 10.7823 4.31128 10.7823C4.32951 10.8096 4.34774 10.8461 4.35685 10.8734C4.10164 11.0831 3.84644 11.3018 3.573 11.5206C3.92847 11.8578 4.2019 12.113 4.5118 12.4047C4.9493 11.9581 5.42326 11.5024 5.87899 11.0284C6.04305 10.8552 6.20711 10.7732 6.44409 10.7914C6.69018 10.8096 6.94539 10.7914 7.19149 10.8005C7.49227 10.8096 7.58341 10.9372 7.4467 11.2107C6.88159 12.3227 5.97925 12.9971 4.74878 13.1794C3.39071 13.38 2.26961 12.9151 1.3855 11.8761C0.920654 11.3383 0.455811 10.7914 -0.0090332 10.2537C8.13798e-05 10.2081 8.13798e-05 10.1899 8.13798e-05 10.1625Z" fill="white"/>
<path d="M17.1263 34.9998C16.6888 34.699 16.2695 34.38 15.8229 34.1065C15.6224 33.9789 15.3854 33.9334 15.1211 33.8331C15.2943 33.2315 15.4948 32.6391 15.9049 32.1378C15.9779 32.0466 16.0781 31.9828 16.1328 31.8917C16.4245 31.4633 16.7435 31.117 17.3268 31.3722C17.3815 31.3995 17.4727 31.3904 17.5273 31.363C17.974 31.1534 18.1836 31.4268 18.4661 31.7185C19.0495 32.3201 19.3776 33.031 19.6055 33.7784C19.168 34.0063 18.7305 34.2159 18.3203 34.462C18.0651 34.617 17.8372 34.8175 17.5911 34.9998C17.4453 34.9998 17.2904 34.9998 17.1263 34.9998Z" fill="white"/>
<path d="M19.6146 16.5793C20.1615 17.3996 20.8907 17.9101 21.875 18.0194C23.3516 18.1835 24.6914 17.2994 25.1107 15.8775C25.1745 15.6587 25.293 15.5767 25.4935 15.4765C25.9493 15.2577 26.3776 14.9843 26.7878 14.6926C26.9428 14.5832 27.0795 14.5559 27.2618 14.5103C27.9818 14.328 28.3373 14.8658 28.7748 15.2304C28.8386 15.2759 28.8568 15.4127 28.8477 15.5038C28.4558 19.7421 26.4597 22.9869 22.823 25.2017C22.6589 25.302 22.4401 25.3202 22.2396 25.3384C20.6719 25.5116 19.3868 26.2226 18.4024 27.453C18.2019 27.7082 18.0287 27.8905 17.655 27.7629C17.4454 27.69 17.1719 27.7265 16.9532 27.7903C16.7344 27.8541 16.625 27.7903 16.4974 27.6262C15.9961 26.9517 15.3763 26.4048 14.6472 25.9947C14.5651 25.9491 14.4831 25.8033 14.5013 25.7121C15.0573 22.0572 16.7253 19.022 19.5326 16.6158C19.5417 16.6158 19.5691 16.6067 19.6146 16.5793Z" fill="white"/>
<path d="M16.5705 17.9281C14.8114 20.1702 13.7267 22.6676 13.2983 25.4294C12.3687 25.484 11.6395 25.1012 10.9285 24.5817C9.05094 23.1963 7.66553 21.4463 6.76318 19.2497C9.21501 18.8577 10.8556 17.4997 11.6851 15.1572C12.2957 15.5583 12.9429 15.7314 13.6629 15.5674C13.7267 15.5492 13.8179 15.5947 13.8817 15.6312C14.866 16.2783 15.7593 17.0348 16.5705 17.9281Z" fill="white"/>
<path d="M14.5014 6.28874C15.1941 5.89681 15.8777 5.47754 16.5613 6.15202C17.2358 6.8265 16.8439 7.51009 16.4337 8.19368C16.6889 8.27572 16.9077 8.34863 17.1264 8.42155C17.6733 8.62207 17.9832 9.04134 17.9741 9.56999C17.9741 10.0986 17.6642 10.5179 17.1173 10.7093C16.9077 10.7822 16.6889 10.8551 16.4428 10.9281C16.5613 11.1468 16.6707 11.3564 16.771 11.5661C17.017 12.0765 16.9259 12.6143 16.5613 12.9788C16.1967 13.3434 15.6499 13.4255 15.1394 13.1794C14.9389 13.0791 14.7384 12.9697 14.5105 12.8512C14.4376 13.0882 14.3738 13.307 14.3009 13.5166C14.1004 14.0817 13.6902 14.3916 13.1342 14.3916C12.5965 14.3916 12.1863 14.0817 11.9949 13.5257C11.922 13.3161 11.8582 13.0973 11.7762 12.8512C11.0926 13.234 10.3999 13.6624 9.71627 12.9606C9.0509 12.277 9.47929 11.5934 9.85298 10.9281C9.59778 10.846 9.36991 10.7822 9.15116 10.7002C8.6134 10.5088 8.31262 10.0804 8.32173 9.54264C8.33085 9.02311 8.63163 8.61296 9.16028 8.42155C9.36991 8.34863 9.58866 8.28483 9.85298 8.2028C9.74361 7.99316 9.64335 7.79264 9.54309 7.60124C9.27877 7.06348 9.35168 6.53483 9.72538 6.15202C10.1082 5.76921 10.6368 5.68717 11.1746 5.9515C11.3751 6.05176 11.5756 6.15202 11.8035 6.27051C12.004 5.514 12.1954 4.73926 13.1525 4.73926C14.0913 4.73926 14.2918 5.50488 14.5014 6.28874ZM14.948 9.56087C14.948 8.54915 14.1368 7.75618 13.116 7.7653C12.1225 7.77441 11.3295 8.5765 11.3204 9.56999C11.3204 10.5726 12.1316 11.3929 13.1342 11.3929C14.146 11.3929 14.9572 10.5726 14.948 9.56087Z" fill="white"/>
<path d="M33.396 10.9465C33.7697 11.6301 34.1981 12.3228 33.4963 13.0064C32.8127 13.6717 32.1382 13.2616 31.4546 12.8605C31.2358 13.6079 31.0718 14.3918 30.1056 14.4009C29.1213 14.41 28.9481 13.617 28.7384 12.897C28.3556 13.0611 28.0002 13.216 27.5809 13.3983C27.8634 11.867 27.3621 10.7642 26.1499 9.95298C26.5145 9.37876 26.7059 8.76808 26.5692 8.08449C26.5601 8.0298 26.6056 7.94777 26.6512 7.92043C27.3439 7.41913 27.672 6.72642 27.6903 5.78762C28.0548 5.95168 28.3739 6.09751 28.7384 6.26157C28.8022 6.06105 28.8752 5.85142 28.9481 5.64178C29.1395 5.07668 29.5588 4.74855 30.0965 4.73944C30.6434 4.73032 31.0809 5.06756 31.2723 5.6509C31.3361 5.85142 31.409 6.06105 31.4819 6.28892C32.1564 5.91522 32.8309 5.48683 33.5145 6.16131C34.1981 6.83579 33.797 7.51939 33.4051 8.21209C33.633 8.28501 33.8335 8.34881 34.034 8.41262C34.6174 8.61314 34.9546 9.04152 34.9546 9.5884C34.9546 10.1353 34.6265 10.5545 34.0249 10.7551C33.8244 10.8098 33.6239 10.8736 33.396 10.9465ZM30.0874 7.76548C29.0757 7.76548 28.2645 8.59491 28.2827 9.59751C28.3009 10.591 29.1121 11.3931 30.0965 11.3931C31.0991 11.3931 31.9194 10.5728 31.9194 9.57928C31.9103 8.56756 31.0991 7.76548 30.0874 7.76548Z" fill="white"/>
<path d="M24.0351 10.7915C24.8099 10.7368 25.5117 10.8188 26.0312 11.4295C26.3229 11.7759 26.4778 12.1769 26.4687 12.6144C26.4596 13.216 26.2044 13.6991 25.7122 14.0728C25.22 14.4465 24.6458 14.41 24.0351 14.4191C24.0351 14.6561 24.0442 14.8657 24.0351 15.0754C23.9987 16.0597 23.2057 16.8345 22.2304 16.8436C21.2643 16.8436 20.4531 16.0597 20.4166 15.0845C20.4075 14.8748 20.4166 14.6561 20.4166 14.41C20.1523 14.41 19.9245 14.4191 19.7057 14.41C18.9674 14.3735 18.2838 13.9087 18.1107 13.1886C17.983 12.66 18.0195 12.0767 18.3203 11.5936C18.6393 11.0741 19.1406 10.828 19.7513 10.7915C19.9518 10.7824 20.1614 10.7915 20.4166 10.7915C20.4166 10.5728 20.4166 10.3722 20.4166 10.1808C20.444 9.16911 21.2278 8.38525 22.2213 8.38525C23.2239 8.38525 24.0078 9.14176 24.0442 10.1626C24.0351 10.3358 24.0351 10.5272 24.0351 10.7915ZM22.2304 11.3931C21.556 11.3931 21.0182 11.9308 21.0182 12.6053C21.0182 13.2798 21.556 13.8175 22.2304 13.8084C22.8958 13.8084 23.4153 13.2889 23.4245 12.6235C23.4336 11.9399 22.9049 11.3931 22.2304 11.3931Z" fill="white"/>
<path d="M20.7357 7.54673C19.9609 8.02068 19.4687 8.67693 19.2135 9.5337C19.1771 9.3423 19.1589 9.16001 19.1133 8.9686C18.9766 8.43084 18.6758 8.00245 18.2474 7.6561C18.1654 7.5923 18.0833 7.45558 18.1016 7.36443C18.2201 6.35271 17.8464 5.66912 17.1445 5.02199C17.5456 4.85792 17.9102 4.71209 18.3112 4.54803C17.9284 3.87355 17.5182 3.16261 18.2474 2.48813C18.9219 1.86834 19.5781 2.25115 20.2435 2.65219C20.3255 2.41521 20.3893 2.20558 20.4622 2.00506C20.6536 1.43995 21.082 1.11183 21.6107 1.10271C22.1484 1.0936 22.5951 1.43995 22.7865 2.01417C22.8503 2.20558 22.9049 2.39699 22.987 2.63396C23.1875 2.5337 23.3698 2.44256 23.543 2.36053C24.1172 2.06886 24.6549 2.13266 25.0469 2.5337C25.4479 2.93475 25.4935 3.45428 25.2018 4.03761C25.1198 4.21079 25.0286 4.37485 24.9193 4.58449C25.6758 4.79412 26.4688 4.99464 26.4505 5.96079C26.4414 6.9087 25.6576 7.10011 24.9102 7.30063C25.2292 7.92954 25.6667 8.51287 25.1107 9.25115C24.7005 8.21209 23.9896 7.5285 22.9323 7.23683C23.6615 6.07016 23.543 5.05844 22.6224 4.42954C21.8203 3.88266 20.7083 4.08318 20.1341 4.87615C19.6602 5.55063 19.5508 6.72641 20.7357 7.54673Z" fill="white"/>
<path d="M11.8672 31.3087C12.0039 30.9441 12.1133 30.5157 12.3229 30.1511C12.569 29.7318 12.6055 29.3673 12.3229 28.9753C12.2409 28.8659 12.1771 28.7383 12.1406 28.6107C12.0586 28.2826 11.9492 27.9545 11.9492 27.6173C11.9583 26.6602 12.2682 26.4415 13.1706 26.7058C14.2461 27.0157 15.0482 27.6902 15.6953 28.5834C15.7409 28.6472 15.7591 28.7566 15.7227 28.8295C15.513 29.3126 15.513 29.7956 15.7135 30.2878C15.7409 30.3607 15.7318 30.4883 15.6862 30.5613C14.9479 31.6003 13.9727 32.3021 12.6966 32.5391C12.4049 32.5938 12.2135 32.5482 12.1315 32.2383C12.0495 31.9467 11.9674 31.6641 11.8672 31.3087Z" fill="white"/>
<path d="M22.896 27.7627C22.7684 28.1273 22.6864 28.5374 22.4767 28.8747C22.1759 29.3578 22.1759 29.7679 22.4858 30.2419C22.7593 30.6429 22.8687 31.1078 22.814 31.6C22.7137 32.5114 22.5132 32.6481 21.6473 32.4203C20.5444 32.1195 19.7241 31.4359 19.0679 30.5335C19.0223 30.4789 19.0132 30.3604 19.0405 30.2966C19.241 29.8135 19.241 29.3304 19.0496 28.8382C19.0223 28.7653 19.0314 28.6377 19.0861 28.5739C19.8608 27.4984 20.8634 26.7783 22.2033 26.5778C22.4129 26.5505 22.5314 26.5869 22.5952 26.7874C22.6772 27.0882 22.7775 27.3981 22.896 27.7627Z" fill="white"/>
<path d="M10.1173 0.0727539C11.2657 1.07536 12.642 1.8501 12.9793 3.51807C12.2319 3.61833 11.6303 3.92822 11.1746 4.52067C11.1108 4.61182 10.9103 4.6027 10.7189 4.64827C10.7189 3.81885 10.7189 3.08057 10.7189 2.32406C10.2996 2.32406 9.91678 2.32406 9.50663 2.32406C9.50663 2.81624 9.50663 3.2902 9.50663 3.75505C9.47017 3.78239 9.44282 3.80062 9.40637 3.82796C9.20585 3.56364 9.00532 3.29932 8.8048 3.03499C8.44934 3.40869 8.18501 3.68213 7.88423 4.00114C8.25793 4.34749 8.64074 4.71208 9.06001 5.09489C8.38553 5.70557 8.08475 6.4165 8.18501 7.37354C7.61991 6.75374 7.3009 6.11572 7.17329 5.39567C6.89074 3.81885 7.33736 2.46989 8.53137 1.40348C9.04178 0.938639 9.57954 0.519369 10.1173 0.0727539Z" fill="white"/>
<path d="M5.44161 16.3604C5.76062 16.6794 6.03406 16.9528 6.32572 17.2445C7.25541 16.3148 8.19421 15.3851 9.11479 14.4463C9.26973 14.2822 9.38822 14.2549 9.60697 14.346C9.89864 14.4736 10.2359 14.5192 10.5458 14.6012C10.0536 16.6702 8.22156 18.4294 4.67598 18.0192C4.63041 16.7887 4.56661 15.5583 5.21374 14.4189C5.2502 14.346 5.33223 14.2731 5.41427 14.2549C6.50802 13.9632 7.39213 13.3708 8.08484 12.4775C8.09395 12.4593 8.1213 12.4593 8.14864 12.4502C8.23979 12.7145 8.34916 12.9697 8.41296 13.234C8.43119 13.3343 8.36739 13.4801 8.29447 13.5622C7.44682 14.4189 6.59916 15.2666 5.74239 16.1234C5.64213 16.2145 5.53275 16.2874 5.44161 16.3604Z" fill="white"/>
<path d="M1.83219 2.80724C2.88948 3.86453 3.93766 4.91271 5.02229 5.98823C4.93115 5.98823 4.85823 5.98823 4.79443 5.98823C4.22021 6.01557 3.64599 6.02469 3.07177 6.0976C2.84391 6.12495 2.68896 6.10672 2.5249 5.96088C1.61344 5.13146 1.12125 4.10151 1.03922 2.88015C1.00276 2.30593 1.03011 1.7226 1.03011 1.13015C2.88037 0.966091 4.60302 1.13015 5.93375 2.63406C6.07959 2.79812 6.11604 2.95307 6.07047 3.18094C5.95198 3.7825 5.88818 4.38406 5.81526 4.93093C4.83089 3.93745 3.79183 2.89838 2.74365 1.85021C2.40641 2.20567 2.13297 2.48823 1.83219 2.80724Z" fill="white"/>
<path d="M14.948 14.82C15.0574 14.5921 15.2214 14.4919 15.5131 14.5374C16.1055 14.6195 16.6524 14.4372 17.1628 14.0908C17.5821 14.7926 18.1654 15.2575 18.9493 15.5036C18.4115 16.0049 17.9011 16.488 17.3998 16.9528C16.5886 16.251 15.7865 15.5492 14.948 14.82Z" fill="white"/>
<path d="M17.3633 28.948C17.6915 28.9389 17.974 29.2214 17.974 29.5495C17.974 29.8777 17.7279 30.1329 17.3998 30.1511C17.0626 30.1693 16.7891 29.905 16.78 29.5678C16.7709 29.2396 17.0352 28.9571 17.3633 28.948Z" fill="white"/>
</g>
<defs>
<clipPath id="clip0_1036_6367">
<rect width="35" height="35" fill="white"/>
</clipPath>
</defs>
</svg>
