<svg width="32" height="32" viewBox="0 0 32 32" fill="none" xmlns="http://www.w3.org/2000/svg">
<g clip-path="url(#clip0_1311_7736)">
<path d="M23.4261 11.0325C23.4261 11.4841 23.4169 11.9358 23.4261 12.3782C23.4446 12.8206 23.7304 13.0786 24.1268 13.051C24.4864 13.0325 24.7353 12.7653 24.7537 12.3597C24.7629 11.9265 24.7537 11.4934 24.7537 11.0325C24.8551 11.0233 24.9289 11.0049 25.0118 11.0049C26.3579 11.0049 27.7039 11.0049 29.0499 11.0049C29.1882 11.0049 29.3357 11.0141 29.4555 11.0694C29.7505 11.2076 29.8704 11.4565 29.8151 11.7791C29.7598 12.1109 29.5477 12.286 29.2343 12.3229C29.0222 12.3505 28.801 12.3321 28.552 12.3321C28.552 15.5947 28.552 18.8206 28.552 22.074C26.0167 22.074 23.5183 22.074 20.9554 22.074C20.9554 21.8897 20.9554 21.7053 20.9554 21.5118C20.9646 20.7007 20.9462 19.9081 20.6696 19.1339C19.8767 16.9035 17.5627 15.5118 15.2671 15.8897C12.824 16.2952 11.1092 18.2676 11.0539 20.7468C11.0447 21.18 11.0539 21.6132 11.0539 22.0832C8.51862 22.0832 6.01099 22.0832 3.46648 22.0832C3.46648 18.839 3.46648 15.6132 3.46648 12.3413C3.22677 12.3413 3.02395 12.3505 2.82113 12.3413C2.43392 12.3136 2.17578 12.0371 2.17578 11.6685C2.17578 11.309 2.4247 11.0325 2.80269 11.0233C4.01041 11.0141 5.21813 11.0141 6.48117 11.0141C6.48117 11.4565 6.48117 11.8897 6.48117 12.3229C6.48117 12.627 6.58258 12.8666 6.86838 13.0049C7.30168 13.2169 7.78108 12.9311 7.80874 12.4335C7.82718 11.9818 7.81796 11.521 7.81796 11.0417C9.2746 11.0417 10.6851 11.0417 12.1418 11.0417C12.1418 11.4841 12.1326 11.9265 12.1418 12.3689C12.151 12.7837 12.4091 13.0602 12.7964 13.0694C13.1928 13.0786 13.4509 12.8021 13.4694 12.3597C13.4694 12.2215 13.4694 12.0832 13.4694 11.945C13.4694 11.65 13.4694 11.3551 13.4694 11.0417C14.926 11.0417 16.3273 11.0417 17.7932 11.0417C17.7932 11.4657 17.7932 11.8712 17.7932 12.286C17.7932 12.7929 18.0421 13.0786 18.457 13.0786C18.8718 13.0786 19.1208 12.7837 19.1208 12.286C19.1208 11.9081 19.1208 11.5302 19.13 11.1523C19.13 11.1339 19.1392 11.1063 19.1576 11.0602C20.5405 11.0325 21.9603 11.0325 23.4261 11.0325ZM7.92859 17.1431C7.92859 16.8759 7.93781 16.6178 7.92859 16.3505C7.91015 15.9634 7.63357 15.6961 7.2648 15.6961C6.89604 15.6961 6.61946 15.9542 6.61024 16.3413C6.60102 16.8759 6.60102 17.4196 6.61024 17.9542C6.61946 18.3413 6.90525 18.6086 7.2648 18.6086C7.62436 18.6086 7.91015 18.3413 7.92859 17.9542C7.93781 17.6961 7.92859 17.4196 7.92859 17.1431ZM25.3991 17.1431C25.3991 16.8759 25.4083 16.6178 25.3991 16.3505C25.3806 15.9542 25.1133 15.6961 24.7445 15.6961C24.3757 15.6961 24.0899 15.9634 24.0807 16.3413C24.0623 16.8759 24.0623 17.4196 24.0807 17.9542C24.0899 18.3413 24.3849 18.6086 24.7353 18.6086C25.0948 18.6086 25.3714 18.3413 25.3898 17.9542C25.4083 17.6961 25.3991 17.4196 25.3991 17.1431Z" fill="white"/>
<path d="M3.45724 30.6639C3.45724 29.521 3.45724 28.415 3.45724 27.2998C5.99254 27.2998 8.49095 27.2998 11.0355 27.2998C11.0355 28.4058 11.0355 29.5026 11.0355 30.6362C14.3544 30.6362 17.6272 30.6362 20.9462 30.6362C20.9462 29.521 20.9462 28.4242 20.9462 27.2998C23.4814 27.2998 25.9799 27.2998 28.5336 27.2998C28.5336 28.415 28.5336 29.521 28.5336 30.6639C28.718 30.6639 28.8563 30.6639 28.9853 30.6639C29.769 30.6639 30.5526 30.6546 31.327 30.6731C31.7234 30.6823 31.9908 30.968 31.9908 31.3182C31.9908 31.6869 31.705 31.9634 31.2994 31.991C31.2164 32.0003 31.1426 31.991 31.0597 31.991C21.0107 31.991 10.9617 31.991 0.903514 31.991C0.820541 31.991 0.746787 31.991 0.663814 31.991C0.267386 31.9634 -0.0276293 31.6685 -0.00919083 31.309C2.84185e-05 30.9496 0.267387 30.6731 0.673033 30.6731C1.44745 30.6546 2.21265 30.6639 2.98706 30.6639C3.12535 30.6639 3.26364 30.6639 3.45724 30.6639Z" fill="white"/>
<path d="M22.3936 5.58531C22.3936 5.31803 22.4028 5.06919 22.3936 4.81112C22.3751 4.36872 22.117 4.07379 21.739 4.07379C21.3518 4.06458 21.066 4.36872 21.0568 4.82034C21.0475 5.06919 21.0568 5.31803 21.0568 5.58531C19.5817 5.58531 18.1527 5.58531 16.6776 5.58531C16.6776 5.32725 16.6776 5.0784 16.6776 4.82955C16.6684 4.35951 16.4103 4.06458 16.0138 4.06458C15.6082 4.05536 15.3501 4.34107 15.3316 4.81112C15.3224 5.05997 15.3316 5.30882 15.3316 5.58531C13.8658 5.58531 12.4276 5.58531 10.9525 5.58531C10.9525 5.31803 10.9617 5.05997 10.9525 4.8019C10.9433 4.33186 10.6943 4.04614 10.2887 4.04614C9.88304 4.04614 9.63412 4.32264 9.61569 4.8019C9.60647 5.05075 9.61569 5.2996 9.61569 5.58531C8.50016 5.58531 7.4215 5.58531 6.33363 5.58531C6.33363 4.82955 6.27832 4.08301 6.35207 3.34568C6.41661 2.70052 6.99742 2.29499 7.68886 2.28577C8.65688 2.27656 9.6249 2.28577 10.5837 2.28577C10.7036 2.28577 10.8326 2.28577 11.0078 2.28577C11.0078 1.7973 11.0078 1.34568 11.0078 0.89407C11.0078 0.230475 11.2291 0.00927734 11.9021 0.00927734C14.6402 0.00927734 17.3783 0.00927734 20.1164 0.00927734C20.8078 0.00927734 21.0107 0.221259 21.0199 0.92172C21.0199 1.33647 21.0199 1.75121 21.0291 2.16596C21.0291 2.20283 21.0475 2.23048 21.066 2.29499C21.9971 2.29499 22.9375 2.29499 23.8871 2.29499C24.0899 2.29499 24.3019 2.28577 24.5048 2.30421C25.1409 2.36872 25.6019 2.81112 25.7125 3.44707C25.7309 3.56688 25.7401 3.69591 25.7401 3.82495C25.7401 4.40559 25.7401 4.99545 25.7401 5.60375C24.6062 5.58531 23.5275 5.58531 22.3936 5.58531Z" fill="white"/>
<path d="M27.667 9.64971C19.886 9.64971 12.1418 9.64971 4.38841 9.64971C4.38841 9.08749 4.32388 8.52528 4.40685 7.97229C4.49904 7.32713 5.04298 6.94925 5.7252 6.94925C7.69812 6.94925 9.68026 6.94925 11.6532 6.94925C16.4656 6.94925 21.2873 6.96768 26.0997 6.94003C27.1323 6.93081 27.7408 7.64049 27.667 8.50685C27.6393 8.87551 27.667 9.24418 27.667 9.64971Z" fill="white"/>
<path d="M11.0262 25.9262C8.50013 25.9262 6.00172 25.9262 3.48486 25.9262C3.48486 25.1059 3.48486 24.2948 3.48486 23.4653C6.00172 23.4653 8.50013 23.4653 11.0262 23.4653C11.0262 24.2764 11.0262 25.0782 11.0262 25.9262Z" fill="white"/>
<path d="M20.9739 23.4561C23.5 23.4561 25.9984 23.4561 28.5152 23.4561C28.5152 24.2855 28.5152 25.0874 28.5152 25.9169C25.9984 25.9169 23.5 25.9169 20.9739 25.9169C20.9739 25.1058 20.9739 24.304 20.9739 23.4561Z" fill="white"/>
</g>
<defs>
<clipPath id="clip0_1311_7736">
<rect width="32" height="32" fill="white"/>
</clipPath>
</defs>
</svg>
