<svg width="63" height="59" viewBox="0 0 63 59" fill="none" xmlns="http://www.w3.org/2000/svg">
<path d="M57.5672 26.5725C57.4855 29.4986 59.4144 30.888 62.0952 30.1197C62.1443 30.5284 62.2423 30.9207 62.2423 31.313C62.2587 33.7323 62.2423 36.168 62.2423 38.5873C62.2423 40.5325 61.9154 40.9739 59.9702 41.4316C59.9702 42.02 59.9702 42.6412 59.9702 43.3278C56.9951 43.3278 54.1017 43.3278 51.1103 43.3278C51.1103 39.895 51.1103 36.4786 51.1103 32.9477C50.3747 33.1112 49.7535 33.2583 49.0179 33.4217C49.1487 31.7544 48.7074 30.1524 49.3939 28.6158C49.9987 27.2427 51.6171 26.2783 53.0556 26.6869C53.6931 26.8667 54.2325 27.4552 54.7393 27.9292C55.1643 28.3379 55.4585 28.3543 55.8835 27.9456C56.3576 27.4716 56.9297 27.0793 57.5672 26.5725Z" fill="#47B48F"/>
<path d="M31.3472 28.3543C31.7886 28.011 32.1809 27.7168 32.5569 27.4062C34.3223 25.9513 36.9705 26.8013 37.3955 29.0735C37.657 30.4466 37.6243 31.8688 37.7224 33.4381C36.9214 33.2583 36.3002 33.1275 35.581 32.9804C35.581 36.4786 35.581 39.9113 35.581 43.3768C32.6223 43.3768 29.7453 43.3768 26.7865 43.3768C26.7865 42.7393 26.7865 42.1181 26.7865 41.4806C26.4923 41.3989 26.2634 41.3335 26.0346 41.2681C24.923 40.9412 24.449 40.3527 24.449 39.1921C24.449 37.9498 24.5143 36.7074 24.498 35.4651C24.498 34.19 24.4326 32.915 24.4163 31.64C24.4163 31.1986 24.498 30.7409 24.547 30.2015C25.7894 30.5447 26.8683 30.5938 27.8654 29.7764C28.8462 28.9591 29.0914 27.9129 29.075 26.5398C29.8924 27.1937 30.5953 27.7495 31.3472 28.3543Z" fill="#47B48F"/>
<path d="M37.5591 26.6053C38.6216 25.6081 39.8803 25.6081 41.0573 25.7716C41.613 25.8533 42.1198 26.4745 42.5938 26.9158C43.1006 27.3899 43.5256 27.5043 43.9997 26.9158C45.3074 25.3302 46.9093 25.5264 48.5767 26.1802C48.7892 26.262 48.9854 26.4091 49.2633 26.5726C47.1872 29.0899 47.7921 32.016 47.7594 34.8276C47.7267 37.6556 47.7594 40.4998 47.7594 43.3769C44.7516 43.3769 41.8909 43.3769 38.8995 43.3769C38.8995 43.0499 38.8995 42.7557 38.8995 42.4615C38.8995 38.8652 38.8505 35.269 38.9159 31.6727C38.9322 29.8582 38.5399 28.1909 37.5591 26.6053Z" fill="#47B48F"/>
<path d="M40.8284 12.9068C40.8121 15.0482 39.0794 16.8137 36.9706 16.83C34.8456 16.83 33.0148 14.9828 33.0311 12.8578C33.0475 10.7654 34.8456 9 36.987 9C39.1121 9.01635 40.8284 10.7491 40.8284 12.9068Z" fill="#47B48F"/>
<path d="M47.187 20.7532C47.187 22.8946 45.4706 24.6437 43.3128 24.6763C41.1878 24.709 39.3733 22.8782 39.3733 20.7368C39.3896 18.5954 41.1387 16.8627 43.2965 16.879C45.4869 16.8627 47.187 18.5791 47.187 20.7532Z" fill="#47B48F"/>
<path d="M49.443 9.01636C51.6007 9.01636 53.2844 10.7328 53.2844 12.9232C53.2844 15.081 51.5353 16.8628 49.4266 16.8464C47.2689 16.8301 45.5361 15.0973 45.5361 12.9559C45.5525 10.7164 47.2362 9.01636 49.443 9.01636Z" fill="#47B48F"/>
<path d="M27.5548 21.6031C27.2606 20.0174 28.8952 17.8924 31.0693 17.778C33.3088 17.6635 34.9762 19.1347 35.2541 21.1781C35.5483 23.4176 33.881 25.3628 31.7069 25.5262C29.2385 25.7061 27.7346 24.3003 27.5548 21.6031Z" fill="#47B48F"/>
<path d="M55.197 25.5266C53.5133 25.69 51.421 24.039 51.4864 21.6197C51.5517 19.413 53.1701 17.7456 55.3768 17.7456C57.4856 17.7456 59.2673 19.5764 59.2346 21.7015C59.202 23.8919 57.4365 25.5429 55.197 25.5266Z" fill="#47B48F"/>
<path d="M47.3667 24.1859C48.8379 22.3224 49.0341 20.279 47.9552 18.0396C49.1321 18.0396 50.1947 18.0396 51.3553 18.0396C49.5898 20.4752 49.5408 22.8782 51.388 25.2811C50.7995 25.6571 50.3418 25.6898 49.7206 25.2648C49.0341 24.8071 48.2167 24.5619 47.3667 24.1859Z" fill="#47B48F"/>
<path d="M35.2217 25.4119C37.0525 22.9435 37.1833 20.5406 35.3525 18.0723C36.4967 18.0723 37.5266 18.0723 38.5727 18.0723C37.7227 21.3906 37.7227 21.3906 39.1449 24.1859C38.1968 24.6763 37.265 25.183 36.3006 25.608C36.039 25.7061 35.6467 25.4936 35.2217 25.4119Z" fill="#47B48F"/>
<path d="M28.1433 27.1774C28.0289 28.4524 27.277 29.237 26.0673 29.2861C24.9558 29.3187 24.1057 28.5668 24.0077 27.4062C23.9423 26.7687 24.3019 26.3764 24.8577 26.1639C25.6914 25.8533 26.476 24.9869 27.3914 25.6081C27.8164 25.9023 27.8981 26.6379 28.1433 27.1774Z" fill="#47B48F"/>
<path d="M58.6624 26.9323C58.7115 26.7524 58.8095 26.3601 58.9567 25.9842C59.1692 25.4447 59.5942 25.2485 60.15 25.4447C60.6404 25.6082 61.0981 25.8207 61.5721 26.0332C62.2587 26.3438 62.7818 26.7525 62.5856 27.6352C62.3894 28.5342 61.7683 29.1554 60.8856 29.2535C59.6105 29.4006 58.6297 28.4852 58.6624 26.9323Z" fill="#47B48F"/>
<path d="M10.44 26.348L10.152 26.672C11.856 28.688 13.056 30.368 13.752 31.712C14.472 33.056 14.832 34.28 14.832 35.384C14.832 37.04 13.992 38.42 12.312 39.524C10.656 40.628 8.772 41.18 6.66 41.18C4.836 41.18 3.384 40.748 2.304 39.884C1.248 38.996 0.732 37.88 0.756 36.536C0.756 35.552 1.044 34.496 1.62 33.368C2.196 32.24 3.648 30.404 5.976 27.86L5.436 27.032C4.98 26.384 4.632 25.652 4.392 24.836C4.152 24.02 4.032 23.204 4.032 22.388C4.032 20.468 4.584 18.956 5.688 17.852C6.792 16.748 8.124 16.184 9.684 16.16C10.932 16.16 11.928 16.532 12.672 17.276C13.44 17.996 13.824 18.944 13.824 20.12C13.824 20.984 13.632 21.824 13.248 22.64C12.864 23.456 11.928 24.692 10.44 26.348ZM9.252 24.98C9.852 24.332 10.344 23.612 10.728 22.82C11.112 22.004 11.304 21.224 11.304 20.48C11.304 19.856 11.16 19.364 10.872 19.004C10.584 18.644 10.188 18.464 9.684 18.464C8.916 18.464 8.34 18.644 7.956 19.004C7.596 19.34 7.416 19.832 7.416 20.48C7.416 21.032 7.608 21.764 7.992 22.676C8.376 23.588 8.796 24.356 9.252 24.98ZM7.884 30.344L7.2 29.48C6.36 30.488 5.52 31.676 4.68 33.044C3.84 34.388 3.42 35.348 3.42 35.924C3.396 36.548 3.744 37.076 4.464 37.508C5.208 37.916 6.108 38.12 7.164 38.12C8.076 38.12 8.928 37.904 9.72 37.472C10.536 37.04 10.944 36.524 10.944 35.924C10.944 35.276 10.692 34.52 10.188 33.656C9.684 32.768 8.916 31.664 7.884 30.344Z" fill="#47B48F"/>
</svg>
