<svg width="51" height="35" viewBox="0 0 51 35" fill="none" xmlns="http://www.w3.org/2000/svg">
<path d="M39.6816 0.345459C46.9321 3.9502 50.8002 9.84302 50.7416 17.8015C50.689 25.6372 46.8385 31.4363 39.6816 35.0001C44.129 30.0436 46.8853 24.3966 46.8677 17.6552C46.8502 10.9022 44.1876 5.24346 39.6816 0.345459Z" fill="#47B48F"/>
<path d="M32.0156 34.7658C41.4664 23.2201 41.402 12.0372 32.1912 0.725586C38.125 2.72107 42.6894 9.73744 42.9059 16.8825C43.14 24.7299 38.8447 32.0506 32.0156 34.7658Z" fill="#47B48F"/>
<path d="M17.0172 3.03235e-05C26.427 -0.0175252 34.0403 7.58988 34.0578 17.0172C34.0754 26.427 26.468 34.0461 17.0406 34.0637C7.6367 34.0812 0.0175859 26.468 3.03235e-05 17.0465C-0.0175252 7.6367 7.58988 0.0175859 17.0172 3.03235e-05ZM13.6114 23.8405C13.6114 24.4374 13.5997 24.964 13.6114 25.4966C13.629 26.2924 14.0679 26.9186 14.7584 27.1585C15.8468 27.533 16.9821 26.7606 17.0231 25.6077C17.0406 25.0284 17.0289 24.4491 17.0289 23.8405C17.2337 23.8405 17.38 23.8405 17.5205 23.8405C18.9951 23.8405 20.4757 23.8463 21.9503 23.8346C22.2254 23.8346 22.518 23.8112 22.7696 23.7176C23.5303 23.4367 23.9575 22.6291 23.8112 21.8157C23.6766 21.055 23.0095 20.4698 22.2078 20.4581C20.6395 20.4406 19.0654 20.4523 17.4971 20.4523C17.3566 20.4523 17.2103 20.4523 17.064 20.4523C17.064 19.8554 17.064 19.3111 17.064 18.7201C18.1057 18.7201 19.118 18.7552 20.1245 18.7084C21.3417 18.6557 22.4419 18.2403 23.3723 17.4444C24.9172 16.1219 25.4965 14.0328 24.8821 12.0841C24.2677 10.1471 22.5063 8.71344 20.4113 8.5847C18.7903 8.48522 17.1694 8.52618 15.5426 8.51448C14.302 8.50862 13.6173 9.19914 13.6173 10.4456C13.6173 11.9203 13.6173 13.4008 13.6173 14.8754C13.6173 15.0159 13.6173 15.1563 13.6173 15.3377C13.3423 15.3377 13.114 15.3319 12.8917 15.3377C12.4411 15.3494 11.9788 15.3085 11.5399 15.3846C10.7031 15.5308 10.1588 16.3326 10.2349 17.222C10.2993 18.0237 10.9723 18.685 11.7915 18.7201C12.3884 18.7435 12.9794 18.726 13.5822 18.726C13.5822 19.3287 13.5822 19.8788 13.5822 20.4523C13.0438 20.4523 12.5406 20.4464 12.0314 20.4523C10.9547 20.464 10.2232 21.1603 10.2232 22.1551C10.2291 23.15 10.9664 23.8346 12.049 23.8463C12.5464 23.8463 13.0497 23.8405 13.6114 23.8405Z" fill="#47B48F"/>
<path d="M17.0522 11.9321C18.0295 11.9321 18.9716 11.897 19.9079 11.9438C20.6921 11.9847 21.3651 12.3007 21.6342 13.1259C21.9561 14.109 21.3358 15.0628 20.2474 15.2676C20.0133 15.3086 19.7733 15.332 19.5334 15.3379C18.7142 15.3437 17.8949 15.3437 17.0464 15.3437C17.0522 14.185 17.0522 13.079 17.0522 11.9321Z" fill="#47B48F"/>
</svg>
