<svg width="62" height="35" viewBox="0 0 62 35" fill="none" xmlns="http://www.w3.org/2000/svg">
<path d="M56.5672 17.5725C56.4855 20.4986 58.4144 21.888 61.0952 21.1197C61.1443 21.5284 61.2423 21.9207 61.2423 22.313C61.2587 24.7323 61.2423 27.168 61.2423 29.5873C61.2423 31.5325 60.9154 31.9739 58.9702 32.4316C58.9702 33.02 58.9702 33.6412 58.9702 34.3278C55.9951 34.3278 53.1017 34.3278 50.1103 34.3278C50.1103 30.895 50.1103 27.4786 50.1103 23.9477C49.3747 24.1112 48.7535 24.2583 48.0179 24.4217C48.1487 22.7544 47.7074 21.1524 48.3939 19.6158C48.9987 18.2427 50.6171 17.2783 52.0556 17.6869C52.6931 17.8667 53.2325 18.4552 53.7393 18.9292C54.1643 19.3379 54.4585 19.3543 54.8835 18.9456C55.3576 18.4716 55.9297 18.0793 56.5672 17.5725Z" fill="#00A2D1"/>
<path d="M30.3472 19.3543C30.7886 19.011 31.1809 18.7168 31.5569 18.4062C33.3223 16.9513 35.9705 17.8013 36.3955 20.0735C36.657 21.4466 36.6243 22.8688 36.7224 24.4381C35.9214 24.2583 35.3002 24.1275 34.581 23.9804C34.581 27.4786 34.581 30.9113 34.581 34.3768C31.6223 34.3768 28.7453 34.3768 25.7865 34.3768C25.7865 33.7393 25.7865 33.1181 25.7865 32.4806C25.4923 32.3989 25.2634 32.3335 25.0346 32.2681C23.923 31.9412 23.449 31.3527 23.449 30.1921C23.449 28.9498 23.5143 27.7074 23.498 26.4651C23.498 25.19 23.4326 23.915 23.4163 22.64C23.4163 22.1986 23.498 21.7409 23.547 21.2015C24.7894 21.5447 25.8683 21.5938 26.8654 20.7764C27.8462 19.9591 28.0914 18.9129 28.075 17.5398C28.8924 18.1937 29.5953 18.7495 30.3472 19.3543Z" fill="#00A2D1"/>
<path d="M36.5591 17.6053C37.6216 16.6081 38.8803 16.6081 40.0573 16.7716C40.613 16.8533 41.1198 17.4745 41.5938 17.9158C42.1006 18.3899 42.5256 18.5043 42.9997 17.9158C44.3074 16.3302 45.9093 16.5264 47.5767 17.1802C47.7892 17.262 47.9854 17.4091 48.2633 17.5726C46.1872 20.0899 46.7921 23.016 46.7594 25.8276C46.7267 28.6556 46.7594 31.4998 46.7594 34.3769C43.7516 34.3769 40.8909 34.3769 37.8995 34.3769C37.8995 34.0499 37.8995 33.7557 37.8995 33.4615C37.8995 29.8652 37.8505 26.269 37.9159 22.6727C37.9322 20.8582 37.5399 19.1909 36.5591 17.6053Z" fill="#00A2D1"/>
<path d="M39.8284 3.90682C39.8121 6.04823 38.0794 7.81366 35.9706 7.83001C33.8456 7.83001 32.0148 5.98284 32.0311 3.85778C32.0475 1.76541 33.8456 0 35.987 0C38.1121 0.0163466 39.8284 1.74907 39.8284 3.90682Z" fill="#00A2D1"/>
<path d="M46.187 11.7532C46.187 13.8946 44.4706 15.6437 42.3128 15.6763C40.1878 15.709 38.3733 13.8782 38.3733 11.7368C38.3896 9.59539 40.1387 7.86268 42.2965 7.87902C44.4869 7.86268 46.187 9.57906 46.187 11.7532Z" fill="#00A2D1"/>
<path d="M48.443 0.0163574C50.6007 0.0163574 52.2844 1.73278 52.2844 3.92322C52.2844 6.08097 50.5353 7.86275 48.4266 7.84641C46.2689 7.83006 44.5361 6.09731 44.5361 3.95591C44.5525 1.71642 46.2362 0.0163574 48.443 0.0163574Z" fill="#00A2D1"/>
<path d="M26.5548 12.6031C26.2606 11.0174 27.8952 8.8924 30.0693 8.77797C32.3088 8.66354 33.9762 10.1347 34.2541 12.1781C34.5483 14.4176 32.881 16.3628 30.7069 16.5262C28.2385 16.7061 26.7346 15.3003 26.5548 12.6031Z" fill="#00A2D1"/>
<path d="M54.197 16.5266C52.5133 16.69 50.421 15.039 50.4864 12.6197C50.5517 10.413 52.1701 8.74561 54.3768 8.74561C56.4856 8.74561 58.2673 10.5764 58.2346 12.7015C58.202 14.8919 56.4365 16.5429 54.197 16.5266Z" fill="#00A2D1"/>
<path d="M46.3667 15.1859C47.8379 13.3224 48.0341 11.279 46.9552 9.03955C48.1321 9.03955 49.1947 9.03955 50.3553 9.03955C48.5898 11.4752 48.5408 13.8782 50.388 16.2811C49.7995 16.6571 49.3418 16.6898 48.7206 16.2648C48.0341 15.8071 47.2167 15.5619 46.3667 15.1859Z" fill="#00A2D1"/>
<path d="M34.2217 16.4119C36.0525 13.9435 36.1833 11.5406 34.3525 9.07227C35.4967 9.07227 36.5266 9.07227 37.5727 9.07227C36.7227 12.3906 36.7227 12.3906 38.1449 15.1859C37.1968 15.6763 36.265 16.183 35.3006 16.608C35.039 16.7061 34.6467 16.4936 34.2217 16.4119Z" fill="#00A2D1"/>
<path d="M27.1433 18.1774C27.0289 19.4524 26.277 20.237 25.0673 20.2861C23.9558 20.3187 23.1057 19.5668 23.0077 18.4062C22.9423 17.7687 23.3019 17.3764 23.8577 17.1639C24.6914 16.8533 25.476 15.9869 26.3914 16.6081C26.8164 16.9023 26.8981 17.6379 27.1433 18.1774Z" fill="#00A2D1"/>
<path d="M57.6624 17.9323C57.7115 17.7524 57.8095 17.3601 57.9567 16.9842C58.1692 16.4447 58.5942 16.2485 59.15 16.4447C59.6404 16.6082 60.0981 16.8207 60.5721 17.0332C61.2587 17.3438 61.7818 17.7525 61.5856 18.6352C61.3894 19.5342 60.7683 20.1554 59.8856 20.2535C58.6105 20.4006 57.6297 19.4852 57.6624 17.9323Z" fill="#00A2D1"/>
<path d="M5.292 10.74L3.672 11.856C3.048 12.288 2.472 12.408 1.944 12.216C1.44 12 1.188 11.592 1.188 10.992C1.188 10.704 1.308 10.416 1.548 10.128C1.788 9.84 4.32 8.568 9.144 6.312C9.888 5.976 10.728 5.472 11.664 4.8C12.6 4.128 13.248 3.78 13.608 3.756C13.968 3.756 14.376 3.912 14.832 4.224C15.288 4.536 15.516 4.872 15.516 5.232C15.516 5.328 15.492 5.448 15.444 5.592C15.396 5.712 13.68 8.592 10.296 14.232C11.064 13.704 11.904 13.296 12.816 13.008C13.728 12.696 14.592 12.54 15.408 12.54C17.016 12.54 18.252 13.08 19.116 14.16C20.004 15.216 20.448 16.584 20.448 18.264C20.448 21.336 19.284 24.072 16.956 26.472C14.628 28.848 11.688 30.036 8.136 30.036C6.24 30.036 4.572 29.652 3.132 28.884C1.692 28.092 0.972 27.276 0.972 26.436C0.948 26.244 1.032 26.064 1.224 25.896C1.416 25.728 1.644 25.644 1.908 25.644C2.124 25.644 2.472 25.788 2.952 26.076C3.432 26.34 3.936 26.556 4.464 26.724C5.088 26.964 5.616 27.132 6.048 27.228C6.504 27.3 6.996 27.336 7.524 27.336C10.116 27.336 12.216 26.58 13.824 25.068C15.456 23.532 16.272 21.708 16.272 19.596C16.248 18.492 16.044 17.64 15.66 17.04C15.276 16.44 14.676 16.14 13.86 16.14C13.38 16.164 12.648 16.344 11.664 16.68C10.704 17.016 9.672 17.46 8.568 18.012C6.936 18.852 6.12 19.272 6.12 19.272C6.12 19.272 6.096 19.26 6.048 19.236C5.736 19.236 5.448 19.116 5.184 18.876C4.92 18.612 4.788 18.312 4.788 17.976C4.788 17.808 4.812 17.628 4.86 17.436C4.932 17.244 5.064 16.992 5.256 16.68L6.84 14.088C8.28 11.736 9.132 10.284 9.396 9.732C9.684 9.18 9.996 8.532 10.332 7.788C8.916 8.412 8.208 8.724 8.208 8.724C8.208 8.724 7.236 9.396 5.292 10.74Z" fill="#00A2D1"/>
</svg>
