<svg width="33" height="33" viewBox="0 0 33 33" fill="none" xmlns="http://www.w3.org/2000/svg">
<path d="M0 16.4312C0 15.8261 0 15.2291 0 14.624C0.0242034 14.4143 0.0564746 14.2045 0.0806781 13.9947C0.524407 10.2271 2.1541 7.0403 4.95363 4.49894C9.06015 0.771611 13.917 -0.648323 19.3708 0.271407C24.6552 1.15887 28.6972 3.96646 31.2789 8.70227C32.8602 11.6067 33.3362 14.7289 32.7714 17.9964C32.2067 21.2719 30.698 24.0634 28.318 26.3788C28.1889 26.5079 28.1405 26.6047 28.2373 26.7903C29.2216 28.6136 30.6012 30.0497 32.368 31.1146C32.7634 31.3567 33.0215 31.6471 32.9812 32.115C32.9409 32.5749 32.6827 32.8815 32.2228 32.9944C31.3434 32.9944 30.464 32.9944 29.5846 32.9944C29.4959 32.9783 29.3991 32.946 29.3103 32.938C26.4624 32.7605 23.7516 32.0505 21.2103 30.7516C20.944 30.6144 20.702 30.5822 20.4116 30.6386C18.4753 31.034 16.5309 31.1792 14.5543 30.9452C10.5769 30.4692 7.15614 28.8476 4.34855 25.9835C2.25899 23.8455 0.887459 21.3203 0.290441 18.3917C0.161356 17.7463 0.0968137 17.0847 0 16.4312ZM14.5624 19.4002C14.5624 20.691 14.5543 21.9738 14.5624 23.2647C14.5705 24.4022 15.4095 25.2574 16.4906 25.2574C17.5555 25.2574 18.4107 24.4184 18.4188 23.2969C18.4349 20.7152 18.4269 18.1255 18.4188 15.5438C18.4188 14.979 18.2171 14.4869 17.7895 14.1158C17.1764 13.5752 16.4745 13.4461 15.7242 13.7688C14.9658 14.0996 14.5705 14.7128 14.5624 15.5438C14.5543 16.8265 14.5624 18.1093 14.5624 19.4002ZM16.5067 6.76599C15.4579 6.75792 14.5785 7.62118 14.5624 8.67806C14.5463 9.72688 15.4095 10.6063 16.4583 10.6305C17.5152 10.6466 18.4188 9.76722 18.4188 8.71033C18.4269 7.66152 17.5555 6.78213 16.5067 6.76599Z" fill="#0E2A36"/>
</svg>
