<svg width="30" height="31" viewBox="0 0 30 31" fill="none" xmlns="http://www.w3.org/2000/svg">
<g clip-path="url(#clip0_1142_6961)">
<path d="M5.4589 30.348C5.41143 30.3322 5.37187 30.3005 5.3244 30.2926C4.24054 30.0236 3.55225 29.1692 3.5127 28.0537C3.5127 27.9983 3.5127 27.935 3.5127 27.8796C3.5127 21.8037 3.5127 15.7198 3.5127 9.64388C3.5127 8.6154 3.932 7.83217 4.87345 7.38122C5.78326 6.954 6.89086 7.19926 7.53168 7.97457C7.62662 8.08533 7.67409 8.27521 7.67409 8.42552C7.682 11.6296 7.682 14.8417 7.682 18.0458C7.682 21.6929 7.67409 25.348 7.68991 28.9951C7.68991 29.3116 7.6108 29.5727 7.34972 29.7309C6.96997 29.9603 6.55858 30.1423 6.16301 30.348C5.93358 30.348 5.69624 30.348 5.4589 30.348Z" fill="white"/>
<path d="M23.8213 30.348C23.3308 30.2056 22.8403 30.0316 22.508 29.6123C22.3973 29.4699 22.3023 29.2721 22.3023 29.098C22.2944 22.2072 22.2944 15.3243 22.3023 8.43349C22.3023 8.25944 22.3893 8.03792 22.508 7.91925C23.1884 7.21514 24.0191 7.00944 24.9447 7.31799C25.8308 7.61071 26.4162 8.4414 26.4716 9.40659C26.4795 9.53318 26.4795 9.65976 26.4795 9.79425C26.4795 15.7041 26.4795 21.6139 26.4795 27.5316C26.4795 29.2088 26.084 29.7784 24.5333 30.356C24.296 30.348 24.0587 30.348 23.8213 30.348Z" fill="white"/>
<path d="M10.079 30.3482C9.58054 30.2137 9.11376 30.0238 8.74193 29.6362C8.59952 29.4859 8.52832 29.3276 8.52832 29.114C8.53623 22.2153 8.52832 15.3166 8.54414 8.41783C8.54414 8.25169 8.62326 8.04599 8.73402 7.92732C9.64383 6.93049 11.2261 6.94631 12.1122 7.96688C12.1992 8.06973 12.2625 8.22795 12.2625 8.36245C12.2704 15.3007 12.2704 22.239 12.2625 29.1773C12.2625 29.3197 12.1834 29.478 12.0964 29.5966C11.7483 30.0238 11.2498 30.2216 10.7277 30.364C10.5141 30.3482 10.2926 30.3482 10.079 30.3482Z" fill="white"/>
<path d="M19.2645 30.3482C18.7661 30.2216 18.2993 30.0238 17.9275 29.6361C17.7851 29.4858 17.7139 29.3276 17.7139 29.114C17.7218 22.2153 17.7139 15.3165 17.7297 8.41779C17.7297 8.25165 17.8088 8.04595 17.9196 7.92728C18.8294 6.93044 20.3642 6.93835 21.274 7.9431C21.3768 8.05386 21.448 8.23582 21.448 8.38614C21.456 15.3086 21.456 22.2232 21.448 29.1456C21.448 29.3039 21.3689 29.4858 21.2661 29.6124C20.9259 30.0396 20.4354 30.2216 19.9211 30.3561C19.6917 30.3482 19.4781 30.3482 19.2645 30.3482Z" fill="white"/>
<path d="M14.6362 30.3483C14.1456 30.198 13.663 30.0239 13.3229 29.6046C13.2121 29.4701 13.1251 29.2802 13.1251 29.1141C13.1172 22.2075 13.1172 15.3008 13.1251 8.39417C13.1251 8.23594 13.2042 8.04607 13.307 7.9274C14.1773 6.94639 15.7517 6.93056 16.6456 7.89575C16.7564 8.01442 16.8355 8.2043 16.8355 8.36252C16.8434 15.3008 16.8434 22.2391 16.8355 29.1695C16.8355 29.3198 16.7564 29.4939 16.6536 29.6046C16.3134 30.016 15.8308 30.198 15.3403 30.3404C15.1108 30.3483 14.8735 30.3483 14.6362 30.3483Z" fill="white"/>
<path d="M2.64243 13.1961C2.19939 13.1645 1.77218 13.1882 1.36079 13.1012C0.490533 12.9192 -0.0632641 12.1123 2.70602e-05 11.1866C0.0633182 10.3559 0.767432 9.636 1.61395 9.5648C1.94623 9.53315 2.27851 9.55688 2.63452 9.55688C2.64243 10.7594 2.64243 11.9382 2.64243 13.1961Z" fill="white"/>
<path d="M27.334 13.1648C27.334 11.9464 27.334 10.7676 27.334 9.57301C28.0381 9.54136 28.7343 9.47016 29.3356 9.96858C29.8973 10.4353 30.1346 11.2186 29.9052 11.9227C29.6758 12.6347 29.0112 13.141 28.2675 13.1648C27.9669 13.1727 27.6584 13.1648 27.334 13.1648Z" fill="white"/>
<path d="M27.3418 27.9593C27.3418 26.7488 27.3418 25.57 27.3418 24.3991C28.22 24.146 29.1772 24.4308 29.6519 25.0953C30.4747 26.2425 29.7389 27.8169 28.3149 27.9593C28.0064 27.983 27.6899 27.9593 27.3418 27.9593Z" fill="white"/>
<path d="M2.65013 27.9989C2.19127 27.9673 1.74032 27.9831 1.32102 27.8882C0.458677 27.6825 -0.079298 26.8359 0.00772733 25.934C0.0947526 25.0875 0.822601 24.3992 1.69285 24.3518C2.0014 24.3359 2.31785 24.3518 2.65013 24.3518C2.65013 25.5622 2.65013 26.7489 2.65013 27.9989Z" fill="white"/>
<path d="M17.3337 0.506448C17.31 0.561828 17.2704 0.680499 17.2072 0.767524C17.1201 0.894107 17.0015 1.00487 16.8986 1.12354C16.6296 1.41626 16.6217 1.62987 16.8986 1.91468C17.2072 2.22322 17.4841 2.5555 17.4287 3.02227C17.3891 3.31499 17.2625 3.5998 17.128 3.86088C17.0331 4.05075 16.8591 4.19316 16.7087 4.3593C16.5426 4.54917 16.3369 4.58082 16.1312 4.4305C15.9413 4.28809 15.8859 4.09031 16.0125 3.88461C16.1075 3.72638 16.2341 3.58398 16.3606 3.44949C16.6692 3.1093 16.6771 2.91942 16.3448 2.59506C15.9492 2.2074 15.7435 1.77227 15.878 1.21056C15.9967 0.720056 16.3685 0.411512 16.7087 0.095056C16.9382 -0.126463 17.3337 0.11879 17.3337 0.506448Z" fill="white"/>
<path d="M9.84979 4.51744C9.48587 4.52535 9.26435 4.20098 9.41467 3.91617C9.50169 3.74212 9.6441 3.59181 9.77068 3.4494C10.0713 3.11712 10.0871 2.91143 9.75486 2.58706C9.33555 2.17567 9.0903 1.67725 9.32764 1.12345C9.49378 0.743704 9.81024 0.411426 10.095 0.0949704C10.2295 -0.0553461 10.4827 -0.0316119 10.5935 0.142439C10.6805 0.276932 10.72 0.498451 10.6726 0.648768C10.6172 0.822818 10.4511 0.965224 10.3166 1.10763C10.0397 1.41617 10.0476 1.61396 10.3087 1.93041C10.4985 2.15984 10.6884 2.41301 10.7992 2.68991C10.9337 3.04592 10.8625 3.41776 10.6409 3.73421C10.4748 3.96364 10.2849 4.17725 10.0871 4.38295C10.0159 4.46206 9.89726 4.4937 9.84979 4.51744Z" fill="white"/>
<path d="M20.6645 0.379676C20.617 0.522081 20.6012 0.601195 20.5695 0.672398C20.5379 0.7436 20.4904 0.806891 20.435 0.870183C19.8971 1.54265 19.905 1.54265 20.4271 2.18347C20.7119 2.53949 20.8623 2.9667 20.6645 3.37018C20.4746 3.76575 20.1661 4.11385 19.8733 4.44613C19.8021 4.51733 19.5331 4.47778 19.3986 4.40658C19.2167 4.30373 19.193 4.09012 19.2958 3.90816C19.3828 3.75784 19.5015 3.61544 19.6202 3.48885C19.9683 3.11702 19.9524 2.95088 19.6202 2.55531C19.4461 2.34961 19.28 2.11227 19.193 1.86702C19.0585 1.47145 19.1376 1.08379 19.3986 0.751512C19.5569 0.545815 19.7151 0.340119 19.905 0.17398C20.0157 0.0869547 20.2214 0.0394864 20.3559 0.0790433C20.4825 0.102777 20.5695 0.276828 20.6645 0.379676Z" fill="white"/>
<path d="M14.1059 0.411599C14.0031 0.593561 13.9398 0.735966 13.8448 0.862548C13.7578 0.981219 13.6471 1.07616 13.5442 1.19483C13.3464 1.42426 13.3464 1.62995 13.5363 1.85938C14.367 2.87204 14.367 3.20432 13.5442 4.19324C13.2515 4.54926 13.0458 4.61255 12.8164 4.43059C12.5869 4.24071 12.6186 3.9559 12.9034 3.63154C12.9667 3.56033 13.0379 3.48913 13.1091 3.41793C13.3622 3.13312 13.3702 2.91951 13.1012 2.64261C12.7847 2.32616 12.5078 1.98597 12.5711 1.51128C12.6107 1.23438 12.7293 0.949574 12.8638 0.696409C12.9667 0.498624 13.1328 0.316662 13.3069 0.19008C13.4255 0.0951435 13.6391 0.0397637 13.7736 0.0793207C13.9002 0.103055 13.9872 0.285017 14.1059 0.411599Z" fill="white"/>
</g>
<defs>
<clipPath id="clip0_1142_6961">
<rect width="30" height="30.3481" fill="white"/>
</clipPath>
</defs>
</svg>
