<svg width="28" height="32" viewBox="0 0 28 32" fill="none" xmlns="http://www.w3.org/2000/svg">
<g clip-path="url(#clip0_1141_6956)">
<path d="M14.7384 31.8089C14.1409 31.8089 13.5351 31.8089 12.9376 31.8089C12.8629 31.7923 12.7799 31.7591 12.7052 31.7591C11.2446 31.6512 9.84214 31.3109 8.50604 30.7383C2.83799 28.34 -0.556205 22.6719 0.0745004 16.5474C0.522633 12.1823 2.65541 8.79641 6.27367 6.33998C7.01226 5.84205 7.59317 6.07442 7.90853 6.91259C8.20728 7.70097 8.52263 8.48936 8.90438 9.24454C9.11185 9.65118 9.4355 10.0163 9.76745 10.3234C10.1824 10.7134 10.4645 10.6719 10.8546 10.257C11.4355 9.65118 11.8421 8.92919 12.1907 8.1823C13.2031 6.04122 13.7923 3.77566 14.0496 1.42711C14.199 0.0744169 14.6056 -0.0915583 15.7923 0.032923C17.784 0.240392 19.5019 1.06197 21.0621 2.26529C23.4355 4.09101 25.145 6.43956 26.4065 9.13666C27.3276 11.1118 27.9168 13.1782 27.9832 15.3773C28.0413 17.3358 27.8338 19.2777 27.3276 21.1616C25.8338 26.6968 22.282 30.1657 16.6886 31.5018C16.0579 31.6512 15.394 31.7093 14.7384 31.8089ZM16.4148 14.8379C16.199 14.8379 15.9334 15.0537 15.726 15.4105C14.4562 17.618 13.1865 19.8172 11.9168 22.0163C11.3857 22.9375 10.8463 23.8586 10.3235 24.7798C9.98321 25.3773 10.2737 26.0578 10.9044 26.1989C11.3276 26.2902 11.7094 26.0993 11.9749 25.6429C13.4189 23.145 14.8629 20.647 16.2986 18.1491C16.6637 17.5101 17.0455 16.8877 17.394 16.2404C17.7591 15.5848 17.3442 14.8462 16.4148 14.8379ZM15.9168 22.9624C15.9168 24.5226 17.1616 25.784 18.7052 25.7757C20.2405 25.7757 21.5019 24.5226 21.5019 22.9956C21.5102 21.4437 20.2571 20.1823 18.7052 20.1823C17.1616 20.1906 15.9168 21.4271 15.9168 22.9624ZM6.58902 18.1076C6.58073 19.6678 7.83384 20.9292 9.37741 20.9292C10.9127 20.9292 12.1741 19.6761 12.1824 18.1491C12.1907 16.6138 10.9459 15.3441 9.4189 15.3358C7.85043 15.3275 6.59732 16.5557 6.58902 18.1076Z" fill="#F07B59"/>
<path d="M17.7843 22.971C17.7843 22.4564 18.1909 22.0498 18.7138 22.0498C19.22 22.0498 19.6432 22.4647 19.6432 22.971C19.6515 23.4855 19.2117 23.917 18.6972 23.9087C18.1826 23.9004 17.776 23.4855 17.7843 22.971Z" fill="#F07B59"/>
<path d="M8.45605 18.1243C8.45605 17.6098 8.85439 17.2031 9.36892 17.2031C9.87514 17.2031 10.2984 17.6098 10.3067 18.116C10.315 18.6222 9.87514 19.0703 9.36062 19.062C8.8544 19.0537 8.45605 18.6471 8.45605 18.1243Z" fill="#F07B59"/>
</g>
<defs>
<clipPath id="clip0_1141_6956">
<rect width="28" height="31.8091" fill="white"/>
</clipPath>
</defs>
</svg>
