<svg width="50" height="50" viewBox="0 0 50 50" fill="none" xmlns="http://www.w3.org/2000/svg">
<g clip-path="url(#clip0_47_28)">
<rect x="2" y="2" width="46" height="46" rx="10" fill="#E7E9E4"/>
<path d="M48.2752 8.54728C47.6397 6.91118 46.7924 5.52531 45.406 4.13944C44.0195 2.75357 42.6331 1.90665 40.9963 1.27146C39.4173 0.655518 37.588 0.232058 34.9499 0.116569C32.2925 0.00107947 31.4453 -0.0374146 24.6671 -0.0374146C17.8889 -0.0374146 17.0417 -0.0181687 14.3843 0.116569C11.727 0.232058 9.91689 0.655518 8.33788 1.27146C6.70111 1.90665 5.31466 2.75357 3.92822 4.13944C2.54178 5.52531 1.69451 6.91118 1.05905 8.54728C0.442856 10.1256 0.0192207 11.9542 -0.0963163 14.5912C-0.211853 17.2475 -0.250366 18.0944 -0.250366 24.8697C-0.250366 31.6451 -0.231109 32.492 -0.0963163 35.1483C0.0192207 37.8045 0.442856 39.6138 1.05905 41.1922C1.69451 42.8283 2.54178 44.2142 3.92822 45.6C5.31466 46.9859 6.70111 47.8328 8.33788 48.468C9.91689 49.084 11.7462 49.5074 14.3843 49.6229C17.0417 49.7384 17.8889 49.7769 24.6671 49.7769C31.4453 49.7769 32.2925 49.7576 34.9499 49.6229C37.6072 49.5074 39.4173 49.084 40.9963 48.468C42.6331 47.8328 44.0195 46.9859 45.406 45.6C46.7924 44.2142 47.6397 42.8283 48.2752 41.1922C48.8914 39.6138 49.315 37.7853 49.4305 35.1483C49.5461 32.492 49.5846 31.6451 49.5846 24.8697C49.5846 18.0944 49.5653 17.2475 49.4305 14.5912C49.315 11.935 48.8914 10.1256 48.2752 8.54728ZM44.9438 34.9365C44.8283 37.3618 44.4239 38.6899 44.0773 39.5561C43.6344 40.711 43.076 41.5579 42.2095 42.4241C41.3429 43.2903 40.5149 43.8292 39.3403 44.2912C38.4545 44.6376 37.1451 45.0418 34.7188 45.1573C32.0807 45.2728 31.3105 45.3113 24.6479 45.3113C17.9852 45.3113 17.1957 45.2921 14.5769 45.1573C12.1506 45.0418 10.8219 44.6376 9.9554 44.2912C8.80003 43.8484 7.95276 43.2903 7.08623 42.4241C6.21971 41.5579 5.68053 40.7302 5.21839 39.5561C4.87177 38.6707 4.46739 37.3618 4.35186 34.9365C4.23632 32.2995 4.19781 31.5104 4.19781 24.8697C4.19781 18.2291 4.21706 17.4207 4.35186 14.8029C4.46739 12.3777 4.87177 11.0495 5.21839 10.1834C5.66128 9.02848 6.21971 8.18156 7.08623 7.31539C7.95276 6.44922 8.78077 5.91028 9.9554 5.44832C10.8412 5.10185 12.1506 4.69764 14.5769 4.58215C17.215 4.46666 18.0045 4.42816 24.6479 4.42816C31.2912 4.42816 32.1 4.44741 34.7188 4.58215C37.1451 4.69764 38.4738 5.10185 39.3403 5.44832C40.4957 5.89103 41.3429 6.44922 42.2095 7.31539C43.076 8.18156 43.6152 9.00923 44.0773 10.1834C44.4239 11.0688 44.8283 12.3777 44.9438 14.8029C45.0594 17.4399 45.0979 18.2291 45.0979 24.8697C45.0979 31.5104 45.0594 32.3188 44.9438 34.9365Z" fill="url(#paint0_linear_47_28)"/>
<path d="M24.6479 12.0697C17.5809 12.0697 11.8425 17.8057 11.8425 24.8697C11.8425 31.9338 17.5809 37.6698 24.6479 37.6698C31.7149 37.6698 37.4532 31.9338 37.4532 24.8697C37.4532 17.8057 31.7149 12.0697 24.6479 12.0697ZM24.6479 33.185C20.0649 33.185 16.3292 29.4701 16.3292 24.8697C16.3292 20.2887 20.0457 16.5545 24.6479 16.5545C29.2501 16.5545 32.9665 20.2694 32.9665 24.8697C32.9665 29.4508 29.2308 33.185 24.6479 33.185Z" fill="url(#paint1_linear_47_28)"/>
<path d="M37.9538 14.5527C39.6022 14.5527 40.9385 13.217 40.9385 11.5693C40.9385 9.92153 39.6022 8.58578 37.9538 8.58578C36.3054 8.58578 34.9691 9.92153 34.9691 11.5693C34.9691 13.217 36.3054 14.5527 37.9538 14.5527Z" fill="url(#paint2_linear_47_28)"/>
</g>
<defs>
<linearGradient id="paint0_linear_47_28" x1="-36.0736" y1="49.6728" x2="64.4855" y2="49.6728" gradientUnits="userSpaceOnUse">
<stop stop-color="#25CE9B"/>
<stop offset="1" stop-color="#75CEAB"/>
</linearGradient>
<linearGradient id="paint1_linear_47_28" x1="-6.53337" y1="37.6061" x2="45.105" y2="37.6061" gradientUnits="userSpaceOnUse">
<stop stop-color="#2BCF9D"/>
<stop offset="0.0001" stop-color="#30D09F"/>
<stop offset="0.9577" stop-color="#49D4A6"/>
</linearGradient>
<linearGradient id="paint2_linear_47_28" x1="30.6729" y1="14.5393" x2="42.74" y2="14.5393" gradientUnits="userSpaceOnUse">
<stop stop-color="#20CE9A"/>
<stop offset="1" stop-color="#CDF0D5"/>
</linearGradient>
<clipPath id="clip0_47_28">
<rect width="49.2958" height="50" fill="white"/>
</clipPath>
</defs>
</svg>
