<svg width="40" height="40" viewBox="0 0 40 40" fill="none" xmlns="http://www.w3.org/2000/svg">
<path d="M11.4638 38.9607C11.1368 38.7526 11.0476 38.4554 11.0476 38.0788C11.0575 33.0452 11.0476 28.0215 11.0575 22.9878C11.0575 22.2942 11.2458 22.106 11.9394 22.106C12.8411 22.106 13.7428 22.106 14.6445 22.106C15.1895 22.106 15.4075 22.3239 15.4075 22.8689C15.4075 23.3842 15.4174 23.9093 15.4075 24.4246C15.4075 24.7417 15.5462 24.8705 15.8533 24.8705C16.3587 24.8606 16.864 24.8606 17.3694 24.8705C17.7162 24.8804 17.8648 24.7516 17.8549 24.3949C17.8351 23.8895 17.845 23.3842 17.8549 22.8788C17.8648 22.3339 18.0828 22.1159 18.6278 22.1159C19.5394 22.1159 20.4609 22.1159 21.3725 22.1159C21.9076 22.1159 22.1355 22.3438 22.1454 22.8788C22.1553 23.3941 22.1553 23.9193 22.1454 24.4345C22.1355 24.7516 22.2841 24.8804 22.5913 24.8705C23.0966 24.8606 23.602 24.8606 24.1073 24.8705C24.4541 24.8804 24.6028 24.7417 24.5929 24.3949C24.5829 23.8796 24.5829 23.3545 24.5929 22.8392C24.6028 22.3438 24.8208 22.1159 25.3162 22.1159C26.2575 22.106 27.1988 22.1159 28.1303 22.1159C28.7248 22.1159 28.9329 22.3239 28.9329 22.9185C28.9329 25.0786 28.9329 27.2486 28.9329 29.4087C28.9329 32.2921 28.9329 35.1657 28.9428 38.0491C28.9428 38.4356 28.8635 38.7526 28.5266 38.9607C27.3178 38.9607 26.099 38.9607 24.8901 38.9607C24.5235 38.7923 24.4244 38.5049 24.4244 38.1185C24.4244 36.8006 24.4839 35.4728 24.3649 34.1649C24.1668 31.9255 22.2247 30.2509 19.9754 30.2608C17.736 30.2708 15.8137 31.9552 15.6155 34.1946C15.5065 35.4927 15.5561 36.8105 15.5561 38.1185C15.5561 38.5049 15.4471 38.7923 15.0904 38.9607C13.8815 38.9607 12.6726 38.9607 11.4638 38.9607ZM15.7047 28.4178C15.7047 28.2989 15.7146 28.1701 15.7047 28.0512C15.6849 27.6648 15.4273 27.4071 15.0805 27.4071C14.7535 27.4071 14.4859 27.6548 14.4562 28.0215C14.4364 28.289 14.4364 28.5665 14.4661 28.834C14.5058 29.1709 14.7931 29.3988 15.1003 29.3889C15.4174 29.379 15.6651 29.1412 15.7047 28.7944C15.7146 28.6655 15.7047 28.5466 15.7047 28.4178ZM25.554 28.398C25.5441 28.398 25.5342 28.398 25.5243 28.398C25.5243 28.2593 25.5342 28.1206 25.5243 27.9917C25.4747 27.635 25.2072 27.3873 24.8802 27.4071C24.5433 27.417 24.2956 27.6747 24.2758 28.0413C24.2659 28.3088 24.256 28.5863 24.2857 28.8538C24.3253 29.1808 24.5433 29.3592 24.8604 29.379C25.1576 29.3988 25.3955 29.2502 25.4846 28.9529C25.5342 28.7745 25.5342 28.5863 25.554 28.398ZM20.6294 28.1503C20.6294 27.7044 20.3717 27.3972 19.9853 27.4071C19.6088 27.4071 19.3511 27.7143 19.361 28.1602C19.361 28.616 19.6088 28.9033 20.0051 28.9033C20.3816 28.8934 20.6294 28.6061 20.6294 28.1503Z" fill="#0E2A36"/>
<path d="M1 27.3081C1.15854 26.9712 1.42608 26.8424 1.80261 26.8523C2.76375 26.8722 3.73481 26.8523 4.69596 26.8622C5.30039 26.8622 5.50847 27.0703 5.50847 27.6946C5.50847 28.1999 5.50847 28.7053 5.50847 29.2106C5.50847 29.4881 5.62738 29.6169 5.90482 29.6169C6.4498 29.6169 6.99479 29.607 7.53977 29.6169C7.83703 29.6169 7.96584 29.4781 7.96584 29.1908C7.96584 28.7053 7.96584 28.2296 7.96584 27.7441C7.96584 27.0307 8.1442 26.8622 8.86754 26.8622C8.96662 26.8622 9.06571 26.8622 9.1648 26.8622C9.52151 26.8821 9.7296 27.0802 9.76923 27.4369C9.77914 27.536 9.77914 27.6351 9.77914 27.7342C9.77914 31.1825 9.77914 34.6307 9.78905 38.0789C9.78905 38.4555 9.70978 38.7527 9.38279 38.9608C7.10378 38.9608 4.83468 38.9608 2.55567 38.9608C1.74316 38.7329 1.2279 38.2177 1 37.4051C1 34.0362 1 30.6771 1 27.3081Z" fill="#0E2A36"/>
<path d="M30.6072 38.9609C30.2901 38.7528 30.2009 38.4555 30.2009 38.079C30.2108 34.6308 30.2108 31.1825 30.2108 27.7343C30.2108 27.4172 30.191 27.0308 30.5477 26.9515C30.9342 26.8722 31.3702 26.9218 31.7566 27.001C31.8755 27.0308 31.9944 27.3577 32.0142 27.5559C32.0539 28.0811 32.034 28.6161 32.0241 29.1512C32.0142 29.4782 32.1529 29.6268 32.4898 29.6169C33.0051 29.607 33.5303 29.607 34.0455 29.6169C34.3626 29.6268 34.4914 29.4782 34.4815 29.171C34.4716 28.6558 34.4716 28.1306 34.4815 27.6154C34.4914 27.0902 34.7094 26.8623 35.2247 26.8623C36.2353 26.8623 37.2559 26.8623 38.2666 26.8623C38.7621 26.8623 38.99 27.1001 38.9999 27.5856C38.9999 30.7366 38.9999 33.8876 38.9999 37.0386C38.9999 37.9105 38.4747 38.6042 37.6523 38.8717C37.5829 38.8915 37.5136 38.9212 37.4442 38.951C35.1553 38.9609 32.8763 38.9609 30.6072 38.9609Z" fill="#0E2A36"/>
<path d="M22.7398 38.9608C20.9066 38.9608 19.0834 38.9608 17.2503 38.9608C17.1116 38.7428 16.854 38.5347 16.8441 38.3167C16.8143 36.9889 16.7747 35.6512 16.8738 34.3235C16.9927 32.7084 18.37 31.549 19.9851 31.5391C21.5804 31.5292 22.9776 32.7282 23.1064 34.3235C23.2055 35.5621 23.146 36.8106 23.1757 38.0591C23.1757 38.4356 23.0767 38.7428 22.7398 38.9608Z" fill="#0E2A36"/>
<path d="M22.6705 7.82751C22.6804 8.41213 22.2246 8.70939 21.749 8.48149C21.2734 8.25359 20.7977 8.00587 20.3419 7.73833C20.1041 7.60952 19.9159 7.57979 19.6682 7.72842C19.2322 7.98605 18.7764 8.20404 18.3305 8.44185C18.0728 8.58058 17.8152 8.6103 17.5675 8.43194C17.3297 8.2635 17.2901 8.00587 17.3297 7.73833C17.4189 7.21317 17.5279 6.69792 17.5873 6.17275C17.6071 6.0043 17.5378 5.78631 17.4288 5.66741C17.0919 5.29088 16.7153 4.94407 16.3487 4.60717C16.1109 4.38918 15.9722 4.14146 16.0812 3.82438C16.1902 3.5073 16.4577 3.41812 16.7451 3.37849C17.2603 3.30913 17.7756 3.24968 18.2809 3.15059C18.4197 3.12086 18.5881 3.00196 18.6575 2.88305C18.925 2.40743 19.1529 1.912 19.3907 1.42647C19.5096 1.16884 19.688 1.00039 19.9852 1.00039C20.2924 0.990484 20.4807 1.16884 20.6095 1.43638C20.8374 1.912 21.0851 2.38762 21.313 2.86324C21.4022 3.04159 21.4914 3.15059 21.7193 3.17041C22.2444 3.22986 22.7696 3.31904 23.2947 3.39831C23.5821 3.43794 23.8298 3.54694 23.919 3.8442C24.0181 4.15137 23.8992 4.38918 23.6713 4.60717C23.3146 4.94407 22.9777 5.31069 22.6011 5.63768C22.3831 5.82595 22.3534 6.02412 22.403 6.29166C22.502 6.80691 22.5912 7.35189 22.6705 7.82751Z" fill="#0E2A36"/>
<path d="M19.9556 14.1097C19.0242 14.1097 18.1027 14.1097 17.1713 14.1097C16.5371 14.1097 16.2696 13.7133 16.5272 13.1287C16.9434 12.1775 17.3694 11.2362 17.7856 10.2849C17.9045 10.0174 18.0928 9.87866 18.3702 9.76966C18.7666 9.63094 19.1431 9.44267 19.5097 9.23459C19.8169 9.06614 20.0943 9.05623 20.4213 9.21477C20.8573 9.43276 21.323 9.60121 21.759 9.82911C21.9076 9.90838 22.0662 10.057 22.1355 10.2056C22.5913 11.1767 23.0273 12.1577 23.4534 13.1386C23.6714 13.6539 23.4138 14.0601 22.8391 14.0701C21.8779 14.0899 20.9168 14.0701 19.9457 14.0701C19.9556 14.0998 19.9556 14.0998 19.9556 14.1097Z" fill="#0E2A36"/>
<path d="M15.8829 15.3879C16.5269 15.3879 17.1314 15.3879 17.7259 15.3879C19.5887 15.378 21.4516 15.3681 23.3144 15.3582C23.899 15.3582 24.0873 15.5464 24.0972 16.131C24.0972 16.2301 24.0972 16.3292 24.0972 16.4283C24.0972 17.1814 23.9882 17.2904 23.2351 17.3696C22.7793 17.4192 22.3929 17.6372 22.0659 17.9542C21.5507 18.4695 21.0354 18.9848 20.5201 19.5C20.1238 19.8864 19.8265 19.8864 19.4401 19.5099C18.9248 18.9947 18.4096 18.4794 17.8943 17.9642C17.5178 17.5876 17.0818 17.3795 16.5467 17.3597C16.081 17.3399 15.8729 17.1219 15.863 16.6661C15.8729 16.2598 15.8829 15.8536 15.8829 15.3879Z" fill="#0E2A36"/>
<path d="M25.5638 20.5604C25.4151 20.6595 25.2962 20.818 25.1674 20.8279C24.5234 20.8874 24.018 21.1549 23.6316 21.6801C23.4631 21.908 23.2451 21.8882 23.0767 21.6603C22.7596 21.2045 22.3038 20.9964 21.7786 20.8676C21.3526 20.7685 21.2931 20.5505 21.6102 20.2235C22.066 19.7578 22.5317 19.2921 22.9974 18.8363C23.2947 18.5489 23.6217 18.5291 23.9189 18.8165C24.4144 19.2822 24.8801 19.7677 25.3656 20.2532C25.435 20.3226 25.4647 20.4118 25.5638 20.5604Z" fill="#0E2A36"/>
<path d="M16.5171 18.5586C16.7054 18.6775 16.8837 18.7469 17.0125 18.8658C17.4782 19.3117 17.934 19.7576 18.37 20.2233C18.4592 20.3223 18.5583 20.5007 18.5187 20.5998C18.479 20.7187 18.3007 20.8178 18.1719 20.8574C17.6764 20.9763 17.2603 21.2141 16.9531 21.6303C16.7252 21.9276 16.5369 21.9276 16.309 21.6204C15.9622 21.1646 15.5064 20.9169 14.9317 20.8475C14.7831 20.8277 14.5948 20.7286 14.5354 20.6097C14.4858 20.5205 14.5948 20.3124 14.684 20.2034C15.12 19.7476 15.5659 19.3017 16.0217 18.8658C16.1505 18.737 16.3288 18.6676 16.5171 18.5586Z" fill="#0E2A36"/>
</svg>
