<svg width="312" height="126" viewBox="0 0 312 126" fill="none" xmlns="http://www.w3.org/2000/svg">
<path d="M88.7975 114.54C86.4945 114.058 83.6012 113.317 80.1174 112.315C76.6337 111.314 73.0934 110.158 69.4967 108.846C65.9794 107.527 62.6214 106.19 59.4224 104.837C56.2235 103.484 53.7971 102.211 52.1432 101.017C54.6639 102.04 56.9647 102.884 59.0458 103.55C61.2147 104.287 63.3481 105.068 65.4458 105.894L65.8856 105.485C61.309 104.036 56.8978 102.247 52.6521 100.119C48.4065 97.9914 44.2968 96.0101 40.3233 94.1754C39.1425 93.656 38.3365 93.2581 37.9053 92.9816C37.5536 92.6968 37.25 92.4874 36.9946 92.3534L36.1216 92.0832C36.042 92.0915 36.0022 92.0957 36.0022 92.0957C35.9939 92.0162 35.9499 91.9806 35.8704 91.9889C33.63 92.8679 31.5843 93.6862 29.7333 94.4439C27.8824 95.2015 25.9875 95.9235 24.0486 96.6099C23.7304 96.6434 23.366 97.0034 22.9555 97.6901C22.5367 98.2972 22.1346 99.0634 21.7492 99.9888C21.3555 100.835 20.9261 101.724 20.4612 102.658C20.0841 103.663 19.7741 104.54 19.5312 105.29C19.3259 105.633 19.0976 106.14 18.8463 106.81C18.3603 108.309 17.956 109.437 17.6335 110.195C17.3905 110.944 17.38 111.227 17.602 111.043L19.7315 109.492C20.9292 108.642 22.0788 107.717 23.1802 106.716C24.29 105.795 25.471 104.786 26.7233 103.689C27.9838 102.672 29.236 101.575 30.4799 100.398C31.8033 99.2136 33.0115 98.0811 34.1046 97.0009C33.3716 98.4455 32.3036 99.7643 30.9006 100.958C29.5688 102.063 28.4087 103.271 27.4203 104.581C27.3408 104.59 27.3052 104.633 27.3135 104.713C27.234 104.721 27.1984 104.765 27.2067 104.845C29.0242 103.769 29.8932 103.235 29.8136 103.244C28.7205 104.324 27.8096 105.224 27.0809 105.944C26.3606 106.744 25.6758 107.5 25.0266 108.211C24.3859 109.003 23.6655 109.802 22.8656 110.61C22.1536 111.49 21.1798 112.557 19.9444 113.813C19.802 113.989 19.358 114.357 18.6126 114.918C17.9551 115.551 17.2452 116.068 16.4831 116.47C16.3407 116.645 16.1899 116.742 16.0308 116.758C15.8717 116.775 15.7167 116.832 15.566 116.928C15.1932 117.208 14.7829 117.131 14.3349 116.695C13.9748 116.331 13.7069 116.078 13.531 115.935C12.8109 115.206 12.4007 114.365 12.3003 113.41C12.2796 112.447 12.3739 111.431 12.5835 110.364C12.8809 109.367 13.2538 108.322 13.702 107.23C14.1502 106.137 14.5628 105.088 14.9399 104.083L15.543 102.934C16.406 100.43 17.2585 98.2085 18.1005 96.2698C19.0137 94.2433 19.9541 92.0932 20.9217 89.8196C21.9689 87.5376 23.102 84.9249 24.321 81.9813C25.54 79.0378 26.9266 75.3929 28.4808 71.0466L27.0487 71.1971C26.9691 71.2055 26.8854 71.1741 26.7975 71.1029L24.8629 71.0649C23.5103 71.207 22.2165 71.1419 20.9812 70.8696C19.8255 70.5888 18.1736 70.5613 16.0255 70.7871L15.523 70.5986L14.4238 70.4728L13.1551 69.8822C11.7357 69.3879 10.5193 68.9124 9.50605 68.4558C8.57233 67.9909 7.75378 67.4736 7.05039 66.904C6.33863 66.2548 5.73786 65.5136 5.24806 64.6802C4.74991 63.7673 4.30623 62.6073 3.91702 61.2003L4.16861 59.0019C4.03481 57.729 4.33024 56.3304 5.0549 54.8063C5.77956 53.2822 6.7073 51.777 7.83813 50.2906C8.96896 48.8043 10.1919 47.4289 11.5069 46.1646C12.8932 44.8122 14.2249 43.707 15.5022 42.8488L17.0727 41.7184C17.5962 41.3416 18.953 40.4751 21.1432 39.1187C23.3251 37.6828 26.2188 36.1318 29.8244 34.4658C33.43 32.7997 37.6491 31.2301 42.4816 29.7569C47.3057 28.2042 52.6217 27.1226 58.4298 26.5121C61.5327 26.186 64.713 26.2137 67.9707 26.5953C71.2996 26.8889 74.3563 27.6536 77.1407 28.8893C79.9168 30.0455 82.2657 31.7292 84.1873 33.9404C86.1886 36.1433 87.369 38.9553 87.7285 42.3765C88.0797 45.7181 87.4846 49.2396 85.943 52.941C84.3931 56.5628 82.1586 60.1762 79.2394 63.7811C76.3202 67.386 72.8232 70.8505 68.7484 74.1746C64.6735 77.4988 60.2826 80.4942 55.5755 83.1608C55.3452 83.2655 55.1547 83.3659 55.0039 83.4622C54.9243 83.4706 54.6856 83.4957 54.2878 83.5375C59.4304 80.4229 64.0183 77.0046 68.0513 73.2826C72.1556 69.4727 75.4642 65.7465 77.9772 62.1038C74.6057 65.9976 70.0701 70.2952 64.3703 74.9968C58.6622 79.6188 51.8465 84.0354 43.9233 88.2467C44.6016 88.5776 45.1564 88.8812 45.5876 89.1577C46.0985 89.4257 46.6135 89.7336 47.1326 90.0812C52.0691 93.4235 57.0599 96.5188 62.1053 99.367C67.1507 102.215 72.2652 104.574 77.4489 106.442C82.6326 108.31 87.921 109.645 93.3143 110.445C98.7871 111.238 104.463 111.285 110.342 110.586C111.774 110.436 113.19 110.126 114.588 109.657C116.067 109.18 117.386 108.72 118.546 108.276C119.706 107.833 120.667 107.41 121.429 107.008C122.191 106.606 122.612 106.401 122.692 106.393C122.842 106.296 122.66 106.476 122.145 106.933C121.63 107.389 120.721 107.927 119.419 108.546C118.196 109.158 116.615 109.806 114.676 110.493C112.737 111.179 110.424 111.744 107.735 112.188C107.028 112.342 106.312 112.418 105.587 112.413C104.863 112.409 104.143 112.445 103.427 112.52C104.239 112.595 105.087 112.627 105.97 112.614C106.933 112.594 107.972 112.525 109.086 112.408C113.303 111.964 117.015 110.931 120.223 109.307C123.518 107.754 126.266 106.339 128.464 105.062L129.689 104.088C131.766 102.422 133.358 100.727 134.463 99.0015C135.569 97.2765 136.302 95.832 136.663 94.6679C137.031 93.5835 137.31 92.79 137.498 92.2875C137.775 91.8563 137.988 91.5925 138.139 91.4962C138.29 91.3999 138.413 91.4272 138.51 91.5779C138.606 91.7287 138.698 91.8397 138.786 91.9109C138.907 92.3003 138.819 92.9933 138.522 93.9899C138.312 95.0576 137.952 96.2217 137.441 97.482C136.93 98.7423 136.295 99.9754 135.537 101.181C134.787 102.467 133.964 103.438 133.068 104.095L132.321 105.018L131.083 105.873C129.354 107.02 127.532 108.056 125.618 108.981C123.704 109.906 122.046 110.965 120.643 112.158C122.963 111.271 125.222 110.189 127.421 108.912C129.628 107.715 131.682 106.212 133.583 104.403C130.4 107.794 126.679 110.277 122.421 111.851C118.17 113.504 113.817 114.565 109.362 115.033C105.781 115.41 102.383 115.606 99.1674 115.622C95.9515 115.638 92.4949 115.278 88.7975 114.54ZM40.3875 85.6018C43.39 84.3209 46.558 82.7009 49.8915 80.7417C53.3045 78.7742 56.6569 76.6119 59.9486 74.2549C63.2402 71.8979 66.3602 69.4383 69.3085 66.8761C72.3364 64.3055 74.9623 61.737 77.1862 59.1704C79.4018 56.5244 81.1044 53.9724 82.294 51.5146C83.5631 49.0484 84.0848 46.7413 83.859 44.5931C83.7503 43.5588 83.6395 42.8867 83.5265 42.5768C83.493 42.2586 83.4554 41.9005 83.4136 41.5027C83.522 44.0654 82.883 46.7871 81.4966 49.6678C80.1101 52.5485 78.3216 55.4313 76.1311 58.3161C73.9323 61.1213 71.4425 63.8364 68.6616 66.4614C65.8808 69.0865 63.1461 71.385 60.4575 73.3568C58.7363 74.5834 56.9313 75.7786 55.0426 76.9424C53.2335 78.0979 51.4516 79.1298 49.6969 80.0382C48.0218 80.9382 46.4933 81.7022 45.1114 82.3301C43.8006 82.87 42.827 83.1735 42.1905 83.2404C43.4217 82.7087 45.2559 81.792 47.6932 80.4901C50.1221 79.1086 52.7248 77.4676 55.5013 75.567C58.3574 73.658 61.1529 71.5542 63.8876 69.2558C66.6223 66.9573 68.9111 64.6253 70.7539 62.2597C71.6962 61.2758 72.7642 59.957 73.9579 58.3031C75.1432 56.5698 76.2406 54.7652 77.25 52.8894C78.3307 50.9256 79.1727 48.987 79.7759 47.0735C80.4588 45.1516 80.7291 43.5143 80.587 42.1618C80.4866 41.2071 80.3276 40.4596 80.11 39.9194C79.8839 39.2996 79.7144 38.8348 79.6014 38.5249C79.568 38.2066 79.6224 37.9596 79.7648 37.7837C79.9868 37.5995 80.4118 37.4342 81.04 37.2877C79.918 35.7969 78.4756 34.7016 76.7128 34.002C74.9417 33.2229 73.0805 32.7348 71.1292 32.5377C69.1695 32.261 67.191 32.1874 65.1936 32.3169C63.1878 32.3668 61.3495 32.4796 59.6787 32.6552C57.1327 32.9228 54.7668 33.3726 52.5809 34.0045C50.4745 34.6281 48.3765 35.3313 46.2869 36.114C44.2685 36.8088 42.2542 37.5434 40.2441 38.3177C38.2257 39.0125 36.0356 39.6047 33.6739 40.0942C34.2853 39.7886 34.9323 39.4391 35.6149 39.0456C36.3687 38.5642 37.1036 38.2858 37.8197 38.2105L38.1651 38.0536C38.7766 37.748 39.388 37.4424 39.9994 37.1368C40.6024 36.7517 41.2494 36.4021 41.9404 36.0882C41.4797 36.2975 41.0149 36.467 40.5459 36.5967C40.0685 36.6469 39.5953 36.7369 39.1263 36.8666L37.1477 37.5572C35.6317 38.4405 33.4876 39.4703 30.7154 40.6465C28.0143 41.7348 25.2588 43.0701 22.4488 44.6525C19.6305 46.1554 17.1199 47.9074 14.917 49.9086C12.7057 51.8303 11.4115 54.0578 11.0342 56.5911C10.6486 59.0448 11.3895 60.7367 13.2569 61.6665C15.2039 62.5881 17.5467 63.0658 20.2852 63.0997C23.095 63.0457 25.9508 62.6651 28.8528 61.9579C31.826 61.1628 34.1857 60.2712 35.932 59.2833C36.0661 59.0279 36.3656 58.4333 36.8305 57.4996C37.3666 56.478 37.9824 55.448 38.6776 54.4096C39.4525 53.3629 40.2796 52.4313 41.1591 51.6149C42.1098 50.7106 43.1023 50.2041 44.1366 50.0954C45.1709 49.9866 46.0711 50.1333 46.8374 50.5355C46.2049 51.4063 45.6479 52.2291 45.1662 53.0037C44.6845 53.7783 44.1589 54.5172 43.5893 55.2206L42.9234 55.7733L40.1026 59.9309L40.3538 60.0252C41.0742 59.2255 41.7149 58.4342 42.2762 57.6512C42.5693 57.3791 42.9924 56.8118 43.5452 55.9492C44.0981 55.0867 44.7305 54.2158 45.4425 53.3366C46.2341 52.449 47.034 51.641 47.8423 50.9125C48.6506 50.184 49.4525 49.778 50.2481 49.6943C50.4868 49.6692 50.9328 49.7028 51.586 49.795C49.806 51.9931 48.0407 53.9484 46.2901 55.6607C44.6191 57.3647 43.0716 59.096 41.6476 60.8545C40.8309 61.5034 39.9053 62.6464 38.8708 64.2835C37.9074 65.8327 36.8896 67.6289 35.8173 69.6722C34.7367 71.6359 33.7042 73.675 32.7198 75.7895C31.7271 77.8244 30.8328 79.6479 30.0369 81.2599L30.2756 81.2348C32.7628 81.9387 34.6889 82.6613 36.0539 83.4027C37.49 84.0562 38.9346 84.7892 40.3875 85.6018ZM29.7187 67.9C29.727 67.9795 29.771 68.0151 29.8506 68.0068L29.9699 67.9942C30.1123 67.8184 30.2987 67.6781 30.529 67.5735C30.7593 67.4688 30.9813 67.2846 31.1949 67.0209L30.6042 68.2895C30.8303 68.9093 30.9391 69.1794 30.9307 69.0999C31.3957 68.1661 31.7894 67.3203 32.112 66.5625C32.5057 65.7167 32.9078 64.9505 33.3183 64.2638C32.6985 64.4898 32.2421 64.7389 31.9489 65.011C31.727 65.1952 31.3668 65.5951 30.8684 66.2105C30.8684 66.2105 30.8244 66.1749 30.7365 66.1037L30.3785 66.1414C30.211 66.0785 29.8886 66.0722 29.4112 66.1224L26.4276 66.436L22.3574 66.7431C21.1556 66.789 19.7068 66.7804 18.0109 66.7173C16.3067 66.5747 14.6653 66.2645 13.0867 65.7869C11.5081 65.3093 10.1075 64.6119 8.88497 63.6947C7.73359 62.6895 7.06592 61.3117 6.88195 59.5614C6.76488 58.4475 6.95351 57.1809 7.44785 55.7614C7.93382 54.2624 8.57676 53.1089 9.37668 52.3008C9.21756 52.3176 9.13382 52.2861 9.12545 52.2066L8.86168 51.993C8.10358 53.1988 7.43757 54.5157 6.86368 55.9435C6.28978 57.3713 6.07391 58.7615 6.21607 60.114C6.40004 61.8644 7.02793 63.2463 8.09974 64.2598C9.25112 65.265 10.6601 66.042 12.3265 66.5908C14.0726 67.1312 16.005 67.5314 18.1238 67.7914C20.3138 67.9634 22.5352 68.0517 24.788 68.0562L25.994 68.0501C26.0735 68.0418 26.1573 68.0732 26.2452 68.1444C26.4043 68.1277 26.6032 68.1068 26.8419 68.0817L28.8707 67.8684L29.7187 67.9ZM19.7165 45.0604C19.5908 45.3953 19.5238 45.523 19.5154 45.4435C19.729 45.1797 20.5771 44.4471 22.0596 43.2455C23.5338 41.9644 25.5126 40.5096 27.9959 38.8811C30.5589 37.2442 33.5594 35.5613 36.9975 33.8325C40.5152 32.0953 44.3804 30.6031 48.5931 29.3559C48.434 29.3726 47.2929 29.6132 45.1698 30.0777C43.0467 30.5422 40.4797 31.375 37.4688 32.5764C34.5374 33.7693 31.449 35.381 28.2034 37.4113C24.9579 39.4417 22.1289 41.9914 19.7165 45.0604ZM41.2981 86.23C42.4581 85.7863 43.6893 85.2547 44.9917 84.6352C46.3736 84.0073 47.7116 83.3438 49.0056 82.6447C50.3792 81.9373 51.6334 81.2424 52.7683 80.56C53.9744 79.7897 54.9774 79.0005 55.7773 78.1925C53.3484 79.574 50.8001 80.968 48.1326 82.3745C45.5362 83.6931 43.0026 84.8443 40.5319 85.8279L41.2981 86.23ZM36.0094 86.4239C36.2648 86.5579 36.4763 86.6564 36.6438 86.7192C36.8908 86.7737 37.1379 86.8282 37.3849 86.8826C37.6236 86.8575 37.8183 86.7969 37.9691 86.7006C37.0354 86.2356 35.6829 85.6136 33.9118 84.8344C32.1406 84.0553 30.5181 83.5421 29.0442 83.2948C28.9646 83.3032 28.8662 83.5146 28.7489 83.9292C28.6232 84.2641 28.4975 84.5991 28.3718 84.9341C29.9002 84.9343 31.2862 85.1104 32.5298 85.4623C33.7651 85.7347 34.9249 86.0552 36.0094 86.4239ZM25.6384 92.2197C26.4885 91.889 27.3826 91.594 28.3206 91.3345C29.2502 90.9955 30.2595 90.6481 31.3482 90.2923C31.3566 90.3719 31.3566 90.3719 31.3482 90.2923C31.4194 90.2044 31.3755 90.1688 31.2164 90.1855C30.8185 90.2273 30.1214 90.0995 29.1248 89.802C28.1995 89.4167 27.406 89.1381 26.7444 88.9663C26.4135 89.6446 26.158 90.2747 25.9778 90.8568C25.7893 91.3592 25.6762 91.8135 25.6384 92.2197ZM47.8168 93.1465C47.888 93.0586 47.6598 92.801 47.1323 92.3738C46.6759 91.8587 46.1442 91.3917 45.5371 90.9729C44.9216 90.4745 44.2748 90.0598 43.5964 89.7289C42.9893 89.3101 42.5664 89.1132 42.3278 89.1383C42.2482 89.1467 41.9781 89.2555 41.5174 89.4648C41.8524 89.5905 42.1958 89.7957 42.5475 90.0805C42.8991 90.3653 43.2027 90.5747 43.4581 90.7088L47.8168 93.1465ZM76.5314 109.193C76.611 109.185 76.3912 109.007 75.872 108.659C75.3612 108.391 74.7226 108.056 73.9564 107.654C73.2697 107.243 72.5475 106.877 71.7896 106.554C71.1197 106.303 70.6695 106.229 70.4392 106.334L69.654 106.899C70.0685 107.017 70.4433 107.138 70.7782 107.264C71.1928 107.381 71.5277 107.507 71.7832 107.641L76.5314 109.193ZM59.5282 31.2231C57.5392 31.4322 55.6066 31.7962 53.7306 32.3151C51.9341 32.8257 50.102 33.3802 48.2344 33.9787C50.4203 33.3468 52.4994 32.8467 54.4717 32.4785C56.5236 32.102 58.1463 31.851 59.3397 31.7256L59.5282 31.2231ZM20.983 99.5867C20.5013 100.361 19.9296 101.427 19.2677 102.783C18.6059 104.14 17.921 105.66 17.2131 107.343L18.614 105.748C19.0539 104.576 19.4623 103.487 19.8394 102.482C20.2876 101.389 20.6688 100.424 20.983 99.5867ZM29.58 71.1724C29.2491 71.8507 28.914 72.4892 28.5747 73.088C28.315 73.6784 28.0239 74.3525 27.7013 75.1103L28.3106 75.167C28.4824 74.5054 28.7295 73.7957 29.0521 73.0378C29.3663 72.2004 29.7013 71.5618 30.0573 71.1222L29.9255 71.0154L29.5674 71.0531L29.58 71.1724ZM39.1059 87.1844L38.2203 86.7948C37.8225 86.8366 37.588 86.9015 37.5168 86.9894L38.4149 87.4983L39.1059 87.1844ZM93.0349 77.2931C94.1112 76.0538 95.1436 74.7789 96.1321 73.4684C97.1205 72.1579 98.1089 70.8474 99.0973 69.5369C98.3015 71.1489 97.3423 72.7379 96.2199 74.3038C95.177 75.8613 94.1738 77.4147 93.2105 78.9639L93.9706 78.16L94.9444 77.0924L95.2081 77.306C94.7097 77.9215 94.1045 78.6688 93.3925 79.5481C92.6722 80.3477 91.9162 81.1914 91.1247 82.079C90.4127 82.9582 89.7007 83.8375 88.9887 84.7167C88.2767 85.5959 87.6757 86.3831 87.1856 87.0781C86.5616 88.0285 85.9857 89.0544 85.4579 90.1556C85.0013 91.1688 84.597 92.2973 84.2451 93.5409C84.1194 93.8759 83.776 94.4348 83.2147 95.2178C82.6535 96.0007 82.0357 96.6287 81.3615 97.1018C81.2107 97.1981 81.06 97.2944 80.9092 97.3907C80.838 97.4786 80.7229 97.5309 80.5637 97.5476C80.5009 97.7151 80.302 97.736 79.967 97.6104C79.7283 97.6354 79.565 97.6124 79.4771 97.5412L77.8002 96.5108C77.7039 96.3601 77.6076 96.2093 77.5114 96.0585C77.4151 95.9078 77.279 95.7612 77.1032 95.6188C76.9106 95.3173 76.7264 95.0953 76.5505 94.9529C75.5709 93.2862 75.3828 91.496 75.9861 89.5825C77.0041 86.2579 78.0662 82.9688 79.1721 79.7154C80.3577 76.4536 81.5746 73.1081 82.823 69.6788L82.7854 69.3208C84.0419 67.4995 85.1873 66.5344 86.2216 66.4257C87.2475 66.2375 88.2107 66.2167 89.1109 66.3634C86.6146 70.1651 84.6544 73.7095 83.2301 76.9963C81.7976 80.2037 81.0182 83.5032 80.892 86.895C81.487 84.9019 82.019 83.0762 82.4883 81.4181C83.0287 79.672 83.6173 78.0014 84.2541 76.4061C84.8908 74.8108 85.5673 73.2113 86.2836 71.6076C87.0795 69.9956 88.0219 68.2475 89.1109 66.3634C89.605 66.4723 90.007 66.4703 90.3169 66.3573C90.7063 66.2359 91.0791 65.9554 91.4351 65.5158C90.0947 68.0699 88.924 70.3246 87.9229 72.28C87.0013 74.227 86.1552 76.1258 85.3844 77.9765C84.6932 79.8189 84.0104 81.7408 83.3359 83.7422C82.7326 85.6558 82.123 87.8918 81.507 90.4502C81.3646 90.626 81.2306 90.8814 81.1049 91.2164L81.8901 90.6512C81.8818 90.5716 81.8776 90.5319 81.8776 90.5319C81.9488 90.4439 81.9802 90.3602 81.9718 90.2806L81.9969 90.5193C82.2189 90.3351 82.4409 90.1509 82.6628 89.9667C82.8764 89.7029 83.046 89.4036 83.1717 89.0686C84.1685 87.8376 85.0711 86.8579 85.8793 86.1295L85.9861 85.9976C87.2761 84.4945 88.4865 82.9998 89.6173 81.5134C90.8193 79.9392 91.9585 78.5324 93.0349 77.2931ZM91.1788 57.3378C91.0993 57.3461 90.9883 57.4382 90.8459 57.6141C91.1684 56.8562 91.6543 56.1214 92.3034 55.4097C92.9442 54.6183 93.5494 53.871 94.119 53.1676L92.5228 58.6445C93.0044 57.8699 93.3709 57.1476 93.6223 56.4777C93.8653 55.7282 94.0266 55.3492 94.1061 55.3409L95.2813 51.5975C95.4781 51.1746 95.7148 50.7475 95.9912 50.3163C96.3389 49.7971 96.7975 49.1858 97.3671 48.4824C96.4162 50.9151 95.6747 53.0443 95.1426 54.8699C95.1426 54.8699 95.1865 54.9055 95.2745 54.9767C94.9686 55.8937 94.533 57.1059 93.9674 58.6133C93.4814 60.1123 93.029 61.1653 92.6102 61.7725L91.9694 62.5638C91.8898 62.5721 91.8542 62.6161 91.8626 62.6957C91.8626 62.6957 91.827 62.7396 91.7558 62.8275L91.3161 63.2357L90.9957 63.6314C90.9161 63.6398 90.8407 63.6879 90.7695 63.7758C90.7695 63.7758 90.7298 63.78 90.6502 63.7884L90.4366 64.0521L88.5271 64.2528C88.3847 64.4287 88.2339 64.525 88.0748 64.5417L87.9555 64.5542L87.8361 64.5668L87.5975 64.5919L87.6605 62.896L89.8972 58.9204C89.826 59.0083 89.9245 58.7969 90.1925 58.2861C90.4606 57.7752 90.5276 57.6475 90.3936 57.903L90.4061 58.0223C90.3978 57.9427 90.4334 57.8988 90.5129 57.8904L90.6323 57.8779C90.6239 57.7983 90.6993 57.7502 90.8584 57.7334L90.8459 57.6141C90.9254 57.6057 91.0364 57.5136 91.1788 57.3378ZM90.004 58.7885C89.6815 59.5464 89.4594 60.4948 89.3378 61.6338C89.2874 62.6848 89.3584 63.3611 89.551 63.6626C89.5343 63.5035 89.5134 63.3046 89.4883 63.0659C89.5428 62.8188 89.5575 62.576 89.5324 62.3373C89.6707 61.3574 89.9117 60.2059 90.2553 58.8828C90.1757 58.8911 90.1359 58.8953 90.1359 58.8953C90.1275 58.8158 90.0836 58.7802 90.004 58.7885ZM92.2271 61.5714L92.3339 61.4395C92.3423 61.5191 92.2752 61.6468 92.1328 61.8226C92.204 61.7347 92.2355 61.651 92.2271 61.5714ZM93.9706 78.16L94.0774 78.0281L93.9706 78.16ZM109.76 79.9996C110.476 79.9244 112.327 78.4025 115.314 75.4341C116.327 74.3623 117.169 73.1879 117.839 71.9109C118.589 70.6254 119.383 69.3756 120.22 68.1614C119.592 69.8363 118.716 71.4567 117.594 73.0226C116.543 74.5006 115.623 76.0853 114.836 77.7769C115.192 77.3373 115.512 76.9416 115.797 76.5899C116.161 76.2299 116.526 75.8698 116.89 75.5098C116.97 75.5014 117.014 75.537 117.022 75.6166C117.022 75.6166 117.062 75.6124 117.141 75.604C116.66 76.3786 116.019 77.1699 115.219 77.978C114.411 78.7065 113.598 79.3952 112.782 80.0441C112.044 80.6846 111.299 81.2456 110.545 81.7271C109.863 82.1206 109.362 82.334 109.044 82.3675C108.567 82.4177 107.861 82.2103 106.927 81.7453C106.073 81.272 105.521 80.6061 105.269 79.7477C104.486 80.7148 103.569 81.9374 102.518 83.4154C101.538 84.8055 100.562 86.2353 99.5901 87.7049C98.6979 89.1662 97.8812 90.5793 97.1398 91.9443C96.4696 93.2213 96.0088 94.1948 95.7575 94.8648C95.4349 95.6226 95.1585 96.0539 94.9282 96.1585C94.7858 96.3344 94.4633 96.3281 93.9609 96.1395C93.5547 96.1018 93.1235 95.8254 92.6671 95.3102C92.1396 94.883 91.6874 94.4077 91.3106 93.8842C90.8459 93.2895 90.4649 92.7263 90.1677 92.1944C89.8621 91.583 89.7282 91.0742 89.766 90.6681C89.7997 89.4579 89.9171 88.2792 90.1183 87.1319C90.2399 85.9929 90.7364 84.2112 91.6077 81.7869C91.813 81.4436 92.0329 80.8574 92.2675 80.0283C92.1753 80.6815 92.1584 81.2866 92.217 81.8435C92.196 82.4088 92.1938 82.771 92.2105 82.9301C92.2189 83.0097 92.2378 82.8066 92.2672 82.3209C92.2965 81.8351 92.3197 80.9076 92.3367 79.5384C92.588 78.8684 92.8163 78.3618 93.0216 78.0185C92.8792 78.1943 92.7284 78.2906 92.5693 78.3073C92.4897 78.3157 92.4185 78.4036 92.3557 78.5711L92.3811 76.5172C92.0125 77.6017 91.5873 78.5312 91.1056 79.3058C91.1056 79.3058 91.0219 79.2744 90.8544 79.2115C90.9008 77.3565 91.2612 75.4283 91.9357 73.4268C92.6101 71.4253 93.6615 69.1832 95.0898 66.7003C97.1128 63.7527 99.104 63.1814 101.063 64.9865C101.566 65.175 102.045 65.5268 102.502 66.0419C103.038 66.5487 103.314 66.8816 103.331 67.0407C103.238 67.694 102.579 68.6884 101.352 70.0239C100.196 71.2716 99.1422 73.1118 98.1913 75.5445C97.9944 75.9674 97.8101 76.5097 97.6383 77.1712C97.4665 77.8328 97.2591 78.5384 97.0161 79.2879C96.7732 80.0374 96.526 80.7471 96.2746 81.417C96.1028 82.0786 95.9227 82.6606 95.7342 83.1631C95.8013 82.2712 95.8685 81.3793 95.9356 80.4874C96.0739 79.5076 96.2918 78.5194 96.5893 77.5228C96.007 78.8711 95.563 80.0037 95.2572 80.9207C95.0309 81.8293 94.9009 82.8887 94.8672 84.0988C94.8629 84.8233 95.0199 85.1687 95.3382 85.1353C95.7276 85.0139 96.1401 84.7292 96.5757 84.2813C97.0112 83.8333 97.4028 83.3497 97.7505 82.8305C98.1693 82.2234 98.4499 81.8319 98.5923 81.6561C99.2709 80.4586 100.088 79.0455 101.043 77.4167C102.077 75.7796 103.112 74.1425 104.146 72.5054C105.181 70.8683 106.144 69.3191 107.036 67.8579C108.008 66.3882 108.726 65.1866 109.191 64.2529C109.505 63.4154 110.268 63.0136 111.478 63.0472C112.68 63.0014 113.567 63.0287 114.141 63.1293C114.325 63.3513 114.589 63.5649 114.932 63.7701C115.267 63.8958 115.479 63.9942 115.567 64.0654C115.608 64.4632 115.416 64.9259 114.989 65.4535C114.008 66.8435 113.206 68.0138 112.582 68.9642C111.95 69.8351 111.357 70.7018 110.804 71.5643C110.323 72.3389 109.77 73.2014 109.146 74.1518C108.593 75.0144 107.862 76.0967 106.953 77.3988C107.02 78.0353 107.405 78.6384 108.109 79.208C108.892 79.7692 109.442 80.0331 109.76 79.9996ZM111.892 64.693C110.904 66.0034 109.844 67.4019 108.713 68.8882C107.654 70.2866 106.634 71.6809 105.654 73.0709C104.753 74.4526 103.924 75.7464 103.166 76.9523C102.487 78.1498 102.026 79.1232 101.783 79.8728C103.681 77.2601 105.4 74.8673 106.941 72.6943C108.474 70.4417 110.124 67.7746 111.892 64.693ZM99.6123 66.1043C99.16 66.3931 98.6491 66.8893 98.0795 67.5926C97.5015 68.2165 96.9717 68.9157 96.49 69.6903C96.0084 70.4649 95.5665 71.2353 95.1644 72.0015C94.8418 72.7594 94.6658 73.3812 94.6365 73.8669C95.3317 72.8285 95.8804 71.9262 96.2825 71.16C96.7558 70.3059 97.3841 69.3952 98.1673 68.428C98.3097 68.2522 98.5505 67.8649 98.8898 67.2662C99.2291 66.6674 99.4699 66.2801 99.6123 66.1043ZM93.0205 84.8962C93.0917 84.8083 93.1189 84.6848 93.1022 84.5257C92.4614 85.317 92.0404 86.2863 91.8392 87.4336C91.6381 88.5809 91.5877 89.632 91.688 90.5867C91.7551 89.6948 91.9374 88.7506 92.2349 87.754C92.4528 86.7658 92.7147 85.8132 93.0205 84.8962ZM92.3557 78.5711C92.4059 79.0485 92.3995 79.3709 92.3367 79.5384C92.3534 79.6975 92.322 79.7812 92.2424 79.7896C92.2424 79.7896 92.2508 79.8692 92.2675 80.0283C92.2341 79.71 92.2635 79.2243 92.3557 78.5711ZM122.95 84.6464C124.261 82.578 125.915 80.7149 127.913 79.057C129.982 77.3112 131.634 75.8102 132.87 74.5542C134.105 73.2982 135.464 72.0694 136.947 70.8679C138.421 69.5868 139.692 68.2868 140.76 66.9679C139.813 68.6762 138.567 70.2149 137.022 71.5839C135.477 72.953 134.107 74.4644 132.913 76.1182L133.793 75.3018C133.793 75.3018 133.69 75.4735 133.485 75.8168L134.898 74.341L134.924 74.5797L135.043 74.5671C134.465 75.191 133.74 75.9509 132.869 76.8468C132.069 77.6549 131.198 78.5508 130.256 79.5347C129.305 80.439 128.399 81.379 127.536 82.3545C126.744 83.2421 126.064 84.0376 125.494 84.741C124.648 85.8756 124.001 86.9894 123.553 88.0822C123.176 89.0871 122.83 90.0083 122.516 90.8457C122.281 91.6748 121.95 92.3531 121.523 92.8807C121.175 93.3998 120.604 93.7012 119.808 93.7849C119.729 93.7932 119.482 93.7387 119.067 93.6214C118.74 93.5753 118.37 93.4936 117.955 93.3763C117.541 93.259 117.162 93.0977 116.819 92.8925C116.396 92.6956 116.132 92.482 116.027 92.2517C115.579 91.8161 115.062 91.1063 114.476 90.1221C113.882 89.0585 113.402 87.9424 113.038 86.7741C112.595 85.6141 112.31 84.4374 112.185 83.244C111.98 82.0589 112.154 81.0351 112.706 80.1726L114.365 77.5851L114.66 76.9507C114.17 77.6458 113.553 78.2738 112.807 78.8348C113.301 77.4153 113.888 76.1069 114.566 74.9094C115.237 73.6323 115.867 72.3594 116.458 71.0908C116.663 70.7474 116.864 70.3643 117.061 69.9414C117.249 69.439 117.561 68.9637 117.997 68.5158C117.829 68.4529 117.955 68.1179 118.374 67.5108C118.793 66.9037 119.247 66.2527 119.737 65.5576C120.299 64.7747 120.828 64.0755 121.327 63.46C121.825 62.8445 122.114 62.5326 122.194 62.5243C122.86 61.9716 123.586 61.6137 124.373 61.4505C125.24 61.279 126.044 61.2749 126.785 61.4384C127.112 61.4845 127.399 61.5348 127.646 61.5892C127.972 61.6353 128.343 61.7171 128.758 61.8344C129.189 62.1108 129.708 62.4584 130.315 62.8773C130.922 63.2961 131.479 64.0018 131.985 64.9943C132.266 65.367 132.348 65.7606 132.23 66.1751C132.113 66.5897 131.956 67.0084 131.759 67.4313C131.633 67.7663 131.468 68.1054 131.263 68.4488C131.137 68.7837 131.122 69.0266 131.219 69.1773C131.411 69.4789 131.547 69.6255 131.627 69.6171C131.786 69.6004 131.901 69.548 131.972 69.4601C132.043 69.3722 132.079 69.3282 132.079 69.3282C132.15 69.2403 132.19 69.2361 132.198 69.3157C132.177 69.881 131.802 70.5237 131.074 71.2438C130.416 71.876 129.675 72.4768 128.85 73.0461C128.93 73.0378 128.965 72.9938 128.957 72.9142C128.584 73.1947 128.061 73.5715 127.386 74.0446C126.792 74.5093 126.498 74.7814 126.507 74.861C127.491 74.2749 128.32 73.7453 128.994 73.2723C129.74 72.7113 130.517 72.0665 131.325 71.3381C131.526 71.7191 131.564 72.0772 131.438 72.4121C131.312 72.7471 131.099 73.0109 130.797 73.2035C129.83 73.9487 129 74.4782 128.31 74.7922C127.619 75.1061 126.829 75.6315 125.941 76.3684C124.593 77.3145 123.276 78.1769 121.99 78.9556C120.704 79.7342 120.08 80.6846 120.118 81.8069C119.758 81.4425 119.461 80.9107 119.226 80.2113C118.992 79.512 118.965 78.8713 119.145 78.2893C118.688 79.3026 118.108 80.2886 117.405 81.2474C117.782 80.2425 118.163 79.2774 118.548 78.352C118.934 77.4267 119.267 76.3862 119.547 75.2305C118.798 76.5159 118.088 77.7971 117.417 79.0742C116.827 80.3429 116.68 82.0073 116.977 84.0676C117.132 84.7753 117.402 85.4306 117.787 86.0337C118.172 86.6367 118.616 87.0325 119.118 87.221C119.621 87.4095 120.178 87.351 120.789 87.0454C121.472 86.6519 122.192 85.8522 122.95 84.6464ZM126.935 69.7483C126.6 69.6226 126.175 69.7879 125.66 70.2443C125.224 70.6922 124.69 71.3517 124.058 72.2226C123.496 73.0055 122.904 73.8722 122.28 74.8226C121.656 75.7731 121.027 76.6837 120.395 77.5546C120.822 77.0271 121.599 76.3823 122.726 75.6204C123.932 74.8501 125.014 74.0526 125.973 73.2278C126.932 72.4031 127.581 71.6913 127.921 71.0926C128.331 70.4059 128.003 69.9578 126.935 69.7483ZM114.491 76.4859C115.324 75.9961 115.986 75.4037 116.476 74.7087C117.046 74.0053 117.571 73.2663 118.053 72.4917C118.606 71.6292 119.194 70.7227 119.818 69.7723C120.522 68.8135 121.42 67.794 122.513 66.7138C123.456 65.7299 124.544 65.3741 125.78 65.6465C127.086 65.831 128.091 66.208 128.794 66.7776C127.961 65.739 126.896 65.1672 125.598 65.0624C124.3 64.9575 123.087 65.286 121.961 66.0479C120.843 66.8894 119.971 67.7854 119.347 68.7358C118.723 69.6862 118.139 70.6325 117.594 71.5746C117.13 72.5083 116.66 73.4022 116.187 74.2564C115.714 75.1105 115.148 75.8537 114.491 76.4859ZM114.685 81.7746C114.685 81.7746 114.672 81.6553 114.647 81.4166C114.425 81.6008 114.308 82.0153 114.295 82.6602C114.274 83.2255 114.341 83.862 114.496 84.5697C114.651 85.2774 114.885 85.9767 115.199 86.6677C115.433 87.367 115.762 87.8151 116.185 88.012C115.775 87.1702 115.467 86.1568 115.262 84.9718C114.978 83.7951 114.785 82.7294 114.685 81.7746ZM119.252 78.1574C119.608 77.7178 119.92 77.2426 120.188 76.7318L119.252 78.1574ZM129.409 72.6254L128.957 72.9142L129.409 72.6254ZM121.515 65.2501C121.444 65.3381 121.408 65.382 121.408 65.382L121.515 65.2501ZM146.761 70.4396C147.184 69.1081 146.931 67.8477 146.002 66.6583C145.152 65.4606 144.268 64.7088 143.351 64.403C144.293 64.9475 145.026 65.7956 145.549 66.9472C146.152 68.0904 146.317 69.2797 146.045 70.5149C145.781 71.8297 145.102 73.0272 144.009 74.1074C142.916 75.1875 141.779 76.2321 140.598 77.2411C139.497 78.2417 138.479 79.2737 137.545 80.3372C136.603 81.3211 136.119 82.4579 136.094 83.7476C136.328 82.9185 136.956 82.0079 137.978 81.0156C138.992 79.9438 140.081 78.8238 141.245 77.6557C142.489 76.4793 143.613 75.3154 144.619 74.164C145.695 72.9247 146.409 71.6832 146.761 70.4396ZM155.667 74.8127C156.253 74.2684 156.689 73.8204 156.974 73.4687C157.338 73.1087 157.623 72.757 157.828 72.4136C158.113 72.0619 158.398 71.7103 158.682 71.3586C159.047 70.9985 159.522 70.5463 160.108 70.0021C159.627 70.7767 159.216 71.4633 158.877 72.0621C158.529 72.5812 158.182 73.1004 157.834 73.6196C157.478 74.0592 157.086 74.5428 156.659 75.0704C156.232 75.5979 155.738 76.2532 155.177 77.0361L157.601 74.8507L157.865 75.0643C156.923 76.0482 155.79 77.1325 154.467 78.3173C153.143 79.5022 151.828 80.7665 150.521 82.1105C149.286 83.3665 148.138 84.6937 147.079 86.0922C146.099 87.4822 145.437 88.8388 145.093 90.162C144.348 90.723 143.427 91.1416 142.329 91.4178C141.358 91.359 140.452 90.7705 139.61 89.6524C138.84 88.4463 138.413 87.4454 138.329 86.6498C138.237 85.7746 138.3 84.8429 138.518 83.8547C138.807 82.7786 139.375 81.6733 140.221 80.5386C138.721 81.581 137.666 83.0192 137.054 84.8532C136.355 86.616 136.248 88.2763 136.733 89.8341C135.151 88.5525 134.569 86.8439 134.988 84.7084C135.244 83.3141 135.591 82.0307 136.031 80.8583C136.471 79.6859 137.122 78.6119 137.985 77.6364C138.492 77.1005 138.892 76.6965 139.185 76.4243C139.549 76.0643 139.843 75.7921 140.064 75.6079C140.366 75.4154 140.663 75.183 140.957 74.9109C141.241 74.5592 141.637 74.1154 142.144 73.5795C143.095 72.6751 143.85 71.8315 144.412 71.0485C145.027 70.0185 145.082 69.0073 144.576 68.0148C144.149 67.0139 143.491 66.1177 142.604 65.3262L141.63 64.1012L136.378 73.8235C136.202 73.6811 136.114 73.6099 136.114 73.6099L136.937 71.1102C136.02 72.3327 135.115 73.6747 134.223 75.1359C133.323 76.5176 132.207 77.7611 130.875 78.8664C131.633 77.6605 132.395 76.4944 133.162 75.3682C133.84 74.1707 134.515 72.9334 135.185 71.6564C135.863 70.4589 136.441 69.0708 136.919 67.4923C137.397 65.9137 138.077 64.354 138.961 62.8132C138.299 62.6414 137.889 62.5639 137.73 62.5806C137.562 62.5177 137.435 62.4507 137.347 62.3795C137.338 62.3 137.255 62.2685 137.096 62.2853C136.928 62.2224 136.593 62.0968 136.091 61.9082C137.322 61.3766 137.99 60.4618 138.095 59.1637C138.191 57.7861 138.367 56.4001 138.623 55.0057C138.678 54.7587 139.004 54.8048 139.603 55.1441C140.202 55.4833 140.844 55.8582 141.531 56.2687L141.952 54.5352C142.237 55.7119 142.23 56.7985 141.933 57.7951C141.715 58.7832 141.537 59.7673 141.398 60.7471C141.989 59.4784 142.421 58.2264 142.693 56.9912C142.957 55.6764 142.806 54.2443 142.241 52.6949C145.403 52.9257 146.301 54.963 144.935 58.8068C145.844 59.033 146.694 59.4666 147.485 60.1074C148.276 60.7482 149.04 61.5125 149.777 62.4003C150.162 63.0034 150.516 63.6902 150.838 64.4607C151.232 65.1433 151.51 65.8782 151.673 66.6655C151.828 67.3732 151.864 68.0934 151.78 68.8262C151.767 69.471 151.543 70.0175 151.107 70.4654C150.387 71.2651 149.627 72.069 148.827 72.877C148.019 73.6055 147.259 74.4094 146.547 75.2886L145.359 76.62C145.535 76.7624 145.627 76.8734 145.636 76.953L153.061 69.5362C153.727 70.5119 153.54 71.4164 152.502 72.2495C151.187 73.5139 149.899 74.6547 148.638 75.6721C147.378 76.6894 146.266 77.9727 145.302 79.5219C144.599 80.4807 144.008 81.7494 143.53 83.3279C143.044 84.8269 143.218 86.0957 144.051 87.1343C145.919 85.0074 147.827 82.8764 149.774 80.7411C151.722 78.6058 153.686 76.6297 155.667 74.8127ZM217.483 37.0643C218.84 34.6693 220.622 32.109 222.83 29.3834C225.028 26.5782 227.403 23.9154 229.954 21.395C232.496 18.795 235.067 16.4735 237.668 14.4304C240.26 12.3079 242.589 10.7359 244.653 9.71445C246.106 8.99864 247.12 8.69103 247.693 8.79161C248.259 8.81264 248.602 9.01787 248.723 9.40732C247.032 10.1482 245.61 10.7803 244.458 11.3035C243.307 11.8268 242.243 12.4212 241.267 13.0869C240.363 13.6646 239.471 14.3616 238.591 15.178C237.712 15.9945 236.729 16.9825 235.645 18.1423C237.58 16.6519 239.611 15.3122 241.738 14.1233C243.857 12.8549 246.064 11.6576 248.359 10.5316L252.813 8.1329L253.849 7.66198C253.133 7.73724 252.616 7.7916 252.298 7.82505C251.979 7.8585 252.17 7.75803 252.869 7.52365C255.348 6.61956 257.817 5.99812 260.275 5.65933C262.733 5.32054 265.229 5.33977 267.762 5.71704C268.336 5.81762 268.913 5.95799 269.495 6.13814C270.157 6.30993 270.703 6.53404 271.135 6.81047C273.144 7.56452 274.451 8.51317 275.054 9.65642C275.736 10.7913 275.528 12.2611 274.431 14.0656C274.021 14.7523 273.686 15.3908 273.426 15.9812C273.246 16.5632 272.898 17.0824 272.383 17.5388C271.939 17.9072 271.503 18.3552 271.076 18.8827C270.649 19.4103 270.262 19.9336 269.914 20.4528C270.5 19.9085 271.051 19.4082 271.566 18.9519C272.152 18.4076 272.695 17.8277 273.193 17.2123C273.612 16.6052 274.031 15.9981 274.45 15.391C274.94 14.6959 275.47 13.9967 276.039 13.2933C275.444 15.2864 274.502 17.0345 273.212 18.5376C271.386 21.0623 269.235 23.1787 266.76 24.8868C264.285 26.5948 261.67 28.1165 258.914 29.4519C256.77 30.4816 254.645 31.3083 252.539 31.9319C250.432 32.5555 248.209 32.8294 245.868 32.7537C244.737 32.7116 243.586 32.4707 242.414 32.0308C241.312 31.503 240.251 30.9711 239.229 30.4349C238.605 29.857 238.034 29.3942 237.515 29.0465C237.067 28.611 236.673 27.9284 236.334 26.9987C239.483 27.8744 242.64 28.0654 245.806 27.5718C247.397 27.4045 248.936 27.1221 250.423 26.7245C251.981 26.2391 253.482 25.5986 254.927 24.8032C252.422 25.4686 249.906 26.0147 247.377 26.4414C244.847 26.8681 242.331 26.65 239.827 25.787C242.151 25.7036 244.462 25.5009 246.761 25.1788C249.14 24.8484 251.541 24.3547 253.966 23.6976C256.47 23.0322 258.909 22.1323 261.284 20.9979C263.65 19.7839 265.907 18.2999 268.055 16.5457C268.411 16.1061 268.776 15.746 269.148 15.4655C269.513 15.1054 269.873 14.7056 270.229 14.266C271.678 12.7462 272.279 11.1949 272.032 9.61198C272.849 10.4915 272.945 11.4064 272.321 12.3569C271.99 13.0352 271.544 13.7658 270.983 14.5488C270.501 15.3233 269.971 16.0226 269.393 16.6464C268.443 17.5507 267.444 18.3797 266.397 19.1332C265.421 19.7989 264.414 20.5483 263.375 21.3814C263.446 21.2935 263.601 21.2369 263.84 21.2119L264.518 20.7786C265.741 20.1674 266.88 19.5248 267.936 18.8508C268.983 18.0973 270.013 17.1846 271.026 16.1127C271.303 15.6815 271.615 15.2063 271.963 14.6871C272.31 14.1679 272.622 13.6927 272.899 13.2614C274.252 10.0625 273.339 8.26803 270.161 7.87811C269.014 7.67693 267.847 7.67884 266.662 7.88383C265.557 8.08047 264.464 8.39644 263.383 8.83176C264.481 8.55557 265.546 8.36312 266.581 8.25441C267.615 8.1457 268.71 8.23171 269.866 8.51245C260.728 10.3577 252.362 13.4089 244.765 17.6663C237.248 21.9154 230.524 27.9714 224.594 35.8343C224.711 35.4198 224.832 35.0451 224.958 34.7101C225.163 34.3668 225.444 33.9753 225.8 33.5357C225.096 34.4945 224.393 35.4533 223.689 36.4121C222.977 37.2913 222.349 38.202 221.804 39.144C221.75 39.3911 221.655 39.6423 221.521 39.8977C221.387 40.1531 221.13 40.3813 220.749 40.5822C219.785 42.1314 218.816 44.003 217.84 46.1971C216.855 48.3116 215.89 50.2229 214.943 51.9313C215.094 51.835 215.714 51.609 216.803 51.2532C217.971 50.8891 219.378 50.4999 221.024 50.0856C222.661 49.5917 224.422 49.1251 226.306 48.6857C228.262 48.1584 230.146 47.719 231.959 47.3676C233.852 47.0078 235.554 46.7484 237.066 46.5895C238.649 46.3427 239.851 46.2968 240.671 46.4519C239.78 46.3848 238.953 46.5521 238.19 46.954C237.428 47.3559 236.622 47.7221 235.772 48.0528C236.71 47.7933 237.625 47.6972 238.517 47.7643C240.284 47.7395 241.695 48.1542 242.75 49.0086C243.885 49.8547 244.456 51.0817 244.464 52.6896C244.472 54.2976 243.674 56.2718 242.07 58.6123C241.928 58.7882 241.737 58.8886 241.499 58.9137C241.339 58.9304 241.149 59.0309 240.927 59.2151C241.028 58.6415 241.172 58.1034 241.361 57.601C241.62 57.0106 241.849 56.5039 242.045 56.081C242.619 54.6532 242.626 53.5666 242.065 52.8212C241.504 52.0757 240.606 51.5668 239.371 51.2944C238.135 51.0221 236.678 50.9339 234.999 51.0299C233.399 51.1176 231.772 51.3288 230.118 51.6636C228.456 51.9187 226.917 52.2011 225.502 52.5108C224.166 52.8121 223.144 53.0401 222.436 53.1949C224.664 52.9608 226.816 52.7748 228.893 52.6369C231.05 52.4907 233.102 52.8784 235.049 53.7999C233.918 53.7578 232.827 53.7116 231.776 53.6612C230.725 53.6108 229.687 53.6797 228.661 53.868C226.291 54.278 223.918 55.0502 221.544 56.1846C219.161 57.2394 216.785 57.9719 214.415 58.3819C213.619 58.4655 213.003 58.7313 212.568 59.1793C212.212 59.6189 211.873 60.2176 211.55 60.9755C209.724 65.0286 208.184 69.132 206.932 73.2857C205.75 77.3515 204.688 81.4047 203.745 85.4454C203.619 85.7804 203.441 86.0002 203.211 86.1048L203.52 81.0046L204.199 75.9861C204.354 75.1654 204.509 74.3447 204.664 73.524C204.89 72.6154 205.037 71.7151 205.104 70.8232C203.743 73.9426 202.775 77.7446 202.2 82.2292C201.706 86.7055 201.908 91.3095 202.808 96.0414C200.953 95.9951 199.717 95.7227 199.102 95.2243C198.486 94.7259 198.179 93.7125 198.179 92.1841C198.213 90.974 198.24 90.0862 198.261 89.5209C198.37 89.0269 198.443 88.5767 198.481 88.1705C198.598 87.756 198.707 87.2619 198.808 86.6883C198.917 86.1942 199.028 85.3379 199.141 84.1193C199.083 83.5624 199.009 83.2484 198.922 83.1772C198.766 83.9979 198.614 84.4564 198.463 84.5526C198.32 84.7285 198.209 84.8206 198.13 84.829C198.05 84.8373 197.939 84.9294 197.797 85.1053C197.734 85.2728 197.625 85.7669 197.47 86.5876C197.521 84.0081 197.728 81.7742 198.093 79.8857C198.449 77.9177 198.898 76.0607 199.438 74.3146C199.97 72.489 200.578 70.6152 201.26 68.6933C202.023 66.7631 202.831 64.5062 203.686 61.9227C203.766 61.9143 203.673 61.8034 203.41 61.5898C201.529 62.8331 199.653 64.1163 197.781 65.4392C195.901 66.6825 193.954 68.0536 191.939 69.5524C193.845 67.0193 195.956 64.9071 198.271 63.2158C200.587 61.5244 202.947 59.8687 205.351 58.2485C201.469 60.3458 197.811 62.6609 194.377 65.1937C190.943 67.7265 188.162 71.1158 186.034 75.3615C184.794 75.8135 183.706 76.1693 182.768 76.4287C181.909 76.6798 181.122 76.843 180.406 76.9183C179.769 76.9852 179.47 76.8155 179.508 76.4094C179.411 76.2586 180.021 75.551 181.336 74.2866C182.643 72.9427 184.14 71.4983 185.828 69.9534C187.595 68.4002 189.331 66.9307 191.035 65.5449C192.74 64.1591 193.969 63.2255 194.723 62.7441C196.142 61.7101 197.619 60.8309 199.151 60.1068C200.764 59.3742 202.403 58.5181 204.07 57.5386C204.434 57.1785 204.834 56.7745 205.27 56.3265C205.785 55.8702 206.137 55.3908 206.325 54.8883C208.399 50.8897 210.436 46.935 212.438 43.0243C214.432 39.034 216.506 35.0354 218.659 31.0284C219.178 29.8476 219.98 28.6774 221.065 27.5176C221.278 27.2539 221.536 27.0257 221.838 26.8331C222.139 26.6405 222.596 26.3915 223.207 26.0859L216.057 38.4208C216.233 38.5632 216.44 38.6219 216.679 38.5968C216.813 38.3414 216.947 38.086 217.081 37.8306C217.207 37.4956 217.341 37.2402 217.483 37.0643ZM243.553 16.4664C243.251 16.659 242.958 16.9312 242.673 17.2829C242.38 17.555 242.299 17.9256 242.428 18.3946C243.936 17.4317 245.412 16.5526 246.857 15.7572C248.373 14.8739 249.889 13.9906 251.405 13.1073C250.856 13.2454 250.308 13.3835 249.759 13.5216C249.282 13.5718 248.852 13.6973 248.471 13.8983C247.638 14.3881 246.8 14.8381 245.959 15.2483C245.109 15.579 244.307 15.985 243.553 16.4664ZM257.297 7.17888C256.74 7.23742 256.223 7.29177 255.746 7.34195C255.348 7.38376 254.954 7.46535 254.565 7.58672C254.963 7.54491 255.373 7.62244 255.796 7.81932C256.018 7.63511 256.518 7.42163 257.297 7.17888ZM234.007 48.4797L233.291 48.5549C233.308 48.714 233.276 48.7978 233.197 48.8061L234.007 48.4797ZM233.701 59.4919C234.183 58.7173 235.002 57.7062 236.158 56.4585C237.305 55.1313 238.528 53.756 239.826 52.3324C241.116 50.8294 242.371 49.3703 243.59 47.9551C244.808 46.54 245.73 45.3572 246.354 44.4067C247.665 42.3384 248.766 40.5736 249.658 39.1123C250.542 37.5715 251.284 36.2065 251.883 35.0174C252.553 33.7403 253.112 32.5554 253.56 31.4626C254 30.2902 254.471 29.034 254.974 27.6941C255.288 26.8567 255.563 26.0234 255.797 25.1944C256.032 24.3653 255.875 24.0198 255.326 24.1579C256.009 23.7644 256.447 23.7184 256.639 24.0199C256.823 24.2419 256.905 24.6355 256.884 25.2008C256.863 25.7661 256.766 26.3796 256.595 27.0411C256.494 27.6148 256.425 28.1047 256.387 28.5109C256.098 29.587 255.438 31.3456 254.408 33.7867C253.457 36.2194 251.719 39.5795 249.193 43.867C248.23 45.4162 247.08 47.1056 245.744 48.9353C244.487 50.7566 243.187 52.5423 241.842 54.2925C240.569 55.9547 239.323 57.4933 238.104 58.9085C236.965 60.3153 236.075 61.4143 235.434 62.2056C235.15 62.5573 234.758 63.0409 234.26 63.6564C233.761 64.2718 233.267 64.9271 232.777 65.6221C232.287 66.3172 231.801 67.052 231.319 67.8266C230.909 68.5132 230.614 69.1476 230.434 69.7296C229.814 71.484 229.451 73.0103 229.346 74.3083C229.312 75.5185 229.264 76.2073 229.201 76.3748L230.935 74.5033C231.505 73.7999 232.043 73.1802 232.55 72.6443C233.048 72.0289 233.475 71.5013 233.831 71.0617C233.911 71.0533 233.947 71.0094 233.938 70.9298C235.324 69.5775 236.627 68.1938 237.846 66.7786C239.144 65.3551 240.411 64.0154 241.646 62.7593C242.882 61.5033 244.038 60.2557 245.114 59.0164C246.262 57.6891 247.453 56.3975 248.689 55.1415C247.654 56.7786 246.532 58.3445 245.321 59.8392C244.103 61.2544 242.888 62.7093 241.678 64.204L242.557 63.3876L242.13 63.9151L243.556 62.5586C243.644 62.6298 243.728 62.6613 243.807 62.6529C243.229 63.2767 242.544 64.0324 241.753 64.9201C240.953 65.7281 240.122 66.6199 239.259 67.5954C238.467 68.483 237.676 69.3706 236.884 70.2582C236.093 71.1458 235.448 71.8973 234.949 72.5128C234.325 73.4633 233.665 74.4577 232.97 75.496C232.346 76.4465 231.814 77.5079 231.374 78.6803C231.24 78.9357 230.853 79.4591 230.212 80.2504C229.563 80.9621 228.822 81.5629 227.988 82.0527C227.846 82.2285 227.735 82.3206 227.655 82.329C227.505 82.4253 227.354 82.5216 227.203 82.6179C227.061 82.7937 226.862 82.8146 226.606 82.6806C226.447 82.6973 226.28 82.6345 226.104 82.4921L224.666 81.4366C224.41 81.3026 224.182 81.045 223.981 80.6639L223.56 80.1049C222.924 78.6434 222.987 76.9475 223.75 75.0172C224.11 73.8532 224.734 72.1385 225.622 69.8733C226.431 67.6164 227.342 65.1879 228.356 62.5877C229.361 59.9079 230.371 57.2679 231.384 54.6677C232.398 52.0675 233.295 49.8818 234.074 48.1107C234.924 46.2516 235.515 44.9829 235.846 44.3046C236.256 43.6179 236.325 43.8922 236.053 45.1274C236.958 43.0213 237.827 40.9592 238.66 38.941C239.565 36.8349 240.522 34.8439 241.532 32.9681C241.611 32.9598 241.687 32.9116 241.758 32.8237L246.225 25.9592C246.874 25.2474 247.523 24.5357 248.172 23.8239C248.901 23.1038 249.678 22.459 250.503 21.8897C251.232 21.1696 252.134 20.9541 253.21 21.2432C254.278 21.4527 255.096 21.97 255.666 22.795L247.97 31.0848C247.978 31.1644 247.987 31.2439 247.995 31.3235C248.075 31.3151 248.119 31.3507 248.127 31.4303C248.847 30.6306 249.572 29.8707 250.301 29.1506C251.021 28.3509 251.79 27.6266 252.606 26.9777C253.264 26.3455 253.871 26.0001 254.428 25.9416C255.064 25.8747 255.205 26.0611 254.849 26.5007C253.969 27.3171 252.884 28.4768 251.594 29.9799C250.376 31.3951 249.063 33.0614 247.655 34.979C246.328 36.8883 244.933 38.9252 243.471 41.0899C242.01 43.2545 240.632 45.4506 239.337 47.6781C238.035 49.826 236.887 51.9174 235.894 53.9524C234.902 55.9873 234.171 57.8338 233.701 59.4919ZM225.621 74.4585C226.698 71.6908 227.448 69.6412 227.871 68.3097C228.374 66.9698 228.646 65.7345 228.688 64.6039C228.253 65.0519 227.819 65.9019 227.388 67.1539C226.956 68.4058 226.564 69.6536 226.212 70.8972C225.861 72.1408 225.647 73.1688 225.571 73.9811C225.416 74.8018 225.433 74.9609 225.621 74.4585ZM237.648 44.2358C239.378 41.5603 240.582 39.6238 241.261 38.4263C241.931 37.1493 242.362 35.8973 242.555 34.6705C242.12 35.1184 241.563 35.9412 240.884 37.1387C240.285 38.3278 239.69 39.5567 239.1 40.8254C238.58 42.0061 238.159 42.9755 237.837 43.7333C237.514 44.4912 237.451 44.6587 237.648 44.2358ZM258.008 61.0397C260.491 59.4112 262.386 57.925 263.693 56.581C265.079 55.2287 266.522 54.0314 268.021 52.9889C266.739 54.5716 265.544 55.8234 264.434 56.7445C263.395 57.5776 262.151 58.7541 260.702 60.2738L261.5 59.828L261.286 60.0918C261.437 59.9955 261.734 59.7631 262.178 59.3947C262.622 59.0263 262.932 58.9133 263.108 59.0557C261.626 60.2572 260.396 61.1908 259.421 61.8565C258.516 62.4342 257.898 63.0622 257.567 63.7405C257.04 64.8417 256.646 65.6875 256.386 66.2779C256.118 66.7887 255.814 67.3435 255.475 67.9422C255.136 68.541 254.614 69.3198 253.911 70.2786C253.287 71.229 252.351 72.6547 251.102 74.5555C251.534 73.3036 252.045 72.0432 252.636 70.7746C253.297 69.4179 253.924 68.1053 254.514 66.8366C255.097 65.4884 255.564 64.1924 255.916 62.9488C256.339 61.6173 256.559 60.2669 256.576 58.8976C256.576 57.3692 256.398 56.0607 256.042 54.9719C255.678 53.8035 255.276 53.0414 254.837 52.6854C253.782 51.831 252.875 51.2425 252.117 50.92C251.439 50.589 250.512 50.5659 249.335 50.8504C250.386 50.9008 251.387 51.2381 252.337 51.8622C253.288 52.4862 254.06 53.3301 254.654 54.3938C255.249 55.4575 255.617 56.6656 255.759 58.0182C255.973 59.2828 255.872 60.6206 255.457 62.0317C254.854 63.9453 254.096 65.9153 253.183 67.9419C252.261 69.8889 251.566 71.6914 251.096 73.3496L250.204 74.0466C250.033 74.7082 249.907 75.0432 249.827 75.0515C249.819 74.972 249.909 74.681 250.098 74.1785C248.988 75.0996 247.934 76.1756 246.938 77.4065C245.932 78.5579 245.237 79.5962 244.852 80.5216C244.718 80.777 244.109 80.7204 243.024 80.3517C241.948 80.0626 241.129 79.5453 240.568 78.7999C240.288 78.4272 239.974 77.7362 239.627 76.727C239.279 75.7178 239.003 74.6206 238.798 73.4356C238.513 72.2589 238.384 71.0257 238.409 69.7359C238.355 68.4546 238.52 67.3512 238.906 66.4259C239.174 65.9151 239.446 65.444 239.723 65.0128C239.92 64.5899 240.196 64.1586 240.552 63.719L240.942 62.8334C240.309 63.7043 239.704 64.4517 239.126 65.0755C239.44 64.2381 239.928 63.141 240.59 61.7844C241.252 60.4278 241.953 59.067 242.695 57.7021C243.428 56.2575 244.134 54.9365 244.812 53.739C245.562 52.4536 246.186 51.5032 246.684 50.8877C246.89 50.5444 247.329 50.1362 248.004 49.6631C248.749 49.1021 249.587 48.6521 250.516 48.3131C251.446 47.974 252.352 47.7983 253.236 47.7859C254.191 47.6855 255.024 47.9599 255.736 48.6091C256.263 49.0363 256.701 49.7545 257.048 50.7637C257.475 51.7646 257.787 52.8177 257.983 53.9232C258.26 55.0204 258.412 56.0903 258.442 57.1329C258.55 58.1673 258.59 58.9273 258.56 59.413L258.372 59.9155C258.309 60.0829 258.25 60.2902 258.196 60.5373C258.133 60.7047 258.07 60.8722 258.008 61.0397ZM253.146 58.4135C253.247 57.8398 253.109 57.2912 252.732 56.7677C252.347 56.1647 251.974 55.681 251.614 55.3166C251.543 55.4046 251.348 55.4653 251.03 55.4987C250.41 55.7247 249.74 56.2376 249.02 57.0373C248.3 57.8369 247.454 58.9716 246.482 60.4412C245.581 61.8229 244.765 63.236 244.032 64.6806C243.29 66.0455 242.949 67.7707 243.007 69.856C243.074 70.4925 243.136 71.0892 243.195 71.6461C243.254 72.2031 243.344 72.6763 243.465 73.0657C243.657 73.3672 243.953 73.4971 244.35 73.4553C244.748 73.4135 245.356 73.0681 246.172 72.4192C246.315 72.2433 246.461 72.1073 246.612 72.011C246.754 71.8351 246.865 71.743 246.945 71.7347C247.087 71.5588 247.194 71.4269 247.265 71.339C247.416 71.2427 247.558 71.0669 247.692 70.8115L247.812 70.7989L248.679 69.8632C248.557 69.4737 248.476 69.0801 248.434 68.6823C248.463 68.1966 248.497 67.7506 248.535 67.3444C248.572 66.9383 248.757 66.396 249.088 65.7177C249.49 64.9515 249.892 64.1853 250.294 63.419C250.776 62.6444 251.261 61.9096 251.752 61.2146C252.313 60.4316 252.807 59.7764 253.234 59.2489L253.146 58.4135ZM245.299 74.4416C244.57 75.1617 243.936 75.6306 243.395 75.8482C242.855 76.0659 242.447 75.6261 242.171 74.529C241.836 72.8749 241.579 71.5747 241.399 70.6283C241.139 69.6903 241.014 68.4969 241.022 67.048C240.98 68.1786 241.03 69.4202 241.173 70.7728C241.235 72.1337 241.461 73.5176 241.85 74.9247C242.135 76.1014 242.591 76.6165 243.219 76.47C243.927 76.3152 244.566 75.8861 245.135 75.1827L245.299 74.4416ZM251.462 65.3475C252.212 64.0621 252.643 62.8101 252.756 61.5916C251.018 64.1875 250.229 66.2413 250.387 67.753L250.494 67.6211C250.628 67.3657 250.754 67.0307 250.871 66.6162C251.068 66.1933 251.265 65.7704 251.462 65.3475ZM250.368 73.3055C250.581 73.0417 250.782 72.6586 250.971 72.1561C250.9 72.2441 250.785 72.2964 250.625 72.3131L250.368 73.3055ZM261.845 59.671C261.774 59.759 261.659 59.8113 261.5 59.828C261.58 59.8197 261.619 59.8155 261.619 59.8155C261.611 59.7359 261.647 59.6919 261.726 59.6836L261.845 59.671ZM254.353 56.1148C254.281 56.2027 254.25 56.2864 254.258 56.366L254.365 56.2341L254.353 56.1148ZM285.404 64.5552C285.459 64.3082 285.544 63.9774 285.662 63.5629C285.771 63.0688 285.959 62.5663 286.227 62.0555C285.017 63.5502 283.819 65.1643 282.634 66.8977C281.528 68.6227 280.494 70.2598 279.53 71.809C278.638 73.2702 277.884 74.5159 277.268 75.5459C276.653 76.5759 276.265 77.0992 276.106 77.116C275.47 77.1829 274.655 76.7054 273.663 75.6835C272.671 74.6616 272.108 73.5142 271.974 72.2412C271.681 69.4565 272.272 66.6594 273.747 63.8499C275.301 61.0321 277.12 58.0656 279.206 54.9505C277.489 56.9811 275.91 58.7961 274.469 60.3954C273.108 61.9864 272.388 62.7861 272.308 62.7945L272.296 62.6751C272.233 62.8426 271.81 63.41 271.027 64.3771C270.315 65.2564 269.46 66.3114 268.464 67.5424C267.538 68.6854 266.617 69.8682 265.699 71.0908C264.774 72.2338 264.137 73.0649 263.789 73.5841C263.521 74.0949 263.195 74.813 262.809 75.7383C262.503 76.6553 262.112 77.1389 261.635 77.1891C261.316 77.2225 260.942 77.101 260.51 76.8246C259.999 76.5565 259.52 76.2047 259.072 75.7691C258.536 75.2624 258.12 74.7431 257.822 74.2112C257.517 73.5998 257.41 72.9675 257.502 72.3143C257.632 71.2549 257.953 70.095 258.464 68.8347C258.887 67.5032 259.354 66.2073 259.865 64.9469C260.376 63.6866 260.852 62.4703 261.292 61.2979C261.731 60.1255 261.985 59.0933 262.052 58.2014L260.287 60.9208C260.207 60.9292 260.167 60.9334 260.167 60.9334C260.159 60.8538 260.115 60.8182 260.035 60.8266C260.19 60.0059 260.547 58.8021 261.104 57.2151C261.74 55.6198 262.497 54.012 263.372 52.3916C264.247 50.7712 265.263 49.3372 266.419 48.0895C267.575 46.8419 268.75 46.1553 269.943 46.0299C270.659 45.9546 271.501 46.3086 272.468 47.0918C273.515 47.8666 274.063 48.4927 274.113 48.9701C273.996 49.3846 273.684 49.8598 273.177 50.3958C272.021 51.6434 271.163 52.6587 270.601 53.4417C270.04 54.2246 269.527 55.083 269.062 56.0167C268.589 56.8708 268.021 57.9762 267.359 59.3328C266.769 60.6015 265.826 62.3496 264.532 64.5771L266.009 59.1128C265.251 60.3186 264.541 61.5999 263.879 62.9565C263.217 64.3131 262.945 65.5483 263.062 66.6622C263.112 67.1396 263.336 67.3573 263.734 67.3155C263.726 67.236 264.054 66.9199 264.72 66.3672C265.378 65.735 266.178 64.927 267.12 63.9431C268.142 62.9509 269.187 61.7953 270.255 60.4764C271.394 59.0697 272.445 57.5917 273.409 56.0425C273.417 56.1221 273.295 56.4968 273.044 57.1667C275.591 53.8424 277.865 50.989 279.867 48.6067C281.869 46.2244 283.347 44.9831 284.302 44.8827C284.7 44.8409 285.062 44.843 285.388 44.8892C285.795 44.9269 286.161 44.9688 286.488 45.015C286.504 45.1741 286.869 45.5782 287.58 46.2274C288.284 46.797 288.648 47.2011 288.673 47.4398C288.556 47.8543 288.244 48.3296 287.737 48.8655C286.581 50.1131 285.722 51.1284 285.161 51.9114C284.6 52.6943 284.087 53.5527 283.622 54.4864C283.149 55.3405 282.581 56.4459 281.919 57.8025C281.329 59.0712 280.386 60.8193 279.092 63.0468L280.569 57.5825C279.811 58.7883 279.105 60.1093 278.451 61.5455C277.79 62.9021 277.513 64.0976 277.622 65.1319C277.672 65.6093 277.896 65.827 278.294 65.7852C278.612 65.7518 278.803 65.6513 278.865 65.4838C278.999 65.2284 279.332 64.9521 279.864 64.6549C279.801 64.8224 279.782 65.0254 279.808 65.2641C279.833 65.5028 279.889 65.6578 279.977 65.729C280.903 64.5859 282.163 62.8044 283.759 60.3843C285.434 57.9559 287.15 55.5233 288.904 53.0865C290.659 50.6497 292.245 48.5123 293.66 46.6743C295.155 44.8279 296.182 43.8754 296.738 43.8169C298.409 43.6413 299.291 43.9911 299.383 44.8662C299.337 45.1928 299.064 45.6639 298.566 46.2794C297.544 47.2716 296.357 48.603 295.004 50.2736C293.731 51.9358 292.506 53.6733 291.329 55.4863C290.223 57.2113 289.272 58.8798 288.476 60.4919C287.752 62.016 287.423 63.0963 287.49 63.7328C287.556 64.3692 287.751 65.0728 288.073 65.8433C288.387 66.5343 288.703 66.863 289.022 66.8296C289.817 66.7459 290.73 66.2478 291.76 65.3351C292.782 64.3429 293.831 63.2271 294.908 61.9878C295.984 60.7485 296.985 59.5573 297.911 58.4143C298.836 57.2713 299.592 56.4277 300.179 55.8834C301.431 54.7865 302.52 53.6665 303.445 52.5235C304.363 51.3009 305.403 50.1056 306.568 48.9375C305.613 50.5663 304.446 52.0966 303.068 53.5284C301.69 54.9603 300.396 56.4236 299.186 57.9183L301.73 55.7203C301.738 55.7999 301.743 55.8397 301.743 55.8397C301.822 55.8313 301.866 55.8669 301.874 55.9465C301.217 56.5787 300.319 57.5981 299.179 59.0049C298.04 60.4117 296.826 61.8666 295.536 63.3697C294.317 64.7849 293.125 66.0765 291.961 67.2446C290.789 68.3331 289.884 68.9108 289.247 68.9777C288.691 69.0363 287.933 68.7137 286.974 68.0101C286.095 67.2981 285.571 66.1465 285.404 64.5552ZM296.537 46.4926C294.992 47.8616 293.792 49.0737 292.937 50.1288C292.083 51.1839 291.379 52.1427 290.827 53.0052C290.353 53.8593 289.955 54.6653 289.633 55.4232C289.381 56.0932 289.011 56.7756 288.521 57.4707C289.731 55.976 290.537 54.8455 290.939 54.0793C291.421 53.3047 291.832 52.618 292.171 52.0193C292.51 51.4205 292.96 50.7297 293.522 49.9467C294.083 49.1638 295.088 48.0124 296.537 46.4926ZM284.1 47.5584C282.722 48.9903 281.629 50.0705 280.821 50.7989C280.084 51.4395 279.466 52.0675 278.968 52.683C278.541 53.2105 278.082 53.8218 277.592 54.5168C277.173 55.1239 276.553 56.1142 275.732 57.4875C276.222 56.7925 276.681 56.1812 277.108 55.6536C277.607 55.0382 278.18 54.3746 278.83 53.6628C279.479 52.9511 280.199 52.1514 280.991 51.2638C281.853 50.2882 282.89 49.0531 284.1 47.5584ZM270.514 48.0211C269.522 48.5276 268.626 49.1849 267.826 49.9929C267.105 50.7926 266.389 51.6321 265.677 52.5113C266.335 51.8791 267.222 51.1423 268.341 50.3008C269.459 49.4593 270.183 48.6994 270.514 48.0211ZM269.459 49.4593C268.491 50.2045 267.66 51.0963 266.965 52.1346C266.349 53.1646 265.782 54.27 265.262 55.4508C266.02 54.2449 266.751 53.1626 267.455 52.2038C268.158 51.245 268.826 50.3302 269.459 49.4593Z" fill="white"/>
</svg>
