<svg width="119" height="45" viewBox="0 0 119 45" fill="none" xmlns="http://www.w3.org/2000/svg">
<path d="M33.0969 41.3466C32.221 41.1312 31.1225 40.8084 29.8013 40.3782C28.48 39.9479 27.1392 39.4576 25.7789 38.9072C24.4491 38.3546 23.1805 37.7977 21.9731 37.2366C20.7656 36.6754 19.8531 36.1551 19.2355 35.6757C20.1875 36.101 21.0576 36.4552 21.846 36.7382C22.667 37.0497 23.4739 37.3776 24.2665 37.7218L24.4404 37.5713C22.7065 36.9547 21.0405 36.2105 19.4425 35.3385C17.8444 34.4665 16.2965 33.6525 14.7988 32.8964C14.3534 32.6817 14.05 32.5184 13.8884 32.4068C13.7575 32.2929 13.644 32.2087 13.548 32.1539L13.2171 32.0387C13.1865 32.0408 13.1712 32.0419 13.1712 32.0419C13.1691 32.0113 13.1527 31.9971 13.1222 31.9992C12.2521 32.306 11.4575 32.5921 10.7382 32.8576C10.019 33.1231 9.28339 33.3743 8.53143 33.6114C8.40906 33.6199 8.26465 33.753 8.09822 34.0106C7.92964 34.2376 7.76534 34.5257 7.60532 34.8751C7.44316 35.1938 7.26677 35.5289 7.07616 35.8804C6.91828 36.2604 6.78778 36.5923 6.68467 36.8762C6.60145 37.0049 6.50721 37.196 6.40196 37.4493C6.19573 38.017 6.02576 38.4439 5.89205 38.73C5.78893 39.0138 5.78113 39.122 5.86862 39.0544L6.7052 38.4887C7.17542 38.1791 7.6282 37.84 8.06355 37.4714C8.50104 37.1334 8.96698 36.7627 9.46137 36.3592C9.9579 35.9863 10.4523 35.5829 10.9445 35.1488C11.4674 34.7126 11.9454 34.2949 12.3786 33.8957C12.0785 34.4393 11.6517 34.9303 11.0983 35.3686C10.5733 35.7742 10.1127 36.2214 9.71648 36.7103C9.68589 36.7124 9.67166 36.7288 9.6738 36.7594C9.64321 36.7615 9.62898 36.7779 9.63112 36.8085C10.3418 36.4206 10.6818 36.2277 10.6512 36.2299C10.218 36.6291 9.85703 36.9617 9.56822 37.2279C9.28156 37.5246 9.00912 37.8049 8.7509 38.0689C8.49483 38.3635 8.20816 38.6602 7.8909 38.9591C7.60637 39.2864 7.21905 39.6824 6.72894 40.147C6.67203 40.2125 6.49704 40.3477 6.20395 40.5526C5.9436 40.786 5.66474 40.9746 5.36738 41.1184C5.31047 41.1838 5.25143 41.2187 5.19024 41.223C5.12906 41.2273 5.06895 41.2468 5.0099 41.2817C4.86336 41.3842 4.70719 41.349 4.5414 41.1761C4.40833 41.0317 4.30907 40.9311 4.24361 40.8742C3.97748 40.5854 3.83158 40.2574 3.80591 39.8903C3.81083 39.5211 3.86057 39.1333 3.95513 38.7271C4.08242 38.3493 4.23923 37.954 4.42556 37.5414C4.6119 37.1287 4.78401 36.7324 4.94189 36.3525L5.18834 35.9202C5.55245 34.9725 5.90875 34.1329 6.25725 33.4015C6.63419 32.6374 7.02323 31.8262 7.42435 30.9682C7.85606 30.108 8.3251 29.1222 8.83148 28.0108C9.33786 26.8994 9.91782 25.5216 10.5714 23.8774L10.0207 23.9159C9.99014 23.918 9.95848 23.9049 9.92574 23.8764L9.18512 23.836C8.66506 23.8723 8.17024 23.8301 7.70066 23.7092C7.26168 23.5862 6.62919 23.5536 5.80321 23.6113L5.61324 23.5324L5.19383 23.4695L4.7157 23.2263C4.17852 23.0179 3.7189 22.8195 3.33682 22.631C2.98533 22.4404 2.67866 22.2313 2.41681 22.0036C2.15283 21.7454 1.93259 21.4534 1.75609 21.1276C1.57746 20.7712 1.42301 20.3209 1.29273 19.7766L1.41852 18.9378C1.38429 18.4483 1.51618 17.9165 1.81419 17.3423C2.11219 16.7681 2.48775 16.2039 2.94086 15.6496C3.39396 15.0953 3.88087 14.5848 4.40157 14.118C4.95073 13.6185 5.47572 13.2128 5.97653 12.9011L6.59329 12.4891C6.79888 12.3518 7.33028 12.0379 8.1875 11.5476C9.04258 11.0267 10.1719 10.4712 11.5755 9.88123C12.9791 9.29121 14.6164 8.74634 16.4874 8.2466C18.3563 7.71628 20.4074 7.37303 22.6406 7.21687C23.8337 7.13344 25.0517 7.18661 26.2946 7.37637C27.566 7.5334 28.7268 7.86724 29.777 8.37789C30.825 8.85796 31.7023 9.5344 32.409 10.4072C33.1462 11.2779 33.5607 12.371 33.6527 13.6865C33.7426 14.9713 33.4675 16.3125 32.8274 17.7098C32.1852 19.0766 31.2808 20.431 30.1142 21.773C28.9476 23.115 27.5616 24.3955 25.956 25.6144C24.3505 26.8334 22.6282 27.9222 20.7893 28.8808C20.6997 28.9178 20.6253 28.9537 20.5663 28.9886C20.5357 28.9907 20.4439 28.9972 20.2909 29.0079C22.3027 27.8835 24.1061 26.6353 25.7009 25.2634C27.3242 23.8587 28.6416 22.4754 29.6531 21.1136C28.3094 22.5602 26.5143 24.1459 24.2678 25.8708C22.0192 27.5651 19.349 29.166 16.2573 30.6733C16.5127 30.8091 16.7212 30.9329 16.8827 31.0446C17.0748 31.1541 17.268 31.2789 17.4623 31.4191C19.3087 32.7655 21.1793 34.0181 23.074 35.1768C24.9688 36.3354 26.8966 37.3073 28.8575 38.0924C30.8184 38.8775 32.8266 39.4596 34.882 39.8384C36.968 40.2152 39.1419 40.3091 41.4035 40.1202C41.9542 40.0817 42.5006 39.982 43.0427 39.8211C43.6154 39.6581 44.1269 39.4994 44.5772 39.3449C45.0275 39.1905 45.4014 39.0414 45.6987 38.8976C45.9961 38.7538 46.1601 38.6809 46.1907 38.6788C46.2497 38.6439 46.1775 38.7104 45.974 38.8783C45.7706 39.0463 45.4153 39.2402 44.908 39.4601C44.4314 39.6779 43.8171 39.9053 43.0651 40.1423C42.3132 40.3794 41.4193 40.5648 40.3834 40.6988C40.1102 40.7486 39.8349 40.7679 39.5574 40.7565C39.28 40.7452 39.0036 40.7491 38.7282 40.7684C39.0384 40.8082 39.3629 40.8316 39.7015 40.8387C40.0708 40.8436 40.4695 40.8311 40.8978 40.8011C42.5192 40.6878 43.9552 40.3414 45.2058 39.7621C46.4892 39.2112 47.5605 38.7059 48.4199 38.2462L48.9022 37.8897C49.7203 37.2791 50.3527 36.6508 50.7993 36.0048C51.246 35.3587 51.5462 34.8151 51.6998 34.374C51.8555 33.9634 51.9729 33.6632 52.0518 33.4732C52.1635 33.3117 52.2488 33.2135 52.3079 33.1786C52.3669 33.1438 52.4139 33.1559 52.4488 33.2149C52.4836 33.2739 52.5174 33.3177 52.5502 33.3461C52.5914 33.497 52.5484 33.7613 52.4212 34.1391C52.3266 34.5453 52.173 34.9864 51.9603 35.4624C51.7477 35.9384 51.4881 36.4023 51.1815 36.8542C50.8771 37.3366 50.5488 37.6977 50.1967 37.9375L49.8979 38.2812L49.4124 38.5918C48.7345 39.0081 48.0227 39.3807 47.2772 39.7095C46.5317 40.0383 45.8822 40.4219 45.3287 40.8602C46.2294 40.5513 47.1094 40.167 47.9687 39.7072C48.8302 39.2781 49.6373 38.7298 50.3899 38.0623C49.1251 39.3189 47.6664 40.2202 46.0138 40.7662C44.3634 41.3427 42.6815 41.6909 40.9684 41.8107C39.5918 41.9069 38.2873 41.9367 37.0551 41.8999C35.8229 41.8631 34.5034 41.6787 33.0969 41.3466ZM14.9381 29.6127C16.1055 29.1622 17.3409 28.584 18.6441 27.878C19.978 27.1699 21.2912 26.3864 22.5838 25.5274C23.8763 24.6685 25.1045 23.768 26.2683 22.8258C27.4626 21.8816 28.503 20.9327 29.3893 19.9792C30.2735 18.9951 30.9599 18.0403 31.4485 17.1146C31.9677 16.1868 32.1984 15.3099 32.1407 14.4839C32.1129 14.0862 32.0794 13.8272 32.0402 13.707C32.0317 13.5846 32.0221 13.447 32.0114 13.294C32.0186 14.2772 31.7374 15.3114 31.1677 16.3964C30.598 17.4815 29.8743 18.5619 28.9965 19.6378C28.1166 20.683 27.1265 21.6899 26.026 22.6583C24.9255 23.6268 23.8471 24.4707 22.7907 25.1902C22.1149 25.6371 21.4075 26.0708 20.6683 26.4914C19.9598 26.9099 19.2633 27.2813 18.579 27.6059C17.9252 27.9283 17.3294 28.2005 16.7916 28.4225C16.2822 28.6119 15.9052 28.7151 15.6604 28.7322C16.1392 28.545 16.8542 28.2183 17.8053 27.7522C18.7543 27.2555 19.7734 26.6616 20.8625 25.9706C21.9822 25.2775 23.0812 24.5089 24.1597 23.665C25.2381 22.821 26.1461 21.9583 26.8838 21.0767C27.2579 20.7123 27.6847 20.2214 28.1641 19.6037C28.6414 18.9555 29.086 18.2789 29.4978 17.5738C29.938 16.8359 30.2865 16.1045 30.5433 15.3795C30.8306 14.6524 30.956 14.0287 30.9197 13.5087C30.894 13.1416 30.8431 12.8531 30.7669 12.6432C30.6886 12.4028 30.6299 12.2224 30.5908 12.1022C30.5822 11.9798 30.6064 11.8859 30.6633 11.8205C30.7508 11.7529 30.9158 11.6952 31.1584 11.6475C30.7485 11.0613 30.2106 10.6224 29.5446 10.3309C28.8765 10.0087 28.17 9.79678 27.4251 9.69516C26.6781 9.56295 25.9211 9.50829 25.1542 9.53117C24.3851 9.52347 23.6793 9.54208 23.0369 9.587C22.058 9.65546 21.1456 9.79611 20.2997 10.009C19.4844 10.2197 18.6712 10.461 17.8602 10.7329C17.0777 10.9721 16.2962 11.2265 15.5158 11.4963C14.7332 11.7355 13.8863 11.933 12.9749 12.089C13.2132 11.9801 13.4658 11.8548 13.7326 11.7132C14.0278 11.5389 14.3131 11.4421 14.5884 11.4228L14.7228 11.3673C14.9612 11.2584 15.1995 11.1495 15.4378 11.0406C15.674 10.9011 15.9265 10.7759 16.1954 10.6649C16.0162 10.7389 15.8358 10.7976 15.6544 10.841C15.4708 10.8539 15.2884 10.882 15.107 10.9254L14.3397 11.1635C13.7471 11.4816 12.9119 11.8475 11.8341 12.261C10.7848 12.6418 9.71131 13.1165 8.61364 13.6851C7.51382 14.2231 6.52857 14.8607 5.65787 15.5979C4.78504 16.3046 4.25941 17.1406 4.08099 18.1061C3.90043 19.0409 4.16163 19.699 4.86461 20.0802C5.59817 20.4593 6.48929 20.6736 7.53798 20.7233C8.61511 20.7402 9.71429 20.6326 10.8355 20.4005C11.9852 20.1356 12.9011 19.8257 13.5833 19.4705C13.6381 19.3745 13.7608 19.1507 13.9514 18.7992C14.1705 18.415 14.4201 18.0286 14.7004 17.6402C15.0112 17.2495 15.3405 16.9037 15.6884 16.6027C16.0647 16.269 16.4517 16.0882 16.8494 16.0604C17.2471 16.0326 17.59 16.1008 17.8782 16.2651C17.6242 16.5903 17.3998 16.898 17.2049 17.1883C17.0101 17.4786 16.7988 17.7547 16.5712 18.0166L16.3087 18.2194L15.1724 19.7744L15.2674 19.8139C15.554 19.5172 15.8101 19.2226 16.0356 18.9302C16.1515 18.8298 16.3212 18.6181 16.5445 18.2951C16.7679 17.9721 17.0218 17.6469 17.3063 17.3196C17.6215 16.9901 17.9387 16.6913 18.2581 16.423C18.5775 16.1547 18.8902 16.0099 19.1961 15.9885C19.2879 15.9821 19.4583 16.0009 19.7073 16.045C18.996 16.8633 18.2935 17.5887 17.6 18.2213C16.937 18.8517 16.321 19.4943 15.7519 20.1489C15.4304 20.3866 15.0605 20.8121 14.6423 21.4254C14.2525 22.006 13.8385 22.6805 13.4004 23.449C12.9601 24.1868 12.5373 24.9542 12.1319 25.7511C11.7244 26.5174 11.3574 27.204 11.0309 27.8109L11.1227 27.8045C12.0661 28.1074 12.7943 28.41 13.3073 28.7123C13.8488 28.9818 14.3924 29.282 14.9381 29.6127ZM11.0877 22.6885C11.0898 22.719 11.1062 22.7333 11.1368 22.7311L11.1827 22.7279C11.2396 22.6625 11.3129 22.6112 11.4025 22.5742C11.4921 22.5372 11.5796 22.4696 11.665 22.3714L11.4218 22.8495C11.5001 23.09 11.5381 23.1949 11.536 23.1643C11.7266 22.8129 11.8888 22.4941 12.0225 22.2081C12.1846 21.8893 12.3489 21.6012 12.5154 21.3436C12.2749 21.4219 12.0967 21.5112 11.9808 21.6115C11.8933 21.6791 11.7499 21.8275 11.5508 22.0566C11.5508 22.0566 11.5344 22.0424 11.5017 22.0139L11.364 22.0236C11.3007 21.9972 11.1772 21.9905 10.9937 22.0033L9.84649 22.0836L8.28309 22.1468C7.82207 22.1483 7.26714 22.1256 6.61829 22.0787C5.9673 22.0013 5.34263 21.8605 4.74426 21.6564C4.1459 21.4523 3.61867 21.1664 3.16258 20.7987C2.73493 20.3982 2.49758 19.8615 2.45052 19.1884C2.42057 18.7601 2.50978 18.2774 2.71815 17.7402C2.92438 17.1725 3.18612 16.7391 3.50338 16.4403C3.4422 16.4446 3.41054 16.4314 3.4084 16.4008L3.3102 16.3155C3.00364 16.7673 2.73088 17.2628 2.49192 17.8022C2.25296 18.3415 2.15166 18.8712 2.18802 19.3912C2.23509 20.0643 2.45714 20.6021 2.8542 21.0047C3.28184 21.4052 3.81121 21.7217 4.4423 21.9542C5.10399 22.1846 5.83894 22.3638 6.64717 22.4917C7.48385 22.5869 8.33368 22.6505 9.19668 22.6824L9.65876 22.6962C9.68936 22.694 9.72102 22.7072 9.75375 22.7356C9.81493 22.7313 9.89141 22.726 9.98319 22.7196L10.7633 22.665L11.0877 22.6885ZM7.56143 13.8048C7.5088 13.9314 7.48141 13.9795 7.47928 13.9489C7.56463 13.8507 7.89933 13.5813 8.48336 13.1409C9.06525 12.6698 9.84278 12.1389 10.8159 11.5483C11.8197 10.9555 12.9917 10.3509 14.332 9.73458C15.7029 9.11612 17.2036 8.59617 18.8342 8.17473C18.773 8.17901 18.3326 8.25592 17.513 8.40545C16.6935 8.55498 15.6989 8.83972 14.5293 9.25966C13.3904 9.67746 12.1856 10.2536 10.9151 10.988C9.64457 11.7224 8.52668 12.6613 7.56143 13.8048ZM15.2786 29.8656C15.7289 29.7111 16.2077 29.524 16.7149 29.304C17.2527 29.082 17.7742 28.8457 18.2793 28.5952C18.8149 28.3425 19.3047 28.0931 19.7486 27.8469C20.221 27.5679 20.6158 27.279 20.9331 26.9801C19.9841 27.4769 18.9892 27.9768 17.9484 28.48C16.9361 28.9504 15.9501 29.3575 14.9904 29.7013L15.2786 29.8656ZM13.2499 29.8691C13.3459 29.9239 13.4256 29.9644 13.4889 29.9907C13.5829 30.0149 13.6768 30.0391 13.7707 30.0633C13.8625 30.0568 13.9379 30.0362 13.9969 30.0013C13.6454 29.8107 13.1356 29.5543 12.4675 29.2321C11.7994 28.91 11.1847 28.6916 10.6234 28.5772C10.5928 28.5793 10.5522 28.659 10.5017 28.8163C10.4491 28.9429 10.3965 29.0695 10.3439 29.1962C10.9294 29.2167 11.458 29.3027 11.9297 29.4542C12.3993 29.5751 12.8393 29.7134 13.2499 29.8691ZM9.19921 31.9508C9.52931 31.8354 9.87577 31.7344 10.2386 31.6475C10.5993 31.5301 10.9906 31.4105 11.4124 31.2888C11.4146 31.3193 11.4146 31.3193 11.4124 31.2888C11.4409 31.256 11.4245 31.2418 11.3633 31.2461C11.2104 31.2568 10.945 31.1985 10.5672 31.0712C10.2178 30.9112 9.91759 30.7938 9.66644 30.7192C9.53059 30.9746 9.42427 31.2126 9.34747 31.4332C9.26853 31.6231 9.21911 31.7957 9.19921 31.9508ZM17.6833 32.6025C17.7118 32.5698 17.6278 32.4681 17.4314 32.2973C17.2635 32.0939 17.0661 31.9079 16.8391 31.7393C16.61 31.5401 16.3677 31.3726 16.1123 31.2368C15.8853 31.0682 15.7259 30.9871 15.6341 30.9935C15.6035 30.9957 15.4986 31.0338 15.3193 31.1078C15.446 31.1604 15.5748 31.2436 15.7057 31.3574C15.8366 31.4713 15.9501 31.5555 16.0461 31.6103L17.6833 32.6025ZM28.4692 39.134C28.4998 39.1319 28.418 39.0608 28.2238 38.9206C28.0316 38.8111 27.7915 38.6742 27.5033 38.5099C27.2458 38.3435 26.974 38.1934 26.688 38.0597C26.4347 37.9544 26.2632 37.9203 26.1736 37.9573L25.8652 38.1633C26.0224 38.2138 26.1644 38.2654 26.291 38.318C26.4482 38.3685 26.5749 38.4211 26.6709 38.4759L28.4692 39.134ZM22.9984 9.03635C22.2336 9.08983 21.4884 9.20342 20.7627 9.37713C20.0677 9.5487 19.3584 9.73664 18.6349 9.94094C19.4808 9.72808 20.284 9.56432 21.0445 9.44965C21.8356 9.33285 22.4606 9.25841 22.9195 9.22632L22.9984 9.03635ZM7.31716 34.7108C7.12227 35.0011 6.88897 35.4016 6.61728 35.9125C6.34559 36.4234 6.06288 36.9965 5.76915 37.6319L6.32719 37.0395C6.51138 36.5962 6.68242 36.1846 6.8403 35.8047C7.02664 35.392 7.18559 35.0274 7.31716 34.7108ZM10.9908 23.9403C10.8549 24.1957 10.718 24.4358 10.58 24.6607C10.4727 24.8834 10.3521 25.1377 10.2184 25.4238L10.451 25.4536C10.5257 25.2024 10.6299 24.9339 10.7636 24.6478C10.8952 24.3312 11.0321 24.0911 11.1743 23.9274L11.1252 23.8847L10.9876 23.8944L10.9908 23.9403ZM14.426 30.2019L14.0919 30.0408C13.9389 30.0515 13.8482 30.0732 13.8198 30.1059L14.157 30.3129L14.426 30.2019ZM35.2185 27.134C35.6474 26.6736 36.06 26.199 36.4562 25.7102C36.8524 25.2214 37.2486 24.7325 37.6448 24.2437C37.3183 24.8506 36.9296 25.4465 36.4786 26.0314C36.0583 26.6142 35.6532 27.1958 35.2634 27.7764L35.5654 27.4786L35.9527 27.0827L36.0509 27.168C35.8517 27.3971 35.6099 27.6754 35.3253 28.0027C35.0387 28.2994 34.7378 28.6125 34.4226 28.9419C34.1381 29.2692 33.8536 29.5965 33.5691 29.9239C33.2845 30.2512 33.0438 30.5447 32.8467 30.8044C32.5949 31.1602 32.3606 31.5454 32.1436 31.9603C31.9552 32.3423 31.7852 32.7692 31.6337 33.2409C31.5811 33.3676 31.4421 33.5771 31.2166 33.8696C30.9911 34.162 30.746 34.3943 30.4814 34.5666C30.4224 34.6014 30.3633 34.6363 30.3043 34.6712C30.2758 34.7039 30.231 34.7224 30.1698 34.7267C30.1435 34.79 30.067 34.7954 29.9404 34.7427C29.8486 34.7491 29.7863 34.7381 29.7536 34.7097L29.125 34.2925C29.0901 34.2335 29.0552 34.1744 29.0204 34.1154C28.9855 34.0563 28.9353 33.9984 28.8699 33.9414C28.8001 33.8234 28.7325 33.7359 28.6671 33.679C28.3141 33.0273 28.266 32.339 28.5227 31.614C28.9572 30.354 29.408 29.1081 29.8753 27.8765C30.3731 26.6428 30.884 25.3774 31.4082 24.0804L31.3986 23.9427C31.9043 23.2618 32.356 22.9074 32.7537 22.8796C33.1493 22.8212 33.5185 22.8261 33.8614 22.8943C32.8542 24.3174 32.0558 25.649 31.4663 26.8892C30.8745 28.0987 30.5318 29.3523 30.4381 30.65C30.6927 29.8944 30.9209 29.2022 31.1229 28.5732C31.3533 27.9115 31.6011 27.2794 31.8664 26.6767C32.1317 26.0741 32.4123 25.4704 32.7081 24.8656C33.0346 24.2587 33.419 23.6016 33.8614 22.8943C34.0493 22.9427 34.2033 22.9473 34.3235 22.9081C34.4743 22.8669 34.6209 22.7644 34.7631 22.6007C34.2155 23.5613 33.7368 24.4094 33.3271 25.1451C32.948 25.8787 32.5985 26.5948 32.2784 27.2935C31.989 27.99 31.7017 28.7172 31.4165 29.4749C31.1598 30.1999 30.8963 31.0484 30.6261 32.0203C30.5692 32.0857 30.5145 32.1818 30.4618 32.3084L30.7702 32.1024C30.7681 32.0718 30.767 32.0565 30.767 32.0565C30.7955 32.0238 30.8086 31.9921 30.8065 31.9615L30.8129 32.0533C30.9004 31.9857 30.9879 31.9181 31.0754 31.8505C31.1607 31.7523 31.2297 31.6399 31.2824 31.5132C31.6807 31.055 32.0396 30.6918 32.359 30.4235L32.4016 30.3744C32.9159 29.8158 33.3996 29.2594 33.8527 28.7051C34.3343 28.1181 34.7895 27.5944 35.2185 27.134ZM34.7744 19.4643C34.7438 19.4664 34.7 19.5002 34.6431 19.5657C34.7768 19.2797 34.9728 19.0047 35.231 18.7407C35.4871 18.4461 35.7289 18.1679 35.9566 17.906L35.2718 19.9829C35.4667 19.6926 35.6167 19.4208 35.722 19.1675C35.8251 18.8836 35.892 18.7406 35.9225 18.7384L36.4228 17.3201C36.5039 17.1607 36.6003 17.0003 36.712 16.8387C36.8521 16.6445 37.0359 16.4165 37.2636 16.1546C36.8667 17.0739 36.5542 17.8796 36.3259 18.5719C36.3259 18.5719 36.3423 18.5861 36.375 18.6146C36.2456 18.9618 36.0625 19.4203 35.8256 19.9902C35.6194 20.558 35.432 20.9554 35.2634 21.1824L35.0073 21.477C34.9768 21.4791 34.9625 21.4955 34.9647 21.526C34.9647 21.526 34.9504 21.5424 34.922 21.5751L34.7481 21.7256L34.62 21.8729C34.5894 21.8751 34.5599 21.8925 34.5315 21.9252C34.5315 21.9252 34.5162 21.9263 34.4856 21.9285L34.4002 22.0266L33.666 22.078C33.6091 22.1434 33.5501 22.1783 33.4889 22.1826L33.443 22.1858L33.3971 22.189L33.3053 22.1954L33.3522 21.5466L34.2622 20.0535C34.2338 20.0862 34.2743 20.0065 34.3839 19.8144C34.4934 19.6223 34.5208 19.5743 34.466 19.6703L34.4692 19.7162C34.4671 19.6856 34.4813 19.6692 34.5119 19.6671L34.5578 19.6639C34.5556 19.6333 34.5852 19.6159 34.6463 19.6116L34.6431 19.5657C34.6737 19.5636 34.7175 19.5298 34.7744 19.4643ZM34.3049 20.0044C34.1712 20.2904 34.0734 20.6508 34.0116 21.0855C33.9782 21.4874 33.9964 21.7475 34.0662 21.8656C34.0619 21.8044 34.0565 21.7279 34.0501 21.6361C34.0743 21.5422 34.0832 21.4494 34.0767 21.3576C34.1429 20.9841 34.2506 20.5461 34.3999 20.0438C34.3693 20.046 34.354 20.047 34.354 20.047C34.3519 20.0165 34.3355 20.0022 34.3049 20.0044ZM35.1193 21.1002L35.162 21.0511C35.1642 21.0817 35.1368 21.1297 35.0799 21.1952C35.1083 21.1625 35.1215 21.1308 35.1193 21.1002ZM35.5654 27.4786L35.608 27.4296L35.5654 27.4786ZM41.5898 28.3946C41.8651 28.3754 42.5946 27.8171 43.7783 26.7199C44.1809 26.3228 44.5191 25.8842 44.793 25.4039C45.0974 24.9215 45.4182 24.4533 45.7553 23.9994C45.4922 24.6326 45.1352 25.2416 44.6842 25.8265C44.2617 26.3787 43.8883 26.9735 43.5639 27.611C43.7062 27.4474 43.8342 27.3001 43.9481 27.1691C44.0925 27.0361 44.2369 26.903 44.3813 26.77C44.4119 26.7678 44.4282 26.782 44.4304 26.8126C44.4304 26.8126 44.4457 26.8116 44.4762 26.8094C44.2814 27.0997 44.0253 27.3943 43.708 27.6932C43.3886 27.9614 43.0682 28.2144 42.7466 28.4521C42.4557 28.6876 42.1626 28.8926 41.8674 29.0669C41.6006 29.2085 41.406 29.2836 41.2837 29.2922C41.1001 29.305 40.8326 29.2161 40.4811 29.0255C40.1602 28.8328 39.9574 28.5703 39.8727 28.238C39.5597 28.5981 39.192 29.0542 38.7694 29.6063C38.3754 30.1257 37.9824 30.6605 37.5905 31.2105C37.2291 31.7583 36.8973 32.2888 36.5951 32.8018C36.3212 33.2821 36.1317 33.6488 36.0264 33.9021C35.8927 34.1882 35.781 34.3497 35.6914 34.3867C35.6345 34.4521 35.5111 34.4454 35.3211 34.3665C35.166 34.3466 35.0045 34.2349 34.8365 34.0315C34.6402 33.8607 34.4733 33.6726 34.3359 33.467C34.1659 33.233 34.0275 33.0121 33.9207 32.8043C33.8118 32.566 33.7673 32.3693 33.7872 32.2142C33.8163 31.7511 33.8771 31.3011 33.9695 30.8642C34.0313 30.4295 34.2454 29.7536 34.6116 28.8365C34.6948 28.7077 34.7869 28.4861 34.8879 28.1716C34.8438 28.4206 34.8293 28.6522 34.8443 28.8663C34.8286 29.0826 34.823 29.2213 34.8273 29.2825C34.8294 29.3131 34.8393 29.2356 34.8571 29.0499C34.8749 28.8642 34.8961 28.5092 34.921 27.9848C35.0262 27.7315 35.1204 27.5405 35.2037 27.4117C35.1468 27.4772 35.0877 27.512 35.0265 27.5163C34.9959 27.5185 34.9675 27.5512 34.9412 27.6145L34.9784 26.828C34.8227 27.2385 34.6473 27.589 34.4525 27.8793C34.4525 27.8793 34.4208 27.8661 34.3575 27.8398C34.4 27.1298 34.5639 26.3959 34.8491 25.6381C35.1343 24.8804 35.567 24.0355 36.1474 23.1034C36.9619 22.0012 37.7323 21.809 38.4588 22.5267C38.6488 22.6057 38.8278 22.7469 38.9957 22.9503C39.1942 23.1516 39.2956 23.2829 39.2999 23.3441C39.2558 23.5931 38.9898 23.9652 38.5018 24.4605C38.0423 24.923 37.6141 25.6139 37.2173 26.5331C37.1362 26.6925 37.0583 26.8978 36.9837 27.1489C36.909 27.4001 36.8201 27.6676 36.717 27.9515C36.6139 28.2354 36.5097 28.5039 36.4045 28.7572C36.3298 29.0084 36.253 29.2289 36.174 29.4189C36.2117 29.0781 36.2494 28.7373 36.287 28.3965C36.3531 28.023 36.4498 27.6474 36.5771 27.2696C36.336 27.7783 36.1507 28.2063 36.0213 28.5535C35.9225 28.8985 35.8585 29.3026 35.8294 29.7658C35.8181 30.0433 35.8736 30.1777 35.9959 30.1692C36.1468 30.1279 36.3086 30.0243 36.4815 29.8585C36.6543 29.6927 36.8108 29.5127 36.9509 29.3185C37.1195 29.0915 37.2323 28.9453 37.2892 28.8798C37.5651 28.4301 37.8969 27.8997 38.2846 27.2885C38.7028 26.6752 39.121 26.0618 39.5393 25.4485C39.9575 24.8352 40.3473 24.2546 40.7086 23.7067C41.1006 23.1567 41.3918 22.7059 41.5824 22.3544C41.714 22.0378 42.0114 21.8941 42.4745 21.9232C42.9355 21.9217 43.2753 21.944 43.4937 21.9902C43.5613 22.0777 43.6595 22.1631 43.7883 22.2463C43.9149 22.2989 43.9946 22.3395 44.0273 22.3679C44.038 22.5209 43.958 22.6956 43.7873 22.8919C43.3932 23.4114 43.0703 23.849 42.8185 24.2047C42.5646 24.5299 42.3259 24.854 42.1026 25.177C41.9077 25.4673 41.6844 25.7904 41.4326 26.1461C41.2092 26.4692 40.9147 26.874 40.5491 27.3607C40.5662 27.6054 40.7057 27.8416 40.9676 28.0692C41.26 28.2947 41.4674 28.4032 41.5898 28.3946ZM42.6112 22.5592C42.215 23.048 41.7904 23.5696 41.3373 24.1238C40.9126 24.6454 40.5033 25.1659 40.1092 25.6853C39.7457 26.2026 39.4107 26.6871 39.1041 27.139C38.8282 27.5886 38.6386 27.9554 38.5355 28.2393C39.2973 27.2638 39.988 26.3701 40.6075 25.5582C41.2249 24.7158 41.8928 23.7161 42.6112 22.5592ZM37.888 22.9356C37.7108 23.0402 37.5085 23.2234 37.2808 23.4853C37.0511 23.7165 36.8387 23.9773 36.6439 24.2676C36.449 24.5579 36.2694 24.8471 36.1051 25.1353C35.9714 25.4213 35.8956 25.6572 35.8779 25.8429C36.1581 25.4544 36.3804 25.116 36.5447 24.8279C36.7374 24.507 36.9903 24.1665 37.3033 23.8065C37.3602 23.741 37.4576 23.5959 37.5956 23.371C37.7336 23.1462 37.8311 23.001 37.888 22.9356ZM35.1112 30.0466C35.1397 30.0139 35.1518 29.9669 35.1475 29.9057C34.8914 30.2003 34.7172 30.566 34.6248 31.0028C34.5323 31.4397 34.499 31.8417 34.5246 32.2088C34.5623 31.868 34.6448 31.5087 34.7721 31.1309C34.8688 30.7552 34.9818 30.3938 35.1112 30.0466ZM34.9412 27.6145C34.954 27.7981 34.9473 27.9215 34.921 27.9848C34.9252 28.046 34.9121 28.0777 34.8815 28.0798C34.8815 28.0798 34.8836 28.1104 34.8879 28.1716C34.8793 28.0492 34.8971 27.8635 34.9412 27.6145ZM46.5807 30.3513C47.1106 29.5764 47.7693 28.8848 48.5567 28.2764C49.3727 27.6352 50.0257 27.0823 50.5158 26.6177C51.0059 26.153 51.543 25.7004 52.127 25.26C52.7089 24.7889 53.2132 24.3079 53.64 23.8169C53.2545 24.4587 52.7566 25.0315 52.1463 25.5353C51.5359 26.0391 50.991 26.5998 50.5116 27.2174L50.8595 26.9164C50.8595 26.9164 50.8179 26.9808 50.7346 27.1096L51.2959 26.5631L51.3023 26.6549L51.3482 26.6517C51.1184 26.8829 50.8307 27.1644 50.485 27.496C50.1677 27.7948 49.822 28.1264 49.4479 28.4907C49.0716 28.8245 48.7116 29.1724 48.368 29.5346C48.0529 29.864 47.7816 30.1597 47.5539 30.4215C47.2146 30.8449 46.9518 31.2629 46.7655 31.6756C46.6076 32.0555 46.4629 32.4038 46.3313 32.7204C46.2303 33.0349 46.0945 33.2903 45.9238 33.4867C45.7836 33.681 45.5606 33.7888 45.2547 33.8102C45.2241 33.8123 45.1302 33.7881 44.973 33.7377C44.8485 33.7156 44.7076 33.6794 44.5503 33.6289C44.3931 33.5784 44.2501 33.5115 44.1213 33.4283C43.9619 33.3472 43.8637 33.2619 43.8267 33.1722C43.6609 32.9994 43.4724 32.7205 43.261 32.3357C43.0475 31.9202 42.8788 31.4863 42.7549 31.0338C42.6005 30.5835 42.5072 30.1289 42.4751 29.67C42.4125 29.2132 42.4928 28.8234 42.7161 28.5003L43.3862 27.5312L43.5078 27.2922C43.3107 27.5519 43.0657 27.7842 42.7726 27.9891C42.981 27.452 43.2231 26.9585 43.4991 26.5089C43.7729 26.0286 44.0315 25.5494 44.2747 25.0713C44.3579 24.9425 44.4401 24.7984 44.5212 24.639C44.6001 24.449 44.726 24.2712 44.8989 24.1054C44.8355 24.079 44.8882 23.9524 45.0567 23.7254C45.2253 23.4984 45.4081 23.2551 45.6052 22.9954C45.8306 22.7029 46.043 22.4422 46.2421 22.213C46.4413 21.9839 46.5562 21.8683 46.5868 21.8662C46.8493 21.6634 47.1324 21.536 47.4362 21.484C47.7706 21.4299 48.0786 21.4391 48.3604 21.5116C48.4849 21.5336 48.5941 21.5567 48.688 21.5809C48.8125 21.6029 48.9534 21.6392 49.1106 21.6897C49.2721 21.8013 49.4664 21.9415 49.6934 22.1101C49.9203 22.2786 50.1242 22.5564 50.305 22.9434C50.4075 23.09 50.4334 23.2418 50.383 23.3991C50.3325 23.5563 50.2667 23.7146 50.1856 23.874C50.133 24.0007 50.0651 24.1284 49.9818 24.2572C49.9292 24.3838 49.9203 24.4767 49.9552 24.5357C50.0249 24.6538 50.0751 24.7118 50.1057 24.7096C50.1669 24.7053 50.2117 24.6868 50.2402 24.6541C50.2686 24.6214 50.2828 24.605 50.2828 24.605C50.3113 24.5723 50.3266 24.5712 50.3287 24.6018C50.3131 24.8181 50.1609 25.0593 49.8721 25.3254C49.6117 25.5588 49.3197 25.7791 48.996 25.9861C49.0266 25.984 49.0409 25.9676 49.0387 25.937C48.8922 26.0395 48.6866 26.1769 48.422 26.3491C48.1879 26.5191 48.072 26.6195 48.0741 26.6501C48.459 26.4387 48.7837 26.2469 49.0483 26.0747C49.3414 25.8698 49.6477 25.6332 49.9671 25.3649C50.039 25.5136 50.0486 25.6512 49.996 25.7779C49.9433 25.9045 49.858 26.0027 49.7399 26.0725C49.3593 26.345 49.0345 26.5368 48.7656 26.6478C48.4967 26.7588 48.1873 26.9496 47.8373 27.22C47.308 27.5644 46.7919 27.8772 46.289 28.1583C45.786 28.4394 45.5342 28.7951 45.5336 29.2256C45.4005 29.0812 45.2938 28.8734 45.2133 28.6024C45.1329 28.3313 45.1311 28.0855 45.2079 27.865C45.0194 28.247 44.784 28.617 44.5016 28.9749C44.6595 28.595 44.8184 28.2304 44.9784 27.881C45.1385 27.5317 45.28 27.1375 45.403 26.6985C45.0986 27.1809 44.8094 27.6623 44.5356 28.1425C44.2924 28.6207 44.2138 29.2564 44.3001 30.0496C44.3499 30.3228 44.4446 30.5775 44.584 30.8137C44.7235 31.0498 44.8883 31.2074 45.0782 31.2863C45.2682 31.3653 45.4823 31.3503 45.7207 31.2414C45.9874 31.0998 46.2741 30.8031 46.5807 30.3513ZM48.3064 24.6971C48.1798 24.6445 48.0148 24.7021 47.8113 24.8701C47.6384 25.0359 47.4251 25.2813 47.1711 25.6065C46.9456 25.899 46.707 26.2231 46.4552 26.5788C46.2034 26.9346 45.9505 27.2751 45.6966 27.6002C45.8673 27.4038 46.1736 27.1672 46.6153 26.8904C47.0877 26.6114 47.5131 26.3204 47.8915 26.0173C48.27 25.7141 48.5282 25.4501 48.6662 25.2253C48.8326 24.9677 48.7127 24.7917 48.3064 24.6971ZM43.4491 27.1118C43.7749 26.9353 44.0363 26.7172 44.2333 26.4575C44.4609 26.1957 44.6722 25.9196 44.8671 25.6293C45.0904 25.3063 45.328 24.9669 45.5798 24.6111C45.8622 24.2532 46.22 23.8746 46.6532 23.4754C47.0274 23.1111 47.4492 22.9894 47.9188 23.1103C48.4168 23.1984 48.7968 23.3563 49.0586 23.5839C48.7533 23.1749 48.3528 22.9416 47.8569 22.884C47.361 22.8265 46.8922 22.9361 46.4504 23.213C46.0108 23.5204 45.6651 23.852 45.4133 24.2077C45.1615 24.5635 44.925 24.9182 44.7038 25.2718C44.5131 25.6233 44.3215 25.9595 44.1287 26.2804C43.936 26.6013 43.7094 26.8784 43.4491 27.1118ZM43.4526 29.1405C43.4526 29.1405 43.4494 29.0946 43.443 29.0028C43.3555 29.0705 43.305 29.2277 43.2915 29.4746C43.2759 29.6908 43.293 29.9356 43.3428 30.2088C43.3927 30.482 43.4731 30.753 43.5841 31.0219C43.6646 31.293 43.7845 31.469 43.9439 31.5501C43.798 31.2222 43.6937 30.8298 43.631 30.3731C43.5377 29.9185 43.4782 29.5076 43.4526 29.1405ZM45.2506 27.8159C45.3928 27.6522 45.5187 27.4743 45.6282 27.2822L45.2506 27.8159ZM49.2159 25.8324L49.0387 25.937L49.2159 25.8324ZM46.2903 22.9014C46.2618 22.9341 46.2476 22.9505 46.2476 22.9505L46.2903 22.9014ZM55.8926 25.2272C56.0725 24.7228 55.9924 24.2365 55.6523 23.7684C55.3427 23.2982 55.0143 22.9984 54.6671 22.8689C55.0207 23.0902 55.2901 23.4248 55.4751 23.873C55.6908 24.3191 55.7382 24.7769 55.6173 25.2465C55.4985 25.7466 55.2226 26.1963 54.7894 26.5955C54.3562 26.9947 53.9066 27.3797 53.4406 27.7504C53.0053 28.119 52.6016 28.5008 52.2296 28.8957C51.8554 29.26 51.6549 29.689 51.6279 30.1828C51.7289 29.8683 51.9817 29.5278 52.3865 29.1614C52.7891 28.7643 53.2213 28.3498 53.6829 27.9179C54.1752 27.4838 54.6215 27.053 55.022 26.6253C55.4509 26.165 55.7411 25.6989 55.8926 25.2272ZM59.246 27.0217C59.4779 26.821 59.6507 26.6552 59.7645 26.5243C59.9089 26.3912 60.0227 26.2603 60.106 26.1315C60.2198 26.0006 60.3336 25.8697 60.4474 25.7387C60.5918 25.6057 60.7799 25.4388 61.0118 25.2381C60.8169 25.5284 60.6505 25.786 60.5125 26.0108C60.3724 26.2051 60.2323 26.3993 60.0922 26.5936C59.9499 26.7572 59.7934 26.9373 59.6227 27.1337C59.452 27.33 59.2539 27.5745 59.0284 27.8669L59.9866 27.0621L60.0848 27.1475C59.7106 27.5118 59.2621 27.912 58.7393 28.3482C58.2164 28.7844 57.6957 29.2512 57.1771 29.7486C56.687 30.2133 56.2296 30.7064 55.805 31.2279C55.4109 31.7474 55.1392 32.2582 54.9899 32.7605C54.6968 32.9655 54.3383 33.1135 53.9143 33.2046C53.5429 33.1691 53.2035 32.9316 52.8961 32.4919C52.6171 32.0196 52.4669 31.6304 52.4455 31.3245C52.422 30.988 52.4586 30.6319 52.5553 30.2563C52.6804 29.8479 52.9127 29.432 53.252 29.0086C52.6636 29.3879 52.2401 29.9248 51.9812 30.6192C51.6896 31.2852 51.6264 31.9198 51.7915 32.5231C51.2024 32.0109 51.0024 31.3486 51.1915 30.5361C51.3081 30.0053 51.4585 29.5183 51.6427 29.075C51.8269 28.6318 52.0907 28.2291 52.4343 27.8669C52.6356 27.6683 52.7943 27.5189 52.9102 27.4186C53.0546 27.2855 53.1706 27.1852 53.2581 27.1176C53.3761 27.0478 53.4932 26.9628 53.6091 26.8625C53.7229 26.7316 53.8805 26.5668 54.0818 26.3683C54.4581 26.0346 54.759 25.7215 54.9845 25.429C55.2341 25.0427 55.2686 24.656 55.0878 24.269C54.9376 23.8799 54.6978 23.5277 54.3684 23.2126L54.0119 22.7303L51.8695 26.3847C51.8041 26.3278 51.7714 26.2993 51.7714 26.2993L52.1202 25.3527C51.7524 25.8088 51.3879 26.3107 51.0266 26.8586C50.6631 27.3759 50.2189 27.8373 49.6939 28.243C50.0004 27.7911 50.3081 27.3546 50.6168 26.9334C50.8927 26.4837 51.1676 26.0187 51.4415 25.5385C51.7174 25.0888 51.9575 24.5648 52.1616 23.9664C52.3657 23.368 52.6473 22.7796 53.0065 22.2012C52.7553 22.1265 52.5992 22.0913 52.538 22.0956C52.4747 22.0693 52.4266 22.0419 52.3939 22.0134C52.3918 21.9828 52.3601 21.9697 52.2989 21.974C52.2356 21.9477 52.1089 21.895 51.919 21.8161C52.3978 21.6289 52.6659 21.2874 52.7235 20.7915C52.7789 20.265 52.8649 19.7364 52.9815 19.2056C53.0056 19.1117 53.1302 19.1337 53.355 19.2717C53.5798 19.4097 53.821 19.5619 54.0786 19.7283L54.2631 19.0699C54.3564 19.5245 54.3394 19.9407 54.2121 20.3185C54.1154 20.6941 54.034 21.0687 53.9679 21.4422C54.2111 20.9641 54.3932 20.4903 54.5141 20.0207C54.6328 19.5205 54.5943 18.9699 54.3985 18.3687C55.6066 18.4994 55.9233 19.2919 55.3487 20.7462C55.6938 20.8451 56.0136 21.0225 56.3082 21.2786C56.6028 21.5347 56.8853 21.8377 57.1557 22.1877C57.2951 22.4239 57.4215 22.6917 57.5346 22.9912C57.6763 23.258 57.7731 23.5433 57.825 23.847C57.8749 24.1202 57.8788 24.3966 57.8369 24.6762C57.8234 24.9231 57.7303 25.1294 57.5574 25.2952C57.2707 25.592 56.9688 25.8898 56.6515 26.1886C56.3321 26.4569 56.0302 26.7547 55.7456 27.082L55.273 27.5762C55.3384 27.6331 55.3722 27.6768 55.3744 27.7074L58.3183 24.9654C58.5602 25.3481 58.4767 25.6921 58.0676 25.9974C57.5469 26.4642 57.0383 26.884 56.5418 27.2569C56.0452 27.6297 55.6021 28.1065 55.2123 28.6871C54.9299 29.045 54.6867 29.5231 54.4826 30.1215C54.2764 30.6893 54.3259 31.1777 54.6311 31.5867C55.3752 30.7969 56.1345 30.006 56.9092 29.214C57.6838 28.422 58.4628 27.6913 59.246 27.0217ZM83.4328 13.3873C83.9847 12.4879 84.7017 11.5309 85.5837 10.5162C86.4636 9.47096 87.409 8.48261 88.4198 7.55116C89.4285 6.58912 90.4447 5.73416 91.4683 4.98626C92.4898 4.20777 93.4029 3.63669 94.2075 3.27301C94.7738 3.01822 95.1661 2.91394 95.3845 2.96014C95.6008 2.97576 95.7296 3.05898 95.7709 3.2098C95.1128 3.47101 94.5597 3.69414 94.1115 3.87918C93.6634 4.06423 93.2479 4.27773 92.8652 4.51969C92.5109 4.72891 92.1599 4.98402 91.812 5.28502C91.4641 5.58601 91.0747 5.9514 90.6436 6.38119C91.4048 5.8361 92.2008 5.35005 93.0317 4.92305C93.8605 4.46546 94.722 4.03632 95.6162 3.63563L97.3545 2.77628L97.7579 2.60973C97.4825 2.62899 97.2837 2.64289 97.1613 2.65145C97.039 2.66001 97.1133 2.62407 97.3843 2.54363C98.3462 2.23044 99.3002 2.02539 100.246 1.92848C101.193 1.83158 102.148 1.87233 103.114 2.05076C103.332 2.09696 103.552 2.15847 103.772 2.23527C104.024 2.30993 104.23 2.4031 104.391 2.51477C105.151 2.83054 105.639 3.21144 105.855 3.65748C106.101 4.10139 106.002 4.66167 105.557 5.33833C105.391 5.5959 105.254 5.83604 105.146 6.05874C105.07 6.2793 104.93 6.47354 104.726 6.64148C104.551 6.77668 104.378 6.94248 104.208 7.13886C104.037 7.33525 103.881 7.53057 103.741 7.72482C103.973 7.52415 104.191 7.33985 104.394 7.17192C104.626 6.97125 104.842 6.75636 105.041 6.52724C105.209 6.30026 105.378 6.07328 105.547 5.8463C105.744 5.58659 105.956 5.32581 106.184 5.06397C105.929 5.81957 105.545 6.47665 105.03 7.03522C104.297 7.978 103.445 8.76002 102.474 9.38127C101.503 10.0025 100.48 10.5505 99.4069 11.0252C98.5717 11.391 97.7465 11.6793 96.9312 11.89C96.1159 12.1007 95.2604 12.1759 94.3647 12.1156C93.9321 12.0844 93.4942 11.9766 93.051 11.7924C92.6361 11.5755 92.2366 11.3575 91.8524 11.1385C91.6212 10.9087 91.4084 10.7238 91.2142 10.5836C91.0484 10.4108 90.9067 10.144 90.7893 9.78331C91.9839 10.1609 93.1909 10.2763 94.4103 10.1296C95.0221 10.0868 95.6154 9.99918 96.1903 9.86676C96.7936 9.70161 97.3773 9.47635 97.9414 9.19097C96.9732 9.41238 96.0017 9.58791 95.027 9.71754C94.0524 9.84718 93.0912 9.72995 92.1435 9.36584C93.0349 9.36498 93.9232 9.31824 94.8082 9.22561C95.7238 9.13084 96.6504 8.97382 97.5881 8.75455C98.5563 8.53313 99.5029 8.22101 100.428 7.81819C101.35 7.38477 102.235 6.84642 103.081 6.20313C103.224 6.03948 103.368 5.90641 103.515 5.80394C103.659 5.67088 103.802 5.52252 103.945 5.35886C104.52 4.79601 104.771 4.20974 104.698 3.60004C104.999 3.94789 105.023 4.2997 104.772 4.65546C104.636 4.91089 104.455 5.18483 104.23 5.47727C104.035 5.76757 103.822 6.02835 103.593 6.25961C103.216 6.59334 102.823 6.89755 102.411 7.17223C102.029 7.41419 101.633 7.6878 101.224 7.99308C101.252 7.96035 101.312 7.94077 101.404 7.93435L101.67 7.77744C102.147 7.55966 102.591 7.32872 103.005 7.08463C103.416 6.80994 103.823 6.47408 104.225 6.07702C104.337 5.91551 104.463 5.73763 104.603 5.54338C104.743 5.34913 104.869 5.17125 104.981 5.00973C105.542 3.80231 105.216 3.10265 104.004 2.91076C103.567 2.81834 103.12 2.80347 102.664 2.86615C102.238 2.92669 101.815 3.03311 101.395 3.18543C101.819 3.0943 102.23 3.03483 102.627 3.00702C103.025 2.97921 103.443 3.02681 103.882 3.14982C100.357 3.73448 97.1111 4.7915 94.1439 6.32087C91.2073 7.84811 88.5504 10.0782 86.1732 13.0112C86.2237 12.8539 86.2753 12.712 86.3279 12.5854C86.4111 12.4566 86.5238 12.3103 86.6661 12.1467C86.3837 12.5046 86.1013 12.8625 85.8189 13.2204C85.5344 13.5477 85.2815 13.8882 85.0603 14.2418C85.0362 14.3357 84.9967 14.4307 84.9419 14.5268C84.8872 14.6228 84.7854 14.7068 84.6368 14.7787C84.247 15.3593 83.8505 16.0633 83.4472 16.8908C83.0418 17.6877 82.6463 18.407 82.2608 19.0488C82.3199 19.0139 82.5603 18.9356 82.9822 18.8139C83.4347 18.69 83.9789 18.5598 84.6149 18.4231C85.2488 18.2558 85.9296 18.1006 86.6574 17.9575C87.4137 17.7816 88.1415 17.6385 88.8408 17.5281C89.5707 17.4156 90.2263 17.339 90.8076 17.2983C91.4173 17.225 91.8783 17.2235 92.1906 17.2939C91.8498 17.2562 91.5307 17.3093 91.2334 17.453C90.936 17.5968 90.6223 17.7263 90.2922 17.8416C90.655 17.7548 91.0068 17.7302 91.3476 17.7678C92.0249 17.7819 92.56 17.9597 92.9527 18.3012C93.3761 18.6404 93.5786 19.1182 93.5602 19.7343C93.5418 20.3504 93.2097 21.096 92.5638 21.9712C92.5069 22.0367 92.4326 22.0726 92.3408 22.079C92.2796 22.0833 92.2053 22.1193 92.1178 22.1869C92.164 21.9684 92.2265 21.7642 92.3055 21.5743C92.4129 21.3516 92.5071 21.1605 92.5882 21.0012C92.8272 20.4618 92.8442 20.0456 92.6392 19.7526C92.4343 19.4595 92.097 19.2525 91.6274 19.1316C91.1579 19.0108 90.6008 18.9575 89.9562 18.9718C89.3422 18.984 88.7162 19.0432 88.078 19.1493C87.4377 19.2248 86.8444 19.3124 86.298 19.4121C85.7822 19.5096 85.3877 19.5833 85.1146 19.6332C85.9711 19.5733 86.7982 19.5308 87.5957 19.5058C88.4238 19.4786 89.2047 19.6546 89.9382 20.0337C89.5057 20.0024 89.0884 19.9701 88.6864 19.9367C88.2845 19.9034 87.8857 19.9159 87.4901 19.9743C86.5767 20.0996 85.6575 20.3637 84.7327 20.7666C83.8057 21.1388 82.8855 21.3876 81.972 21.513C81.6661 21.5343 81.4267 21.6279 81.2539 21.7937C81.1116 21.9574 80.9736 22.1822 80.8399 22.4683C80.086 23.9966 79.4413 25.548 78.9059 27.1225C78.3988 28.6643 77.9377 30.2029 77.5225 31.7382C77.4698 31.8649 77.3987 31.9467 77.3091 31.9837L77.4955 30.034L77.8228 28.1205C77.8932 27.8081 77.9636 27.4958 78.034 27.1835C78.1328 26.8384 78.2011 26.4955 78.2387 26.1547C77.6754 27.3315 77.2538 28.7751 76.9737 30.4855C76.7243 32.1937 76.7402 33.9602 77.0215 35.785C76.3115 35.7425 75.8419 35.6216 75.6128 35.4224C75.3837 35.2233 75.2794 34.8309 75.2999 34.2454C75.329 33.7822 75.3514 33.4425 75.367 33.2262C75.4154 33.0384 75.4495 32.8669 75.4694 32.7118C75.5199 32.5546 75.5682 32.3668 75.6144 32.1483C75.6628 31.9605 75.7168 31.6339 75.7765 31.1687C75.7615 30.9545 75.7377 30.8332 75.7049 30.8048C75.6345 31.1171 75.5698 31.2907 75.5108 31.3256C75.4539 31.391 75.4101 31.4248 75.3795 31.427C75.3489 31.4291 75.3052 31.4629 75.2483 31.5284C75.222 31.5917 75.1736 31.7795 75.1032 32.0919C75.1572 31.1044 75.2666 30.2513 75.4315 29.5327C75.5943 28.7835 75.7909 28.0781 76.0213 27.4164C76.2496 26.7242 76.5074 26.0144 76.7947 25.2873C77.1126 24.558 77.4525 23.7042 77.8145 22.7259C77.8451 22.7238 77.8113 22.68 77.7131 22.5947C76.9761 23.0458 76.2402 23.5123 75.5054 23.9941C74.7684 24.4453 74.004 24.9445 73.2122 25.4917C73.9762 24.5468 74.8131 23.7658 75.7229 23.1489C76.6328 22.5319 77.559 21.9291 78.5016 21.3406C76.9863 22.0921 75.5539 22.9301 74.2044 23.8545C72.855 24.7789 71.7442 26.0401 70.8723 27.6382C70.3913 27.7947 69.9695 27.9165 69.6067 28.0033C69.2744 28.088 68.9706 28.14 68.6953 28.1593C68.4506 28.1764 68.3382 28.1074 68.3581 27.9523C68.3232 27.8933 68.5661 27.6303 69.0868 27.1635C69.6054 26.6662 70.1983 26.1328 70.8655 25.5636C71.5634 24.9922 72.2481 24.4524 72.9196 23.9443C73.5911 23.4363 74.0745 23.095 74.3697 22.9207C74.9274 22.5435 75.5047 22.2265 76.1016 21.9696C76.729 21.7105 77.3686 21.4045 78.0202 21.0515C78.1646 20.9184 78.3232 20.769 78.4961 20.6032C78.6996 20.4353 78.8407 20.2563 78.9197 20.0663C79.7675 18.5622 80.6011 17.0744 81.4204 15.603C82.2376 14.101 83.0855 12.5969 83.9639 11.0906C84.1786 10.6452 84.5016 10.2076 84.9326 9.77784C85.018 9.67965 85.1197 9.59568 85.2378 9.52594C85.3559 9.4562 85.5341 9.36688 85.7724 9.25799L82.8683 13.8879C82.9338 13.9448 83.0124 13.97 83.1042 13.9636C83.1589 13.8675 83.2137 13.7715 83.2685 13.6754C83.3211 13.5488 83.3759 13.4527 83.4328 13.3873ZM93.6956 5.84498C93.5776 5.91472 93.4616 6.01506 93.3478 6.14598C93.2318 6.24631 93.1956 6.38719 93.239 6.5686C93.8295 6.2199 94.4068 5.90285 94.9709 5.61747C95.5635 5.29936 96.1561 4.98125 96.7486 4.66314C96.5366 4.7087 96.3246 4.75427 96.1126 4.79984C95.9291 4.81267 95.763 4.85503 95.6143 4.92691C95.2885 5.1034 94.9616 5.2646 94.6336 5.4105C94.3035 5.5258 93.9909 5.67063 93.6956 5.84498ZM99.0854 2.47079C98.8713 2.48577 98.6724 2.49967 98.4889 2.51251C98.3359 2.5232 98.184 2.54919 98.0332 2.59048C98.1862 2.57979 98.3423 2.61498 98.5017 2.69606C98.5892 2.62846 98.7838 2.55337 99.0854 2.47079ZM89.6103 17.9815L89.335 18.0008C89.3393 18.062 89.3261 18.0936 89.2955 18.0958L89.6103 17.9815ZM89.3459 22.1962C89.5408 21.9059 89.868 21.5295 90.3275 21.067C90.7849 20.5739 91.2718 20.0634 91.7882 19.5354C92.3025 18.9768 92.8026 18.4346 93.2884 17.9088C93.7743 17.3829 94.1431 16.9421 94.3949 16.5864C94.9248 15.8115 95.3704 15.1502 95.7317 14.6023C96.0909 14.0238 96.3932 13.5108 96.6386 13.0633C96.9124 12.583 97.1425 12.1365 97.3288 11.7239C97.513 11.2806 97.7104 10.8057 97.9209 10.2991C98.0525 9.98248 98.1687 9.66693 98.2697 9.35246C98.3707 9.03798 98.3152 8.90353 98.1032 8.94909C98.3699 8.80747 98.5382 8.79571 98.6079 8.9138C98.6755 9.00129 98.7015 9.15318 98.6859 9.36947C98.6703 9.58575 98.6252 9.81947 98.5505 10.0706C98.5043 10.289 98.4712 10.4758 98.4513 10.6309C98.3262 11.0393 98.0499 11.7042 97.6225 12.6256C97.2256 13.5448 96.5147 14.8088 95.4898 16.4176C95.1 16.9982 94.6369 17.63 94.1006 18.3131C93.5949 18.994 93.0728 19.6608 92.5343 20.3132C92.0243 20.933 91.5264 21.5058 91.0406 22.0316C90.5853 22.5553 90.2296 22.9645 89.9736 23.259C89.8598 23.39 89.7033 23.57 89.5041 23.7991C89.3049 24.0282 89.1068 24.2726 88.9098 24.5324C88.7128 24.7921 88.5168 25.0671 88.3219 25.3574C88.1555 25.6149 88.0339 25.854 87.9571 26.0746C87.6961 26.7384 87.5368 27.3182 87.4792 27.8141C87.4501 28.2773 87.4224 28.5405 87.3961 28.6039L88.0854 27.9101C88.313 27.6482 88.5275 27.418 88.7288 27.2195C88.928 26.9904 89.0987 26.794 89.241 26.6304C89.2716 26.6282 89.2858 26.6119 89.2836 26.5813C89.8328 26.0817 90.3503 25.5691 90.8361 25.0432C91.3526 24.5152 91.8558 24.0189 92.3459 23.5543C92.8361 23.0896 93.2956 22.6271 93.7245 22.1667C94.1819 21.6736 94.6556 21.1947 95.1458 20.7301C94.7275 21.3434 94.2766 21.9283 93.7929 22.4847C93.307 23.0106 92.8223 23.5517 92.3386 24.1081L92.6864 23.8071L92.5157 24.0035L93.0802 23.5029C93.1129 23.5314 93.1445 23.5445 93.1751 23.5424C92.9454 23.7737 92.6729 24.054 92.3578 24.3835C92.0406 24.6823 91.7101 25.0128 91.3666 25.375C91.0515 25.7045 90.7363 26.0339 90.4212 26.3634C90.1061 26.6928 89.8489 26.9721 89.6498 27.2012C89.398 27.557 89.132 27.9291 88.8517 28.3176C88.5999 28.6734 88.3819 29.0729 88.1977 29.5162C88.143 29.6122 87.9875 29.8075 87.7315 30.1021C87.4732 30.3661 87.1812 30.5863 86.8554 30.7628C86.7985 30.8283 86.7548 30.8621 86.7242 30.8642C86.6651 30.8991 86.6061 30.934 86.547 30.9689C86.4901 31.0343 86.4137 31.0397 86.3176 30.9849C86.2564 30.9892 86.1931 30.9629 86.1276 30.906L85.5908 30.4824C85.4947 30.4276 85.4107 30.3259 85.3389 30.1772L85.1852 29.9574C84.961 29.389 85.0078 28.7401 85.3257 28.0108C85.4793 27.5697 85.7414 26.9212 86.1119 26.0653C86.4519 25.2115 86.8334 24.2933 87.2566 23.3107C87.6776 22.2975 88.0997 21.2997 88.5228 20.3171C88.946 19.3345 89.3186 18.5092 89.6408 17.8411C89.9915 17.1402 90.2347 16.6621 90.3705 16.4067C90.537 16.1491 90.5598 16.2551 90.4389 16.7247C90.8137 15.9299 91.1743 15.1515 91.5206 14.3895C91.8954 13.5948 92.2888 12.8448 92.7006 12.1397C92.7312 12.1376 92.7607 12.1202 92.7891 12.0874L94.5923 9.51739C94.8505 9.2534 95.1087 8.98941 95.3669 8.72542C95.6557 8.45929 95.9619 8.22269 96.2856 8.0156C96.5744 7.74948 96.923 7.67899 97.3314 7.80414C97.7377 7.8987 98.0443 8.10781 98.2514 8.43149L95.1923 11.5044C95.1945 11.535 95.1966 11.5656 95.1987 11.5961C95.2293 11.594 95.2457 11.6082 95.2478 11.6388C95.5345 11.3421 95.8222 11.0607 96.111 10.7946C96.3977 10.4978 96.7018 10.2306 97.0234 9.99296C97.2837 9.75956 97.521 9.63538 97.7351 9.6204C97.9798 9.60329 98.0311 9.67656 97.8888 9.84022C97.541 10.1412 97.1099 10.571 96.5956 11.1296C96.1098 11.6554 95.5845 12.2762 95.0197 12.992C94.4855 13.7057 93.9239 14.4674 93.335 15.2771C92.746 16.0868 92.1887 16.9097 91.6631 17.7458C91.1353 18.5512 90.6677 19.3371 90.2601 20.1034C89.8526 20.8697 89.5479 21.5673 89.3459 22.1962ZM86.0503 27.8218C86.4998 26.7759 86.8145 26.0008 86.9944 25.4963C87.2049 24.9897 87.3258 24.5202 87.357 24.0876C87.1841 24.2534 87.0067 24.5732 86.8246 25.0471C86.6426 25.5209 86.4758 25.9937 86.3243 26.4654C86.1729 26.9371 86.0773 27.3281 86.0375 27.6383C85.9671 27.9506 85.9714 28.0118 86.0503 27.8218ZM91.0621 16.4044C91.7606 15.4026 92.2478 14.6768 92.5238 14.2272C92.7976 13.7469 92.9796 13.273 93.0699 12.8056C92.8971 12.9714 92.6727 13.2791 92.3967 13.7288C92.1513 14.1763 91.907 14.6392 91.6638 15.1173C91.449 15.5627 91.2747 15.9284 91.141 16.2144C91.0073 16.5005 90.981 16.5638 91.0621 16.4044ZM98.6369 23.1144C99.6101 22.5237 100.356 21.9797 100.875 21.4823C101.424 20.9828 101.992 20.5434 102.581 20.1641C102.069 20.7532 101.594 21.2168 101.156 21.5548C100.747 21.8601 100.255 22.2942 99.6795 22.857L99.9911 22.6969L99.9057 22.7951C99.9648 22.7602 100.082 22.6752 100.257 22.54C100.432 22.4048 100.552 22.3656 100.617 22.4225C100.033 22.863 99.5501 23.2042 99.1673 23.4462C98.8131 23.6554 98.568 23.8877 98.4322 24.1432C98.2152 24.558 98.0531 24.8767 97.9457 25.0994C97.8362 25.2915 97.7124 25.5 97.5744 25.7248C97.4364 25.9497 97.2262 26.2411 96.9438 26.599C96.6921 26.9547 96.3144 27.4884 95.8108 28.1999C95.9928 27.726 96.2055 27.2501 96.4487 26.7719C96.7204 26.2611 96.9779 25.7666 97.2211 25.2884C97.4622 24.7797 97.6585 24.2895 97.81 23.8178C97.9899 23.3133 98.0922 22.7989 98.1171 22.2746C98.1376 21.6891 98.087 21.1854 97.9653 20.7635C97.8414 20.311 97.6977 20.0137 97.534 19.8714C97.1412 19.53 96.8018 19.2924 96.5158 19.1587C96.2604 19.0228 95.9054 19.0016 95.4507 19.0948C95.8527 19.1282 96.2316 19.2708 96.5874 19.5226C96.9431 19.7744 97.2278 20.108 97.4413 20.5235C97.6548 20.9389 97.7797 21.4067 97.8161 21.9267C97.8809 22.4141 97.8244 22.9253 97.6466 23.4603C97.3899 24.1853 97.0731 24.9299 96.6961 25.694C96.317 26.4276 96.0265 27.1089 95.8246 27.7378L95.4735 27.9929C95.3988 28.2441 95.3462 28.3707 95.3156 28.3729C95.3135 28.3423 95.3519 28.232 95.4308 28.042C94.9933 28.38 94.5754 28.7781 94.1771 29.2364C93.7766 29.664 93.4964 30.0525 93.3363 30.4019C93.2816 30.4979 93.0489 30.4681 92.6384 30.3123C92.23 30.1872 91.9233 29.9781 91.7184 29.685C91.6159 29.5384 91.5049 29.2695 91.3853 28.8783C91.2657 28.487 91.1746 28.063 91.1119 27.6062C91.0186 27.1516 90.9855 26.6775 91.0124 26.1837C91.0088 25.6921 91.087 25.2716 91.247 24.9223C91.3565 24.7302 91.4671 24.5533 91.5788 24.3918C91.6599 24.2325 91.7716 24.0709 91.9138 23.9073L92.0749 23.5732C91.821 23.8984 91.5791 24.1766 91.3494 24.4079C91.4809 24.0913 91.6826 23.6775 91.9543 23.1667C92.226 22.6558 92.5129 22.1439 92.8152 21.6309C93.1154 21.0873 93.4034 20.5906 93.6794 20.1409C93.9838 19.6585 94.2356 19.3028 94.4348 19.0736C94.518 18.9449 94.6919 18.7944 94.9566 18.6222C95.2497 18.4172 95.5765 18.256 95.9372 18.1386C96.2979 18.0211 96.6476 17.9659 96.9862 17.973C97.3533 17.9473 97.6689 18.0636 97.9329 18.3218C98.1293 18.4925 98.2872 18.7735 98.4068 19.1648C98.557 19.5539 98.6624 19.9616 98.7229 20.3877C98.814 20.8117 98.8582 21.2237 98.8554 21.6235C98.8832 22.0212 98.8883 22.3129 98.8705 22.4986L98.7916 22.6885C98.7653 22.7519 98.74 22.8305 98.7158 22.9244C98.6895 22.9877 98.6632 23.051 98.6369 23.1144ZM96.8097 22.0432C96.8559 21.8248 96.8104 21.6128 96.673 21.4072C96.5335 21.171 96.3973 20.9807 96.2642 20.8363C96.2358 20.8691 96.1603 20.8897 96.038 20.8983C95.7975 20.9766 95.534 21.1641 95.2473 21.4608C94.9606 21.7575 94.6213 22.1809 94.2294 22.7309C93.8659 23.2482 93.5341 23.7786 93.234 24.3222C92.9317 24.8352 92.7778 25.4915 92.7722 26.2912C92.7893 26.5359 92.8054 26.7654 92.8203 26.9795C92.8353 27.1937 92.8635 27.3762 92.9047 27.527C92.9745 27.6451 93.0858 27.6988 93.2388 27.6881C93.3918 27.6774 93.629 27.5532 93.9505 27.3155C94.0074 27.25 94.0654 27.1999 94.1245 27.165C94.1814 27.0995 94.2251 27.0657 94.2557 27.0636C94.3126 26.9981 94.3553 26.949 94.3837 26.9163C94.4428 26.8814 94.4997 26.816 94.5545 26.7199L94.6004 26.7167L94.945 26.3698C94.9037 26.219 94.8777 26.0671 94.867 25.9142C94.8848 25.7285 94.9036 25.5581 94.9235 25.403C94.9434 25.2479 95.0213 25.0426 95.1571 24.7872C95.3214 24.499 95.4857 24.2109 95.65 23.9227C95.8449 23.6324 96.0409 23.3574 96.2379 23.0977C96.4634 22.8052 96.6615 22.5608 96.8322 22.3644L96.8097 22.0432ZM93.5889 28.0786C93.3001 28.3447 93.0507 28.5159 92.8409 28.592C92.631 28.6682 92.4805 28.4943 92.3894 28.0702C92.2833 27.4321 92.2021 26.9305 92.1458 26.5656C92.059 26.2027 92.0269 25.7439 92.0496 25.1889C92.0183 25.6215 92.0209 26.0978 92.0573 26.6179C92.063 27.1401 92.1311 27.6733 92.2613 28.2175C92.3546 28.6721 92.5226 28.8756 92.7651 28.8279C93.0383 28.778 93.2887 28.6222 93.5164 28.3603L93.5889 28.0786ZM96.0717 24.6771C96.3761 24.1947 96.5581 23.7209 96.6178 23.2556C95.9172 24.2268 95.5872 25.003 95.6279 25.5843L95.6705 25.5352C95.7253 25.4391 95.7779 25.3125 95.8284 25.1553C95.9095 24.9959 95.9906 24.8365 96.0717 24.6771ZM95.546 27.7112C95.6314 27.613 95.7135 27.4689 95.7925 27.2789C95.764 27.3117 95.7192 27.3302 95.658 27.3344L95.546 27.7112ZM100.126 22.6414C100.097 22.6741 100.052 22.6926 99.9911 22.6969C100.022 22.6948 100.037 22.6937 100.037 22.6937C100.035 22.6631 100.049 22.6467 100.08 22.6446L100.126 22.6414ZM97.3026 21.1787C97.2742 21.2115 97.261 21.2431 97.2632 21.2737L97.3058 21.2246L97.3026 21.1787ZM109.086 24.8277C109.11 24.7338 109.147 24.6082 109.198 24.451C109.246 24.2631 109.325 24.0732 109.434 23.881C108.951 24.4375 108.47 25.0398 107.993 25.688C107.546 26.3341 107.128 26.9474 106.738 27.528C106.377 28.0759 106.071 28.543 105.822 28.9294C105.572 29.3157 105.417 29.511 105.355 29.5153C105.111 29.5324 104.805 29.3386 104.439 28.9338C104.072 28.5291 103.872 28.082 103.838 27.5925C103.763 26.5218 104.026 25.4581 104.629 24.4015C105.262 23.3428 105.999 22.2307 106.84 21.0652C106.155 21.8201 105.525 22.4943 104.952 23.0878C104.409 23.6791 104.123 23.9758 104.092 23.9779L104.089 23.9321C104.063 23.9954 103.893 24.2071 103.58 24.5671C103.295 24.8944 102.954 25.2872 102.556 25.7454C102.186 26.1709 101.817 26.6117 101.449 27.0678C101.079 27.4933 100.824 27.8032 100.684 27.9975C100.575 28.1896 100.44 28.4603 100.28 28.8096C100.15 29.1568 99.9939 29.3369 99.8104 29.3497C99.688 29.3583 99.546 29.3067 99.3845 29.195C99.1924 29.0855 99.0135 28.9443 98.8477 28.7714C98.6491 28.5701 98.4965 28.3656 98.3898 28.1579C98.2809 27.9196 98.2485 27.6759 98.2925 27.4269C98.3565 27.0228 98.4948 26.5827 98.7074 26.1067C98.8874 25.6023 99.0836 25.1121 99.2963 24.6361C99.5089 24.1601 99.7074 23.7005 99.8916 23.2572C100.076 22.8139 100.187 22.4219 100.224 22.0811L99.5116 23.0993C99.481 23.1015 99.4657 23.1025 99.4657 23.1025C99.4636 23.0719 99.4472 23.0577 99.4166 23.0598C99.487 22.7475 99.6396 22.2911 99.8742 21.6906C100.14 21.0879 100.451 20.4821 100.808 19.873C101.165 19.264 101.573 18.7282 102.033 18.2657C102.492 17.8032 102.951 17.5559 103.41 17.5238C103.686 17.5045 104.003 17.6514 104.363 17.9644C104.754 18.2752 104.956 18.5224 104.968 18.706C104.918 18.8632 104.792 19.0411 104.591 19.2396C104.131 19.7021 103.789 20.0796 103.563 20.372C103.338 20.6645 103.13 20.9864 102.939 21.3379C102.746 21.6588 102.514 22.0747 102.242 22.5856C101.999 23.0637 101.615 23.7208 101.089 24.5568L101.728 22.4832C101.421 22.935 101.132 23.4164 100.861 23.9272C100.589 24.4381 100.468 24.9077 100.498 25.336C100.511 25.5195 100.594 25.6059 100.747 25.5952C100.745 25.5646 100.875 25.4479 101.137 25.2451C101.398 25.0117 101.715 24.7129 102.089 24.3486C102.494 23.9821 102.91 23.5534 103.336 23.0624C103.792 22.5387 104.214 21.9866 104.604 21.406C104.606 21.4366 104.554 21.5785 104.449 21.8318C105.469 20.5923 106.379 19.5296 107.177 18.6437C107.976 17.7578 108.559 17.3021 108.926 17.2764C109.079 17.2657 109.218 17.2714 109.343 17.2934C109.498 17.3133 109.637 17.3343 109.762 17.3563C109.766 17.4175 109.9 17.5772 110.164 17.8354C110.426 18.063 110.56 18.2227 110.567 18.3145C110.516 18.4717 110.39 18.6496 110.189 18.8481C109.73 19.3107 109.387 19.6881 109.162 19.9806C108.936 20.273 108.728 20.595 108.537 20.9465C108.345 21.2674 108.112 21.6832 107.841 22.1941C107.598 22.6722 107.213 23.3293 106.687 24.1654L107.326 22.0917C107.02 22.5436 106.732 23.0402 106.462 23.5816C106.191 24.0925 106.069 24.5468 106.096 24.9445C106.109 25.128 106.192 25.2145 106.345 25.2038C106.467 25.1952 106.542 25.1593 106.568 25.0959C106.623 24.9999 106.754 24.8985 106.962 24.7917C106.936 24.8551 106.926 24.9326 106.932 25.0244C106.938 25.1162 106.958 25.1763 106.991 25.2047C107.361 24.7792 107.867 24.1136 108.511 23.2078C109.185 22.2999 109.875 21.3909 110.58 20.4809C111.285 19.5708 111.921 18.7732 112.488 18.0879C113.085 17.4006 113.491 17.0494 113.705 17.0345C114.348 16.9895 114.681 17.1353 114.704 17.4718C114.682 17.5963 114.571 17.7732 114.372 18.0023C113.968 18.3687 113.495 18.8629 112.954 19.4848C112.444 20.1046 111.952 20.7538 111.477 21.4326C111.03 22.0787 110.643 22.7052 110.317 23.3121C110.019 23.8863 109.878 24.2958 109.895 24.5405C109.913 24.7852 109.978 25.0573 110.091 25.3568C110.202 25.6258 110.319 25.7559 110.441 25.7474C110.747 25.726 111.103 25.5474 111.51 25.2115C111.915 24.845 112.332 24.4316 112.761 23.9712C113.19 23.5109 113.589 23.0679 113.959 22.6424C114.329 22.2169 114.63 21.9038 114.862 21.7032C115.356 21.2997 115.788 20.8852 116.158 20.4597C116.526 20.0036 116.94 19.5596 117.402 19.1277C117.015 19.7389 116.547 20.3095 116 20.8396C115.453 21.3697 114.938 21.913 114.454 22.4694L115.458 21.6614C115.46 21.692 115.461 21.7073 115.461 21.7073C115.492 21.7052 115.508 21.7194 115.51 21.75C115.25 21.9834 114.892 22.3619 114.437 22.8856C113.982 23.4093 113.497 23.9505 112.983 24.509C112.497 25.0349 112.023 25.5138 111.562 25.9457C111.098 26.347 110.743 26.5562 110.499 26.5734C110.285 26.5883 109.999 26.4546 109.641 26.1722C109.313 25.8877 109.128 25.4395 109.086 24.8277ZM113.592 18.0568C112.982 18.5606 112.506 19.0089 112.165 19.4017C111.823 19.7945 111.541 20.1524 111.317 20.4754C111.125 20.7963 110.961 21.0998 110.828 21.3858C110.722 21.6391 110.571 21.8956 110.374 22.1553C110.858 21.5988 111.182 21.1766 111.346 20.8884C111.541 20.5981 111.708 20.3405 111.846 20.1157C111.984 19.8908 112.165 19.6322 112.391 19.3398C112.616 19.0473 113.017 18.6197 113.592 18.0568ZM108.813 18.2988C108.266 18.8289 107.833 19.2281 107.514 19.4963C107.223 19.7319 106.978 19.9642 106.779 20.1933C106.608 20.3897 106.424 20.6178 106.227 20.8775C106.058 21.1044 105.808 21.4755 105.475 21.9906C105.672 21.7309 105.856 21.5029 106.026 21.3065C106.226 21.0774 106.454 20.8308 106.713 20.5668C106.971 20.3028 107.257 20.0061 107.573 19.6767C107.916 19.3145 108.33 18.8552 108.813 18.2988ZM103.602 18.2943C103.215 18.475 102.863 18.7148 102.546 19.0137C102.259 19.3104 101.974 19.6224 101.689 19.9497C101.95 19.7163 102.3 19.4459 102.739 19.1385C103.179 18.8311 103.467 18.5497 103.602 18.2943ZM103.179 18.8311C102.798 19.1037 102.468 19.4342 102.188 19.8227C101.938 20.209 101.706 20.6249 101.491 21.0703C101.797 20.6185 102.092 20.2136 102.374 19.8557C102.657 19.4978 102.925 19.1563 103.179 18.8311Z" fill="#0F2A35"/>
</svg>
