<svg width="39" height="39" viewBox="0 0 39 39" fill="none" xmlns="http://www.w3.org/2000/svg">
<path d="M5.29069 8.14398C5.42284 8.04959 5.54555 7.89856 5.69658 7.86081C5.98919 7.77585 6.24405 8.0024 6.26293 8.34221C6.28181 8.60651 6.27237 8.88025 6.27237 9.14455C6.27237 10.5038 6.27237 11.8536 6.27237 13.2129C6.27237 13.6565 6.48948 13.8925 6.88592 13.9019C7.30125 13.9114 7.55611 13.6754 7.55611 13.2317C7.55611 12.2217 7.55611 11.2212 7.55611 10.2112C7.55611 9.60707 7.55611 9.0124 7.55611 8.40828C7.55611 8.03071 7.75434 7.81361 8.09415 7.82305C8.42452 7.83249 8.61331 8.03071 8.61331 8.40828C8.61331 10.013 8.61331 11.6176 8.61331 13.2223C8.61331 13.6188 8.83985 13.8736 9.1891 13.8925C9.59499 13.9114 9.84041 13.666 9.84041 13.2223C9.84041 11.6648 9.84041 10.1074 9.84041 8.54987C9.84041 8.44604 9.84041 8.34221 9.85929 8.24782C9.90649 8.0024 10.1047 7.83249 10.3407 7.84193C10.5861 7.85137 10.7843 8.03071 10.8127 8.29501C10.8221 8.36109 10.8127 8.42716 10.8127 8.49324C10.7938 10.4 10.7843 12.3161 10.7655 14.2229C10.7466 15.6765 9.69882 16.8281 8.31125 16.9508C6.84817 17.0735 5.6305 16.1674 5.32845 14.7231C5.31901 14.6854 5.30013 14.6571 5.28125 14.6288C5.29069 12.4672 5.29069 10.3056 5.29069 8.14398Z" fill="white"/>
<path d="M19.997 10.2676C25.0848 10.2865 29.172 14.3926 29.1531 19.4709C29.1342 24.5115 24.9998 28.627 19.9781 28.6081C14.9187 28.5798 10.8126 24.4643 10.822 19.4143C10.8409 14.3832 14.9753 10.2488 19.997 10.2676ZM20.0064 11.7779C15.8154 11.759 12.389 15.1666 12.3795 19.3577C12.3606 23.5676 15.7588 26.9846 19.9687 27.0129C24.1692 27.0318 27.5956 23.6242 27.605 19.4143C27.6145 15.1949 24.2258 11.7968 20.0064 11.7779Z" fill="white"/>
<path d="M31.9473 22.0195C31.9473 21.774 31.9567 21.5475 31.9473 21.321C31.9284 20.9245 31.7396 20.7357 31.3337 20.7263C31.1544 20.7168 30.9845 20.7263 30.8051 20.7263C30.2954 20.7263 30.0783 20.4903 30.1444 19.9806C30.2576 19.0933 30.3803 18.206 30.4936 17.3187C30.7579 15.2798 31.0411 13.241 31.2959 11.2021C31.4281 10.1732 31.5791 9.15375 32.1077 8.23814C32.306 7.88889 32.5231 7.76618 32.8062 7.8417C33.1083 7.92665 33.231 8.13431 33.231 8.53076C33.146 12.9295 33.0611 17.3282 32.9667 21.7268C32.9573 21.9534 32.9856 22.1139 33.2216 22.2271C33.467 22.3404 33.5803 22.5858 33.5803 22.869C33.5991 25.1911 33.618 27.5226 33.6274 29.8446C33.6274 30.1939 33.3254 30.4865 32.9384 30.5054C32.5136 30.5242 32.0888 30.5242 31.6641 30.5054C31.211 30.4865 30.9278 30.1372 30.9184 29.6369C30.9089 28.7685 30.9089 27.9001 30.9089 27.0317C30.8995 25.7574 30.8901 24.4831 30.8806 23.2088C30.8806 22.3121 31.0316 22.1327 31.9473 22.0195Z" fill="white"/>
<path d="M9.84978 27.2207C9.84978 28.0608 9.84978 28.9009 9.84978 29.741C9.84978 30.5433 9.32118 31.0719 8.51884 31.0908C8.16959 31.1002 7.82034 31.1002 7.47108 31.0813C6.81034 31.0436 6.29118 30.5433 6.28174 29.892C6.26286 28.1174 6.26286 26.3334 6.28174 24.5588C6.29118 23.8792 6.81034 23.3883 7.51828 23.3506C7.87697 23.3317 8.23566 23.3317 8.59436 23.3506C9.34006 23.3883 9.84034 23.9075 9.84978 24.6626C9.84978 25.5027 9.84978 26.3617 9.84978 27.2207Z" fill="white"/>
<path d="M7.12183 17.8853C7.46164 17.923 7.77314 17.9796 8.08463 17.9796C8.38669 17.9796 8.68874 17.923 9.00024 17.8947C9.00024 19.4239 9.00024 20.9436 9.00024 22.5011C8.36781 22.3028 7.75426 22.2556 7.13127 22.4822C7.12183 20.9341 7.12183 19.4144 7.12183 17.8853Z" fill="white"/>
<path d="M20.0066 25.946C16.4102 25.9649 13.4557 23.0387 13.4369 19.4235C13.418 15.8271 16.3442 12.8632 19.9499 12.8443C23.5557 12.8255 26.5197 15.7422 26.5386 19.348C26.5669 22.9915 23.6596 25.9271 20.0066 25.946ZM19.7328 13.9959C18.7323 14.0431 17.8072 14.3357 16.9766 14.921C15.4569 15.9876 14.6545 17.4507 14.5884 19.3102C14.579 19.6595 14.7395 19.8671 15.0227 19.9143C15.3719 19.971 15.6268 19.7161 15.6456 19.2819C15.7306 17.1392 17.2409 15.4307 19.3647 15.1003C19.5913 15.0626 19.8272 15.072 20.0538 15.0437C20.3558 15.0059 20.5257 14.7888 20.5163 14.4868C20.5069 14.2036 20.3181 14.0148 20.0255 13.9959C19.9311 13.9959 19.8367 13.9959 19.7328 13.9959Z" fill="white"/>
</svg>
