<svg width="19" height="24" viewBox="0 0 19 24" fill="none" xmlns="http://www.w3.org/2000/svg">
<path d="M9.14286 0.000244141C12.9257 0.000244141 16 3.04024 16 6.80024C16 11.8974 9.14286 19.4288 9.14286 19.4288C9.14286 19.4288 2.28571 11.8974 2.28571 6.80024C2.28571 3.04024 5.36 0.000244141 9.14286 0.000244141ZM9.14286 4.57167C8.53665 4.57167 7.95527 4.81249 7.52661 5.24114C7.09796 5.6698 6.85714 6.25118 6.85714 6.85739C6.85714 7.4636 7.09796 8.04498 7.52661 8.47363C7.95527 8.90229 8.53665 9.1431 9.14286 9.1431C9.74907 9.1431 10.3304 8.90229 10.7591 8.47363C11.1878 8.04498 11.4286 7.4636 11.4286 6.85739C11.4286 6.25118 11.1878 5.6698 10.7591 5.24114C10.3304 4.81249 9.74907 4.57167 9.14286 4.57167ZM18.2857 19.4288C18.2857 21.9545 14.1943 24.0002 9.14286 24.0002C4.09143 24.0002 0 21.9545 0 19.4288C0 17.9545 1.39429 16.6402 3.55429 15.806L4.28571 16.846C3.05143 17.3602 2.28571 18.0688 2.28571 18.8574C2.28571 20.4345 5.36 21.7145 9.14286 21.7145C12.9257 21.7145 16 20.4345 16 18.8574C16 18.0688 15.2343 17.3602 14 16.846L14.7314 15.806C16.8914 16.6402 18.2857 17.9545 18.2857 19.4288Z" fill="#47B48F"/>
</svg>
