<svg width="32" height="29" viewBox="0 0 32 29" fill="none" xmlns="http://www.w3.org/2000/svg">
<path d="M22.9856 14.0885C23.2566 14.7717 23.5663 15.4549 23.7728 16.151C23.9535 16.7569 24.0955 17.4014 24.0955 18.033C24.1213 20.9334 24.1084 23.8209 24.1084 26.7212C24.1084 27.8298 23.5018 28.4743 22.5081 28.4872C21.5402 28.4872 20.9466 27.8814 20.895 26.7857C20.7659 24.2591 20.6498 21.7197 20.5207 19.1932C20.5207 19.0643 20.4949 18.9482 20.3659 18.7807C20.2755 18.974 20.1852 19.1674 20.1078 19.3736C19.1528 21.9904 18.1978 24.6072 17.2557 27.2239C16.8556 28.3196 16.1975 28.7064 15.2038 28.397C14.3262 28.1263 13.952 27.3271 14.2617 26.2572C15.1522 23.1505 16.0168 20.031 16.9718 16.9373C17.2041 16.1897 16.9847 15.5451 16.8686 14.8619C16.7008 13.7791 16.4814 12.7092 16.2233 11.6522C16.1459 11.3428 15.9136 10.9948 15.6426 10.8143C14.2488 9.8991 12.8034 9.03544 11.3838 8.14599C10.7386 7.74639 10.5708 7.321 10.8547 6.62491C11.642 4.70423 12.4421 2.78354 13.2551 0.875744C13.5906 0.102314 14.3779 -0.181278 15.1393 0.115204C15.8619 0.398795 16.2233 1.18512 15.9523 1.97144C15.5264 3.20893 15.0876 4.43352 14.623 5.65812C14.4682 6.07062 14.5585 6.21242 14.9715 6.34132C17.0363 6.98585 19.0753 7.7335 21.166 8.31357C22.2887 8.62294 23.1018 9.26747 23.8503 10.0796C24.5084 10.7885 25.1537 11.5104 25.8506 12.1807C26.0441 12.3612 26.4184 12.4514 26.6894 12.4128C27.8896 12.2065 29.0769 11.9229 30.2641 11.678C30.9997 11.5362 31.6966 11.9229 31.916 12.5803C32.1612 13.3022 31.8644 14.0498 31.103 14.3077C29.4253 14.8877 27.7218 15.4034 26.0312 15.919C25.5408 16.0737 25.1021 15.9061 24.7278 15.558C24.1858 15.0424 23.6309 14.5397 23.0889 14.037C23.063 14.037 23.0243 14.0627 22.9856 14.0885Z" fill="#0E2A36"/>
<path d="M2.68571 11.085C3.78266 11.3299 4.51825 11.9874 5.29256 12.6577C6.42822 13.6373 8.20914 13.676 9.51256 12.8639C9.861 12.6448 10.1449 12.6061 10.5192 12.7479C11.6935 13.1733 12.8808 13.5471 14.0552 13.9467C14.8037 14.2045 15.0231 14.6041 14.8682 15.3776C14.623 16.5506 14.3907 17.7236 14.1455 18.8967C13.9907 19.6314 13.6938 19.8764 13.0744 19.8119C12.4162 19.7346 12.0807 19.3478 12.1323 18.6131C12.1968 17.6721 12.313 16.744 12.4033 15.7256C11.9904 15.6225 11.5903 15.5194 11.0225 15.3776C11.7452 16.5377 11.2806 17.6205 11.216 18.7033C11.1644 19.7217 11.229 19.9279 12.1968 20.6498C11.8097 21.449 11.3967 22.2353 11.0483 23.0603C10.9192 23.3826 10.8805 23.7951 10.945 24.1431C11.0612 24.8392 11.2935 25.5095 11.4483 26.2056C11.629 27.0435 11.3709 27.5333 10.6869 27.7396C9.97715 27.9587 9.30608 27.6493 9.06088 26.8759C8.75116 25.922 8.49305 24.9423 8.27366 23.9626C8.20914 23.6919 8.29947 23.3697 8.3769 23.0861C8.59629 22.3255 8.8673 21.5908 9.12541 20.7787C8.80278 20.6498 8.53177 20.5467 8.28657 20.4564C8.20914 20.508 8.15752 20.5209 8.14461 20.5467C7.88651 21.681 7.15091 22.3771 6.1314 22.867C5.96363 22.9443 5.82168 23.3052 5.83458 23.5244C5.89911 24.2978 6.04106 25.0583 6.14431 25.8189C6.28626 26.7857 5.96363 27.3142 5.20223 27.4044C4.36339 27.5075 3.86009 27.0306 3.74394 26.0767C3.60198 24.9037 3.44712 23.7306 3.26645 22.5705C3.12449 21.681 3.30516 20.9978 4.144 20.508C5.03446 19.9924 5.84749 19.3478 6.69923 18.7807C6.99605 18.5873 7.07348 18.3939 6.90571 18.0975C6.8799 18.0588 6.867 18.0201 6.85409 17.9814C6.51856 17.1178 6.3766 16.0994 5.79587 15.4549C5.22804 14.8104 4.22143 14.5526 3.3955 14.1272C2.44052 13.6373 1.48553 13.1604 0.517641 12.6834C0.0272438 12.4385 -0.114713 12.1292 0.0917704 11.5878C0.582168 10.2858 1.00804 8.95809 1.47263 7.64326C1.75654 6.84405 2.13079 6.61202 2.80186 6.81827C3.44712 7.01162 3.6536 7.51435 3.43421 8.31357C3.18902 9.20301 2.95672 10.0925 2.68571 11.085Z" fill="#0E2A36"/>
<path d="M20.0174 0.205078C21.9661 0.205078 23.476 1.71327 23.4889 3.65973C23.5018 5.6062 21.979 7.15306 20.0561 7.16595C18.0816 7.17884 16.5201 5.65776 16.5201 3.69841C16.5072 1.73905 18.03 0.217969 20.0174 0.205078Z" fill="#0E2A36"/>
<path d="M7.48676 12.4643C5.8607 12.4514 4.6218 11.1753 4.64761 9.53816C4.67342 7.9784 5.98975 6.68935 7.55128 6.70224C9.13862 6.71513 10.4549 8.04286 10.4291 9.62839C10.4162 11.2397 9.12572 12.4901 7.48676 12.4643Z" fill="#0E2A36"/>
<path d="M29.7739 6.00605C29.7739 5.5291 29.7739 5.09082 29.7739 4.56231C28.8705 4.65255 28.0058 4.74278 27.1025 4.83302C27.1025 5.6709 27.0767 6.44433 27.1154 7.21776C27.1412 7.73338 26.9089 8.01697 26.483 8.22322C25.9668 8.46814 25.3861 8.32634 25.1925 7.88807C24.9989 7.42401 25.3216 6.8826 25.9023 6.71503C26.0572 6.66347 26.2378 6.66347 26.4701 6.62479C26.4701 5.78691 26.4959 4.94903 26.4572 4.11115C26.4443 3.6342 26.625 3.47951 27.0896 3.45373C28.0962 3.38928 29.1028 3.27326 30.1094 3.19592C30.1868 3.18303 30.2772 3.2217 30.432 3.24748C30.432 4.54942 30.4836 5.85136 30.4062 7.14042C30.3675 7.68182 29.748 7.77205 29.3222 7.69471C28.9995 7.64315 28.7285 7.32088 28.4446 7.11463C28.664 6.80526 28.8576 6.45722 29.1286 6.19941C29.2447 6.05761 29.5157 6.0705 29.7739 6.00605Z" fill="#0E2A36"/>
</svg>
