<svg width="45" height="45" viewBox="0 0 45 45" fill="none" xmlns="http://www.w3.org/2000/svg">
<path d="M22.4648 2.8125C28.2188 2.8125 33.9844 2.8125 39.7383 2.8125C41.2617 2.8125 42.1055 3.64453 42.1055 5.16797C42.1055 12.0352 42.1055 18.9023 42.1055 25.7812C42.1055 27.2813 41.2617 28.125 39.7734 28.125C37.6289 28.125 35.4727 28.1133 33.3281 28.1367C33 28.1367 32.8242 28.0664 32.6836 27.7266C30.7734 23.4609 26.5078 20.8008 21.8438 21.1289C17.3906 21.4336 14.1797 23.707 12.2344 27.7383C12.0937 28.0312 11.9531 28.1367 11.625 28.1367C9.44531 28.1133 7.26563 28.125 5.08594 28.125C3.67969 28.125 2.80078 27.2578 2.80078 25.8633C2.80078 18.9375 2.80078 12.0117 2.80078 5.07422C2.8125 3.67969 3.69141 2.8125 5.09766 2.8125C10.8867 2.8125 16.6758 2.8125 22.4648 2.8125ZM11.8945 12.6562C12.832 12.6562 13.7695 12.668 14.6953 12.6562C15.9258 12.6445 16.8281 11.7539 16.8398 10.5234C16.8516 9.62109 16.8516 8.70703 16.8398 7.80469C16.8281 6.53906 15.9375 5.63672 14.6836 5.63672C12.8438 5.625 11.0039 5.625 9.16406 5.63672C7.93359 5.63672 7.03125 6.53906 7.01953 7.75781C7.00781 8.66016 7.00781 9.57422 7.01953 10.4766C7.03125 11.7305 7.92188 12.6328 9.17578 12.6445C10.0781 12.668 10.9805 12.6562 11.8945 12.6562ZM9.82031 15.4688C9.15234 15.4688 8.47266 15.457 7.80469 15.4688C7.28906 15.4805 7.03125 15.7383 7.01953 16.2656C7.00781 17.1445 7.00781 18.0234 7.01953 18.9023C7.01953 19.418 7.28906 19.6875 7.81641 19.6875C9.16406 19.6992 10.5117 19.6992 11.8477 19.6875C12.3633 19.6875 12.6211 19.418 12.6328 18.8906C12.6445 18.0234 12.6445 17.168 12.6328 16.3008C12.6328 15.7266 12.375 15.4805 11.8008 15.4688C11.1328 15.4688 10.4766 15.4688 9.82031 15.4688ZM18.1992 19.6875C18.8672 19.6875 19.5469 19.6875 20.2148 19.6875C20.7891 19.6875 21.0352 19.4297 21.0469 18.8555C21.0586 18.0117 21.0586 17.1562 21.0469 16.3125C21.0469 15.7383 20.7891 15.4805 20.2148 15.4805C18.9023 15.4805 17.5781 15.4805 16.2656 15.4805C15.6914 15.4805 15.4453 15.7383 15.4336 16.3125C15.4336 17.1562 15.4219 18.0117 15.4336 18.8555C15.4336 19.4297 15.6914 19.6758 16.2656 19.6875C16.9219 19.6875 17.5664 19.6875 18.1992 19.6875ZM26.6602 19.6875C27.3164 19.6875 27.9727 19.6875 28.6289 19.6875C29.2031 19.6875 29.4609 19.4297 29.4609 18.8555C29.4727 18.0117 29.4727 17.1562 29.4609 16.3125C29.4609 15.7383 29.2031 15.4805 28.6289 15.4805C27.3164 15.4805 25.9922 15.4805 24.6797 15.4805C24.1055 15.4805 23.8477 15.7383 23.8477 16.3125C23.8359 17.1562 23.8477 18.0117 23.8477 18.8555C23.8477 19.4297 24.1055 19.6875 24.6797 19.6875C25.3477 19.6875 26.0039 19.6875 26.6602 19.6875ZM35.0859 15.4688C34.4297 15.4688 33.7734 15.4688 33.1172 15.4688C32.543 15.4688 32.2969 15.7266 32.2852 16.3008C32.2852 17.1445 32.2734 18 32.2852 18.8438C32.2852 19.418 32.543 19.6758 33.1172 19.6758C34.4297 19.6758 35.7539 19.6758 37.0664 19.6758C37.6406 19.6758 37.8984 19.418 37.8984 18.8438C37.9102 18 37.9102 17.1445 37.8984 16.3008C37.8984 15.7266 37.6406 15.4688 37.0664 15.4688C36.3984 15.4688 35.7422 15.4688 35.0859 15.4688Z" fill="#0E2A36"/>
<path d="M12.6328 32.3555C12.6211 26.9297 17.0391 22.5 22.4297 22.5C27.8789 22.5 32.2735 26.8945 32.2852 32.3555C32.2969 37.7227 27.8789 42.1875 22.5469 42.1875C17.0391 42.1875 12.6446 37.8281 12.6328 32.3555ZM25.418 32.332C26.4141 31.3477 27.3633 30.4102 28.3008 29.4609C28.7344 29.0273 28.7344 28.6875 28.3125 28.2539C27.7383 27.668 27.1641 27.0937 26.5781 26.5078C26.1094 26.0391 25.7696 26.0391 25.3008 26.5078C24.4453 27.3516 23.6016 28.207 22.7578 29.0508C22.6641 29.1445 22.5586 29.2383 22.4414 29.3437C21.4571 28.3594 20.5196 27.4219 19.5821 26.4844C19.1836 26.0977 18.8203 26.0508 18.4688 26.4023C17.8008 27.0469 17.1563 27.6914 16.5117 28.3594C16.1836 28.6992 16.2071 29.0625 16.5469 29.4141C17.0977 29.9766 17.6602 30.5391 18.2227 31.0898C18.6328 31.5 19.0664 31.8867 19.5117 32.2969C19.336 32.4727 19.2422 32.5898 19.1485 32.6836C18.3047 33.5273 17.4492 34.3828 16.6055 35.2266C16.1953 35.6484 16.1836 35.9883 16.5938 36.4102C17.1914 37.0195 17.7891 37.6172 18.3867 38.2148C18.8203 38.6367 19.1602 38.6367 19.5938 38.1914C20.4024 37.3828 21.211 36.5859 22.0078 35.7656C22.1485 35.625 22.2305 35.4258 22.3477 35.25C22.5 35.3906 22.5352 35.4023 22.5586 35.4258C23.4727 36.3398 24.375 37.2422 25.2891 38.1563C25.7813 38.6484 26.0977 38.6484 26.5899 38.1563C27.1055 37.6406 27.6211 37.125 28.1367 36.6094C28.793 35.9531 28.793 35.7188 28.1367 35.0508C27.2461 34.1602 26.3555 33.2695 25.418 32.332Z" fill="#0E2A36"/>
<path d="M12.6094 11.2266C12.1523 11.2266 11.7188 11.2266 11.2617 11.2266C11.2617 9.84375 11.2617 8.46094 11.2617 7.05469C11.707 7.05469 12.1406 7.05469 12.6094 7.05469C12.6094 8.4375 12.6094 9.80859 12.6094 11.2266Z" fill="#0E2A36"/>
<path d="M9.82024 8.42579C9.33977 8.42579 8.90617 8.42579 8.47258 8.42579C8.24992 7.27735 8.6132 6.91407 9.7968 7.07813C9.80852 7.12501 9.82024 7.1836 9.82024 7.2422C9.82024 7.6172 9.82024 7.9922 9.82024 8.42579Z" fill="#0E2A36"/>
<path d="M14.0508 8.41405C14.0508 7.9453 14.0508 7.52342 14.0508 7.11327C15.1758 6.85546 15.5859 7.25389 15.4102 8.41405C14.9766 8.41405 14.5313 8.41405 14.0508 8.41405Z" fill="#0E2A36"/>
<path d="M8.44916 9.85547C8.90619 9.85547 9.33979 9.85547 9.79682 9.85547C9.79682 10.3008 9.79682 10.7344 9.79682 11.1797C8.69526 11.4258 8.27338 11.0508 8.44916 9.85547Z" fill="#0E2A36"/>
<path d="M15.4219 9.87891C15.5039 11.1094 15.2109 11.3906 14.0625 11.2031C14.0625 10.7695 14.0625 10.3477 14.0625 9.87891C14.5078 9.87891 14.9414 9.87891 15.4219 9.87891Z" fill="#0E2A36"/>
<path d="M8.4375 18.2461C8.4375 17.7891 8.4375 17.3555 8.4375 16.8984C9.36328 16.8984 10.2773 16.8984 11.2031 16.8984C11.2031 17.3555 11.2031 17.7773 11.2031 18.2461C10.3008 18.2461 9.38672 18.2461 8.4375 18.2461Z" fill="#0E2A36"/>
<path d="M16.8633 18.2578C16.8633 17.8008 16.8633 17.3672 16.8633 16.8984C17.7773 16.8984 18.6914 16.8984 19.6289 16.8984C19.6289 17.3437 19.6289 17.7891 19.6289 18.2578C18.7031 18.2578 17.8125 18.2578 16.8633 18.2578Z" fill="#0E2A36"/>
<path d="M28.0547 16.9102C28.0547 17.3672 28.0547 17.8008 28.0547 18.2578C27.1289 18.2578 26.2148 18.2578 25.2891 18.2578C25.2891 17.8008 25.2891 17.3789 25.2891 16.9102C26.1914 16.9102 27.1055 16.9102 28.0547 16.9102Z" fill="#0E2A36"/>
<path d="M36.4688 16.9102C36.4688 17.3789 36.4688 17.8125 36.4688 18.2695C35.5547 18.2695 34.6523 18.2695 33.7148 18.2695C33.7148 17.8359 33.7148 17.3906 33.7148 16.9102C34.6172 16.9102 35.5312 16.9102 36.4688 16.9102Z" fill="#0E2A36"/>
<path d="M26.9063 35.8008C26.5664 36.1406 26.25 36.457 25.8984 36.7969C24.9961 35.8828 24.082 34.9805 23.1797 34.0664C22.582 33.4688 22.3125 33.4688 21.7148 34.0664C20.8125 34.9805 19.8984 35.8828 18.9961 36.7969C18.6563 36.457 18.3281 36.1406 17.9883 35.8008C18.7266 35.0625 19.4531 34.3242 20.2031 33.5977C21.4805 32.3672 21.4805 32.332 20.2148 31.1016C19.4648 30.375 18.7383 29.6367 17.9766 28.8867C18.3281 28.5586 18.668 28.2656 19.0547 27.9141C19.2539 28.1367 19.5117 28.4062 19.7695 28.6758C20.4609 29.3672 21.1523 30.0703 21.8437 30.7617C22.2539 31.1602 22.6172 31.1719 23.0156 30.7617C23.9648 29.8125 24.9141 28.8516 25.875 27.8906C26.2031 28.2422 26.5078 28.5586 26.8477 28.9219C26.0508 29.7188 25.2422 30.5625 24.3984 31.3711C23.4844 32.2383 23.4961 32.4844 24.3867 33.3398C25.2656 34.125 26.0742 34.9688 26.9063 35.8008Z" fill="#0E2A36"/>
</svg>
