<svg width="40" height="40" viewBox="0 0 40 40" fill="none" xmlns="http://www.w3.org/2000/svg">
<g clip-path="url(#clip0_47_38)">
<path d="M19.2031 0.0187492C18.5281 0.0593758 17.9813 0.106251 17.5469 0.159374C14.4375 0.540623 11.525 1.61875 8.92188 3.35312C6.0875 5.24062 3.77188 7.83125 2.21563 10.8594C0.98125 13.2625 0.29375 15.7 0.059375 18.5156C0.00625 19.1187 0.00625 20.8813 0.059375 21.4844C0.29375 24.3 0.98125 26.7375 2.21563 29.1406C4.12188 32.85 7.15 35.8781 10.8594 37.7844C13.2625 39.0188 15.7 39.7062 18.5156 39.9406C19.1187 39.9938 20.8813 39.9938 21.4844 39.9406C24.3 39.7062 26.7375 39.0188 29.1406 37.7844C32.85 35.8781 35.8781 32.85 37.7844 29.1406C39.0187 26.7375 39.7062 24.3 39.9406 21.4844C39.9938 20.8813 39.9938 19.1187 39.9406 18.5156C39.7062 15.7 39.0187 13.2625 37.7844 10.8594C35.8781 7.15 32.85 4.12188 29.1406 2.21563C26.7875 1.00625 24.3563 0.309376 21.6719 0.078125C21.1594 0.03125 19.5906 -0.00625229 19.2031 0.0187492ZM21.5125 2.45312C25.6063 2.80312 29.3844 4.55 32.3375 7.45C35.4 10.4594 37.2156 14.3562 37.5656 18.6719C37.6125 19.275 37.6125 20.725 37.5656 21.3281C37.2219 25.5469 35.4906 29.35 32.55 32.3375C29.5344 35.4031 25.6562 37.2094 21.3281 37.5656C20.725 37.6156 19.275 37.6156 18.6719 37.5656C14.3406 37.2094 10.4594 35.4031 7.45 32.3406C4.50313 29.3375 2.78437 25.5687 2.43438 21.3281C2.38438 20.725 2.38438 19.275 2.43438 18.6719C2.79375 14.3344 4.6 10.4594 7.65938 7.45C10.4031 4.75625 13.8719 3.05 17.625 2.55C18.925 2.37812 20.225 2.34375 21.5125 2.45312Z" fill="#49D4A6"/>
<path d="M15.8125 6.44373C15.6437 6.49061 13.6906 7.62811 13.575 7.74686C13.3156 8.00936 13.2562 8.39373 13.4187 8.71248C13.5875 9.04061 17.0094 14.9562 17.0906 15.0625C17.2719 15.2906 17.6719 15.425 17.9531 15.3469C18.0969 15.3094 20.0219 14.2062 20.1875 14.0687C20.4 13.8906 20.5156 13.5094 20.4406 13.2344C20.4219 13.1656 19.5844 11.6812 18.5781 9.93748C17.0969 7.36873 16.7219 6.74061 16.6062 6.63436C16.3937 6.43436 16.0937 6.36248 15.8125 6.44373Z" fill="#49D4A6"/>
<path d="M12.3188 9.16562C11.6501 9.57187 11.3157 9.81562 10.9594 10.1562C9.91568 11.1531 9.63756 12.1437 9.81568 14.2031C10.0719 17.1469 11.5313 21.0813 13.7188 24.7188C15.7719 28.1312 18.2376 30.9562 20.5157 32.5063C21.6876 33.3031 22.4157 33.5781 23.3594 33.5781C23.9907 33.5781 24.5157 33.4531 25.2532 33.125C25.5969 32.9688 26.3938 32.5469 26.4219 32.5031C26.4313 32.4844 22.8688 26.2781 22.6782 25.9781C22.6594 25.9469 22.6251 25.9531 22.5313 26C22.3157 26.1094 21.9594 26.2156 21.6813 26.25C20.6594 26.375 19.4501 25.7875 18.3282 24.6187C16.9407 23.175 15.8407 21.0469 15.5001 19.1406C15.2469 17.7406 15.4376 16.6125 16.0469 15.8969C16.1501 15.775 16.4969 15.4844 16.5657 15.4625C16.5907 15.4531 15.8876 14.2094 14.7219 12.1844C13.6844 10.3906 12.8282 8.9125 12.8157 8.9C12.8032 8.88437 12.5813 9.00625 12.3188 9.16562Z" fill="#49D4A6"/>
<path d="M25.6876 23.3438C25.5157 23.3656 25.5438 23.3531 24.3969 24.0125C23.8844 24.3063 23.4157 24.5938 23.3563 24.65C23.1313 24.8656 23.0376 25.2281 23.1313 25.5031C23.1844 25.6594 26.7407 31.8344 26.8719 31.9969C27.0938 32.2781 27.5344 32.3625 27.8907 32.1906C28.1594 32.0625 29.8094 31.1063 29.9376 31.0031C30.1126 30.8625 30.2188 30.6281 30.2188 30.3719C30.2188 30.2563 30.2032 30.1188 30.1813 30.0719C30.0751 29.8219 26.5094 23.6875 26.4126 23.5875C26.2219 23.3875 25.9719 23.3031 25.6876 23.3438Z" fill="#49D4A6"/>
</g>
<defs>
<clipPath id="clip0_47_38">
<rect width="40" height="40" fill="white"/>
</clipPath>
</defs>
</svg>
