<svg width="31" height="31" viewBox="0 0 31 31" fill="none" xmlns="http://www.w3.org/2000/svg">
<g clip-path="url(#clip0_503_6245)">
<path d="M15.3999 0.35928C14.8937 0.389748 14.4835 0.424904 14.1577 0.464748C11.8257 0.750685 9.64131 1.55928 7.68897 2.86006C5.56318 4.27568 3.82646 6.21865 2.65928 8.48975C1.7335 10.2921 1.21787 12.1202 1.04209 14.2319C1.00225 14.6843 1.00225 16.0062 1.04209 16.4585C1.21787 18.5702 1.7335 20.3983 2.65928 22.2007C4.08896 24.9827 6.36006 27.2538 9.14209 28.6835C10.9444 29.6093 12.7726 30.1249 14.8843 30.3007C15.3366 30.3405 16.6585 30.3405 17.1108 30.3007C19.2226 30.1249 21.0507 29.6093 22.853 28.6835C25.6351 27.2538 27.9062 24.9827 29.3358 22.2007C30.2616 20.3983 30.7772 18.5702 30.953 16.4585C30.9929 16.0062 30.9929 14.6843 30.953 14.2319C30.7772 12.1202 30.2616 10.2921 29.3358 8.48975C27.9062 5.70772 25.6351 3.43662 22.853 2.00694C21.0882 1.09991 19.2647 0.577248 17.2515 0.403811C16.8671 0.368654 15.6905 0.340528 15.3999 0.35928ZM17.1319 2.18506C20.2022 2.44756 23.0358 3.75772 25.2507 5.93272C27.5476 8.18975 28.9093 11.1124 29.1718 14.3491C29.2069 14.8015 29.2069 15.889 29.1718 16.3413C28.914 19.5054 27.6155 22.3577 25.4101 24.5983C23.1483 26.8976 20.2397 28.2522 16.9937 28.5194C16.5413 28.5569 15.4538 28.5569 15.0015 28.5194C11.753 28.2522 8.84209 26.8976 6.58506 24.6007C4.3749 22.3483 3.08584 19.5218 2.82334 16.3413C2.78584 15.889 2.78584 14.8015 2.82334 14.3491C3.09287 11.096 4.44756 8.18975 6.74209 5.93272C8.7999 3.9124 11.4015 2.63272 14.2163 2.25772C15.1913 2.12881 16.1663 2.10303 17.1319 2.18506Z" fill="#47B48F"/>
<path d="M12.857 5.17797C12.7304 5.21313 11.2656 6.06625 11.1789 6.15531C10.9843 6.35219 10.9398 6.64047 11.0617 6.87953C11.1882 7.12563 13.7546 11.5623 13.8156 11.642C13.9515 11.8131 14.2515 11.9139 14.4625 11.8553C14.5703 11.8272 16.014 10.9998 16.1382 10.8967C16.2976 10.7631 16.3843 10.4772 16.3281 10.2709C16.314 10.2194 15.6859 9.10609 14.9312 7.79828C13.8203 5.87172 13.539 5.40063 13.4523 5.32094C13.2929 5.17094 13.0679 5.11703 12.857 5.17797Z" fill="#47B48F"/>
<path d="M10.2367 7.21943C9.7351 7.52412 9.48432 7.70693 9.21713 7.9624C8.43432 8.71006 8.22573 9.45303 8.35932 10.9976C8.55151 13.2054 9.64604 16.1562 11.2867 18.8843C12.8265 21.4437 14.6757 23.5624 16.3843 24.7249C17.2632 25.3226 17.8093 25.5288 18.5171 25.5288C18.9906 25.5288 19.3843 25.4351 19.9374 25.189C20.1953 25.0718 20.7929 24.7554 20.814 24.7226C20.821 24.7085 18.1492 20.0538 18.0062 19.8288C17.9921 19.8054 17.9664 19.8101 17.896 19.8452C17.7343 19.9272 17.4671 20.0069 17.2585 20.0327C16.4921 20.1265 15.5851 19.6858 14.7437 18.8093C13.7031 17.7265 12.8781 16.1304 12.6226 14.7007C12.4328 13.6507 12.5757 12.8046 13.0328 12.2679C13.1101 12.1765 13.3703 11.9585 13.4218 11.9421C13.4406 11.9351 12.9132 11.0022 12.039 9.4835C11.2609 8.13818 10.6187 7.02959 10.6093 7.02021C10.5999 7.0085 10.4335 7.0999 10.2367 7.21943Z" fill="#47B48F"/>
<path d="M20.2631 17.8531C20.1342 17.8695 20.1553 17.8602 19.2951 18.3547C18.9108 18.575 18.5592 18.7906 18.5147 18.8328C18.3459 18.9945 18.2756 19.2664 18.3459 19.4727C18.3858 19.5899 21.0529 24.2211 21.1514 24.343C21.3178 24.5539 21.6483 24.6172 21.9154 24.4883C22.117 24.3922 23.3545 23.675 23.4506 23.5977C23.5819 23.4922 23.6615 23.3164 23.6615 23.1242C23.6615 23.0375 23.6498 22.9344 23.6334 22.8992C23.5537 22.7117 20.8795 18.111 20.8069 18.036C20.6639 17.886 20.4764 17.8227 20.2631 17.8531Z" fill="#47B48F"/>
</g>
<defs>
<clipPath id="clip0_503_6245">
<rect width="30" height="30" fill="white" transform="translate(0.997559 0.345215)"/>
</clipPath>
</defs>
</svg>
