<svg width="50" height="50" viewBox="0 0 50 50" fill="none" xmlns="http://www.w3.org/2000/svg">
<g clip-path="url(#clip0_47_38)">
<path d="M24.0039 0.023407C23.1602 0.0741882 22.4766 0.132782 21.9336 0.199188C18.0469 0.675751 14.4062 2.02341 11.1523 4.19138C7.60938 6.55075 4.71484 9.78903 2.76953 13.5742C1.22656 16.5781 0.367188 19.625 0.0742188 23.1445C0.0078125 23.8984 0.0078125 26.1015 0.0742188 26.8554C0.367188 30.375 1.22656 33.4218 2.76953 36.4258C5.15234 41.0625 8.9375 44.8476 13.5742 47.2304C16.5781 48.7734 19.625 49.6328 23.1445 49.9258C23.8984 49.9922 26.1016 49.9922 26.8555 49.9258C30.375 49.6328 33.4219 48.7734 36.4258 47.2304C41.0625 44.8476 44.8477 41.0625 47.2305 36.4258C48.7734 33.4218 49.6328 30.375 49.9258 26.8554C49.9922 26.1015 49.9922 23.8984 49.9258 23.1445C49.6328 19.625 48.7734 16.5781 47.2305 13.5742C44.8477 8.93747 41.0625 5.15231 36.4258 2.7695C33.4844 1.25778 30.4453 0.386688 27.0898 0.0976257C26.4492 0.039032 24.4883 -0.00784302 24.0039 0.023407ZM26.8906 3.06638C32.0078 3.50388 36.7305 5.68747 40.4219 9.31247C44.25 13.0742 46.5195 17.9453 46.957 23.3398C47.0156 24.0937 47.0156 25.9062 46.957 26.6601C46.5273 31.9336 44.3633 36.6875 40.6875 40.4218C36.918 44.2539 32.0703 46.5117 26.6602 46.957C25.9062 47.0195 24.0938 47.0195 23.3398 46.957C17.9258 46.5117 13.0742 44.2539 9.3125 40.4258C5.62891 36.6718 3.48047 31.9609 3.04297 26.6601C2.98047 25.9062 2.98047 24.0937 3.04297 23.3398C3.49219 17.9179 5.75 13.0742 9.57422 9.31247C13.0039 5.94528 17.3398 3.81247 22.0312 3.18747C23.6562 2.97263 25.2812 2.92966 26.8906 3.06638Z" fill="#49D4A6"/>
<path d="M19.7657 8.05465C19.5547 8.11325 17.1133 9.53512 16.9688 9.68356C16.6446 10.0117 16.5704 10.4922 16.7735 10.8906C16.9844 11.3007 21.2618 18.6953 21.3633 18.8281C21.5899 19.1132 22.0899 19.2812 22.4414 19.1836C22.6211 19.1367 25.0274 17.7578 25.2344 17.5859C25.5 17.3632 25.6446 16.8867 25.5508 16.5429C25.5274 16.457 24.4805 14.6015 23.2227 12.4218C21.3711 9.2109 20.9024 8.42575 20.7579 8.29293C20.4922 8.04293 20.1172 7.95309 19.7657 8.05465Z" fill="#49D4A6"/>
<path d="M15.3984 11.457C14.5624 11.9648 14.1445 12.2695 13.6992 12.6953C12.3945 13.9414 12.0468 15.1797 12.2695 17.7539C12.5898 21.4336 14.414 26.3515 17.1484 30.8984C19.7148 35.164 22.7968 38.6953 25.6445 40.6328C27.1093 41.6289 28.0195 41.9726 29.1992 41.9726C29.9882 41.9726 30.6445 41.8164 31.5664 41.4062C31.996 41.2109 32.9921 40.6836 33.0273 40.6289C33.039 40.6054 28.5859 32.8476 28.3476 32.4726C28.3242 32.4336 28.2812 32.4414 28.164 32.5C27.8945 32.6367 27.4492 32.7695 27.1015 32.8125C25.8242 32.9687 24.3125 32.2343 22.9101 30.7734C21.1757 28.9687 19.8007 26.3086 19.375 23.9258C19.0585 22.1758 19.2968 20.7656 20.0585 19.8711C20.1875 19.7187 20.621 19.3554 20.707 19.3281C20.7382 19.3164 19.8593 17.7617 18.4023 15.2304C17.1054 12.9883 16.0351 11.1406 16.0195 11.125C16.0039 11.1054 15.7265 11.2578 15.3984 11.457Z" fill="#49D4A6"/>
<path d="M32.1093 29.1797C31.8945 29.207 31.9296 29.1914 30.496 30.0156C29.8554 30.3828 29.2695 30.7422 29.1953 30.8125C28.914 31.082 28.7968 31.5351 28.914 31.8789C28.9804 32.0742 33.4257 39.7929 33.5898 39.9961C33.8671 40.3476 34.4179 40.4531 34.8632 40.2383C35.1992 40.0781 37.2617 38.8828 37.4218 38.7539C37.6406 38.5781 37.7734 38.2851 37.7734 37.9648C37.7734 37.8203 37.7539 37.6484 37.7265 37.5898C37.5937 37.2773 33.1367 29.6093 33.0156 29.4843C32.7773 29.2343 32.4648 29.1289 32.1093 29.1797Z" fill="#49D4A6"/>
</g>
<defs>
<clipPath id="clip0_47_38">
<rect width="50" height="50" fill="white"/>
</clipPath>
</defs>
</svg>
