<svg width="22" height="21" viewBox="0 0 22 21" fill="none" xmlns="http://www.w3.org/2000/svg">
<path d="M11.6324 13.0891H9.39124C9.39709 12.5618 9.43811 12.1077 9.51428 11.7268C9.59631 11.3401 9.73401 10.9915 9.92737 10.6809C10.1266 10.3704 10.3903 10.0627 10.7184 9.75806C10.9938 9.51196 11.234 9.27759 11.4391 9.05493C11.6442 8.83228 11.8053 8.60376 11.9225 8.36938C12.0397 8.12915 12.0983 7.86255 12.0983 7.56958C12.0983 7.22974 12.0455 6.94849 11.9401 6.72583C11.8405 6.49731 11.6881 6.32446 11.483 6.20728C11.2838 6.09009 11.0319 6.03149 10.7272 6.03149C10.4752 6.03149 10.2408 6.08716 10.024 6.19849C9.80725 6.30396 9.62854 6.46802 9.48792 6.69067C9.35315 6.91333 9.28284 7.2063 9.27698 7.56958H6.72815C6.74573 6.76685 6.9303 6.10474 7.28186 5.58325C7.63928 5.05591 8.11682 4.66626 8.71448 4.41431C9.31213 4.15649 9.98303 4.02759 10.7272 4.02759C11.5475 4.02759 12.2506 4.16235 12.8365 4.43188C13.4225 4.69556 13.8707 5.08521 14.1813 5.60083C14.4918 6.1106 14.6471 6.73169 14.6471 7.46411C14.6471 7.97388 14.5475 8.42798 14.3483 8.82642C14.149 9.21899 13.8883 9.58521 13.566 9.92505C13.2438 10.2649 12.8893 10.6165 12.5026 10.9797C12.1686 11.2786 11.9401 11.592 11.817 11.9202C11.6998 12.2483 11.6383 12.6379 11.6324 13.0891ZM9.12756 15.8049C9.12756 15.4299 9.25647 15.1194 9.51428 14.8733C9.77209 14.6213 10.1178 14.4954 10.5514 14.4954C10.9791 14.4954 11.3219 14.6213 11.5797 14.8733C11.8434 15.1194 11.9752 15.4299 11.9752 15.8049C11.9752 16.1682 11.8434 16.4758 11.5797 16.7278C11.3219 16.9797 10.9791 17.1057 10.5514 17.1057C10.1178 17.1057 9.77209 16.9797 9.51428 16.7278C9.25647 16.4758 9.12756 16.1682 9.12756 15.8049Z" fill="#47B48F"/>
<path d="M20.1083 10.0002C20.1083 14.9207 15.8823 19.0002 10.5542 19.0002C5.22614 19.0002 1.00012 14.9207 1.00012 10.0002C1.00012 5.07981 5.22614 1.00024 10.5542 1.00024C15.8823 1.00024 20.1083 5.07981 20.1083 10.0002Z" stroke="#47B48F" stroke-width="2"/>
</svg>
