<svg width="32" height="32" viewBox="0 0 32 32" fill="none" xmlns="http://www.w3.org/2000/svg">
<g clip-path="url(#clip0_1156_6944)">
<path d="M0 31.1244C0.266667 30.3244 0.533333 29.5161 0.808333 28.7161C1.43333 26.9244 2.075 25.1411 2.975 23.4578C3.85833 21.8161 5.78333 21.0411 7.54167 21.4828C9.35 21.9328 10.6417 23.5411 10.6417 25.4161C10.6417 26.9744 9.975 28.1994 8.6 28.9911C7.25833 29.7578 5.825 30.3078 4.375 30.8161C3.29167 31.1994 2.19167 31.5411 1.1 31.9078C1.025 31.9328 0.95 31.9744 0.883333 32.0078C0.758333 32.0078 0.633333 32.0078 0.508333 32.0078C0.341667 31.8411 0.175 31.6744 0.00833333 31.5078C0 31.3744 0 31.2494 0 31.1244Z" fill="white"/>
<path d="M16.9251 24.6496C16.7167 24.833 16.5334 24.9913 16.3584 25.1496C15.9251 25.533 15.6084 25.533 15.2001 25.1163C13.1584 23.0746 11.1084 21.033 9.06674 18.983C8.34174 18.258 7.60841 17.5246 6.88341 16.7996C6.46674 16.383 6.45841 16.0746 6.84174 15.6413C7.00007 15.4663 7.15841 15.283 7.35841 15.058C6.85841 14.983 6.40007 14.908 5.95007 14.8413C4.73341 14.6663 3.52507 14.4996 2.30841 14.3246C2.01674 14.283 1.79174 14.1413 1.70007 13.858C1.60841 13.558 1.71674 13.3163 1.94174 13.0996C4.24174 10.8496 6.95841 9.34963 10.1001 8.6663C11.1084 8.44963 12.1584 8.39963 13.1834 8.25797C13.3334 8.2413 13.5084 8.1663 13.6084 8.05797C17.1501 4.27463 21.4584 1.7913 26.4834 0.574633C27.9917 0.207966 29.5334 0.0329663 31.0834 0.0412996C31.7001 0.0412996 31.9334 0.274633 31.9417 0.882966C31.9584 4.19963 31.1417 7.3163 29.7667 10.308C28.3501 13.383 26.4167 16.0913 23.9084 18.3746C23.7251 18.5413 23.7251 18.733 23.7167 18.933C23.5001 23.1746 21.9251 26.833 19.0001 29.908C18.9417 29.9663 18.8834 30.033 18.8251 30.083C18.6084 30.258 18.3751 30.3413 18.1001 30.233C17.8334 30.1246 17.6917 29.933 17.6584 29.6496C17.4334 28.0246 17.2001 26.3996 16.9667 24.7746C16.9584 24.7663 16.9501 24.733 16.9251 24.6496ZM26.1334 9.20797C26.1417 7.37463 24.6334 5.87463 22.8001 5.87463C20.9834 5.87463 19.4834 7.35797 19.4751 9.18297C19.4584 11.008 20.9584 12.5246 22.7917 12.533C24.6167 12.533 26.1251 11.033 26.1334 9.20797Z" fill="white"/>
</g>
<defs>
<clipPath id="clip0_1156_6944">
<rect width="32" height="32" fill="white"/>
</clipPath>
</defs>
</svg>
