<svg width="30" height="35" viewBox="0 0 30 35" fill="none" xmlns="http://www.w3.org/2000/svg">
<g clip-path="url(#clip0_1141_6944)">
<path d="M0 2.77826C0.0626118 2.58821 0.107335 2.39817 0.178891 2.20813C0.635063 0.850672 1.83363 0 3.30054 0C7.15564 0 11.0197 0 14.8748 0C17.3524 0 19.8301 0 22.3077 0C24.3381 0 25.7066 1.3846 25.7066 3.43889C25.7066 5.96375 25.7066 8.49767 25.7066 11.0225C25.7066 13.0678 24.347 14.4433 22.3256 14.4433C21.2075 14.4433 20.0984 14.4433 18.9803 14.4433C18.8551 14.4433 18.7388 14.4433 18.5599 14.4433C18.5599 14.6062 18.5599 14.751 18.5599 14.8868C18.5599 15.4659 18.5689 16.0361 18.5599 16.6153C18.5331 17.9275 17.6565 18.9229 16.3685 19.113C16.3238 19.122 16.288 19.1311 16.1628 19.1582C17.2719 20.1989 18.3542 21.1944 19.4365 22.208C19.4991 22.1537 19.5617 22.1084 19.6154 22.0541C20.3846 21.3844 21.4132 21.3935 22.1288 22.1175C24.5796 24.588 27.0215 27.0677 29.4544 29.5473C30.1789 30.2893 30.1789 31.3482 29.4633 32.0993C28.7925 32.8052 28.1127 33.511 27.3971 34.1717C27.1556 34.3979 26.8068 34.5156 26.5116 34.6785C26.288 34.6785 26.0644 34.6785 25.8408 34.6785C25.5188 34.4884 25.1431 34.3436 24.8927 34.0902C22.4508 31.6559 20.0358 29.2034 17.6118 26.76C17.1646 26.3165 16.9767 25.7735 17.0841 25.1582C17.1377 24.8595 17.2898 24.5699 17.4061 24.2532C17.3971 24.2441 17.3792 24.2079 17.3435 24.1808C15.5903 22.5428 13.8283 20.9139 12.0662 19.2849C11.9767 19.2035 11.8068 19.1582 11.6816 19.1492C11.0197 19.1401 10.3667 19.1492 9.70483 19.1401C8.24687 19.113 7.18247 18.0632 7.14669 16.6153C7.13775 16.1175 7.14669 15.6198 7.14669 15.122C7.14669 14.9049 7.14669 14.6786 7.14669 14.4343C6.9678 14.4343 6.85152 14.4343 6.7263 14.4343C5.50984 14.4343 4.29338 14.4524 3.07692 14.4252C1.73524 14.3981 0.563506 13.4841 0.152057 12.1899C0.09839 12.009 0.0447227 11.828 0 11.647C0 8.69676 0 5.73751 0 2.77826ZM20.6887 2.17193C20.5456 2.17193 20.4472 2.17193 20.3488 2.17193C14.6959 2.17193 9.04293 2.17193 3.38104 2.17193C2.5492 2.17193 2.14669 2.58821 2.14669 3.44794C2.14669 5.96375 2.14669 8.47957 2.14669 10.9954C2.14669 11.8732 2.54919 12.2804 3.40787 12.2804C9.05188 12.2804 14.6959 12.2804 20.3399 12.2804C20.4562 12.2804 20.5725 12.2714 20.6887 12.2623C20.6887 8.87776 20.6887 5.54747 20.6887 2.17193Z" fill="white"/>
</g>
<defs>
<clipPath id="clip0_1141_6944">
<rect width="30" height="34.6875" fill="white"/>
</clipPath>
</defs>
</svg>
