<svg width="34" height="36" viewBox="0 0 34 36" fill="none" xmlns="http://www.w3.org/2000/svg">
<path d="M18.0762 35.3186C18.0762 33.2009 18.0762 31.5673 18.0762 29.8429C17.3502 29.8429 16.7754 29.8429 16.0191 29.8429C16.0191 31.537 16.0191 33.2009 16.0191 34.774C13.5384 34.774 11.2392 34.8951 8.94001 34.7438C6.64083 34.5925 4.34166 34.1992 2.04248 33.927C0.771884 33.7757 0.257594 33.0799 0.136584 31.8093C-0.3172 26.9689 0.408856 22.2798 1.5887 17.621C1.83072 16.6832 2.52652 15.8361 2.85929 14.8983C4.03913 11.389 3.6156 7.84948 2.76854 4.34021C2.67778 3.88642 2.52652 3.46289 2.40551 3.03935C2.04248 1.58724 2.64753 0.649419 4.16014 0.619167C10.7854 0.467905 17.4409 0.346896 24.0662 0.316644C25.9721 0.286392 27.878 0.498158 29.7839 0.619167C31.2057 0.709924 31.8713 1.61749 31.599 3.03935C30.8427 7.03266 30.3587 11.147 31.962 14.9588C34.2007 20.2227 34.1099 25.6378 33.8982 31.1135C33.8377 33.3219 33.4746 33.806 31.4477 34.048C27.1519 34.532 22.7351 34.8648 18.0762 35.3186ZM18.1065 18.0748C18.1065 17.379 18.167 16.8042 18.1065 16.1991C17.8039 13.8394 18.4997 11.7823 19.6796 9.75537C20.8594 7.75872 21.8577 5.64105 22.9771 3.49314C18.9535 3.49314 15.1115 3.49314 11.2089 3.49314C13.2661 8.27301 17.2291 12.2663 15.777 18.0445C16.7149 18.0748 17.2897 18.0748 18.1065 18.0748ZM20.0124 21.342C23.4309 21.342 26.7284 21.342 30.2376 21.342C30.0864 20.4344 29.9654 19.6479 29.8444 18.8613C26.4864 18.8613 23.3099 18.8613 20.0426 18.8613C20.0124 19.6781 20.0124 20.4344 20.0124 21.342ZM3.34333 28.9656C6.94336 28.9656 10.5131 28.9656 14.0829 28.9656C14.0829 28.1185 14.0829 27.3925 14.0829 26.6059C10.4829 26.6059 6.94336 26.6059 3.34333 26.6059C3.34333 27.4227 3.34333 28.179 3.34333 28.9656ZM3.91813 21.3118C7.39714 21.3118 10.7249 21.3118 14.0526 21.3118C14.0526 20.4042 14.0526 19.6479 14.0526 18.8311C10.8157 18.8311 7.72992 18.8311 4.49292 18.8311C4.28115 19.6176 4.09964 20.4344 3.91813 21.3118ZM30.7217 28.9959C30.7217 28.0883 30.7217 27.3622 30.7217 26.6059C27.0914 26.6059 23.5519 26.6059 20.0124 26.6059C20.0124 27.4832 20.0124 28.2093 20.0124 28.9959C23.6426 28.9959 27.1519 28.9959 30.7217 28.9959ZM16.0493 22.4008C16.0493 23.5504 16.0493 24.5185 16.0493 25.5471C16.7451 25.5471 17.3804 25.5471 18.0157 25.5471C18.0157 24.4277 18.0157 23.4294 18.0157 22.4008C17.2896 22.4008 16.7149 22.4008 16.0493 22.4008Z" fill="#0E2A36"/>
</svg>
