<svg width="35" height="36" viewBox="0 0 35 36" fill="none" xmlns="http://www.w3.org/2000/svg">
<path d="M0 25.4931C0.273804 24.8999 0.739272 24.7265 1.37815 24.7356C3.79675 24.763 6.20623 24.7447 8.62484 24.7447C8.75261 24.7447 8.87126 24.7447 8.98991 24.7447C9.55577 20.3273 13.4164 17.0508 17.8612 17.2333C21.9409 17.4068 25.409 20.4551 25.9932 24.7447C26.1209 24.7447 26.2487 24.7447 26.3765 24.7447C28.8864 24.7447 31.3871 24.7447 33.897 24.7447C34.6819 24.7447 35.193 25.4292 34.9283 26.1229C34.7732 26.5244 34.472 26.7344 34.0521 26.78C33.9244 26.7982 33.8057 26.7891 33.6779 26.7891C22.9174 26.7891 12.1569 26.7891 1.38728 26.7982C0.748399 26.7982 0.282931 26.6248 0.00912681 26.0407C0 25.8582 0 25.6756 0 25.4931Z" fill="white"/>
<path d="M27.5446 34.9941C27.508 34.9667 27.4807 34.9394 27.4442 34.9211C26.9513 34.6747 26.714 34.2183 26.8144 33.762C26.9331 33.26 27.3346 32.9497 27.8914 32.9497C29.2148 32.9497 30.529 32.9497 31.8524 32.9497C32.5004 32.9497 33.1484 32.9497 33.7964 32.9497C34.4444 32.9497 34.846 33.2326 34.9738 33.762C35.0833 34.2457 34.846 34.6655 34.2893 34.9485C34.271 34.9576 34.2619 34.985 34.2528 35.0032C32.0076 34.9941 29.7715 34.9941 27.5446 34.9941Z" fill="white"/>
<path d="M8.60659 34.9941C8.5427 34.9576 8.47881 34.912 8.41492 34.8755C7.99509 34.6382 7.77605 34.191 7.87644 33.762C7.98596 33.2965 8.36929 32.9588 8.84388 32.9497C9.77482 32.9406 10.7058 32.9406 11.6367 32.9497C12.1204 32.9588 12.5037 33.2965 12.6041 33.762C12.7045 34.191 12.4855 34.6473 12.0656 34.8755C12.0018 34.912 11.9379 34.9576 11.874 34.9941C10.797 34.9941 9.7018 34.9941 8.60659 34.9941Z" fill="white"/>
<path d="M23.3007 34.994C23.2277 34.9483 23.1547 34.9027 23.0725 34.8571C22.6618 34.6198 22.461 34.1543 22.5797 33.7253C22.7075 33.2599 23.109 32.9404 23.5745 32.9404C24.04 32.9404 24.4416 33.2599 24.5693 33.7253C24.688 34.1543 24.4781 34.6198 24.0765 34.8571C24.0035 34.9027 23.9305 34.9483 23.8483 34.994C23.6658 34.994 23.4832 34.994 23.3007 34.994Z" fill="white"/>
<path d="M3.13965 3.25089C3.1579 0.832282 5.48524 -0.637134 7.52052 0.2938C7.63917 0.348561 7.83083 0.375942 7.94948 0.321181C9.17247 -0.217301 10.3224 -0.0895258 11.3264 0.786648C12.3486 1.6902 12.6133 2.84931 12.1934 4.13619C11.8375 5.24966 11.0708 6.0802 10.1764 6.79209C9.60143 7.24843 8.96255 7.63176 8.34193 8.03334C7.96773 8.27976 7.57528 8.25238 7.18283 8.03334C6.06023 7.41271 5.03803 6.67344 4.21661 5.69687C3.57774 4.93022 3.14878 4.08143 3.13965 3.25089Z" fill="white"/>
<path d="M34.7639 4.83908C34.1981 4.54703 33.6596 4.20021 33.0755 3.97204C32.254 3.6526 31.4053 3.70736 30.5656 3.97204C30.4196 4.01767 30.2279 4.0268 30.0819 3.98116C27.791 3.24189 25.4272 4.52877 24.8066 6.86524C24.7883 6.92912 24.7609 6.99301 24.7427 7.06603C22.4336 4.62917 23.0907 1.5078 25.4911 0.366946C26.6319 -0.171536 27.7819 -0.107649 28.8954 0.494721C29.0414 0.576862 29.1509 0.604243 29.3243 0.512975C30.7025 -0.262804 32.2997 -0.135029 33.5135 0.832413C34.7092 1.79073 35.1929 3.36967 34.7639 4.83908Z" fill="white"/>
<path d="M30.3102 6.50947C31.5058 5.34124 32.9935 5.83409 33.5776 6.76502C34.0431 7.51342 33.9792 8.28007 33.5958 9.0376C33.249 9.72211 32.7288 10.2606 32.1447 10.7352C31.7066 11.082 31.2411 11.3832 30.7848 11.7026C30.4836 11.9125 30.1824 11.9125 29.863 11.7118C28.9594 11.1459 28.1106 10.5253 27.4535 9.67648C26.9698 9.05585 26.6321 8.38047 26.7599 7.56818C26.8785 6.77415 27.3349 6.21742 28.1015 5.94361C28.8499 5.66981 29.5344 5.82496 30.1368 6.33606C30.1824 6.39082 30.2372 6.44559 30.3102 6.50947Z" fill="white"/>
<path d="M17.77 28.8428C19.4219 28.8428 21.0647 28.8428 22.7167 28.8428C23.4468 28.8428 23.9123 29.2352 23.9214 29.8559C23.9305 30.4765 23.456 30.8872 22.7349 30.8872C19.4037 30.8872 16.0724 30.8872 12.732 30.8872C11.9105 30.8872 11.3903 30.157 11.7006 29.4634C11.8923 29.0344 12.2391 28.8428 12.7137 28.8428C14.4022 28.8428 16.0815 28.8428 17.77 28.8428Z" fill="white"/>
<path d="M4.7459 30.896C4.10703 30.896 3.47728 30.896 2.8384 30.896C2.17214 30.896 1.7158 30.4761 1.70667 29.8829C1.69755 29.2896 2.16302 28.8516 2.82015 28.8516C4.12528 28.8516 5.43041 28.8516 6.74468 28.8516C7.40181 28.8516 7.86727 29.2896 7.85815 29.8829C7.84902 30.4761 7.39268 30.8868 6.72642 30.896C6.06929 30.896 5.41216 30.896 4.7459 30.896Z" fill="white"/>
<path d="M16.474 13.6377C16.474 13.3548 16.4649 13.0719 16.474 12.7889C16.4923 12.2048 16.9304 11.7667 17.4871 11.7667C18.0438 11.7576 18.5002 12.1957 18.5184 12.7798C18.5367 13.3548 18.5367 13.9389 18.5184 14.5139C18.5002 15.0889 18.0438 15.527 17.4871 15.527C16.9304 15.5179 16.4923 15.0798 16.474 14.5048C16.4649 14.2127 16.474 13.9298 16.474 13.6377Z" fill="white"/>
<path d="M11.7646 17.0233C11.4908 17.0142 11.1805 16.859 10.9889 16.5305C10.6877 16.0376 10.3956 15.5356 10.1218 15.0245C9.83887 14.5043 10.0214 13.9111 10.5051 13.6373C10.9797 13.3726 11.5821 13.5095 11.8833 13.9932C12.1936 14.4952 12.4948 15.0063 12.7686 15.5265C13.1154 16.2201 12.6226 17.0142 11.7646 17.0233Z" fill="white"/>
<path d="M23.2734 17.0234C22.3973 17.0326 21.877 16.2568 22.2147 15.5905C22.4977 15.0247 22.8262 14.4679 23.1639 13.9386C23.4469 13.5005 24.0583 13.391 24.4964 13.6465C24.9436 13.9112 25.1536 14.4771 24.9071 14.9516C24.6151 15.5175 24.2865 16.0651 23.9488 16.6036C23.7754 16.8865 23.4834 17.0234 23.2734 17.0234Z" fill="white"/>
<path d="M7.7304 21.1849C7.54786 21.121 7.3562 21.0937 7.19192 21.0024C6.7082 20.7377 6.24273 20.4639 5.76813 20.181C5.23878 19.8615 5.0745 19.2683 5.35743 18.7663C5.64036 18.2826 6.2336 18.1092 6.75383 18.3921C7.26493 18.6659 7.76691 18.958 8.25975 19.2683C8.67046 19.5239 8.83474 19.9802 8.69784 20.4274C8.57919 20.8564 8.19587 21.1393 7.7304 21.1849Z" fill="white"/>
<path d="M27.3164 21.1487C26.8145 21.1487 26.422 20.8658 26.2942 20.4369C26.1573 20.0079 26.3034 19.5424 26.6867 19.296C27.2161 18.9674 27.7545 18.648 28.3113 18.3559C28.7676 18.1186 29.3243 18.292 29.5981 18.721C29.8628 19.1317 29.8172 19.7432 29.4156 20.017C28.8315 20.4186 28.1835 20.7472 27.5629 21.094C27.4807 21.1487 27.3621 21.1396 27.3164 21.1487Z" fill="white"/>
</svg>
