<svg width="50" height="50" viewBox="0 0 50 50" fill="none" xmlns="http://www.w3.org/2000/svg">
<path d="M12.1503 27.3545C13.1972 27.3545 14.1727 27.3526 15.1474 27.3545C16.2343 27.3565 16.8241 27.8116 17.0243 28.8741C17.662 32.2608 18.286 35.6495 18.9032 39.0401C19.0663 39.9356 18.496 40.7325 17.6034 40.9219C16.7352 41.1055 15.9013 40.5723 15.7255 39.6446C15.2831 37.3126 14.8768 34.9747 14.4559 32.6387C14.3407 32.001 14.2265 31.3633 14.1005 30.6661C13.9101 30.6661 13.7372 30.6661 13.5643 30.6661C11.7089 30.6661 9.85439 30.669 7.99892 30.6651C6.84169 30.6631 6.30263 30.2149 6.11708 29.0626C5.66884 26.2862 5.21474 23.5098 4.80556 20.7266C4.51161 18.7266 5.92372 17.0762 7.95009 16.9581C8.85732 16.9053 9.68153 17.084 10.4413 17.6143C11.2802 18.2012 12.1591 18.7295 13.0136 19.296C13.7245 19.7667 14.497 20.0293 15.3495 20.0362C16.3583 20.045 17.3671 20.0352 18.3759 20.0499C19.2626 20.0635 19.8446 20.6133 19.8407 21.4063C19.8378 22.0792 19.3788 22.7129 18.7108 22.7188C16.8983 22.7364 15.0604 22.9835 13.2909 22.3614C12.7899 22.1856 12.3104 21.9493 11.7606 21.7149C11.8895 23.5938 12.0184 25.4473 12.1503 27.3545Z" fill="#0E2A36"/>
<path d="M35.9707 30.6006C35.5595 32.8995 35.1679 35.0909 34.7763 37.2823C34.6474 38.002 34.5175 38.7227 34.3876 39.4424C34.2021 40.4756 33.4267 41.0889 32.5126 40.9258C31.5546 40.7549 30.996 39.917 31.1796 38.8838C31.4687 37.251 31.7763 35.6221 32.0771 33.9913C32.3896 32.2969 32.706 30.6036 33.0136 28.9083C33.2148 27.7969 33.747 27.3233 34.8671 27.3116C35.8583 27.3008 36.8486 27.3096 37.9062 27.3096C38.041 25.4239 38.1728 23.5694 38.3046 21.7168C38.2255 21.7071 38.1865 21.6885 38.165 21.7012C36.5498 22.6377 34.7832 22.7784 32.9726 22.7061C32.4531 22.6856 31.9296 22.7188 31.4121 22.6807C30.6542 22.626 30.1591 22.0596 30.1738 21.3184C30.1875 20.5909 30.7275 20.0362 31.4824 20.0196C32.3769 20.0001 33.2724 19.9981 34.1669 20.0157C35.2939 20.0381 36.3154 19.7266 37.2548 19.1153C38.1406 18.5391 39.0205 17.9522 39.915 17.3887C42.0947 16.0167 45.0517 17.3868 45.2685 19.919C45.3369 20.711 45.124 21.5323 45.0029 22.334C44.666 24.5518 44.3037 26.7667 43.9609 28.9844C43.7958 30.0508 43.2148 30.5899 42.1191 30.5977C40.0839 30.6104 38.0517 30.6006 35.9707 30.6006Z" fill="#0E2A36"/>
<path d="M23.9473 26.166C23.707 26.166 23.5303 26.166 23.3545 26.166C20.6699 26.166 17.9844 26.167 15.2998 26.1631C15.0898 26.1631 14.874 26.1543 14.6729 26.1025C14.1602 25.9688 13.8486 25.5361 13.8633 25.0225C13.876 24.5332 14.1963 24.1221 14.6895 24.0039C14.8916 23.9551 15.1084 23.9512 15.3174 23.9512C21.7773 23.9482 28.2373 23.9492 34.6973 23.9502C34.8916 23.9502 35.0908 23.9502 35.2783 23.9912C35.8496 24.1162 36.1973 24.6035 36.1426 25.1729C36.0908 25.7148 35.6709 26.1191 35.1094 26.1621C34.9795 26.1719 34.8496 26.166 34.7188 26.166C32.083 26.166 29.4463 26.166 26.8106 26.166C26.6182 26.166 26.4248 26.166 26.1631 26.166C26.1631 26.3887 26.1631 26.5771 26.1631 26.7656C26.1631 31.0303 26.1631 35.2939 26.1631 39.5586C26.1631 39.7217 26.1719 39.8848 26.1563 40.0469C26.0967 40.666 25.6045 41.1318 25.0332 41.1172C24.4736 41.1035 24.0147 40.6533 23.9551 40.0518C23.9395 39.8906 23.9473 39.7266 23.9473 39.5635C23.9473 35.3154 23.9473 31.0674 23.9463 26.8193C23.9473 26.626 23.9473 26.4326 23.9473 26.166Z" fill="#0E2A36"/>
<path d="M9.39058 34.0255C8.49605 34.0255 7.59468 34.0987 6.70894 34.0109C4.57515 33.8009 2.98042 32.2569 2.64644 30.1476C2.18355 27.2247 1.73628 24.2999 1.28511 21.3761C1.16792 20.6173 1.36519 20.1603 1.89058 19.9347C2.57612 19.6398 3.28218 20.0402 3.40815 20.8234C3.71382 22.7335 4.0019 24.6466 4.29683 26.5587C4.46284 27.6349 4.61812 28.714 4.79683 29.7882C5.00776 31.0577 6.03218 31.9015 7.38667 31.9152C8.86714 31.9298 10.3486 31.9132 11.8291 31.922C12.6376 31.9269 13.1015 32.4259 12.9843 33.1349C12.8925 33.6896 12.4414 34.0528 11.7841 34.0636C10.9873 34.0773 10.1894 34.0665 9.39253 34.0665C9.39058 34.0538 9.39058 34.0402 9.39058 34.0255Z" fill="#0E2A36"/>
<path d="M40.6142 34.1056C39.8007 34.1056 38.9862 34.1124 38.1728 34.1037C37.4638 34.0968 36.9775 33.6574 36.9638 33.0324C36.9501 32.3898 37.4423 31.9259 38.1776 31.922C39.6103 31.9132 41.0419 31.921 42.4745 31.9181C44.0819 31.9152 44.998 31.1359 45.2441 29.5597C45.6942 26.6837 46.1405 23.8068 46.5898 20.9308C46.706 20.1876 47.2069 19.7511 47.83 19.8478C48.5019 19.9523 48.8183 20.4894 48.6942 21.2785C48.2226 24.2824 47.7812 27.2921 47.2831 30.2921C46.911 32.5333 45.0888 34.0558 42.8114 34.0988C42.079 34.1124 41.3466 34.1007 40.6142 34.1007C40.6142 34.1037 40.6142 34.1046 40.6142 34.1056Z" fill="#0E2A36"/>
<path d="M45.3515 12.4522C45.3495 14.4082 43.7675 15.9991 41.8192 16.0039C39.872 16.0088 38.2782 14.4209 38.2714 12.4688C38.2645 10.4893 39.8603 8.8848 41.828 8.89359C43.7763 8.9014 45.3534 10.4942 45.3515 12.4522Z" fill="#0E2A36"/>
<path d="M11.7402 12.4492C11.7402 14.4053 10.1611 15.9971 8.21185 16.0039C6.26458 16.0108 4.67181 14.4258 4.66106 12.4717C4.65032 10.4912 6.2431 8.88674 8.2138 8.89358C10.1611 8.90041 11.7402 10.4912 11.7402 12.4492Z" fill="#0E2A36"/>
<path d="M29.8828 20.3526C29.4609 21.1983 29.543 21.9317 30.0742 22.6436C29.1397 22.6436 28.2549 22.6993 27.3809 22.6241C26.8076 22.5743 26.0078 21.4649 26.0108 20.8809C26.0127 20.5537 26.2061 20.3594 26.5303 20.3565C27.6162 20.3467 28.7022 20.3526 29.8828 20.3526Z" fill="#0E2A36"/>
<path d="M19.8916 22.7423C20.4824 21.9737 20.541 21.2364 20.1436 20.4122C21.3096 20.4122 22.4238 20.4014 23.5381 20.419C23.8594 20.4239 24.124 20.6807 23.9941 20.9649C23.751 21.4991 23.4189 22.002 23.0615 22.4698C22.9365 22.6339 22.6289 22.7218 22.4004 22.7305C21.5967 22.7618 20.7891 22.7423 19.8916 22.7423Z" fill="#0E2A36"/>
<path d="M31.2207 18.2119C31.3809 17.7949 31.4766 17.415 31.665 17.0869C31.8633 16.7422 31.9648 16.4277 31.8652 16.0273C31.8242 15.8633 31.9434 15.6592 31.9902 15.4727C32.1504 15.5908 32.3623 15.6768 32.46 15.834C32.7383 16.2842 32.6924 16.7734 32.4814 17.2373C32.2148 17.8242 31.9883 18.4033 32.2256 19.0654C32.2588 19.1572 32.1602 19.373 32.0713 19.4111C31.9746 19.4521 31.7451 19.3906 31.7002 19.3066C31.5146 18.959 31.3789 18.5859 31.2207 18.2119Z" fill="#0E2A36"/>
<path d="M21.2207 18.2314C21.3623 17.8203 21.4453 17.4531 21.6123 17.1289C21.8057 16.752 21.9326 16.4014 21.7959 15.9707C21.7529 15.8359 21.8604 15.6523 21.8984 15.4912C22.0547 15.5771 22.2656 15.624 22.3564 15.7549C22.6816 16.2227 22.6523 16.7402 22.4268 17.2383C22.1611 17.8242 21.9316 18.4004 22.168 19.0615C22.2012 19.1553 22.1064 19.373 22.0195 19.4102C21.9316 19.4473 21.7139 19.3633 21.667 19.2734C21.4922 18.9365 21.3643 18.5762 21.2207 18.2314Z" fill="#0E2A36"/>
<path d="M17.418 18.2109C17.5596 17.7793 17.7021 17.4355 17.7813 17.0781C17.8623 16.7139 17.876 16.335 17.9316 15.9648C17.9561 15.8047 18.0117 15.6504 18.0537 15.4932C18.1992 15.5654 18.3955 15.6006 18.4814 15.7178C18.8174 16.1748 18.8223 16.6826 18.5977 17.1904C18.3262 17.8018 18.0469 18.4043 18.3379 19.0977C18.3691 19.1729 18.249 19.3125 18.1982 19.4219C18.0938 19.373 17.9365 19.3506 17.8945 19.2695C17.7139 18.918 17.5664 18.5498 17.418 18.2109Z" fill="#0E2A36"/>
<path d="M19.3721 18.2061C19.5088 17.7842 19.6455 17.4551 19.7197 17.1113C19.8018 16.7314 19.8184 16.3379 19.8789 15.9521C19.9043 15.793 19.9697 15.6416 20.0176 15.4863C20.1621 15.5645 20.3564 15.6074 20.4414 15.7275C20.7568 16.1709 20.7773 16.665 20.5605 17.1572C20.2832 17.7852 19.9932 18.4004 20.291 19.1123C20.3203 19.1826 20.2139 19.3662 20.126 19.4102C20.0664 19.4404 19.8789 19.3457 19.8369 19.2617C19.6602 18.9082 19.5156 18.5391 19.3721 18.2061Z" fill="#0E2A36"/>
<path d="M27.4727 18.2129C27.6143 17.7793 27.7559 17.4346 27.835 17.0771C27.915 16.7139 27.9258 16.335 27.9814 15.9648C28.0059 15.8047 28.0645 15.6494 28.1084 15.4922C28.2539 15.5654 28.4502 15.6006 28.5361 15.7178C28.8721 16.1758 28.874 16.6826 28.6494 17.1914C28.3789 17.8027 28.0957 18.4063 28.3926 19.0996C28.4238 19.1729 28.3018 19.3125 28.25 19.4219C28.1465 19.373 27.9902 19.3516 27.9482 19.2705C27.7676 18.9189 27.6211 18.5508 27.4727 18.2129Z" fill="#0E2A36"/>
<path d="M29.3809 18.2031C29.5186 17.7764 29.6543 17.4316 29.7373 17.0742C29.8184 16.7256 29.8398 16.3643 29.8965 16.0098C29.9248 15.833 29.9746 15.6592 30.0137 15.4844C30.1768 15.5908 30.3936 15.6621 30.4922 15.8105C30.7832 16.2529 30.75 16.7461 30.542 17.209C30.2705 17.8115 30.0313 18.4023 30.2773 19.0791C30.3086 19.165 30.2012 19.3008 30.1572 19.4131C30.0527 19.3672 29.8936 19.3506 29.8535 19.2715C29.6758 18.9199 29.5312 18.5518 29.3809 18.2031Z" fill="#0E2A36"/>
</svg>
