<svg width="36" height="25" viewBox="0 0 36 25" fill="none" xmlns="http://www.w3.org/2000/svg">
<path d="M8.2878 14.4476C9.0597 14.4476 9.77903 14.4461 10.4976 14.4476C11.2991 14.449 11.734 14.7846 11.8816 15.568C12.3518 18.0651 12.8119 20.5637 13.267 23.0637C13.3872 23.724 12.9667 24.3116 12.3086 24.4513C11.6684 24.5866 11.0535 24.1935 10.9239 23.5094C10.5977 21.7899 10.2982 20.0661 9.98784 18.3438C9.90288 17.8736 9.81863 17.4034 9.72575 16.8893C9.58534 16.8893 9.45789 16.8893 9.33044 16.8893C7.96234 16.8893 6.59496 16.8914 5.22686 16.8886C4.3736 16.8871 3.97613 16.5566 3.83932 15.7069C3.50882 13.6598 3.174 11.6127 2.87229 9.56059C2.65556 8.08592 3.69675 6.86904 5.19086 6.78191C5.85979 6.74303 6.46751 6.8748 7.02771 7.26578C7.64624 7.69854 8.29428 8.08808 8.92433 8.50571C9.44852 8.85278 10.0181 9.04647 10.6467 9.05151C11.3905 9.05799 12.1343 9.05079 12.8781 9.06159C13.5319 9.07167 13.9611 9.47706 13.9582 10.0617C13.956 10.5579 13.6176 11.0252 13.1251 11.0295C11.7887 11.0425 10.4336 11.2246 9.12882 10.766C8.75944 10.6363 8.40589 10.4621 8.0005 10.2893C8.09555 11.6747 8.1906 13.0413 8.2878 14.4476Z" fill="white"/>
<path d="M25.8514 16.841C25.5482 18.536 25.2595 20.1518 24.9707 21.7676C24.8757 22.2983 24.7799 22.8297 24.6842 23.3604C24.5474 24.1222 23.9756 24.5744 23.3017 24.4541C22.5953 24.3281 22.1834 23.7103 22.3188 22.9485C22.5319 21.7446 22.7587 20.5435 22.9805 19.341C23.2109 18.0917 23.4442 16.8432 23.671 15.5932C23.8194 14.7737 24.2118 14.4245 25.0377 14.4159C25.7686 14.4079 26.4987 14.4144 27.2785 14.4144C27.3779 13.024 27.4751 11.6566 27.5723 10.2907C27.514 10.2835 27.4852 10.2698 27.4693 10.2792C26.2784 10.9697 24.9758 11.0734 23.6408 11.0201C23.2577 11.005 22.8718 11.0295 22.4902 11.0014C21.9314 10.9611 21.5663 10.5434 21.5771 9.99691C21.5872 9.46047 21.9854 9.05148 22.542 9.03924C23.2016 9.02484 23.8619 9.0234 24.5214 9.03636C25.3524 9.05293 26.1055 8.82323 26.7982 8.37248C27.4513 7.94765 28.1001 7.51489 28.7597 7.09942C30.3668 6.08775 32.5471 7.09798 32.707 8.96508C32.7574 9.54904 32.6004 10.1546 32.5111 10.7458C32.2627 12.381 31.9956 14.0141 31.7428 15.6493C31.6211 16.4356 31.1927 16.8331 30.3848 16.8388C28.8842 16.8482 27.3858 16.841 25.8514 16.841Z" fill="white"/>
<path d="M16.9864 13.571C16.8093 13.571 16.6789 13.571 16.5493 13.571C14.5699 13.571 12.5898 13.5718 10.6103 13.5689C10.4555 13.5689 10.2964 13.5624 10.1481 13.5242C9.77004 13.4256 9.54035 13.1066 9.55115 12.7279C9.56051 12.3671 9.79668 12.064 10.1603 11.9768C10.3094 11.9408 10.4692 11.938 10.6233 11.938C15.3864 11.9358 20.1496 11.9365 24.9127 11.9372C25.056 11.9372 25.2029 11.9372 25.3412 11.9675C25.7624 12.0597 26.0187 12.419 25.9784 12.8387C25.9402 13.2384 25.6306 13.5365 25.2166 13.5682C25.1208 13.5754 25.0251 13.571 24.9286 13.571C22.9851 13.571 21.041 13.571 19.0976 13.571C18.9557 13.571 18.8132 13.571 18.6202 13.571C18.6202 13.7352 18.6202 13.8742 18.6202 14.0132C18.6202 17.1576 18.6202 20.3014 18.6202 23.4458C18.6202 23.5661 18.6267 23.6863 18.6152 23.8059C18.5712 24.2624 18.2083 24.6058 17.7871 24.595C17.3745 24.585 17.0361 24.253 16.9922 23.8095C16.9806 23.6906 16.9864 23.5697 16.9864 23.4494C16.9864 20.3172 16.9864 17.185 16.9857 14.0528C16.9864 13.9102 16.9864 13.7676 16.9864 13.571Z" fill="white"/>
<path d="M6.25296 19.3662C5.59339 19.3662 4.92878 19.4202 4.27569 19.3554C2.70238 19.2006 1.52654 18.0622 1.28028 16.5069C0.938975 14.3518 0.609191 12.1952 0.276527 10.0394C0.190121 9.47989 0.335572 9.14291 0.722959 8.97658C1.22844 8.75912 1.74903 9.05434 1.84192 9.63182C2.0673 11.0402 2.27971 12.4508 2.49717 13.8607C2.61958 14.6542 2.73406 15.4498 2.86583 16.2419C3.02136 17.178 3.7767 17.8001 4.77541 17.8102C5.86701 17.821 6.95933 17.8087 8.05092 17.8152C8.64713 17.8188 8.98915 18.1868 8.90275 18.7095C8.83506 19.1185 8.5024 19.3864 8.0178 19.3943C7.43024 19.4044 6.84196 19.3964 6.2544 19.3964C6.25296 19.3871 6.25296 19.377 6.25296 19.3662Z" fill="white"/>
<path d="M29.2753 19.4252C28.6755 19.4252 28.0749 19.4302 27.4751 19.4237C26.9524 19.4187 26.5938 19.0947 26.5837 18.6338C26.5736 18.16 26.9365 17.818 27.4787 17.8151C28.535 17.8086 29.5906 17.8144 30.647 17.8122C31.8322 17.8101 32.5076 17.2355 32.689 16.0733C33.021 13.9528 33.35 11.8315 33.6812 9.71095C33.7669 9.16299 34.1363 8.84112 34.5957 8.91241C35.0911 8.98946 35.3244 9.38548 35.233 9.96729C34.8852 12.1822 34.5597 14.4014 34.1925 16.6134C33.9181 18.2659 32.5745 19.3884 30.8954 19.4201C30.3553 19.4302 29.8153 19.4216 29.2753 19.4216C29.2753 19.4237 29.2753 19.4244 29.2753 19.4252Z" fill="white"/>
<path d="M32.7682 3.45934C32.7668 4.90161 31.6003 6.07457 30.1638 6.07817C28.728 6.08177 27.5529 4.91097 27.5479 3.47158C27.5428 2.01204 28.7194 0.828995 30.1703 0.835476C31.6068 0.841236 32.7697 2.01564 32.7682 3.45934Z" fill="white"/>
<path d="M7.98581 3.45717C7.98581 4.89944 6.82148 6.07312 5.38426 6.07816C3.94848 6.0832 2.77407 4.91456 2.76615 3.47373C2.75823 2.01347 3.93264 0.830425 5.3857 0.835465C6.82148 0.840506 7.98581 2.01347 7.98581 3.45717Z" fill="white"/>
<path d="M21.3626 9.28449C21.0515 9.90805 21.112 10.4488 21.5037 10.9737C20.8146 10.9737 20.1623 11.0148 19.5178 10.9593C19.0951 10.9226 18.5054 10.1046 18.5076 9.67404C18.509 9.43282 18.6516 9.28953 18.8906 9.28737C19.6913 9.28017 20.492 9.28449 21.3626 9.28449Z" fill="white"/>
<path d="M13.9958 11.0464C14.4315 10.4797 14.4747 9.93605 14.1816 9.32832C15.0414 9.32832 15.8629 9.3204 16.6845 9.33336C16.9214 9.33696 17.1166 9.52634 17.0208 9.73587C16.8415 10.1297 16.5967 10.5006 16.3331 10.8455C16.241 10.9664 16.0142 11.0312 15.8457 11.0377C15.2531 11.0608 14.6576 11.0464 13.9958 11.0464Z" fill="white"/>
<path d="M22.3491 7.70602C22.4672 7.39856 22.5378 7.11846 22.6767 6.87652C22.8229 6.62235 22.8978 6.39049 22.8244 6.09527C22.7941 5.9743 22.882 5.82381 22.9165 5.68628C23.0346 5.77341 23.1909 5.83677 23.2629 5.9527C23.4681 6.28464 23.4342 6.64539 23.2787 6.98741C23.0821 7.42016 22.9151 7.84715 23.0901 8.33535C23.1145 8.40303 23.0418 8.56217 22.9763 8.59025C22.905 8.62049 22.7358 8.57513 22.7027 8.5132C22.5659 8.25686 22.4658 7.9818 22.3491 7.70602Z" fill="white"/>
<path d="M14.9758 7.72066C15.0802 7.41752 15.1414 7.14678 15.2646 6.90772C15.4071 6.62978 15.5007 6.37128 15.3999 6.05374C15.3683 5.95437 15.4475 5.819 15.4755 5.7002C15.5908 5.76356 15.7463 5.79812 15.8132 5.89461C16.053 6.23951 16.0314 6.62114 15.8651 6.98837C15.6692 7.4204 15.5 7.84523 15.6743 8.3327C15.6988 8.40183 15.6289 8.5624 15.5648 8.58976C15.5 8.61712 15.3395 8.5552 15.3049 8.48895C15.176 8.24054 15.0817 7.97484 14.9758 7.72066Z" fill="white"/>
<path d="M12.1716 7.70532C12.276 7.38706 12.3812 7.1336 12.4395 6.87006C12.4993 6.60148 12.5093 6.3221 12.5504 6.0492C12.5684 5.93111 12.6094 5.81734 12.6404 5.70142C12.7477 5.7547 12.8924 5.78062 12.9558 5.86703C13.2035 6.20401 13.2071 6.57844 13.0415 6.95287C12.8413 7.40362 12.6353 7.84789 12.8499 8.35913C12.873 8.41457 12.7844 8.51754 12.747 8.59818C12.6699 8.56218 12.554 8.54562 12.523 8.48586C12.3898 8.22664 12.2811 7.95518 12.1716 7.70532Z" fill="white"/>
<path d="M13.6123 7.70163C13.7131 7.39057 13.8139 7.14791 13.8686 6.89445C13.9291 6.61435 13.9414 6.32417 13.986 6.03975C14.0047 5.92239 14.053 5.81078 14.0883 5.69629C14.1948 5.75389 14.3381 5.78558 14.4008 5.87414C14.6333 6.20105 14.6485 6.56539 14.4886 6.9283C14.2841 7.39129 14.0703 7.84492 14.2899 8.36984C14.3115 8.42168 14.233 8.55705 14.1682 8.58946C14.1243 8.61178 13.986 8.54193 13.955 8.48001C13.8247 8.21935 13.7182 7.94717 13.6123 7.70163Z" fill="white"/>
<path d="M19.5854 7.70699C19.6899 7.38729 19.7943 7.13311 19.8526 6.86957C19.9116 6.60171 19.9196 6.32233 19.9606 6.04943C19.9786 5.93134 20.0218 5.81686 20.0542 5.70093C20.1615 5.75493 20.3062 5.78085 20.3696 5.86726C20.6173 6.20496 20.6187 6.57867 20.4531 6.95382C20.2537 7.40457 20.0448 7.84956 20.2637 8.3608C20.2868 8.4148 20.1968 8.51777 20.1586 8.59842C20.0823 8.56241 19.9671 8.54657 19.9361 8.48681C19.8029 8.22759 19.6949 7.95613 19.5854 7.70699Z" fill="white"/>
<path d="M20.9927 7.69994C21.0942 7.38527 21.1943 7.1311 21.2555 6.86756C21.3153 6.6105 21.3311 6.34408 21.3729 6.0827C21.3937 5.95237 21.4305 5.8242 21.4593 5.69531C21.5795 5.7738 21.7394 5.82636 21.8121 5.93581C22.0267 6.26199 22.0022 6.62562 21.8488 6.96692C21.6486 7.4112 21.4722 7.84683 21.6537 8.34582C21.6767 8.40919 21.5975 8.50927 21.5651 8.59208C21.4881 8.55824 21.3707 8.546 21.3412 8.48767C21.2101 8.22845 21.1036 7.95699 20.9927 7.69994Z" fill="white"/>
</svg>
