<svg width="30" height="31" viewBox="0 0 30 31" fill="none" xmlns="http://www.w3.org/2000/svg">
<path d="M0 11.2576C0.23483 10.7513 0.638444 10.6045 1.18149 10.6045C8.65202 10.6192 16.1226 10.6118 23.5931 10.6118C24.4443 10.6118 24.7526 10.9347 24.7159 11.7933C24.7085 11.9768 24.7012 12.1602 24.6939 12.3731C25.5378 12.3731 26.3523 12.3657 27.1742 12.3804C27.4825 12.3877 27.8054 12.4097 28.0989 12.4978C29.2437 12.828 30.0216 13.8187 29.9995 15.0149C29.9482 17.8402 28.73 20.0637 26.3817 21.6415C24.958 22.5955 23.3583 22.9698 21.6557 22.9184C21.4356 22.9111 21.3035 22.9771 21.1787 23.1606C20.8412 23.6376 20.4816 24.0999 20.1073 24.5475C20.0266 24.6503 19.8505 24.731 19.7184 24.731C14.8163 24.7383 9.91423 24.7383 5.01216 24.731C4.88006 24.731 4.71862 24.6429 4.62322 24.5475C2.54644 22.2726 1.27689 19.5721 0.609091 16.5927C0.337568 15.3818 0.23483 14.1269 0.0587075 12.8941C0.0440306 12.7987 0.0220153 12.7033 0.00733844 12.6079C0 12.1602 0 11.7053 0 11.2576ZM22.4483 21.1058C22.5437 21.1058 22.5877 21.1058 22.6244 21.1058C25.6919 20.8563 28.231 18.2805 28.2383 15.0149C28.2383 14.5159 27.8641 14.149 27.365 14.1343C26.9394 14.1196 26.5064 14.1343 26.0735 14.1343C25.5671 14.1343 25.0608 14.1343 24.5471 14.1343C24.2535 16.578 23.5857 18.8896 22.4483 21.1058Z" fill="white"/>
<path d="M5.91469 30.0068C5.29093 29.8527 4.65982 29.7353 4.05073 29.5372C3.14076 29.2436 2.34821 28.7153 1.65106 28.0621C1.34284 27.7686 1.24744 27.409 1.39421 27.0494C1.54832 26.6678 1.84186 26.5064 2.23813 26.4844C2.31886 26.4844 2.39224 26.4844 2.47296 26.4844C9.06288 26.4844 15.6528 26.4844 22.2501 26.4844C22.3308 26.4844 22.4042 26.4844 22.4849 26.4844C22.8812 26.4991 23.1747 26.6678 23.3288 27.0494C23.4682 27.4017 23.3802 27.7686 23.072 28.0621C22.3748 28.7153 21.5823 29.2436 20.6723 29.5372C20.0632 29.7353 19.4321 29.8527 18.8083 30.0068C14.508 30.0068 10.215 30.0068 5.91469 30.0068Z" fill="white"/>
<path d="M6.95677 0C7.4411 0.0293538 7.70529 0.176123 7.86673 0.491676C8.03552 0.829244 7.99883 1.15947 7.75666 1.44567C7.4778 1.7759 7.27232 2.12081 7.2503 2.56845C7.22829 3.09682 7.44844 3.50777 7.79335 3.88204C8.44647 4.58653 8.73267 5.41577 8.6813 6.36977C8.63727 7.18433 8.32172 7.88149 7.77133 8.46856C7.40441 8.8575 6.89072 8.90153 6.51646 8.5713C6.1422 8.24107 6.09817 7.72738 6.45041 7.31643C6.88338 6.81741 7.0595 6.26703 6.83935 5.64326C6.73661 5.35706 6.53114 5.10022 6.333 4.87273C5.1882 3.55914 5.20288 1.59978 6.40638 0.344907C6.57517 0.176123 6.83201 0.0807229 6.95677 0Z" fill="white"/>
<path d="M12.1964 6.16475C12.2111 5.68041 11.9836 5.29147 11.668 4.94657C11.0003 4.2274 10.7067 3.37614 10.7728 2.40013C10.8241 1.60758 11.1323 0.93244 11.668 0.352703C12.035 -0.0435729 12.5413 -0.094942 12.9229 0.227949C13.3119 0.558179 13.3706 1.08655 12.989 1.4975C12.4239 2.10659 12.4092 2.95051 12.7615 3.49356C12.8642 3.655 12.9963 3.80177 13.1284 3.94854C14.2732 5.25478 14.2365 7.22148 13.0477 8.47636C12.6808 8.86529 12.1671 8.90933 11.7928 8.58643C11.4185 8.2562 11.3745 7.74985 11.7268 7.33156C12.0056 6.98665 12.2111 6.61973 12.1964 6.16475Z" fill="white"/>
<path d="M18.5591 0.917451C18.4711 1.10091 18.4124 1.29905 18.295 1.45316C17.5905 2.38514 17.6125 3.0456 18.3904 3.92621C19.5425 5.23245 19.5205 7.15513 18.3537 8.43201C17.9647 8.85764 17.4437 8.90901 17.0621 8.57144C16.6805 8.23388 16.6658 7.73486 17.0254 7.29456C17.6859 6.47999 17.6492 5.73881 16.9227 4.90956C15.7338 3.56663 15.7559 1.57057 16.9814 0.315699C17.2676 0.0221611 17.6198 -0.0659002 17.9647 0.0735302C18.2876 0.205622 18.5151 0.535852 18.5591 0.917451Z" fill="white"/>
</svg>
