<svg width="38" height="38" viewBox="0 0 38 38" fill="none" xmlns="http://www.w3.org/2000/svg">
<path d="M12.0702 34.4084C11.4206 34.0001 11.3835 33.499 12.0145 33.0165C13.0167 32.2556 14.0189 31.5132 15.0211 30.7337C15.4665 30.3811 15.8934 30.0099 16.2646 29.5831C16.9512 28.8036 17.0997 27.8385 16.9698 26.8363C16.8956 26.3538 16.6357 25.964 16.3017 25.63C16.1161 25.4629 15.9305 25.2959 15.7449 25.1103C15.9676 24.869 16.2089 24.6463 16.413 24.3865C17.6936 22.8275 18.0462 21.0459 17.6936 19.0786C17.4895 17.9465 17.1368 16.8515 16.6543 15.8122C16.6172 15.738 16.5986 15.6637 16.5429 15.5338C17.2111 15.4039 17.8606 15.2369 18.5102 15.1441C19.1412 15.0513 19.7722 14.9956 20.4032 14.9585C20.496 14.9585 20.6445 15.0142 20.7002 15.0884C21.3869 15.9792 22.2591 16.6474 23.317 17.0557C23.3356 17.0742 23.3541 17.0928 23.3913 17.1114C23.1314 17.2969 22.8902 17.464 22.6489 17.6681C21.9065 18.3177 21.8137 19.0229 22.5004 19.7467C22.9644 20.2293 23.5397 20.6376 24.1151 21.0088C25.1172 21.6769 26.2122 22.2522 27.1773 22.976C29.293 24.535 30.5922 26.6136 31.0005 29.2304C31.2417 30.8265 31.019 32.3669 30.3509 33.8331C30.2396 34.0558 29.9612 34.2043 29.7756 34.3899C23.8738 34.4084 17.972 34.4084 12.0702 34.4084ZM28.5321 27.8942C28.5136 27.8385 28.495 27.7457 28.4764 27.6529C28.1795 26.7806 27.7341 26.0012 27.1587 25.2959C26.1937 24.1267 24.9502 23.3101 23.6325 22.5677C22.7602 22.0666 21.8694 21.5841 21.127 20.8974C20.8672 20.6561 20.496 20.6933 20.2733 20.9345C20.0506 21.1758 20.0692 21.547 20.3104 21.7882C20.5146 21.9738 20.7187 22.178 20.9415 22.3265C21.888 22.9203 22.853 23.5142 23.8181 24.1081C24.9317 24.7948 25.971 25.5929 26.6762 26.725C26.936 27.1704 27.1402 27.6529 27.3443 28.1169C27.4928 28.4324 27.7526 28.5809 28.0496 28.5252C28.328 28.5066 28.5321 28.2468 28.5321 27.8942ZM19.6609 27.3931C19.6794 27.1147 19.4567 26.8363 19.1041 26.7992C18.7329 26.7621 18.4545 26.9662 18.4174 27.3745C18.3061 28.5437 17.8978 29.5645 17.0997 30.4368C16.8399 30.7152 16.877 31.0863 17.1368 31.3091C17.3967 31.5318 17.7678 31.5132 18.0091 31.2348C19.0113 30.1955 19.531 28.9149 19.6609 27.3931Z" fill="white"/>
<path d="M24.8945 16.2577C23.9109 16.1092 23.0572 15.7381 22.3333 15.1071C21.0713 13.975 20.5146 12.5459 20.7187 10.8385C20.9785 8.70417 21.758 6.77403 23.1499 5.12227C23.4469 4.76965 23.8366 4.45414 24.2264 4.19431C25.043 3.67466 25.8967 3.67466 26.7318 4.1572C27.3072 4.49126 27.7712 4.95524 28.1609 5.49345C29.4044 7.20089 30.1653 9.11247 30.3138 11.2282C30.4622 13.1398 29.293 15.0514 27.5299 15.8309C27.4742 15.8494 27.4185 15.868 27.3072 15.9051C27.3072 15.3669 27.3072 14.8472 27.3072 14.3461C27.3072 14.2719 27.4 14.1791 27.4742 14.1049C27.9568 13.6038 28.4393 13.1027 28.9404 12.6016C29.2559 12.2675 29.293 11.9149 29.0146 11.6551C28.7362 11.3952 28.3836 11.4324 28.0681 11.7479C27.8454 11.9706 27.6412 12.1933 27.4185 12.416C27.4 12.4345 27.3814 12.4345 27.3257 12.4717C27.3257 12.3789 27.3072 12.2861 27.3072 12.2118C27.3072 11.5623 27.3072 10.8941 27.3072 10.2446C27.3072 9.74348 27.0845 9.46509 26.6947 9.46509C26.305 9.46509 26.1008 9.74348 26.1008 10.226C26.1008 13.1955 26.1008 16.1649 26.1008 19.1344C26.1008 19.1901 26.1008 19.2457 26.1008 19.32C26.1008 19.8211 25.8781 20.0995 25.4884 20.0995C25.0986 20.0995 24.8759 19.8211 24.8759 19.32C24.8945 18.2992 24.8945 17.2785 24.8945 16.2577Z" fill="white"/>
<path d="M12.3672 25.3333C12.3672 26.1313 12.3672 26.9294 12.3672 27.7274C12.3672 28.0058 12.3672 28.2842 12.3672 28.5626C12.3486 28.9152 12.0888 29.1564 11.7547 29.1564C11.4206 29.1564 11.1794 28.9337 11.1608 28.5811C11.1608 28.4698 11.1608 28.3584 11.1608 28.247C11.1608 25.3147 11.1608 22.3824 11.1608 19.45C11.1608 19.3572 11.1608 19.2459 11.1608 19.1531C11.1423 18.7448 10.8824 18.485 10.5298 18.5035C10.1957 18.5221 9.93592 18.7819 9.93592 19.1717C9.93592 19.8583 9.93592 20.5265 9.93592 21.2132C9.93592 21.3059 9.93592 21.3987 9.88024 21.5472C9.62042 21.2688 9.36059 20.9904 9.0822 20.7306C8.85949 20.5079 8.56255 20.5079 8.32128 20.6749C8.09857 20.8234 7.98722 21.1389 8.11713 21.3987C8.17281 21.5101 8.2656 21.6215 8.33984 21.7142C8.82237 22.2153 9.30491 22.6979 9.76889 23.199C9.86168 23.3103 9.93592 23.4774 9.93592 23.6073C9.95448 24.0527 9.93592 24.5167 9.93592 25.0178C9.21212 24.7208 8.61822 24.3125 8.13569 23.7557C7.1335 22.6051 6.78088 21.2688 6.98503 19.7841C7.30053 17.7055 8.04289 15.8125 9.41627 14.2164C9.75033 13.8081 10.1957 13.474 10.6597 13.2142C11.4206 12.7502 12.2372 12.7873 12.9796 13.2699C13.425 13.5668 13.8704 13.9194 14.2045 14.3463C15.5964 16.0908 16.413 18.0767 16.5615 20.3038C16.7285 22.7721 15.0768 24.8322 12.6641 25.3147C12.5713 25.2962 12.4785 25.3147 12.3672 25.3333Z" fill="white"/>
</svg>
