<svg width="37" height="27" viewBox="0 0 37 27" fill="none" xmlns="http://www.w3.org/2000/svg">
<path d="M30.0439 20.8019C30.278 17.8924 28.2715 15.752 25.2282 15.6851C22.419 15.6183 19.5764 15.6851 16.7672 15.6183C15.7974 15.5848 14.5935 15.6183 14.3928 13.9796C15.1285 13.9796 15.764 13.9461 16.4328 13.9796C18.4394 14.1468 20.2787 13.6117 21.9174 12.4412C22.0846 12.3074 22.2853 12.2071 22.4525 12.0733C24.6262 10.5684 26.8335 9.89957 29.3751 11.3376C30.579 12.0065 31.9502 12.3074 33.2544 12.7756C34.2577 13.1435 35.1941 13.5783 34.7259 14.8825C34.2577 16.1533 33.221 15.7186 32.318 15.5179C31.482 15.3507 30.6125 15.1166 29.7764 14.916C30.5121 16.6215 31.1141 18.2602 31.8833 19.832C32.0505 20.1999 32.7193 20.5009 33.1875 20.5343C34.3915 20.6346 35.5954 20.5678 36.9331 20.5678C36.9666 21.1363 37 21.6045 37 22.2064C35.7292 22.2064 34.5921 22.2399 33.4551 22.2064C32.2846 22.173 31.5154 22.5409 31.0138 23.7114C30.1443 25.7179 29.5423 25.952 27.4689 25.3166C25.7967 24.815 24.1915 24.9153 22.6531 25.7514C21.4158 26.4202 20.2453 26.4202 19.0079 25.7514C17.1017 24.7146 15.1954 24.7146 13.2892 25.7179C12.0853 26.3868 10.8813 26.4537 9.64397 25.7514C7.80462 24.7481 5.8984 24.6812 4.05905 25.5841C3.02233 26.0858 2.42037 25.7514 1.75152 25.0156C-0.890448 22.2064 -0.489137 17.6583 2.58758 15.3507C3.05578 14.9828 3.59086 14.6484 4.12594 14.2806C3.99217 13.8124 3.89184 13.411 3.75807 13.0097C3.12266 10.8694 4.05905 8.86285 5.99872 8.09367C7.97184 7.32449 10.0787 8.32777 10.9817 10.4681C11.4833 11.7055 12.0184 12.9094 12.4197 14.1802C12.821 15.4845 13.6236 16.2202 14.9279 16.5212C15.8977 16.7219 16.901 16.956 17.7705 17.4242C18.2053 17.6583 18.4059 18.394 18.7069 18.8956C18.2387 19.1632 17.7036 19.6982 17.3023 19.6314C15.1286 19.2635 12.9548 18.8287 10.8145 18.2268C10.2794 18.093 9.74429 17.4242 9.51019 16.8891C9.07544 15.7186 8.3397 15.5179 7.16921 15.6183C3.95873 15.9861 2.18627 17.2235 1.71807 19.531C1.51742 20.5009 1.68463 21.0025 2.82168 21.0025C11.7508 20.9691 20.6466 20.9356 29.5757 20.9022C29.743 20.9691 29.8433 20.9022 30.0439 20.8019Z" fill="#0E2A36"/>
<path d="M10.7138 3.51198C10.7138 5.38476 9.07515 6.99 7.16892 7.02345C5.2627 7.05689 3.69089 5.4182 3.62401 3.3782C3.59057 1.60575 5.32958 -0.0329394 7.23581 0.000503188C9.17548 0.0339458 10.7473 1.63919 10.7138 3.51198Z" fill="#0E2A36"/>
</svg>
