<svg width="32" height="24" viewBox="0 0 32 24" fill="none" xmlns="http://www.w3.org/2000/svg">
<path d="M25.9839 18.4336C26.1864 15.9172 24.451 14.0661 21.819 14.0083C19.3894 13.9504 16.931 14.0083 14.5014 13.9504C13.6626 13.9215 12.6214 13.9504 12.4478 12.5332C13.0842 12.5332 13.6337 12.5043 14.2122 12.5332C15.9476 12.6778 17.5383 12.215 18.9556 11.2027C19.1002 11.087 19.2737 11.0003 19.4184 10.8846C21.2984 9.58303 23.2073 9.00456 25.4055 10.2483C26.4467 10.8267 27.6326 11.087 28.7606 11.492C29.6283 11.8101 30.4381 12.1861 30.0332 13.3141C29.6283 14.4132 28.7317 14.0372 27.9507 13.8637C27.2277 13.7191 26.4756 13.5166 25.7526 13.3431C26.3889 14.8181 26.9095 16.2354 27.5747 17.5948C27.7193 17.9129 28.2978 18.1733 28.7027 18.2022C29.744 18.2889 30.7852 18.2311 31.9422 18.2311C31.9711 18.7228 32 19.1277 32 19.6483C30.9009 19.6483 29.9175 19.6773 28.9341 19.6483C27.9218 19.6194 27.2566 19.9376 26.8227 20.9499C26.0707 22.6853 25.5501 22.8878 23.7569 22.3382C22.3107 21.9044 20.9224 21.9911 19.5919 22.7142C18.5217 23.2927 17.5094 23.2927 16.4393 22.7142C14.7906 21.8176 13.142 21.8176 11.4934 22.6853C10.4521 23.2638 9.41089 23.3216 8.34073 22.7142C6.74994 21.8465 5.10132 21.7887 3.51053 22.5696C2.61391 23.0034 2.09329 22.7142 1.51482 22.0779C-0.770118 19.6483 -0.423038 15.7148 2.23791 13.7191C2.64283 13.4009 3.10561 13.1117 3.56838 12.7935C3.45269 12.3886 3.36592 12.0415 3.25022 11.6944C2.70068 9.84334 3.51053 8.10794 5.18809 7.4427C6.89456 6.77746 8.71673 7.64516 9.49766 9.49626C9.93151 10.5664 10.3943 11.6077 10.7414 12.7067C11.0884 13.8348 11.7826 14.4711 12.9106 14.7314C13.7494 14.9049 14.6171 15.1074 15.3691 15.5123C15.7451 15.7148 15.9186 16.3511 16.1789 16.7849C15.774 17.0163 15.3112 17.4791 14.9642 17.4212C13.0842 17.1031 11.2041 16.7271 9.35304 16.2065C8.89027 16.0908 8.4275 15.5123 8.22503 15.0495C7.84903 14.0372 7.21272 13.8637 6.2004 13.9504C3.42376 14.2686 1.89083 15.3388 1.4859 17.3345C1.31236 18.1733 1.45698 18.6071 2.44037 18.6071C10.1629 18.5782 17.8565 18.5493 25.579 18.5203C25.7236 18.5782 25.8104 18.5203 25.9839 18.4336Z" fill="white"/>
<path d="M9.26594 3.48025C9.26594 5.09996 7.8487 6.48828 6.20007 6.5172C4.55144 6.54613 3.19205 5.12888 3.1342 3.36456C3.10528 1.83163 4.60929 0.414383 6.25792 0.443306C7.93547 0.47223 9.29487 1.86055 9.26594 3.48025Z" fill="white"/>
</svg>
