<svg width="32" height="35" viewBox="0 0 32 35" fill="none" xmlns="http://www.w3.org/2000/svg">
<path d="M19.043 9.92896C19.6254 11.0645 20.2369 12.2001 20.8192 13.3357C21.3433 14.3548 21.2851 15.2574 20.3824 16.0727C19.8001 16.5968 19.2469 17.1501 18.8101 17.7615C18.4316 18.2565 18.2278 18.8971 17.791 19.7124C15.0831 20.5859 14.9084 20.4986 14.3843 17.7033C13.9475 17.9362 13.5399 18.1401 13.0157 18.4312C13.336 19.1301 13.6272 19.7706 13.9184 20.4403C13.7146 20.5568 13.5399 20.6442 13.3652 20.7024C11.0066 21.4594 9.84195 20.848 9.46342 18.3439C9.37607 17.7615 9.98754 16.8298 10.5408 16.4221C12.1131 15.3157 13.8019 14.3839 15.6363 13.2775C14.9375 12.2292 14.3551 11.181 13.569 10.3075C13.336 10.0454 12.5207 10.0745 12.0549 10.2201C10.1331 10.8607 8.26961 11.6178 6.37698 12.3457C5.53258 12.666 4.62994 12.7825 4.25141 11.8507C3.87289 10.9481 4.54259 10.3948 5.38699 10.0163C8.00755 8.8225 10.6281 7.59957 13.2487 6.34752C14.821 5.59047 16.3934 5.50312 17.9948 6.1437C18.4025 6.28929 18.8101 6.49311 19.2177 6.55134C22.3624 6.92987 23.5562 9.28838 24.488 11.8216C24.6336 12.2292 24.4006 12.9572 24.0803 13.2483C23.9056 13.423 23.0321 13.2192 22.7409 12.8989C22.1586 12.2875 21.8383 11.3848 21.256 10.7734C20.7318 10.2201 19.9748 9.89984 19.3342 9.46308C19.2469 9.6669 19.1595 9.81249 19.043 9.92896Z" fill="white"/>
<path d="M0 28.2437C0.320291 28.2728 0.640583 28.2728 0.931756 28.3893C4.13467 29.6122 7.3667 29.4084 10.5987 28.4767C14.0637 27.4575 17.4704 26.2637 20.9936 25.4193C24.8954 24.4585 28.2147 25.7396 30.9227 28.6805C31.2429 29.0299 31.4759 29.4958 32 30.2819C30.4277 29.8452 29.2921 29.4958 28.1565 29.2337C24.8371 28.564 21.6633 29.1755 18.4895 30.2237C15.7525 31.1263 13.0446 32.291 10.2202 32.6987C6.40582 33.281 3.02821 31.8543 0.320291 29.0299C0.232939 28.9134 0.145587 28.7969 0.0873519 28.6805C-2.25619e-07 28.5349 0.0291174 28.4475 0 28.2437Z" fill="white"/>
<path d="M26.7297 23.9343C27.1082 23.5558 27.4576 23.1772 27.9526 22.6531C23.6724 21.372 19.596 22.0125 15.5195 22.9152C11.5013 23.8178 7.68694 25.2155 4.30933 27.7487C4.33844 26.1472 5.32843 25.5066 6.31843 24.9534C10.5404 22.5658 15.1119 21.3428 19.8871 20.7896C22.6824 20.4693 25.4485 20.3529 28.1565 21.3137C28.8844 21.5758 29.9035 21.6923 29.4667 22.9152C29.0009 24.1963 28.04 24.5749 26.7297 23.9343Z" fill="white"/>
<path d="M11.5886 0C13.19 0.0291174 14.5294 1.36852 14.5003 2.94086C14.4712 4.60055 13.2191 5.85259 11.5594 5.85259C9.95799 5.85259 8.64771 4.54231 8.64771 2.91174C8.67682 1.31028 9.9871 0 11.5886 0Z" fill="white"/>
<path d="M14.0635 33.8926C18.0526 32.0582 22.0999 30.5441 26.584 31.0099C22.7987 33.5723 18.5767 34.3584 14.0635 33.8926Z" fill="white"/>
</svg>
