<svg width="39" height="42" viewBox="0 0 39 42" fill="none" xmlns="http://www.w3.org/2000/svg">
<path d="M23.2087 12.1011C23.9184 13.4851 24.6636 14.869 25.3734 16.253C26.0121 17.4951 25.9411 18.5952 24.8411 19.5888C24.1313 20.2275 23.4571 20.9018 22.9248 21.647C22.4634 22.2503 22.215 23.031 21.6827 24.0246C18.3825 25.0892 18.1695 24.9828 17.5308 21.576C16.9985 21.8599 16.5017 22.1084 15.8629 22.4632C16.2532 23.3149 16.6081 24.0956 16.963 24.9118C16.7146 25.0538 16.5017 25.1602 16.2887 25.2312C13.4143 26.1538 11.9948 25.4086 11.5335 22.3568C11.427 21.647 12.1723 20.5114 12.8465 20.0146C14.7628 18.6661 16.821 17.5306 19.0567 16.1821C18.205 14.9045 17.4953 13.627 16.5371 12.5624C16.2532 12.243 15.2596 12.2785 14.6918 12.4559C12.3497 13.2367 10.0785 14.1593 7.7719 15.0465C6.74278 15.4368 5.64269 15.5788 5.18136 14.4432C4.72003 13.3431 5.53623 12.6689 6.56535 12.2075C9.75916 10.7526 12.953 9.26213 16.1468 7.7362C18.0631 6.81354 19.9794 6.70708 21.9311 7.48779C22.428 7.66522 22.9248 7.91363 23.4216 7.9846C27.2542 8.44593 28.7091 11.3204 29.8447 14.4077C30.0221 14.9045 29.7382 15.7917 29.3479 16.1466C29.135 16.3595 28.0704 16.1111 27.7155 15.7207C27.0057 14.9755 26.6154 13.8754 25.9057 13.1302C25.2669 12.4559 24.3442 12.0656 23.5635 11.5333C23.4571 11.7817 23.3506 11.9591 23.2087 12.1011Z" fill="#0E2A36"/>
<path d="M0 34.4221C0.390355 34.4576 0.78071 34.4576 1.13558 34.5996C5.03913 36.09 8.97816 35.8416 12.9172 34.706C17.1401 33.464 21.2921 32.009 25.586 30.9799C30.3412 29.8088 34.3867 31.3703 37.687 34.9544C38.0773 35.3803 38.3612 35.948 39 36.9062C37.0837 36.3739 35.6997 35.948 34.3157 35.6287C30.2702 34.8125 26.4022 35.5577 22.5341 36.8352C19.1984 37.9353 15.8981 39.3548 12.4559 39.8516C7.8071 40.5613 3.69063 38.8225 0.390355 35.3803C0.283895 35.2383 0.177434 35.0964 0.10646 34.9544C-2.74973e-07 34.777 0.0354868 34.6705 0 34.4221Z" fill="#0E2A36"/>
<path d="M32.5768 29.17C33.0381 28.7087 33.464 28.2474 34.0672 27.6086C28.8507 26.0472 23.8825 26.8279 18.9144 27.928C14.0172 29.0281 9.36842 30.7315 5.25195 33.8188C5.28744 31.867 6.49399 31.0863 7.70054 30.4121C12.8461 27.5022 18.4176 26.0117 24.2374 25.3375C27.6441 24.9471 31.0154 24.8052 34.3156 25.9762C35.2028 26.2956 36.4449 26.4376 35.9126 27.928C35.3448 29.4894 34.1737 29.9507 32.5768 29.17Z" fill="#0E2A36"/>
<path d="M14.1237 0C16.0755 0.0354868 17.7079 1.66788 17.6724 3.58417C17.6369 5.60692 16.111 7.13285 14.0882 7.13285C12.1365 7.13285 10.5396 5.53594 10.5396 3.54868C10.575 1.59691 12.1719 0 14.1237 0Z" fill="#0E2A36"/>
<path d="M17.1399 41.3064C22.0016 39.0707 26.9343 37.2254 32.3992 37.7932C27.7859 40.9161 22.6403 41.8742 17.1399 41.3064Z" fill="#0E2A36"/>
</svg>
