<svg width="38" height="36" viewBox="0 0 38 36" fill="none" xmlns="http://www.w3.org/2000/svg">
<path d="M10.9492 26.4139C11.3509 23.4681 11.5183 20.8905 12.1208 18.3799C12.6564 16.1036 11.3174 14.5638 10.4806 12.8231C10.3801 12.6222 9.61023 12.5888 9.20853 12.7227C6.96572 13.3922 4.75638 14.1621 2.54704 14.8985C1.57626 15.2333 0.605494 15.4006 0.136846 14.2625C-0.331801 13.0239 0.471595 12.4549 1.50932 12.0532C4.8568 10.7142 8.20428 9.3417 11.5852 8.00271C13.2255 7.33321 14.8323 7.40016 16.4056 8.23703C17.5438 8.83958 18.6819 9.44212 19.7866 10.0447C21.8285 11.1828 22.8328 11.3502 25.5443 11.0824C25.3434 10.212 25.0756 9.37517 24.9752 8.50483C24.9082 8.1366 25.0421 7.56753 25.3099 7.36668C25.5108 7.19931 26.1133 7.43363 26.4481 7.63448C28.3227 8.73915 30.0634 10.0112 32.0049 10.9485C32.8752 11.3502 34.0469 11.0824 35.1181 11.1493C35.5867 11.1828 36.0219 11.2163 36.4905 11.2498C36.4905 11.3837 36.524 11.551 36.524 11.6849C36.1893 11.8188 35.888 12.0532 35.5532 12.0532C32.0719 12.0197 30.4985 14.5973 28.7244 16.9405C28.5235 17.2083 28.1553 17.5765 27.8875 17.543C27.5862 17.5096 27.1176 17.1079 27.0841 16.8401C27.0171 13.6934 24.7409 14.1956 22.7324 14.0951C21.0921 14.0282 19.4518 13.66 17.7111 13.4256C19.4184 17.1413 21.1591 20.857 22.7993 24.4054C25.4104 24.4054 28.1888 24.4389 30.9672 24.4054C33.846 24.3719 35.821 25.7444 36.7583 28.4893C37.5617 30.8326 36.7918 32.1381 34.3816 32.5732C30.4316 33.2427 26.4816 33.9792 22.498 34.4813C17.5772 35.0839 12.623 35.4856 7.70216 35.9542C4.08688 36.3224 2.54704 34.4478 1.20804 30.933C0.638969 29.4601 1.74364 28.6567 3.08263 28.3219C5.5263 27.7194 7.96996 27.1838 10.4136 26.6147C10.7149 26.4808 11.0162 26.3804 10.9492 26.4139ZM29.5947 25.7779C25.7786 26.1461 21.8955 26.3134 18.1128 26.916C13.3259 27.6524 8.57251 28.6902 3.85255 29.6944C3.45086 29.7948 2.78136 30.4643 2.84831 30.7991C3.14958 32.8076 5.32545 34.5483 7.40089 34.3139C16.3052 33.2427 25.2095 32.0711 34.1138 30.9665C35.6871 30.7656 35.7876 29.8953 35.252 28.7571C34.1138 26.3134 32.1723 25.5101 29.5947 25.7779ZM16.4391 20.3214C16.2048 20.3884 15.937 20.4553 15.7027 20.5223C15.3679 22.1626 15.0332 23.8363 14.6649 25.8113C16.3721 25.577 17.5438 25.4096 19.2845 25.1418C18.2133 23.3007 17.3094 21.7943 16.4391 20.3214ZM26.9502 9.27475C27.4523 11.3167 27.8875 12.9905 28.3561 14.8985C29.5612 13.8273 30.532 12.957 31.6367 11.9862C30.0634 11.0489 28.6909 10.279 26.9502 9.27475Z" fill="#B44748"/>
<path d="M12.9673 0.00224393C14.8419 0.0691936 16.1809 1.50861 16.1474 3.34973C16.1139 5.15737 14.4402 6.76416 12.666 6.66374C10.9253 6.56331 9.41898 4.99 9.45245 3.21583C9.5194 1.37471 11.0592 -0.0647058 12.9673 0.00224393Z" fill="#B44748"/>
<path d="M6.67456 31.6024C8.51568 31.2342 9.98857 30.9329 11.6958 30.5981C10.5242 32.5732 8.98433 32.8744 6.67456 31.6024Z" fill="#B44748"/>
</svg>
