<svg width="34" height="43" viewBox="0 0 34 43" fill="none" xmlns="http://www.w3.org/2000/svg">
<path d="M25.7853 0C27.1576 0.754728 28.5298 1.33793 29.6962 2.19557C35.4253 6.34658 34.499 5.9006 32.2691 10.9436C27.2605 22.4017 20.0563 32.3161 10.8623 40.7896C8.63243 42.848 8.35798 42.9166 5.81935 41.3728C4.06975 40.3093 2.49168 38.9714 0.87931 37.7021C-0.0126417 36.9817 -0.218475 36.124 0.227501 34.9576C5.5106 21.7156 13.4352 10.3604 24.1044 0.926251C24.5503 0.617499 25.1335 0.377364 25.7853 0ZM16.4542 30.6008C16.7286 30.395 17.0374 30.2577 17.1746 30.0519C19.8847 26.2096 22.5606 22.4017 25.2021 18.5251C25.3737 18.2507 25.1678 17.7361 25.1335 17.3244C24.7219 17.5303 24.173 17.6332 23.9328 17.9419C22.8693 19.4857 21.9431 21.1324 20.8453 22.6761C19.3358 24.8374 17.7235 26.8958 16.1797 29.0227C15.9739 29.3315 15.8367 29.7088 15.8367 30.0862C15.8367 30.2577 16.214 30.4293 16.4542 30.6008ZM8.66674 25.3863C8.94118 25.5235 9.21562 25.6264 9.45577 25.7637C9.62729 25.4206 9.76452 25.0089 10.0047 24.7002C12.5776 20.9952 15.1848 17.3244 17.7235 13.5851C17.9636 13.242 17.8607 12.6931 17.895 12.2472C17.449 12.4187 16.9001 12.453 16.6257 12.7618C15.4936 14.0997 14.3615 15.5062 13.3666 16.9471C11.7886 19.2456 10.2448 21.6127 8.76965 23.9798C8.56382 24.3571 8.70104 24.9403 8.66674 25.3863ZM3.10919 35.2664C3.1778 35.6437 3.1778 35.8153 3.24641 35.8839C4.85878 36.9817 6.43685 38.1138 8.08353 39.1772C8.18645 39.2459 8.63242 38.9714 8.70103 38.7999C8.76965 38.594 8.70103 38.1824 8.5295 38.0795C7.08866 37.016 5.61351 35.9868 4.10406 34.9919C3.89822 34.8547 3.41794 35.1635 3.10919 35.2664ZM26.1627 3.19044C25.6481 3.5335 25.2708 3.67072 25.2708 3.84225C25.2364 4.11669 25.3394 4.56267 25.5452 4.69989C26.9174 5.72907 28.324 6.68963 29.7305 7.6502C29.902 7.78742 30.4166 7.78742 30.4852 7.6502C30.6568 7.41005 30.7597 6.86116 30.6225 6.75824C29.1473 5.55754 27.6379 4.39114 26.1627 3.19044Z" fill="#0E2A36"/>
</svg>
