<svg width="34" height="46" viewBox="0 0 34 46" fill="none" xmlns="http://www.w3.org/2000/svg">
<path d="M33.9634 4.23629C33.5971 13.3925 29.7515 21.5965 24.1113 29.1412C19.6064 35.1477 14.1859 40.202 8.21605 44.7068C6.89755 45.6957 6.0918 45.476 5.61568 44.0476C4.95643 42.0698 3.63793 41.2641 1.62355 41.3373C0.488181 41.374 -0.317564 40.9345 0.121935 39.5427C3.85768 27.2001 9.49792 15.9563 19.3867 7.31278C22.7561 4.34616 26.6018 2.11204 30.8136 0.537166C33.5971 -0.488332 34 -0.195333 34 2.73466C33.9634 3.06429 33.9634 3.43054 33.9634 4.23629ZM31.2531 3.24742C26.968 5.00542 23.4886 7.42266 20.3389 10.3527C19.6796 10.9753 19.3134 11.9275 18.8007 12.7333C19.643 12.3304 20.5586 12.0374 21.2911 11.488C23.9281 9.58353 26.4919 7.56916 29.0556 5.59141C29.4219 6.36054 29.4585 6.72679 29.3486 7.09304C28.3598 10.2794 27.3343 13.4658 26.382 16.6888C26.2355 17.1283 26.4553 17.6776 26.5285 18.1538C26.9314 17.8608 27.5174 17.6776 27.7005 17.3114C29.7149 12.953 31.0334 8.44816 31.2531 3.24742ZM8.54567 40.788C8.94854 40.495 9.27816 40.3118 9.53454 40.0921C12.0617 37.7115 14.5888 35.3309 17.0426 32.9136C17.3723 32.584 17.299 31.8881 17.4455 31.3754C16.9328 31.5585 16.3102 31.6317 15.9805 31.9614C13.8563 33.9391 11.732 35.9535 9.68105 38.0411C8.65555 39.0666 7.92304 38.5905 7.04405 37.9312C6.20167 37.3086 5.32268 36.8691 6.01855 35.514C7.2638 32.9869 8.36254 30.4231 9.42467 27.8594C9.68104 27.2734 9.57117 26.5409 9.64442 25.8816C9.09504 26.3211 8.32591 26.6874 8.06954 27.2367C6.86092 29.6906 5.72555 32.1811 4.73668 34.7449C3.52806 37.9312 3.38155 37.0522 6.05517 39.0666C6.82429 39.6526 7.66667 40.202 8.54567 40.788Z" fill="#0E2A36"/>
</svg>
