<svg width="34" height="40" viewBox="0 0 34 40" fill="none" xmlns="http://www.w3.org/2000/svg">
<path d="M9.53003 11.8031C12.3112 7.3303 15.2357 3.14422 19.8232 0.506408C20.626 0.0476583 22.0883 -0.210388 22.6904 0.219689C23.2925 0.649767 23.5506 2.08335 23.4072 3.00085C22.8624 6.75686 20.9414 9.96811 18.8771 13.0647C18.0742 14.2689 17.1567 15.4158 16.1819 16.706C15.1784 12.5199 14.2609 11.8891 9.53003 11.8031Z" fill="#0E2A36"/>
<path d="M26.6758 24.1319C26.0163 20.1179 24.4394 18.9997 20.0239 19.2291C22.8624 14.6702 25.873 10.3981 30.5752 7.73165C31.3206 7.30157 32.7255 7.15821 33.299 7.58829C33.8724 8.01837 34.1018 9.39462 33.9584 10.2548C33.0123 15.5877 30.0304 19.8025 26.6758 24.1319Z" fill="#0E2A36"/>
<path d="M5.22925 19.4297C7.09292 20.7199 8.78456 21.9241 10.5909 23.1857C8.0391 26.0242 5.57332 28.7767 3.07887 31.5005C2.39074 32.246 1.50191 31.9879 0.928478 31.3858C0.441056 30.8697 -0.161054 29.8662 0.0396487 29.4362C1.6166 26.1102 3.42293 22.8703 5.22925 19.4297Z" fill="#0E2A36"/>
<path d="M15.7804 26.7983C17.6154 28.0886 19.307 29.2641 21.142 30.5544C19.8231 31.9879 18.5902 33.3355 17.3573 34.7118C16.1818 36.0307 15.0063 37.3209 13.8307 38.6398C13.0566 39.5 12.2538 39.3566 11.4223 38.7832C10.5908 38.2097 10.046 37.5216 10.5908 36.4894C12.2824 33.3355 14.0027 30.1529 15.7804 26.7983Z" fill="#0E2A36"/>
<path d="M11.4511 22.2971C9.50141 20.9209 7.69508 19.6593 5.80273 18.3118C6.49086 17.1075 7.03562 15.932 7.75242 14.8998C9.04265 13.0075 11.6231 12.3767 13.2574 13.4662C14.9491 14.5844 15.4078 17.1075 14.1176 19.0859C13.3721 20.2328 12.3686 21.2076 11.4511 22.2971Z" fill="#0E2A36"/>
<path d="M22.0023 29.6945C20.0526 28.3183 18.2749 27.0854 16.1819 25.6231C17.2427 24.1322 18.1029 22.5266 19.3358 21.3223C20.8267 19.8888 22.9484 20.0321 24.2673 21.2363C25.5289 22.4405 25.787 24.8776 24.6401 26.5119C23.8659 27.5728 22.9484 28.5476 22.0023 29.6945Z" fill="#0E2A36"/>
</svg>
