<svg width="30" height="35" viewBox="0 0 30 35" fill="none" xmlns="http://www.w3.org/2000/svg">
<path d="M8.40894 10.4145C10.8629 6.46792 13.4434 2.77431 17.4912 0.44683C18.1995 0.0420515 19.4898 -0.185637 20.021 0.193844C20.5523 0.573324 20.78 1.83825 20.6535 2.64781C20.1728 5.96194 18.4778 8.79539 16.6563 11.5276C15.9479 12.5902 15.1384 13.6021 14.2782 14.7406C13.3928 11.047 12.5832 10.4904 8.40894 10.4145Z" fill="white"/>
<path d="M23.5375 21.2928C22.9556 17.751 21.5642 16.7643 17.6682 16.9667C20.1728 12.9442 22.8291 9.17471 26.9781 6.82193C27.6359 6.44245 28.8755 6.31596 29.3815 6.69544C29.8875 7.07492 30.0899 8.28926 29.9634 9.04822C29.1285 13.7538 26.4974 17.4727 23.5375 21.2928Z" fill="white"/>
<path d="M4.61405 17.144C6.25846 18.2825 7.75109 19.345 9.3449 20.4582C7.09332 22.9627 4.91763 25.3914 2.71665 27.7948C2.10948 28.4526 1.32522 28.2249 0.819245 27.6936C0.389167 27.2382 -0.142107 26.3528 0.0349842 25.9733C1.42641 23.0386 3.02023 20.1799 4.61405 17.144Z" fill="white"/>
<path d="M13.9239 23.6455C15.543 24.7839 17.0356 25.8212 18.6547 26.9596C17.491 28.2246 16.4032 29.4136 15.3153 30.6279C14.2781 31.7917 13.2408 32.9301 12.2036 34.0939C11.5205 34.8528 10.8121 34.7263 10.0785 34.2204C9.34482 33.7144 8.86415 33.1072 9.34482 32.1965C10.8374 29.4136 12.3554 26.6055 13.9239 23.6455Z" fill="white"/>
<path d="M10.104 19.674C8.38365 18.4597 6.78983 17.3465 5.12012 16.1575C5.72729 15.0949 6.20796 14.0577 6.84042 13.1469C7.97887 11.4772 10.2557 10.9207 11.6978 11.882C13.1904 12.8687 13.5952 15.0949 12.4567 16.8405C11.799 17.8525 10.9135 18.7127 10.104 19.674Z" fill="white"/>
<path d="M19.4137 26.2009C17.6934 24.9866 16.1249 23.8987 14.2781 22.6085C15.2141 21.293 15.9731 19.8762 17.0609 18.8137C18.3765 17.5488 20.2486 17.6752 21.4123 18.7378C22.5254 19.8003 22.7531 21.9507 21.7412 23.3927C21.0581 24.3288 20.2486 25.189 19.4137 26.2009Z" fill="white"/>
</svg>
