<svg width="176" height="176" viewBox="0 0 176 176" fill="none" xmlns="http://www.w3.org/2000/svg">
<path d="M2 172.893L14.0887 128.756C6.62044 115.808 2.69762 101.12 2.71566 86.1731C2.73535 39.2081 40.955 1 87.9212 1C110.712 1.01158 132.105 9.88094 148.193 25.981C164.282 42.0811 173.134 63.4815 173.126 86.2415C173.105 133.203 134.879 171.418 87.9201 171.418H87.883C73.6242 171.412 59.6132 167.835 47.1678 161.049L2 172.893Z" fill="#F2F2F2"/>
<path d="M87.9469 15.3885C48.8831 15.3885 17.1148 47.1452 17.1009 86.179C17.0817 99.5079 20.8351 112.57 27.9273 123.855L29.6123 126.534L22.4568 152.657L49.2606 145.629L51.8488 147.162C62.7192 153.613 75.1831 157.025 87.8936 157.032H87.9203C126.954 157.032 158.722 125.272 158.737 86.2357C158.767 76.9316 156.95 67.7141 153.393 59.1168C149.836 50.5194 144.609 42.7131 138.014 36.1497C131.456 29.5504 123.654 24.3175 115.06 20.7538C106.466 17.1901 97.2506 15.3665 87.9469 15.3885Z" fill="url(#paint0_linear_1058_6368)"/>
<path fill-rule="evenodd" clip-rule="evenodd" d="M66.6253 50.5649C65.0295 47.0201 63.3504 46.9483 61.8345 46.887L57.7536 46.8372C56.3338 46.8372 54.0271 47.3699 52.0769 49.5006C50.1268 51.6314 44.625 56.7812 44.625 67.2556C44.625 77.7299 52.2541 87.8511 53.3172 89.2732C54.3803 90.6953 68.045 112.875 89.6851 121.409C107.668 128.5 111.328 127.09 115.232 126.735C119.137 126.381 127.828 121.586 129.601 116.614C131.374 111.643 131.375 107.384 130.844 106.493C130.312 105.603 128.893 105.073 126.762 104.008C124.631 102.943 114.166 97.7928 112.215 97.0818C110.263 96.3708 108.845 96.0176 107.424 98.1483C106.003 100.279 101.928 105.072 100.685 106.493C99.4427 107.914 98.2024 108.092 96.0717 107.028C93.9409 105.964 87.0854 103.715 78.9513 96.4622C72.6227 90.8192 68.3507 83.8501 67.107 81.7205C65.8633 79.5909 66.975 78.4375 68.0427 77.3767C68.9981 76.4225 70.1712 74.8905 71.2377 73.6479C72.3042 72.4053 72.6551 71.5171 73.3639 70.0985C74.0726 68.6799 73.7194 67.4339 73.1867 66.3697C72.654 65.3054 68.5175 54.7755 66.6253 50.5649Z" fill="#F2F2F2"/>
<defs>
<linearGradient id="paint0_linear_1058_6368" x1="86.4774" y1="23.8885" x2="87.1953" y2="144.932" gradientUnits="userSpaceOnUse">
<stop stop-color="#47B48F"/>
<stop offset="1" stop-color="#2CCB95"/>
</linearGradient>
</defs>
</svg>
