<svg width="30" height="31" viewBox="0 0 30 31" fill="none" xmlns="http://www.w3.org/2000/svg">
<path d="M14.8797 29.9999C14.5172 29.8759 14.3594 29.608 14.3601 29.2396C14.3616 28.6143 14.1642 28.0514 13.8435 27.5252C13.1074 26.318 12.9158 25.0234 13.3121 23.6738C13.4662 23.1476 13.7752 22.6683 14.0027 22.1619C14.1282 21.8823 14.2302 21.5924 14.3653 21.2512C13.955 21.2512 13.6248 21.2482 13.2952 21.2519C12.9958 21.2556 12.7257 21.1969 12.5738 20.9055C12.4146 20.5995 12.5408 20.3456 12.7301 20.099C13.092 19.6278 13.4442 19.1493 13.8192 18.6495C13.4927 18.5637 13.191 18.4991 12.8989 18.4051C10.6584 17.6859 9.05555 16.1888 7.84903 14.2249C6.97276 12.7989 6.42454 11.2468 6.29024 9.57862C6.0686 6.82432 6.91625 4.42522 8.90216 2.49068C10.8514 0.589901 13.2255 -0.229123 15.9343 0.054893C18.3826 0.311755 20.378 1.44856 21.8972 3.38677C23.2953 5.17086 23.9345 7.22429 23.704 9.4656C23.3342 13.0521 21.688 15.9128 18.5352 17.7799C17.918 18.1453 17.1812 18.309 16.498 18.5629C16.4077 18.5967 16.3101 18.6106 16.1736 18.6437C16.2668 18.7699 16.3438 18.8756 16.4231 18.9805C16.7159 19.371 17.0065 19.7628 17.303 20.1511C17.474 20.3757 17.5621 20.6149 17.4329 20.885C17.2979 21.1675 17.0469 21.2519 16.7541 21.2519C16.4319 21.2512 16.1097 21.2593 15.7875 21.249C15.6327 21.2446 15.5527 21.2923 15.5336 21.4523C15.4536 22.1157 15.1645 22.6999 14.8349 23.2679C14.3315 24.1361 14.2574 25.0616 14.5282 26.0075C14.6309 26.3672 14.8247 26.7062 15.0081 27.0372C15.3758 27.6977 15.5938 28.3934 15.618 29.1523C15.6334 29.6322 15.5476 29.7952 15.116 30.0014C15.0353 29.9999 14.9575 29.9999 14.8797 29.9999ZM12.4476 3.0844C12.3691 3.11376 12.2252 3.14752 12.1005 3.21577C10.276 4.21606 9.18911 5.73669 8.82143 7.79306C8.72676 8.32293 8.95794 8.66786 9.308 8.72657C9.70064 8.79262 9.97511 8.52989 10.0639 7.99194C10.3296 6.37811 11.1802 5.17526 12.5966 4.36578C12.7059 4.3034 12.8189 4.23882 12.9099 4.15368C13.1044 3.97168 13.1697 3.74711 13.0692 3.49025C12.9701 3.23705 12.783 3.10569 12.4476 3.0844Z" fill="white"/>
<path d="M29.9985 13.1199C29.898 13.5844 29.8275 14.0578 29.691 14.5113C29.1208 16.4099 28.1073 18.0135 26.4296 19.1202C25.9159 19.4585 25.3214 19.6743 24.7563 19.9502C25.0675 20.8984 25.0609 20.938 24.4804 21.2492C24.6565 21.4958 24.8238 21.7417 25.0036 21.9794C25.8315 23.0751 25.8447 24.4211 25.0103 25.5006C24.6712 25.9395 24.3732 26.3732 24.3475 26.9618C24.3321 27.3126 24.0268 27.5122 23.69 27.4844C23.3627 27.4572 23.1403 27.2062 23.1315 26.8473C23.1161 26.2162 23.3267 25.6606 23.701 25.1616C23.8302 24.9899 23.9674 24.824 24.0892 24.6471C24.4672 24.0967 24.4789 23.4025 24.0951 22.8623C23.7568 22.3853 23.3634 21.9457 23.2137 21.3578C23.2005 21.3065 23.108 21.258 23.0434 21.2389C22.5422 21.0907 22.3807 20.7472 22.5987 20.2761C22.6559 20.1528 22.7146 20.0309 22.7851 19.8827C22.0417 19.7022 21.3745 19.3976 20.7676 18.9624C20.2744 18.6094 20.2392 18.2014 20.6898 17.8095C22.8754 15.9101 24.2367 13.5331 24.8055 10.7002C25.0081 9.68893 25.08 8.66368 24.9104 7.6421C24.7431 6.6374 25.2855 6.36293 26.0744 6.71373C28.2761 7.69348 29.5839 9.33886 29.9464 11.7277C29.9545 11.7827 29.9816 11.8348 30 11.8884C29.9985 12.2994 29.9985 12.7096 29.9985 13.1199Z" fill="white"/>
<path d="M8.47346 19.9202C8.53437 20.045 8.60042 20.1712 8.6584 20.3018C8.85215 20.7385 8.68335 21.0871 8.22687 21.2361C8.14541 21.2625 8.06321 21.352 8.02505 21.4328C7.81296 21.8892 7.67131 22.389 7.39977 22.8051C6.70478 23.8678 6.6835 24.8938 7.41078 25.9352C7.84525 26.5575 8.10725 27.2401 8.11752 28.0077C8.12266 28.3703 7.9568 28.6345 7.67058 28.7122C7.38656 28.7893 7.09961 28.6888 6.97045 28.4319C6.90293 28.2976 6.86477 28.1354 6.8611 27.9842C6.85082 27.5072 6.68716 27.0852 6.41856 26.7043C5.89823 25.966 5.58486 25.1683 5.62008 24.2487C5.64577 23.5677 5.84466 22.9497 6.20426 22.3743C6.42443 22.0221 6.62111 21.6551 6.82807 21.2963C6.15216 20.8867 6.15216 20.8867 6.49635 19.9114C6.23582 19.8395 5.97235 19.7808 5.71769 19.6956C3.85067 19.0718 2.50985 17.8029 1.48974 16.1715C0.485771 14.5628 -0.0631811 12.8125 0.00580479 10.8985C0.111485 7.9717 2.11134 5.22768 4.8495 4.23105C5.10929 4.13638 5.34781 4.14225 5.55844 4.33746C5.78007 4.54222 5.78007 4.79028 5.70815 5.06549C5.49532 5.8735 5.23993 6.67638 5.10049 7.49761C4.87151 8.84357 5.01022 10.1851 5.36689 11.4981C6.05602 14.0351 7.37409 16.1803 9.39963 17.8741C9.58677 18.0304 9.78639 18.1713 9.97794 18.3225C10.477 18.7174 10.4065 19.2663 9.80841 19.4968C9.38275 19.6597 8.94022 19.7742 8.47346 19.9202Z" fill="white"/>
</svg>
