<svg width="36" height="36" viewBox="0 0 36 36" fill="none" xmlns="http://www.w3.org/2000/svg">
<path d="M17.8387 0.40625C27.5177 0.40625 35.3442 8.22178 35.3442 17.9008C35.3442 27.5798 27.5287 35.3953 17.8497 35.4063C8.15975 35.4063 0.333252 27.5798 0.333252 17.9117C0.333252 8.23275 8.14879 0.40625 17.8387 0.40625ZM31.8475 17.9227C31.8804 10.2168 25.5775 3.90296 17.8497 3.892C10.1438 3.88104 3.88477 10.1181 3.819 17.8679C3.76419 25.5628 10.0451 31.8767 17.8058 31.9205C25.5008 31.9643 31.8146 25.6725 31.8475 17.9227Z" fill="#B44748"/>
<path d="M17.8496 19.6436C17.8496 20.2465 17.8496 20.7945 17.8496 21.4084C18.003 21.4084 18.1455 21.4084 18.288 21.4084C19.9103 21.4084 21.5436 21.3974 23.1659 21.4193C24.0209 21.4303 24.7224 22.088 24.8211 22.8991C24.9307 23.798 24.4265 24.5872 23.5824 24.8174C23.3632 24.8832 23.122 24.8832 22.8918 24.8832C21.3792 24.8941 19.8555 24.8832 18.3428 24.8832C18.1894 24.8832 18.0469 24.8832 17.8386 24.8832C17.8386 25.5189 17.8496 26.1108 17.8386 26.7028C17.8167 27.503 17.2686 28.1497 16.4794 28.336C15.734 28.5114 14.9229 28.1716 14.5721 27.4701C14.4296 27.1741 14.3638 26.8233 14.3419 26.4835C14.309 25.9684 14.3309 25.4532 14.3309 24.8722C13.7061 24.8722 13.1032 24.8832 12.5113 24.8722C11.7879 24.8503 11.2617 24.4776 10.9877 23.8199C10.7136 23.1732 10.8123 22.5593 11.2617 22.0113C11.5906 21.6166 12.029 21.3974 12.5552 21.3974C13.1252 21.3974 13.6952 21.3974 14.309 21.3974C14.309 20.8055 14.309 20.2355 14.309 19.6217C13.6732 19.6217 13.0375 19.6545 12.4127 19.6107C11.5248 19.5559 10.8452 18.7776 10.8561 17.8678C10.8671 16.969 11.5358 16.2126 12.4127 16.1578C12.884 16.1249 13.3663 16.1469 13.8486 16.1469C13.9911 16.1469 14.1446 16.1469 14.309 16.1469C14.32 16.0044 14.3419 15.8948 14.3419 15.7851C14.3419 14.2176 14.3419 12.6392 14.3309 11.0717C14.32 9.89882 15.0982 9.09863 16.2602 9.12056C17.9592 9.14248 19.6582 9.1096 21.3463 9.20825C23.5495 9.35075 25.4459 10.9402 25.983 12.968C26.5639 15.1494 25.7747 17.3746 23.977 18.6132C23.0892 19.227 22.1026 19.5559 21.0284 19.6107C20.1405 19.6545 19.2526 19.6326 18.3648 19.6326C18.1894 19.6545 18.0359 19.6436 17.8496 19.6436ZM17.8605 12.6611C17.8605 13.834 17.8605 14.974 17.8605 16.0811C18.9786 16.0811 20.0857 16.1359 21.1819 16.0592C21.8505 16.0153 22.3767 15.5878 22.574 14.8973C22.7603 14.2615 22.6288 13.6805 22.1465 13.2092C21.7519 12.8255 21.2476 12.683 20.7215 12.6611C19.7788 12.6392 18.8361 12.6611 17.8605 12.6611Z" fill="#B44748"/>
</svg>
