<svg width="50" height="36" viewBox="0 0 50 36" fill="none" xmlns="http://www.w3.org/2000/svg">
<path d="M17.7721 0.208496C27.4511 0.208496 35.2776 8.02403 35.2776 17.703C35.2776 27.382 27.462 35.1975 17.783 35.2085C8.10406 35.2085 0.277563 27.382 0.266602 17.703C0.266602 8.03499 8.0931 0.208496 17.7721 0.208496ZM31.7918 17.7249C31.8247 10.019 25.5218 3.70521 17.794 3.69425C10.0771 3.67232 3.81812 9.92037 3.76331 17.6592C3.70851 25.3541 9.98943 31.6679 17.7502 31.7118C25.4342 31.7666 31.7589 25.4637 31.7918 17.7249Z" fill="#D9C108"/>
<path d="M17.7829 19.2049C17.7829 19.8077 17.7829 20.3558 17.7829 20.9697C17.9364 20.9697 18.0789 20.9697 18.2214 20.9697C19.8437 20.9697 21.4769 20.9587 23.0992 20.9806C23.9542 20.9916 24.6558 21.6493 24.7544 22.4604C24.864 23.3593 24.3598 24.1485 23.5158 24.3787C23.2965 24.4444 23.0554 24.4444 22.8252 24.4444C21.3125 24.4554 19.7889 24.4444 18.2762 24.4444C18.1227 24.4444 17.9802 24.4444 17.772 24.4444C17.772 25.0802 17.7829 25.6721 17.772 26.264C17.75 27.0642 17.202 27.711 16.4127 27.8973C15.6673 28.0727 14.8562 27.7329 14.5054 27.0314C14.3629 26.7354 14.2972 26.3846 14.2752 26.0448C14.2424 25.5296 14.2643 25.0144 14.2643 24.4335C13.6395 24.4335 13.0366 24.4444 12.4447 24.4335C11.7212 24.4116 11.1951 24.0389 10.921 23.3812C10.647 22.7345 10.7456 22.1206 11.1951 21.5725C11.5239 21.1779 11.9624 20.9587 12.4885 20.9587C13.0585 20.9587 13.6285 20.9587 14.2424 20.9587C14.2424 20.3668 14.2424 19.7968 14.2424 19.1829C13.6066 19.1829 12.9708 19.2158 12.346 19.172C11.4581 19.1172 10.7785 18.3389 10.7895 17.4291C10.8005 16.5303 11.4691 15.7739 12.346 15.7191C12.8174 15.6862 13.2997 15.7081 13.782 15.7081C13.9245 15.7081 14.0779 15.7081 14.2424 15.7081C14.2533 15.5656 14.2752 15.456 14.2752 15.3464C14.2752 13.7789 14.2752 12.2005 14.2643 10.633C14.2533 9.4601 15.0316 8.65991 16.1935 8.68184C17.8925 8.70376 19.5916 8.67087 21.2796 8.76953C23.4829 8.91203 25.3792 10.5014 25.9163 12.5293C26.4973 14.7106 25.7081 16.9358 23.9104 18.1745C23.0225 18.7883 22.036 19.1172 20.9617 19.172C20.0739 19.2158 19.186 19.1939 18.2981 19.1939C18.1227 19.2158 17.9802 19.2049 17.7829 19.2049ZM17.7939 12.2224C17.7939 13.3953 17.7939 14.5353 17.7939 15.6424C18.9119 15.6424 20.0191 15.6972 21.1152 15.6205C21.7839 15.5766 22.31 15.1491 22.5073 14.4585C22.6937 13.8228 22.5621 13.2418 22.0798 12.7705C21.6852 12.3868 21.181 12.2443 20.6548 12.2224C19.7231 12.2005 18.7804 12.2224 17.7939 12.2224Z" fill="#D9C108"/>
<path d="M38.917 1.2605C45.8008 4.68048 49.4729 10.2708 49.4071 17.8233C49.3523 25.2552 45.7021 30.7578 38.917 34.1449C43.1372 29.4425 45.757 24.0823 45.735 17.6808C45.7131 11.2793 43.192 5.90816 38.917 1.2605Z" fill="#D9C108"/>
<path d="M31.6384 33.8601C40.6049 22.9096 40.5501 12.2879 31.8028 1.55664C37.4371 3.45298 41.7668 10.1066 41.9751 16.8917C42.1943 24.3346 38.1167 31.2842 31.6384 33.8601Z" fill="#D9C108"/>
</svg>
