<svg width="39" height="35" viewBox="0 0 39 35" fill="none" xmlns="http://www.w3.org/2000/svg">
<path d="M33.5673 17.5725C33.4855 20.4986 35.4144 21.888 38.0953 21.1197C38.1443 21.5284 38.2424 21.9207 38.2424 22.313C38.2588 24.7323 38.2424 27.168 38.2424 29.5873C38.2424 31.5325 37.9155 31.9739 35.9702 32.4316C35.9702 33.02 35.9702 33.6412 35.9702 34.3278C32.9951 34.3278 30.1018 34.3278 27.1104 34.3278C27.1104 30.895 27.1104 27.4786 27.1104 23.9477C26.3748 24.1112 25.7536 24.2583 25.018 24.4217C25.1488 22.7544 24.7074 21.1524 25.394 19.6158C25.9988 18.2427 27.6171 17.2783 29.0556 17.6869C29.6931 17.8667 30.2326 18.4552 30.7393 18.9292C31.1643 19.3379 31.4586 19.3543 31.8836 18.9456C32.3576 18.4716 32.9298 18.0793 33.5673 17.5725Z" fill="#0E2A36"/>
<path d="M7.34728 19.3543C7.78864 19.011 8.18096 18.7168 8.55693 18.4062C10.3224 16.9513 12.9705 17.8013 13.3955 20.0735C13.6571 21.4466 13.6244 22.8688 13.7225 24.4381C12.9215 24.2583 12.3003 24.1275 11.5811 23.9804C11.5811 27.4786 11.5811 30.9113 11.5811 34.3768C8.62232 34.3768 5.74532 34.3768 2.78658 34.3768C2.78658 33.7393 2.78658 33.1181 2.78658 32.4806C2.49234 32.3989 2.26349 32.3335 2.03463 32.2681C0.923065 31.9412 0.449016 31.3527 0.449016 30.1921C0.449016 28.9498 0.5144 27.7074 0.498054 26.4651C0.498054 25.19 0.432667 23.915 0.416321 22.64C0.416321 22.1986 0.498054 21.7409 0.547094 21.2015C1.78944 21.5447 2.86831 21.5938 3.86546 20.7764C4.84625 19.9591 5.09145 18.9129 5.0751 17.5398C5.89243 18.1937 6.59534 18.7495 7.34728 19.3543Z" fill="#0E2A36"/>
<path d="M13.559 17.6053C14.6216 16.6081 15.8802 16.6081 17.0572 16.7716C17.613 16.8533 18.1197 17.4745 18.5938 17.9158C19.1005 18.3899 19.5255 18.5043 19.9996 17.9158C21.3073 16.3302 22.9093 16.5264 24.5766 17.1802C24.7891 17.262 24.9853 17.4091 25.2632 17.5726C23.1872 20.0899 23.792 23.016 23.7593 25.8276C23.7266 28.6556 23.7593 31.4998 23.7593 34.3769C20.7515 34.3769 17.8909 34.3769 14.8994 34.3769C14.8994 34.0499 14.8994 33.7557 14.8994 33.4615C14.8994 29.8652 14.8504 26.269 14.9158 22.6727C14.9321 20.8582 14.5398 19.1909 13.559 17.6053Z" fill="#0E2A36"/>
<path d="M16.8284 3.90682C16.8121 6.04823 15.0793 7.81366 12.9706 7.83001C10.8456 7.83001 9.01474 5.98284 9.03108 3.85778C9.04743 1.76541 10.8456 0 12.987 0C15.112 0.0163466 16.8284 1.74907 16.8284 3.90682Z" fill="#0E2A36"/>
<path d="M23.1869 11.7532C23.1869 13.8946 21.4705 15.6437 19.3128 15.6763C17.1877 15.709 15.3733 13.8782 15.3733 11.7368C15.3896 9.59539 17.1387 7.86268 19.2964 7.87902C21.4869 7.86268 23.1869 9.57906 23.1869 11.7532Z" fill="#0E2A36"/>
<path d="M25.4431 0.0163574C27.6008 0.0163574 29.2845 1.73278 29.2845 3.92322C29.2845 6.08097 27.5355 7.86275 25.4267 7.84641C23.269 7.83006 21.5363 6.09731 21.5363 3.95591C21.5526 1.71642 23.2363 0.0163574 25.4431 0.0163574Z" fill="#0E2A36"/>
<path d="M3.55484 12.6031C3.26061 11.0174 4.89527 8.8924 7.06937 8.77797C9.30885 8.66354 10.9762 10.1347 11.2541 12.1781C11.5483 14.4176 9.88098 16.3628 7.70688 16.5262C5.23854 16.7061 3.73466 15.3003 3.55484 12.6031Z" fill="#0E2A36"/>
<path d="M31.197 16.5266C29.5133 16.69 27.4209 15.039 27.4863 12.6197C27.5517 10.413 29.17 8.74561 31.3768 8.74561C33.4855 8.74561 35.2673 10.5764 35.2346 12.7015C35.2019 14.8919 33.4365 16.5429 31.197 16.5266Z" fill="#0E2A36"/>
<path d="M23.3668 15.1859C24.838 13.3224 25.0341 11.279 23.9552 9.03955C25.1322 9.03955 26.1947 9.03955 27.3553 9.03955C25.5899 11.4752 25.5409 13.8782 27.388 16.2811C26.7995 16.6571 26.3418 16.6898 25.7207 16.2648C25.0341 15.8071 24.2168 15.5619 23.3668 15.1859Z" fill="#0E2A36"/>
<path d="M11.2216 16.4119C13.0524 13.9435 13.1832 11.5406 11.3524 9.07227C12.4966 9.07227 13.5265 9.07227 14.5726 9.07227C13.7226 12.3906 13.7226 12.3906 15.1448 15.1859C14.1967 15.6763 13.2649 16.183 12.3005 16.608C12.0389 16.7061 11.6466 16.4936 11.2216 16.4119Z" fill="#0E2A36"/>
<path d="M4.14335 18.1774C4.02892 19.4524 3.27697 20.237 2.06733 20.2861C0.955756 20.3187 0.105732 19.5668 0.0076521 18.4062C-0.0577343 17.7687 0.301893 17.3764 0.857678 17.1639C1.69135 16.8533 2.47599 15.9869 3.3914 16.6081C3.81641 16.9023 3.89815 17.6379 4.14335 18.1774Z" fill="#0E2A36"/>
<path d="M34.6624 17.9323C34.7114 17.7524 34.8095 17.3601 34.9566 16.9842C35.1691 16.4447 35.5941 16.2485 36.1499 16.4447C36.6403 16.6082 37.098 16.8207 37.5721 17.0332C38.2586 17.3438 38.7817 17.7525 38.5855 18.6352C38.3894 19.5342 37.7682 20.1554 36.8855 20.2535C35.6105 20.4006 34.6297 19.4852 34.6624 17.9323Z" fill="#0E2A36"/>
</svg>
