<svg width="30" height="27" viewBox="0 0 30 27" fill="none" xmlns="http://www.w3.org/2000/svg">
<path d="M26.0701 13.6479C26.0066 15.9205 27.5047 16.9996 29.5868 16.4029C29.6248 16.7203 29.701 17.025 29.701 17.3297C29.7137 19.2087 29.701 21.1003 29.701 22.9793C29.701 24.4901 29.4471 24.8328 27.9363 25.1883C27.9363 25.6453 27.9363 26.1278 27.9363 26.661C25.6257 26.661 23.3786 26.661 21.0553 26.661C21.0553 23.9949 21.0553 21.3415 21.0553 18.5993C20.484 18.7262 20.0015 18.8405 19.4302 18.9674C19.5318 17.6725 19.189 16.4283 19.7222 15.2349C20.192 14.1685 21.4488 13.4194 22.566 13.7368C23.0612 13.8765 23.4801 14.3335 23.8737 14.7017C24.2038 15.0191 24.4323 15.0318 24.7624 14.7144C25.1306 14.3462 25.5749 14.0415 26.0701 13.6479Z" fill="white"/>
<path d="M5.70645 15.0318C6.04923 14.7652 6.35393 14.5367 6.64593 14.2954C8.01706 13.1655 10.0738 13.8257 10.4038 15.5904C10.607 16.6568 10.5816 17.7614 10.6578 18.9802C10.0357 18.8405 9.55324 18.7389 8.99463 18.6247C8.99463 21.3415 8.99463 24.0076 8.99463 26.6991C6.69671 26.6991 4.46227 26.6991 2.16436 26.6991C2.16436 26.204 2.16436 25.7215 2.16436 25.2264C1.93584 25.1629 1.7581 25.1122 1.58036 25.0614C0.717051 24.8075 0.348879 24.3504 0.348879 23.449C0.348879 22.4842 0.39966 21.5193 0.386965 20.5544C0.386965 19.5641 0.336182 18.5739 0.323486 17.5836C0.323486 17.2408 0.386965 16.8854 0.425052 16.4664C1.38992 16.733 2.22784 16.7711 3.00227 16.1363C3.76401 15.5015 3.95445 14.689 3.94175 13.6226C4.57653 14.1304 5.12245 14.5621 5.70645 15.0318Z" fill="white"/>
<path d="M10.5308 13.673C11.356 12.8986 12.3335 12.8986 13.2476 13.0255C13.6793 13.089 14.0729 13.5714 14.441 13.9142C14.8346 14.2824 15.1647 14.3713 15.5329 13.9142C16.5485 12.6827 17.7927 12.8351 19.0876 13.3429C19.2527 13.4064 19.405 13.5207 19.6209 13.6476C18.0085 15.6028 18.4783 17.8753 18.4529 20.0589C18.4275 22.2553 18.4529 24.4643 18.4529 26.6988C16.1169 26.6988 13.8951 26.6988 11.5718 26.6988C11.5718 26.4448 11.5718 26.2163 11.5718 25.9878C11.5718 23.1948 11.5337 20.4017 11.5845 17.6087C11.5972 16.1995 11.2925 14.9045 10.5308 13.673Z" fill="white"/>
<path d="M13.0698 3.03425C13.0571 4.69738 11.7114 6.06852 10.0737 6.08121C8.42322 6.08121 7.0013 4.6466 7.014 2.99616C7.0267 1.37111 8.42322 0 10.0863 0C11.7368 0.0126957 13.0698 1.35842 13.0698 3.03425Z" fill="white"/>
<path d="M18.0082 9.1281C18.0082 10.7912 16.6752 12.1497 14.9994 12.1751C13.3489 12.2004 11.9397 10.7785 11.9397 9.11539C11.9524 7.45226 13.3108 6.10653 14.9867 6.11923C16.6879 6.10653 18.0082 7.43957 18.0082 9.1281Z" fill="white"/>
<path d="M19.7603 0.0126953C21.4362 0.0126953 22.7438 1.34576 22.7438 3.04698C22.7438 4.72281 21.3854 6.10664 19.7476 6.09394C18.0718 6.08124 16.7261 4.7355 16.7261 3.07236C16.7388 1.33306 18.0464 0.0126953 19.7603 0.0126953Z" fill="white"/>
<path d="M2.76078 9.78861C2.53225 8.55713 3.80182 6.90671 5.49034 6.81784C7.22965 6.72897 8.52461 7.87158 8.74044 9.45854C8.96896 11.1978 7.674 12.7086 5.98547 12.8356C4.06843 12.9752 2.90043 11.8834 2.76078 9.78861Z" fill="white"/>
<path d="M24.2295 12.8356C22.9219 12.9626 21.2968 11.6803 21.3476 9.80135C21.3984 8.08743 22.6552 6.79248 24.3692 6.79248C26.0069 6.79248 27.3907 8.21439 27.3653 9.86483C27.34 11.566 25.9688 12.8483 24.2295 12.8356Z" fill="white"/>
<path d="M18.1479 11.7941C19.2906 10.3468 19.4429 8.75981 18.605 7.02051C19.5191 7.02051 20.3443 7.02051 21.2457 7.02051C19.8746 8.91216 19.8365 10.7784 21.2711 12.6447C20.814 12.9367 20.4586 12.9621 19.9761 12.632C19.4429 12.2765 18.8081 12.0861 18.1479 11.7941Z" fill="white"/>
<path d="M8.71533 12.7462C10.1372 10.8292 10.2388 8.96294 8.8169 7.0459C9.70559 7.0459 10.5054 7.0459 11.3179 7.0459C10.6578 9.62312 10.6578 9.62311 11.7623 11.7941C11.0259 12.1749 10.3023 12.5685 9.55325 12.8986C9.35012 12.9748 9.04542 12.8097 8.71533 12.7462Z" fill="white"/>
<path d="M3.21795 14.1173C3.12908 15.1076 2.54508 15.717 1.6056 15.7551C0.742292 15.7804 0.082117 15.1964 0.00594304 14.2951C-0.0448396 13.7999 0.234467 13.4952 0.666119 13.3302C1.3136 13.089 1.92299 12.4161 2.63395 12.8985C2.96404 13.1271 3.02751 13.6984 3.21795 14.1173Z" fill="white"/>
<path d="M26.9208 13.9274C26.9589 13.7878 27.035 13.4831 27.1493 13.1911C27.3144 12.7721 27.6444 12.6197 28.0761 12.7721C28.457 12.8991 28.8124 13.0641 29.1806 13.2292C29.7138 13.4704 30.1201 13.7878 29.9677 14.4733C29.8154 15.1716 29.333 15.654 28.6474 15.7302C27.6571 15.8445 26.8954 15.1335 26.9208 13.9274Z" fill="white"/>
</svg>
