<svg width="77" height="35" viewBox="0 0 77 35" fill="none" xmlns="http://www.w3.org/2000/svg">
<path d="M71.5672 17.5725C71.4855 20.4986 73.4144 21.888 76.0952 21.1197C76.1443 21.5284 76.2423 21.9207 76.2423 22.313C76.2587 24.7323 76.2423 27.168 76.2423 29.5873C76.2423 31.5325 75.9154 31.9739 73.9702 32.4316C73.9702 33.02 73.9702 33.6412 73.9702 34.3278C70.9951 34.3278 68.1017 34.3278 65.1103 34.3278C65.1103 30.895 65.1103 27.4786 65.1103 23.9477C64.3747 24.1112 63.7535 24.2583 63.0179 24.4217C63.1487 22.7544 62.7074 21.1524 63.3939 19.6158C63.9987 18.2427 65.6171 17.2783 67.0556 17.6869C67.6931 17.8667 68.2325 18.4552 68.7393 18.9292C69.1643 19.3379 69.4585 19.3543 69.8835 18.9456C70.3576 18.4716 70.9297 18.0793 71.5672 17.5725Z" fill="#47B48F"/>
<path d="M45.3472 19.3543C45.7886 19.011 46.1809 18.7168 46.5569 18.4062C48.3223 16.9513 50.9705 17.8013 51.3955 20.0735C51.657 21.4466 51.6243 22.8688 51.7224 24.4381C50.9214 24.2583 50.3002 24.1275 49.581 23.9804C49.581 27.4786 49.581 30.9113 49.581 34.3768C46.6223 34.3768 43.7453 34.3768 40.7865 34.3768C40.7865 33.7393 40.7865 33.1181 40.7865 32.4806C40.4923 32.3989 40.2634 32.3335 40.0346 32.2681C38.923 31.9412 38.449 31.3527 38.449 30.1921C38.449 28.9498 38.5143 27.7074 38.498 26.4651C38.498 25.19 38.4326 23.915 38.4163 22.64C38.4163 22.1986 38.498 21.7409 38.547 21.2015C39.7894 21.5447 40.8683 21.5938 41.8654 20.7764C42.8462 19.9591 43.0914 18.9129 43.075 17.5398C43.8924 18.1937 44.5953 18.7495 45.3472 19.3543Z" fill="#47B48F"/>
<path d="M51.5591 17.6053C52.6216 16.6081 53.8803 16.6081 55.0573 16.7716C55.613 16.8533 56.1198 17.4745 56.5938 17.9158C57.1006 18.3899 57.5256 18.5043 57.9997 17.9158C59.3074 16.3302 60.9093 16.5264 62.5767 17.1802C62.7892 17.262 62.9854 17.4091 63.2633 17.5726C61.1872 20.0899 61.7921 23.016 61.7594 25.8276C61.7267 28.6556 61.7594 31.4998 61.7594 34.3769C58.7516 34.3769 55.8909 34.3769 52.8995 34.3769C52.8995 34.0499 52.8995 33.7557 52.8995 33.4615C52.8995 29.8652 52.8505 26.269 52.9159 22.6727C52.9322 20.8582 52.5399 19.1909 51.5591 17.6053Z" fill="#47B48F"/>
<path d="M54.8284 3.90682C54.8121 6.04823 53.0794 7.81366 50.9706 7.83001C48.8456 7.83001 47.0148 5.98284 47.0311 3.85778C47.0475 1.76541 48.8456 0 50.987 0C53.1121 0.0163466 54.8284 1.74907 54.8284 3.90682Z" fill="#47B48F"/>
<path d="M61.187 11.7532C61.187 13.8946 59.4706 15.6437 57.3128 15.6763C55.1878 15.709 53.3733 13.8782 53.3733 11.7368C53.3896 9.59539 55.1387 7.86268 57.2965 7.87902C59.4869 7.86268 61.187 9.57906 61.187 11.7532Z" fill="#47B48F"/>
<path d="M63.443 0.0163574C65.6007 0.0163574 67.2844 1.73278 67.2844 3.92322C67.2844 6.08097 65.5353 7.86275 63.4266 7.84641C61.2689 7.83006 59.5361 6.09731 59.5361 3.95591C59.5525 1.71642 61.2362 0.0163574 63.443 0.0163574Z" fill="#47B48F"/>
<path d="M41.5548 12.6031C41.2606 11.0174 42.8952 8.8924 45.0693 8.77797C47.3088 8.66354 48.9762 10.1347 49.2541 12.1781C49.5483 14.4176 47.881 16.3628 45.7069 16.5262C43.2385 16.7061 41.7346 15.3003 41.5548 12.6031Z" fill="#47B48F"/>
<path d="M69.197 16.5266C67.5133 16.69 65.421 15.039 65.4864 12.6197C65.5517 10.413 67.1701 8.74561 69.3768 8.74561C71.4856 8.74561 73.2673 10.5764 73.2346 12.7015C73.202 14.8919 71.4365 16.5429 69.197 16.5266Z" fill="#47B48F"/>
<path d="M61.3667 15.1859C62.8379 13.3224 63.0341 11.279 61.9552 9.03955C63.1321 9.03955 64.1947 9.03955 65.3553 9.03955C63.5898 11.4752 63.5408 13.8782 65.388 16.2811C64.7995 16.6571 64.3418 16.6898 63.7206 16.2648C63.0341 15.8071 62.2167 15.5619 61.3667 15.1859Z" fill="#47B48F"/>
<path d="M49.2217 16.4119C51.0525 13.9435 51.1833 11.5406 49.3525 9.07227C50.4967 9.07227 51.5266 9.07227 52.5727 9.07227C51.7227 12.3906 51.7227 12.3906 53.1449 15.1859C52.1968 15.6763 51.265 16.183 50.3006 16.608C50.039 16.7061 49.6467 16.4936 49.2217 16.4119Z" fill="#47B48F"/>
<path d="M42.1433 18.1774C42.0289 19.4524 41.277 20.237 40.0673 20.2861C38.9558 20.3187 38.1057 19.5668 38.0077 18.4062C37.9423 17.7687 38.3019 17.3764 38.8577 17.1639C39.6914 16.8533 40.476 15.9869 41.3914 16.6081C41.8164 16.9023 41.8981 17.6379 42.1433 18.1774Z" fill="#47B48F"/>
<path d="M72.6624 17.9323C72.7115 17.7524 72.8095 17.3601 72.9567 16.9842C73.1692 16.4447 73.5942 16.2485 74.15 16.4447C74.6404 16.6082 75.0981 16.8207 75.5721 17.0332C76.2587 17.3438 76.7818 17.7525 76.5856 18.6352C76.3894 19.5342 75.7683 20.1554 74.8856 20.2535C73.6105 20.4006 72.6297 19.4852 72.6624 17.9323Z" fill="#47B48F"/>
<path d="M8.244 30.74L8.208 28.616C8.136 24.848 8.052 21.716 7.956 19.22C7.86 16.7 7.74 14.12 7.596 11.48C7.188 11.936 6.756 12.476 6.3 13.1C5.844 13.7 5.172 14.54 4.284 15.62L3.312 16.808C3.144 17 2.928 17.168 2.664 17.312C2.424 17.456 2.22 17.528 2.052 17.528C1.764 17.528 1.524 17.42 1.332 17.204C1.14 16.964 1.044 16.664 1.044 16.304C1.044 16.136 1.08 15.968 1.152 15.8C1.224 15.608 1.488 15.272 1.944 14.792L3.852 12.812C4.524 12.116 5.22 11.336 5.94 10.472C6.66 9.608 7.08 9.044 7.2 8.78C7.776 7.364 8.22 6.536 8.532 6.296C8.868 6.056 9.252 5.936 9.684 5.936C10.212 5.936 10.62 6.092 10.908 6.404C11.22 6.692 11.376 7.412 11.376 8.564V10.328C11.376 11.984 11.52 14.324 11.808 17.348C12.12 20.348 12.504 23.48 12.96 26.744L13.212 28.58C13.38 29.876 13.092 30.896 12.348 31.64C11.628 32.36 10.692 32.72 9.54 32.72C9.084 32.72 8.748 32.564 8.532 32.252C8.34 31.94 8.244 31.436 8.244 30.74ZM21.1568 9.212L20.9048 9.464C19.7047 10.664 18.8167 11.96 18.2407 13.352C17.6887 14.72 17.4128 16.16 17.4128 17.672C17.4128 20.24 18.1328 22.544 19.5728 24.584C21.0367 26.6 22.6688 27.608 24.4688 27.608C26.2928 27.608 27.8288 26.456 29.0768 24.152C30.3248 21.848 30.9488 19.004 30.9488 15.62C30.9488 14.204 30.6248 12.824 29.9768 11.48C29.3288 10.112 28.4288 9.128 27.2768 8.528C25.7408 7.76 24.9368 7.316 24.8648 7.196C24.7928 7.052 24.7567 6.92 24.7567 6.8C24.7567 6.584 24.9007 6.392 25.1887 6.224C25.5008 6.032 25.8848 5.936 26.3407 5.936C28.5008 5.96 30.4328 6.956 32.1368 8.924C33.8648 10.868 34.7288 13.184 34.7288 15.872C34.7048 20.6 33.5287 24.428 31.2007 27.356C28.8967 30.26 26.2688 31.712 23.3168 31.712C20.7968 31.712 18.4688 30.572 16.3327 28.292C14.1967 26.012 13.1287 23.096 13.1287 19.544C13.1287 16.712 13.9087 13.892 15.4687 11.084C17.0287 8.252 18.5287 6.836 19.9687 6.836C20.3528 6.836 20.7607 6.98 21.1927 7.268C21.6488 7.532 21.8768 7.82 21.8768 8.132C21.8768 8.252 21.8288 8.384 21.7328 8.528C21.6608 8.672 21.4688 8.9 21.1568 9.212Z" fill="#47B48F"/>
</svg>
