<svg width="63" height="35" viewBox="0 0 63 35" fill="none" xmlns="http://www.w3.org/2000/svg">
<path d="M57.5672 17.5725C57.4855 20.4986 59.4144 21.888 62.0952 21.1197C62.1443 21.5284 62.2423 21.9207 62.2423 22.313C62.2587 24.7323 62.2423 27.168 62.2423 29.5873C62.2423 31.5325 61.9154 31.9739 59.9702 32.4316C59.9702 33.02 59.9702 33.6412 59.9702 34.3278C56.9951 34.3278 54.1017 34.3278 51.1103 34.3278C51.1103 30.895 51.1103 27.4786 51.1103 23.9477C50.3747 24.1112 49.7535 24.2583 49.0179 24.4217C49.1487 22.7544 48.7074 21.1524 49.3939 19.6158C49.9987 18.2427 51.6171 17.2783 53.0556 17.6869C53.6931 17.8667 54.2325 18.4552 54.7393 18.9292C55.1643 19.3379 55.4585 19.3543 55.8835 18.9456C56.3576 18.4716 56.9297 18.0793 57.5672 17.5725Z" fill="#B44748"/>
<path d="M31.3472 19.3543C31.7886 19.011 32.1809 18.7168 32.5569 18.4062C34.3223 16.9513 36.9705 17.8013 37.3955 20.0735C37.657 21.4466 37.6243 22.8688 37.7224 24.4381C36.9214 24.2583 36.3002 24.1275 35.581 23.9804C35.581 27.4786 35.581 30.9113 35.581 34.3768C32.6223 34.3768 29.7453 34.3768 26.7865 34.3768C26.7865 33.7393 26.7865 33.1181 26.7865 32.4806C26.4923 32.3989 26.2634 32.3335 26.0346 32.2681C24.923 31.9412 24.449 31.3527 24.449 30.1921C24.449 28.9498 24.5143 27.7074 24.498 26.4651C24.498 25.19 24.4326 23.915 24.4163 22.64C24.4163 22.1986 24.498 21.7409 24.547 21.2015C25.7894 21.5447 26.8683 21.5938 27.8654 20.7764C28.8462 19.9591 29.0914 18.9129 29.075 17.5398C29.8924 18.1937 30.5953 18.7495 31.3472 19.3543Z" fill="#B44748"/>
<path d="M37.5591 17.6053C38.6216 16.6081 39.8803 16.6081 41.0573 16.7716C41.613 16.8533 42.1198 17.4745 42.5938 17.9158C43.1006 18.3899 43.5256 18.5043 43.9997 17.9158C45.3074 16.3302 46.9093 16.5264 48.5767 17.1802C48.7892 17.262 48.9854 17.4091 49.2633 17.5726C47.1872 20.0899 47.7921 23.016 47.7594 25.8276C47.7267 28.6556 47.7594 31.4998 47.7594 34.3769C44.7516 34.3769 41.8909 34.3769 38.8995 34.3769C38.8995 34.0499 38.8995 33.7557 38.8995 33.4615C38.8995 29.8652 38.8505 26.269 38.9159 22.6727C38.9322 20.8582 38.5399 19.1909 37.5591 17.6053Z" fill="#B44748"/>
<path d="M40.8284 3.90682C40.8121 6.04823 39.0794 7.81366 36.9706 7.83001C34.8456 7.83001 33.0148 5.98284 33.0311 3.85778C33.0475 1.76541 34.8456 0 36.987 0C39.1121 0.0163466 40.8284 1.74907 40.8284 3.90682Z" fill="#B44748"/>
<path d="M47.187 11.7532C47.187 13.8946 45.4706 15.6437 43.3128 15.6763C41.1878 15.709 39.3733 13.8782 39.3733 11.7368C39.3896 9.59539 41.1387 7.86268 43.2965 7.87902C45.4869 7.86268 47.187 9.57906 47.187 11.7532Z" fill="#B44748"/>
<path d="M49.443 0.0163574C51.6007 0.0163574 53.2844 1.73278 53.2844 3.92322C53.2844 6.08097 51.5353 7.86275 49.4266 7.84641C47.2689 7.83006 45.5361 6.09731 45.5361 3.95591C45.5525 1.71642 47.2362 0.0163574 49.443 0.0163574Z" fill="#B44748"/>
<path d="M27.5548 12.6031C27.2606 11.0174 28.8952 8.8924 31.0693 8.77797C33.3088 8.66354 34.9762 10.1347 35.2541 12.1781C35.5483 14.4176 33.881 16.3628 31.7069 16.5262C29.2385 16.7061 27.7346 15.3003 27.5548 12.6031Z" fill="#B44748"/>
<path d="M55.197 16.5266C53.5133 16.69 51.421 15.039 51.4864 12.6197C51.5517 10.413 53.1701 8.74561 55.3768 8.74561C57.4856 8.74561 59.2673 10.5764 59.2346 12.7015C59.202 14.8919 57.4365 16.5429 55.197 16.5266Z" fill="#B44748"/>
<path d="M47.3667 15.1859C48.8379 13.3224 49.0341 11.279 47.9552 9.03955C49.1321 9.03955 50.1947 9.03955 51.3553 9.03955C49.5898 11.4752 49.5408 13.8782 51.388 16.2811C50.7995 16.6571 50.3418 16.6898 49.7206 16.2648C49.0341 15.8071 48.2167 15.5619 47.3667 15.1859Z" fill="#B44748"/>
<path d="M35.2217 16.4119C37.0525 13.9435 37.1833 11.5406 35.3525 9.07227C36.4967 9.07227 37.5266 9.07227 38.5727 9.07227C37.7227 12.3906 37.7227 12.3906 39.1449 15.1859C38.1968 15.6763 37.265 16.183 36.3006 16.608C36.039 16.7061 35.6467 16.4936 35.2217 16.4119Z" fill="#B44748"/>
<path d="M28.1433 18.1774C28.0289 19.4524 27.277 20.237 26.0673 20.2861C24.9558 20.3187 24.1057 19.5668 24.0077 18.4062C23.9423 17.7687 24.3019 17.3764 24.8577 17.1639C25.6914 16.8533 26.476 15.9869 27.3914 16.6081C27.8164 16.9023 27.8981 17.6379 28.1433 18.1774Z" fill="#B44748"/>
<path d="M58.6624 17.9323C58.7115 17.7524 58.8095 17.3601 58.9567 16.9842C59.1692 16.4447 59.5942 16.2485 60.15 16.4447C60.6404 16.6082 61.0981 16.8207 61.5721 17.0332C62.2587 17.3438 62.7818 17.7525 62.5856 18.6352C62.3894 19.5342 61.7683 20.1554 60.8856 20.2535C59.6105 20.4006 58.6297 19.4852 58.6624 17.9323Z" fill="#B44748"/>
<path d="M9.432 6.16L13.608 4.648C13.872 4.552 14.184 4.456 14.544 4.36C14.904 4.264 15.168 4.216 15.336 4.216C15.792 4.216 16.056 4.468 16.128 4.972C16.2 5.476 16.056 5.8 15.696 5.944L14.904 6.268C14.088 6.604 12.552 7.276 10.296 8.284C8.064 9.268 6.216 10.096 4.752 10.768C4.728 11.224 4.716 11.656 4.716 12.064C4.716 12.472 4.74 12.988 4.788 13.612L4.86 15.412C6.42 14.644 7.656 14.104 8.568 13.792C9.48 13.456 10.32 13.288 11.088 13.288C12.528 13.288 13.692 13.864 14.58 15.016C15.468 16.144 15.912 17.764 15.912 19.876C15.912 23.14 14.892 25.816 12.852 27.904C10.836 29.992 8.412 31.036 5.58 31.036C4.5 31.036 3.648 30.892 3.024 30.604C2.424 30.292 2.124 29.92 2.124 29.488C2.124 29.248 2.184 29.044 2.304 28.876C2.448 28.708 2.664 28.624 2.952 28.624C3.072 28.624 3.42 28.696 3.996 28.84C4.596 28.96 5.136 29.02 5.616 29.02C7.44 29.02 8.976 28.096 10.224 26.248C11.496 24.376 12.132 22.3 12.132 20.02C12.132 18.964 11.928 18.136 11.52 17.536C11.112 16.912 10.464 16.6 9.576 16.6C9.096 16.6 8.556 16.72 7.956 16.96C7.356 17.2 6.216 17.776 4.536 18.688L3.744 19.12C3.072 19.504 2.688 19.708 2.592 19.732C2.52 19.732 2.448 19.732 2.376 19.732C2.112 19.732 1.908 19.624 1.764 19.408C1.62 19.168 1.548 18.772 1.548 18.22V16.492C1.548 15.868 1.536 15.352 1.512 14.944C1.488 14.536 1.464 14.176 1.44 13.864C1.392 13.384 1.284 12.88 1.116 12.352C0.948 11.8 0.864 11.368 0.864 11.056C0.864 10.456 1.044 9.928 1.404 9.472C1.788 9.016 2.448 8.608 3.384 8.248L4.32 7.888C5.712 7.36 6.66 7.036 7.164 6.916C7.668 6.772 8.424 6.52 9.432 6.16Z" fill="#B44748"/>
</svg>
