<svg width="601" height="269" viewBox="0 0 601 269" fill="none" xmlns="http://www.w3.org/2000/svg">
<path d="M176.998 239.414C172.541 238.723 166.929 237.594 160.16 236.027C153.392 234.459 146.5 232.601 139.484 230.452C132.619 228.279 126.058 226.059 119.799 223.79C113.541 221.521 108.769 219.327 105.483 217.208C110.41 218.912 114.899 220.297 118.949 221.363C123.174 222.557 127.336 223.838 131.434 225.207L132.235 224.382C123.33 222.066 114.707 219.085 106.367 215.438C98.0275 211.791 89.9628 208.411 82.1732 205.298C79.8611 204.422 78.2784 203.742 77.4252 203.256C76.7235 202.746 76.1215 202.375 75.6192 202.145L73.9211 201.715C73.7696 201.739 73.6939 201.751 73.6939 201.751C73.6699 201.599 73.5822 201.536 73.4307 201.56C69.2307 203.467 65.3973 205.238 61.9305 206.874C58.4637 208.51 54.9092 210.082 51.267 211.59C50.6612 211.686 49.9999 212.412 49.2832 213.767C48.5424 214.972 47.8496 216.478 47.2048 218.288C46.536 219.947 45.8034 221.693 45.0072 223.527C44.3863 225.488 43.881 227.198 43.4911 228.657C43.1327 229.335 42.7465 230.327 42.3326 231.635C41.5528 234.553 40.8923 236.753 40.3509 238.236C39.961 239.695 39.9692 240.237 40.3756 239.862L44.296 236.68C46.5033 234.933 48.6108 233.047 50.6186 231.021C52.6505 229.147 54.8097 227.097 57.0965 224.872C59.4072 222.798 61.6939 220.573 63.9567 218.197C66.3709 215.796 68.5699 213.507 70.5537 211.33C69.2956 214.168 67.3837 216.8 64.8181 219.224C62.3799 221.474 60.2806 223.902 58.5202 226.509C58.3687 226.533 58.305 226.621 58.329 226.773C58.1775 226.796 58.1138 226.884 58.1378 227.036C61.5086 224.794 63.1183 223.685 62.9669 223.709C60.983 225.886 59.3298 227.701 58.0073 229.152C56.7087 230.755 55.4738 232.27 54.3027 233.698C53.1556 235.276 51.857 236.879 50.407 238.506C49.1324 240.261 47.3757 242.402 45.137 244.93C44.882 245.281 44.0693 246.03 42.6988 247.179C41.5037 248.455 40.1969 249.516 38.7784 250.361C38.5234 250.712 38.2445 250.912 37.9417 250.96C37.6388 251.008 37.3479 251.131 37.069 251.331C36.3837 251.905 35.5905 251.798 34.6893 251.009C33.9636 250.348 33.4253 249.89 33.0745 249.635C31.623 248.312 30.7534 246.742 30.4656 244.925C30.3292 243.083 30.4079 241.13 30.7019 239.066C31.1713 237.128 31.7801 235.091 32.5284 232.955C33.2767 230.818 33.9613 228.769 34.5821 226.808L35.6213 224.547C37.0219 219.668 38.4308 215.331 39.8479 211.536C41.3925 207.565 42.9768 203.356 44.6008 198.907C46.3763 194.434 48.283 189.32 50.321 183.563C52.3589 177.807 54.6473 170.691 57.1861 162.216L54.4601 162.648C54.3086 162.672 54.1452 162.62 53.9698 162.493L50.2631 162.614C47.6885 163.022 45.2054 163.027 42.8138 162.63C40.5737 162.208 37.4091 162.322 33.32 162.969L32.3394 162.659L30.2229 162.528L27.7354 161.525C24.9689 160.721 22.593 159.933 20.6078 159.161C18.774 158.365 17.1553 157.457 15.7519 156.437C14.3244 155.266 13.1002 153.907 12.0791 152.361C11.034 150.664 10.0684 148.488 9.18235 145.834L9.44338 141.601C9.0596 139.178 9.48478 136.472 10.7189 133.482C11.9531 130.492 13.5778 127.518 15.5932 124.559C17.6085 121.601 19.8113 118.846 22.2015 116.294C24.7192 113.566 27.1574 111.317 29.5161 109.547L32.4086 107.226C33.3727 106.452 35.8829 104.657 39.939 101.841C43.9711 98.8739 49.3543 95.615 56.0884 92.0645C62.8226 88.514 70.7405 85.0865 79.8423 81.782C88.9201 78.326 98.9868 75.7225 110.042 73.9715C115.949 73.036 122.039 72.7701 128.312 73.1736C134.714 73.4017 140.641 74.5587 146.094 76.6446C151.524 78.5791 156.189 81.5662 160.088 85.6058C164.14 89.6215 166.681 94.8854 167.713 101.398C168.72 107.758 167.934 114.558 165.355 121.798C162.752 128.885 158.837 136.026 153.611 143.218C148.385 150.411 142.04 157.393 134.574 164.164C127.108 170.936 119.004 177.109 110.262 182.686C109.831 182.909 109.477 183.12 109.198 183.32C109.046 183.344 108.592 183.416 107.835 183.536C117.365 177.058 125.804 170.055 133.15 162.527C140.623 154.823 146.582 147.359 151.027 140.135C144.965 147.926 136.714 156.606 126.276 166.177C115.814 175.596 103.212 184.734 88.469 193.589C89.8005 194.154 90.8928 194.68 91.746 195.166C92.7506 195.628 93.7672 196.165 94.7958 196.779C104.58 202.681 114.443 208.105 124.386 213.05C134.328 217.996 144.354 221.996 154.464 225.053C164.573 228.109 174.829 230.133 185.232 231.124C195.787 232.092 206.656 231.612 217.839 229.686C220.565 229.254 223.243 228.519 225.873 227.482C228.654 226.42 231.133 225.407 233.309 224.441C235.484 223.475 237.281 222.57 238.7 221.724C240.118 220.878 240.903 220.444 241.055 220.42C241.334 220.22 241.003 220.583 240.063 221.508C239.123 222.433 237.437 223.554 235.007 224.871C232.727 226.163 229.767 227.563 226.125 229.072C222.482 230.58 218.111 231.894 213.009 233.012C211.67 233.379 210.307 233.595 208.92 233.66C207.533 233.724 206.158 233.864 204.795 234.08C206.358 234.143 207.984 234.118 209.674 234.006C211.515 233.87 213.496 233.634 215.616 233.298C223.643 232.026 230.645 229.675 236.622 226.245C242.774 222.942 247.89 219.958 251.97 217.294L254.217 215.308C258.026 211.91 260.902 208.505 262.845 205.092C264.789 201.679 266.047 198.841 266.62 196.577C267.217 194.464 267.67 192.918 267.981 191.937C268.467 191.084 268.849 190.557 269.128 190.358C269.407 190.159 269.646 190.198 269.845 190.477C270.045 190.756 270.232 190.959 270.408 191.087C270.679 191.82 270.58 193.155 270.111 195.093C269.817 197.157 269.244 199.421 268.392 201.885C267.54 204.349 266.449 206.772 265.119 209.157C263.813 211.692 262.335 213.634 260.686 214.982L259.348 216.824L257.065 218.583C253.869 220.952 250.486 223.117 246.916 225.08C243.346 227.043 240.278 229.236 237.712 231.661C242.064 229.73 246.279 227.432 250.36 224.768C254.464 222.255 258.245 219.172 261.702 215.519C255.95 222.33 249.077 227.455 241.084 230.894C233.114 234.485 224.889 236.952 216.408 238.295C209.593 239.375 203.108 240.091 196.955 240.445C190.801 240.799 184.148 240.455 176.998 239.414ZM81.436 188.881C87.0545 186.128 92.9557 182.71 99.1396 178.626C105.475 174.517 111.675 170.042 117.738 165.201C123.802 160.359 129.527 155.338 134.914 150.139C140.451 144.915 145.22 139.735 149.219 134.599C153.194 129.312 156.197 124.257 158.227 119.433C160.409 114.586 161.176 110.117 160.529 106.028C160.217 104.06 159.937 102.784 159.69 102.202C159.594 101.597 159.486 100.915 159.366 100.158C159.831 105.052 158.881 110.326 156.516 115.979C154.151 121.631 151.017 127.329 147.114 133.07C143.187 138.66 138.693 144.106 133.634 149.41C128.575 154.713 123.571 159.387 118.622 163.431C115.451 165.951 112.116 168.42 108.618 170.837C105.271 173.23 101.964 175.384 98.6965 177.299C95.5806 179.189 92.7316 180.805 90.1495 182.145C87.6949 183.31 85.8617 183.989 84.6502 184.181C86.9534 183.04 90.3722 181.101 94.9066 178.365C99.4171 175.477 104.234 172.075 109.358 168.158C114.633 164.218 119.773 159.911 124.776 155.237C129.78 150.563 133.927 145.87 137.217 141.158C138.922 139.18 140.834 136.548 142.953 133.263C145.048 129.826 146.967 126.262 148.711 122.571C150.582 118.704 152 114.909 152.962 111.186C154.076 107.438 154.43 104.278 154.022 101.703C153.734 99.8857 153.355 98.4709 152.884 97.4588C152.389 96.2952 152.018 95.4225 151.771 94.8407C151.675 94.2349 151.754 93.7566 152.009 93.4057C152.416 93.0309 153.213 92.6718 154.4 92.3284C152.103 89.5874 149.232 87.6357 145.788 86.4735C142.32 85.1599 138.709 84.4123 134.954 84.2308C131.175 83.8978 127.381 83.9554 123.571 84.4036C119.737 84.7004 116.229 85.1006 113.049 85.6044C108.203 86.3719 103.719 87.4701 99.5989 88.899C95.6298 90.3039 91.6847 91.8602 87.7636 93.5679C83.9699 95.1003 80.1882 96.7083 76.4186 98.3921C72.6249 99.9244 68.4924 101.278 64.021 102.451C65.1606 101.805 66.3639 101.071 67.631 100.25C69.0255 99.2525 70.4042 98.646 71.7673 98.4302L72.4128 98.0951C73.5524 97.4488 74.692 96.8026 75.8316 96.1564C76.9472 95.3587 78.1505 94.6247 79.4416 93.9545C78.5809 94.4013 77.7082 94.7724 76.8235 95.0678C75.9148 95.2117 75.0182 95.4314 74.1335 95.7267L70.4155 97.2471C67.6025 99.0898 63.6019 101.276 58.4137 103.805C53.353 106.159 48.2128 108.992 42.9931 112.302C37.7494 115.461 33.1197 119.067 29.104 123.118C25.0644 127.018 22.8106 131.411 22.3426 136.298C21.8506 141.033 23.4385 144.197 27.1061 145.79C30.9251 147.358 35.4572 148.038 40.7023 147.828C46.0749 147.443 51.5029 146.428 56.9865 144.783C62.5975 142.963 67.0247 141.02 70.2681 138.954C70.499 138.451 71.0126 137.283 71.8089 135.449C72.7326 133.44 73.8077 131.407 75.0344 129.35C76.4124 127.269 77.9022 125.403 79.5037 123.752C81.2326 121.925 83.0814 120.856 85.0502 120.545C87.019 120.233 88.7569 120.423 90.2638 121.116C89.1407 122.846 88.157 124.477 87.3127 126.008C86.4685 127.539 85.5365 129.006 84.5169 130.409L83.2978 131.534L78.3156 139.775L78.8059 139.93C80.1045 138.327 81.2516 136.748 82.2473 135.193C82.7811 134.643 83.5339 133.515 84.5056 131.808C85.4773 130.102 86.6004 128.372 87.875 126.617C89.3011 124.839 90.7511 123.212 92.2251 121.737C93.6991 120.261 95.1933 119.404 96.7078 119.164C97.1621 119.092 98.0191 119.111 99.2786 119.222C96.0921 123.608 92.9094 127.528 89.7305 130.981C86.703 134.41 83.9146 137.879 81.3654 141.388C79.8674 142.712 78.2105 144.992 76.3945 148.229C74.7061 151.291 72.9381 154.831 71.0906 158.85C69.2192 162.717 67.4475 166.723 65.7755 170.869C64.0795 174.864 62.5507 178.444 61.1891 181.609L61.6434 181.537C66.4746 182.635 70.2337 183.825 72.9207 185.107C75.7351 186.214 78.5735 187.472 81.436 188.881ZM59.2398 156.07C59.2638 156.221 59.3515 156.285 59.5029 156.261L59.7301 156.225C59.985 155.874 60.3277 155.587 60.758 155.363C61.1884 155.14 61.5947 154.765 61.9771 154.239L60.9739 156.726C61.4687 157.89 61.7041 158.396 61.6801 158.245C62.4764 156.411 63.1452 154.752 63.6865 153.269C64.3553 151.611 65.0481 150.104 65.7649 148.749C64.6013 149.243 63.7526 149.766 63.2188 150.316C62.8124 150.691 62.1631 151.493 61.2709 152.721C61.2709 152.721 61.1832 152.657 61.0078 152.529L60.3263 152.637C59.9994 152.534 59.3816 152.554 58.4729 152.698L52.7937 153.597L45.034 154.594C42.7383 154.802 39.9644 154.931 36.712 154.98C33.4357 154.878 30.2629 154.449 27.1935 153.693C24.1242 152.938 21.3735 151.743 18.9414 150.11C16.6368 148.302 15.2207 145.732 14.6929 142.4C14.3571 140.28 14.5911 137.836 15.3949 135.07C16.1747 132.152 17.2896 129.88 18.7397 128.253C18.4368 128.301 18.2733 128.249 18.2493 128.097L17.723 127.715C16.393 130.099 15.2503 132.686 14.2951 135.477C13.3398 138.267 13.0661 140.95 13.4739 143.524C14.0016 146.856 15.342 149.438 17.4952 151.271C19.7998 153.079 22.5745 154.425 25.8192 155.308C29.2155 156.168 32.9544 156.74 37.0359 157.025C41.2448 157.134 45.5055 157.08 49.818 156.863L52.1256 156.731C52.2771 156.707 52.4405 156.758 52.6159 156.886C52.9188 156.838 53.2974 156.778 53.7518 156.706L57.6136 156.094L59.2398 156.07ZM37.8042 113.357C37.5972 114.011 37.4818 114.262 37.4578 114.11C37.8401 113.584 39.3899 112.097 42.107 109.648C44.8001 107.048 48.4416 104.065 53.0315 100.699C57.7729 97.3089 63.3472 93.7869 69.7545 90.1329C76.3132 86.4549 83.5617 83.2111 91.4999 80.4013C91.197 80.4493 89.037 81.0243 85.0199 82.1263C81.0029 83.2282 76.1731 85.0799 70.5305 87.6813C65.0395 90.2587 59.2897 93.6533 53.2813 97.8651C47.2728 102.077 42.1138 107.241 37.8042 113.357ZM83.242 189.992C85.4178 189.027 87.7209 187.886 90.1516 186.569C92.7337 185.229 95.2281 183.825 97.6348 182.357C100.193 180.865 102.524 179.409 104.628 177.989C106.859 176.394 108.699 174.783 110.149 173.156C105.639 176.044 100.901 178.967 95.9366 181.927C91.0993 184.712 86.3655 187.169 81.7351 189.3L83.242 189.992ZM73.1387 190.894C73.641 191.125 74.0556 191.292 74.3825 191.396C74.8608 191.475 75.3391 191.555 75.8174 191.634C76.2718 191.562 76.6384 191.426 76.9173 191.227C75.0835 190.431 72.4325 189.376 68.9643 188.062C65.4961 186.749 62.339 185.929 59.4931 185.604C59.3416 185.628 59.1744 186.042 58.9914 186.847C58.7845 187.501 58.5776 188.155 58.3706 188.809C61.2961 188.656 63.9666 188.854 66.3822 189.403C68.7738 189.8 71.026 190.297 73.1387 190.894ZM53.8696 203.028C55.4635 202.31 57.1452 201.655 58.9145 201.064C60.6599 200.322 62.5568 199.556 64.605 198.766C64.629 198.917 64.629 198.917 64.605 198.766C64.7325 198.59 64.6448 198.527 64.3419 198.575C63.5847 198.695 62.2374 198.52 60.3001 198.051C58.4903 197.406 56.9436 196.952 55.6601 196.69C55.0948 198.021 54.6689 199.253 54.3825 200.385C54.072 201.366 53.9011 202.247 53.8696 203.028ZM96.4128 202.577C96.5403 202.402 96.0777 201.931 95.0251 201.167C94.1 200.227 93.0354 199.386 91.8314 198.645C90.6033 197.753 89.3236 197.024 87.9921 196.459C86.7881 195.718 85.9589 195.384 85.5045 195.456C85.3531 195.48 84.847 195.715 83.9863 196.162C84.6401 196.369 85.3178 196.727 86.0195 197.237C86.7213 197.747 87.3233 198.117 87.8256 198.348L96.4128 202.577ZM152.983 230.41C153.135 230.386 152.696 230.067 151.668 229.454C150.663 228.992 149.407 228.415 147.9 227.722C146.545 227.005 145.126 226.376 143.643 225.835C142.335 225.421 141.466 225.326 141.036 225.549L139.59 226.71C140.395 226.893 141.124 227.088 141.778 227.295C142.583 227.478 143.237 227.685 143.739 227.915L152.983 230.41ZM112.617 82.8783C108.831 83.478 105.169 84.3686 101.63 85.55C98.2427 86.7075 94.7917 87.9527 91.2769 89.2856C95.3975 87.8567 99.3268 86.691 103.065 85.7885C106.955 84.8619 110.035 84.2188 112.307 83.859L112.617 82.8783ZM45.6978 217.595C44.8536 219.126 43.8662 221.223 42.7355 223.886C41.6048 226.549 40.4464 229.527 39.2602 232.82L41.7817 229.626C42.506 227.338 43.1785 225.213 43.7994 223.252C44.5477 221.115 45.1805 219.23 45.6978 217.595ZM59.3026 162.347C58.7373 163.679 58.1599 164.934 57.5706 166.114C57.1327 167.27 56.6431 168.59 56.1018 170.073L57.2736 170.12C57.536 168.837 57.9379 167.453 58.4793 165.97C58.9966 164.336 59.574 163.08 60.2113 162.203L59.9481 162.012L59.2666 162.12L59.3026 162.347ZM79.1417 192.039L77.4076 191.382C76.6504 191.502 76.208 191.65 76.0806 191.825L77.8506 192.709L79.1417 192.039ZM181.372 167.697C183.308 165.217 185.156 162.673 186.916 160.066C188.677 157.458 190.437 154.851 192.198 152.243C190.836 155.409 189.159 158.546 187.168 161.656C185.328 164.742 183.564 167.816 181.875 170.877L183.25 169.263L185.006 167.121L185.533 167.504C184.641 168.732 183.557 170.223 182.283 171.977C180.984 173.58 179.622 175.271 178.196 177.049C176.921 178.803 175.646 180.558 174.372 182.312C173.097 184.066 172.026 185.633 171.158 187.013C170.058 188.894 169.059 190.916 168.159 193.076C167.387 195.062 166.726 197.262 166.178 199.678C165.971 200.331 165.369 201.436 164.374 202.991C163.378 204.546 162.259 205.81 161.015 206.783C160.737 206.982 160.458 207.182 160.179 207.381C160.051 207.556 159.836 207.668 159.533 207.716C159.43 208.043 159.051 208.103 158.397 207.896C157.943 207.968 157.628 207.94 157.453 207.813L154.14 206.009C153.94 205.73 153.741 205.451 153.542 205.172C153.342 204.893 153.067 204.626 152.716 204.371C152.317 203.814 151.942 203.407 151.592 203.152C149.549 200.06 149.01 196.653 149.972 192.93C151.588 186.464 153.29 180.062 155.081 173.724C157.023 167.362 159.017 160.836 161.062 154.147L160.954 153.466C163.176 149.854 165.272 147.892 167.241 147.58C169.186 147.117 171.027 146.98 172.765 147.171C168.368 154.698 164.972 161.678 162.575 168.113C160.155 174.395 158.994 180.789 159.093 187.293C160.032 183.419 160.867 179.871 161.599 176.65C162.458 173.254 163.417 169.997 164.476 166.88C165.535 163.763 166.669 160.633 167.879 157.492C169.241 154.327 170.869 150.886 172.765 147.171C173.721 147.33 174.491 147.286 175.072 147.038C175.806 146.767 176.491 146.192 177.128 145.315C174.819 150.338 172.804 154.771 171.084 158.615C169.516 162.434 168.087 166.153 166.797 169.773C165.659 173.368 164.545 177.115 163.454 181.014C162.492 184.737 161.549 189.078 160.627 194.037C160.372 194.387 160.141 194.89 159.934 195.543L161.38 194.383C161.356 194.232 161.344 194.156 161.344 194.156C161.472 193.98 161.523 193.817 161.499 193.665L161.571 194.12C161.978 193.745 162.384 193.37 162.791 192.995C163.173 192.469 163.468 191.879 163.674 191.225C165.459 188.769 167.088 186.803 168.562 185.328L168.753 185.065C171.072 182.059 173.238 179.076 175.254 176.118C177.397 172.984 179.436 170.177 181.372 167.697ZM175.817 129.688C175.666 129.712 175.463 129.899 175.208 130.25C175.749 128.767 176.605 127.312 177.777 125.885C178.924 124.306 180.007 122.815 181.027 121.411L178.521 132.054C179.365 130.523 179.994 129.104 180.408 127.797C180.798 126.338 181.069 125.596 181.22 125.572L183.094 118.289C183.428 117.46 183.838 116.619 184.324 115.766C184.938 114.737 185.754 113.521 186.774 112.118C185.198 116.869 183.992 121.019 183.157 124.567C183.157 124.567 183.244 124.631 183.42 124.758C182.926 126.544 182.214 128.908 181.283 131.85C180.503 134.768 179.743 136.828 179.002 138.033L177.855 139.611C177.703 139.635 177.64 139.723 177.664 139.875C177.664 139.875 177.6 139.962 177.473 140.138L176.672 140.963L176.098 141.753C175.947 141.777 175.807 141.876 175.68 142.052C175.68 142.052 175.604 142.064 175.453 142.088L175.07 142.614L171.436 143.19C171.181 143.541 170.902 143.74 170.599 143.788L170.372 143.824L170.145 143.86L169.69 143.932L169.641 140.68L173.523 132.846C173.396 133.021 173.563 132.607 174.025 131.602C174.487 130.597 174.602 130.346 174.371 130.849L174.407 131.076C174.383 130.924 174.447 130.837 174.598 130.813L174.826 130.777C174.802 130.625 174.941 130.525 175.244 130.477L175.208 130.25C175.359 130.226 175.563 130.039 175.817 129.688ZM173.714 132.583C173.173 134.066 172.843 135.903 172.725 138.095C172.734 140.112 172.937 141.399 173.336 141.957C173.288 141.654 173.228 141.276 173.156 140.821C173.236 140.343 173.24 139.877 173.168 139.422C173.334 137.533 173.68 135.305 174.205 132.738C174.053 132.762 173.978 132.774 173.978 132.774C173.954 132.622 173.866 132.559 173.714 132.583ZM178.249 137.686L178.44 137.423C178.464 137.574 178.348 137.826 178.093 138.176C178.221 138.001 178.273 137.838 178.249 137.686ZM183.25 169.263L183.441 168.999L183.25 169.263ZM213.656 171.2C215.02 170.984 218.41 167.885 223.828 161.904C225.66 159.751 227.153 157.419 228.308 154.907C229.614 152.372 231.008 149.9 232.49 147.492C231.455 150.76 229.942 153.95 227.95 157.06C226.087 159.994 224.486 163.12 223.148 166.436C223.785 165.559 224.359 164.77 224.869 164.068C225.53 163.342 226.191 162.616 226.853 161.891C227.004 161.867 227.092 161.931 227.116 162.082C227.116 162.082 227.192 162.07 227.343 162.046C226.499 163.577 225.352 165.156 223.902 166.783C222.428 168.258 220.942 169.658 219.444 170.982C218.097 172.282 216.727 173.43 215.332 174.427C214.065 175.249 213.129 175.708 212.523 175.804C211.614 175.948 210.243 175.622 208.409 174.825C206.727 174.005 205.602 172.786 205.035 171.168C203.633 173.098 202 175.53 200.136 178.464C198.4 181.223 196.676 184.058 194.963 186.968C193.402 189.855 191.98 192.641 190.698 195.328C189.544 197.84 188.759 199.749 188.346 201.057C187.804 202.54 187.318 203.393 186.888 203.616C186.633 203.967 186.015 203.987 185.035 203.677C184.253 203.646 183.4 203.16 182.475 202.219C181.423 201.455 180.509 200.59 179.736 199.626C178.787 198.534 178.001 197.495 177.379 196.506C176.732 195.367 176.425 194.406 176.457 193.625C176.4 191.306 176.506 189.038 176.776 186.821C176.895 184.629 177.666 181.169 179.091 176.442C179.449 175.764 179.811 174.62 180.177 173.009C180.066 174.269 180.095 175.429 180.263 176.489C180.279 177.573 180.311 178.266 180.359 178.569C180.383 178.721 180.399 178.33 180.407 177.397C180.414 176.465 180.366 174.687 180.261 172.065C180.675 170.757 181.061 169.765 181.419 169.087C181.164 169.438 180.885 169.637 180.582 169.685C180.431 169.709 180.303 169.884 180.2 170.211L180.043 166.277C179.446 168.39 178.725 170.212 177.881 171.743C177.881 171.743 177.718 171.691 177.391 171.588C177.293 168.033 177.79 164.306 178.88 160.407C179.97 156.509 181.758 152.111 184.242 147.216C187.819 141.371 191.573 140.078 195.504 143.336C196.485 143.647 197.438 144.272 198.363 145.212C199.439 146.128 200.002 146.738 200.05 147.041C199.939 148.3 198.776 150.27 196.561 152.949C194.474 155.453 192.642 159.081 191.066 163.833C190.732 164.662 190.433 165.719 190.171 167.002C189.908 168.286 189.582 169.657 189.192 171.116C188.802 172.575 188.4 173.958 187.986 175.265C187.724 176.549 187.438 177.681 187.127 178.662C187.166 176.948 187.205 175.234 187.244 173.52C187.411 171.631 187.729 169.717 188.198 167.78C187.219 170.419 186.483 172.632 185.989 174.417C185.647 176.179 185.505 178.22 185.562 180.54C185.626 181.927 185.961 182.572 186.567 182.476C187.3 182.205 188.061 181.619 188.85 180.718C189.639 179.816 190.34 178.851 190.953 177.823C191.694 176.619 192.192 175.841 192.447 175.491C193.625 173.13 195.047 170.344 196.711 167.13C198.527 163.893 200.343 160.656 202.159 157.419C203.975 154.181 205.664 151.12 207.225 148.233C208.937 145.323 210.191 142.951 210.988 141.117C211.505 139.482 212.924 138.637 215.243 138.58C217.539 138.372 219.241 138.335 220.349 138.47C220.724 138.876 221.25 139.259 221.928 139.617C222.581 139.824 222.996 139.991 223.171 140.119C223.291 140.876 222.969 141.781 222.204 142.833C220.468 145.592 219.05 147.913 217.951 149.794C216.828 151.525 215.78 153.243 214.809 154.949C213.964 156.48 212.993 158.187 211.893 160.068C210.922 161.775 209.631 163.92 208.022 166.503C208.214 167.715 209.012 168.83 210.415 169.85C211.97 170.846 213.051 171.296 213.656 171.2ZM216.201 141.688C214.441 144.296 212.553 147.079 210.538 150.037C208.65 152.82 206.837 155.591 205.101 158.35C203.516 161.085 202.058 163.644 200.728 166.028C199.55 168.389 198.765 170.298 198.376 171.757C201.745 166.566 204.796 161.814 207.528 157.5C210.236 153.034 213.127 147.764 216.201 141.688ZM192.839 145.621C192.002 146.22 191.074 147.221 190.054 148.624C189.011 149.876 188.067 151.267 187.222 152.798C186.378 154.329 185.61 155.848 184.917 157.355C184.376 158.838 184.101 160.046 184.094 160.979C185.32 158.921 186.28 157.139 186.973 155.632C187.793 153.95 188.904 152.144 190.306 150.214C190.561 149.863 190.983 149.098 191.573 147.918C192.162 146.738 192.584 145.972 192.839 145.621ZM182.107 182.251C182.234 182.076 182.274 181.837 182.226 181.534C181.079 183.113 180.37 185.01 180.1 187.226C179.831 189.443 179.839 191.459 180.127 193.277C180.166 191.563 180.421 189.737 180.89 187.8C181.208 185.887 181.614 184.037 182.107 182.251ZM180.2 170.211C180.344 171.12 180.364 171.738 180.261 172.065C180.309 172.368 180.257 172.531 180.105 172.555C180.105 172.555 180.129 172.706 180.177 173.009C180.081 172.404 180.089 171.471 180.2 170.211ZM239.369 178.771C241.67 174.68 244.65 170.948 248.307 167.575C252.092 164.025 255.104 160.987 257.342 158.459C259.581 155.931 262.059 153.443 264.776 150.994C267.469 148.394 269.772 145.778 271.684 143.147C270.043 146.512 267.813 149.582 264.992 152.357C262.171 155.133 259.702 158.163 257.583 161.448L259.184 159.797C259.184 159.797 259.005 160.136 258.647 160.814L261.204 157.847L261.276 158.302L261.503 158.266C260.46 159.518 259.149 161.045 257.572 162.847C256.122 164.474 254.544 166.276 252.839 168.254C251.11 170.08 249.469 171.97 247.916 173.924C246.49 175.702 245.267 177.293 244.247 178.697C242.741 180.953 241.615 183.15 240.866 185.287C240.245 187.248 239.676 189.046 239.159 190.68C238.793 192.291 238.228 193.622 237.463 194.675C236.85 195.703 235.786 196.337 234.271 196.577C234.12 196.601 233.642 196.522 232.836 196.339C232.207 196.283 231.489 196.164 230.684 195.981C229.879 195.798 229.137 195.528 228.459 195.169C227.63 194.835 227.104 194.452 226.881 194.022C225.979 193.233 224.919 191.926 223.698 190.102C222.454 188.125 221.424 186.037 220.61 183.838C219.645 181.662 218.982 179.438 218.622 177.166C218.111 174.919 218.341 172.942 219.313 171.235L222.228 166.116L222.729 164.872C221.861 166.252 220.742 167.516 219.371 168.665C220.175 165.898 221.166 163.335 222.345 160.975C223.5 158.463 224.579 155.964 225.582 153.476C225.94 152.798 226.287 152.045 226.621 151.216C226.931 150.235 227.481 149.294 228.27 148.393C227.943 148.289 228.15 147.636 228.891 146.432C229.631 145.228 230.436 143.936 231.304 142.556C232.3 141.001 233.244 139.61 234.136 138.382C235.028 137.154 235.55 136.528 235.701 136.504C236.92 135.379 238.275 134.621 239.766 134.23C241.408 133.815 242.946 133.726 244.381 133.965C245.011 134.02 245.565 134.088 246.043 134.167C246.673 134.223 247.39 134.342 248.196 134.525C249.049 135.011 250.077 135.624 251.281 136.365C252.486 137.106 253.622 138.401 254.691 140.249C255.265 140.935 255.461 141.68 255.278 142.485C255.095 143.29 254.836 144.108 254.502 144.937C254.295 145.59 254.012 146.256 253.654 146.934C253.447 147.588 253.443 148.054 253.643 148.333C254.042 148.891 254.317 149.158 254.468 149.134C254.771 149.086 254.986 148.974 255.114 148.799C255.241 148.623 255.305 148.535 255.305 148.535C255.432 148.36 255.508 148.348 255.532 148.499C255.549 149.584 254.895 150.851 253.573 152.303C252.378 153.579 251.019 154.803 249.497 155.976C249.649 155.952 249.712 155.864 249.688 155.712C249.003 156.287 248.039 157.06 246.796 158.033C245.704 158.983 245.17 159.533 245.194 159.684C247.019 158.464 248.553 157.367 249.796 156.394C251.167 155.245 252.589 153.933 254.063 152.458C254.486 153.167 254.594 153.849 254.387 154.502C254.18 155.156 253.798 155.683 253.24 156.081C251.463 157.605 249.929 158.702 248.638 159.372C247.347 160.042 245.889 161.127 244.263 162.626C241.777 164.572 239.343 166.355 236.96 167.975C234.577 169.594 233.478 171.476 233.662 173.62C232.937 172.959 232.315 171.97 231.796 170.655C231.277 169.34 231.161 168.117 231.447 166.985C230.675 168.97 229.664 170.916 228.413 172.821C229.034 170.86 229.667 168.974 230.311 167.165C230.956 165.355 231.489 163.33 231.911 161.09C230.605 163.625 229.374 166.149 228.22 168.66C227.216 171.148 227.102 174.348 227.877 178.262C228.245 179.601 228.827 180.828 229.625 181.944C230.423 183.06 231.312 183.773 232.292 184.083C233.273 184.393 234.333 184.226 235.473 183.579C236.74 182.758 238.038 181.155 239.369 178.771ZM245.501 149.855C244.847 149.648 244.05 150.008 243.11 150.933C242.321 151.834 241.365 153.15 240.242 154.88C239.246 156.435 238.199 158.153 237.1 160.035C236 161.917 234.889 163.723 233.766 165.453C234.531 164.401 235.953 163.089 238.033 161.517C240.264 159.922 242.256 158.287 244.009 156.612C245.762 154.937 246.933 153.51 247.523 152.33C248.239 150.974 247.565 150.149 245.501 149.855ZM222.358 164C223.904 162.979 225.111 161.778 225.98 160.399C226.999 158.996 227.931 157.528 228.776 155.997C229.747 154.291 230.783 152.497 231.882 150.615C233.132 148.709 234.75 146.668 236.734 144.491C238.438 142.513 240.487 141.723 242.878 142.12C245.397 142.342 247.359 142.963 248.762 143.983C247.063 142.079 244.966 141.091 242.471 141.021C239.976 140.95 237.689 141.7 235.609 143.272C233.553 144.995 231.976 146.797 230.877 148.679C229.777 150.56 228.754 152.43 227.806 154.288C227.01 156.122 226.202 157.88 225.381 159.562C224.561 161.245 223.554 162.724 222.358 164ZM223.26 174.103C223.26 174.103 223.224 173.876 223.152 173.422C222.746 173.796 222.563 174.602 222.603 175.837C222.62 176.921 222.812 178.133 223.179 179.472C223.546 180.811 224.065 182.126 224.735 183.417C225.254 184.732 225.928 185.557 226.757 185.891C225.887 184.321 225.197 182.412 224.686 180.165C224.023 177.941 223.548 175.921 223.26 174.103ZM231.638 166.722C232.276 165.844 232.825 164.904 233.287 163.899L231.638 166.722ZM250.525 155.114L249.688 155.712L250.525 155.114ZM234.676 141.79C234.548 141.965 234.484 142.053 234.484 142.053L234.676 141.79ZM283.518 149.19C284.194 146.599 283.584 144.212 281.685 142.029C279.938 139.821 278.172 138.471 276.386 137.978C278.244 138.925 279.732 140.475 280.849 142.627C282.117 144.755 282.553 147.014 282.155 149.406C281.782 151.949 280.603 154.309 278.619 156.486C276.635 158.663 274.564 160.777 272.405 162.826C270.397 164.852 268.552 166.93 266.871 169.059C265.166 171.036 264.354 173.261 264.435 175.732C264.801 174.122 265.912 172.316 267.769 170.314C269.601 168.161 271.573 165.908 273.684 163.555C275.947 161.179 277.983 158.838 279.791 156.533C281.727 154.053 282.969 151.606 283.518 149.19ZM301.003 156.667C302.071 155.566 302.859 154.665 303.369 153.963C304.031 153.238 304.54 152.536 304.899 151.858C305.409 151.156 305.918 150.455 306.428 149.753C307.09 149.027 307.954 148.114 309.022 147.014C308.177 148.544 307.461 149.9 306.871 151.08C306.258 152.109 305.645 153.137 305.031 154.166C304.394 155.043 303.693 156.008 302.928 157.06C302.164 158.113 301.283 159.417 300.288 160.972L304.71 156.545L305.236 156.928C303.531 158.906 301.471 161.095 299.057 163.495C296.643 165.896 294.253 168.448 291.887 171.151C289.648 173.679 287.585 176.335 285.697 179.118C283.96 181.877 282.83 184.54 282.305 187.107C280.934 188.255 279.213 189.149 277.14 189.787C275.275 189.772 273.481 188.737 271.758 186.681C270.163 184.45 269.245 182.577 269.005 181.063C268.742 179.397 268.769 177.607 269.087 175.694C269.532 173.605 270.507 171.432 272.013 169.176C269.248 171.321 267.372 174.18 266.385 177.752C265.223 181.196 265.185 184.385 266.27 187.318C263.112 185.023 261.828 181.811 262.415 177.682C262.765 174.987 263.302 172.496 264.026 170.208C264.75 167.92 265.889 165.799 267.443 163.845C268.359 162.769 269.084 161.955 269.618 161.405C270.279 160.679 270.813 160.129 271.219 159.754C271.777 159.355 272.323 158.881 272.857 158.33C273.367 157.629 274.08 156.739 274.996 155.663C276.725 153.837 278.087 152.146 279.083 150.591C280.158 148.558 280.161 146.617 279.092 144.768C278.174 142.895 276.826 141.246 275.048 139.82L273.062 137.573L263.984 156.708C263.633 156.453 263.457 156.326 263.457 156.326L264.782 151.459C263.149 153.891 261.552 156.55 259.991 159.437C258.406 162.171 256.395 164.664 253.957 166.913C255.287 164.529 256.629 162.22 257.983 159.988C259.162 157.627 260.328 155.192 261.483 152.68C262.661 150.32 263.629 147.605 264.384 144.536C265.14 141.466 266.287 138.413 267.824 135.375C266.54 135.113 265.747 135.005 265.444 135.053C265.117 134.95 264.866 134.834 264.691 134.707C264.667 134.555 264.503 134.504 264.2 134.552C263.873 134.448 263.22 134.241 262.239 133.931C264.542 132.79 265.729 130.972 265.8 128.477C265.846 125.83 266.044 123.16 266.394 120.465C266.473 119.987 267.103 120.042 268.283 120.632C269.463 121.221 270.731 121.874 272.086 122.591L272.718 119.231C273.381 121.454 273.478 123.535 273.008 125.472C272.69 127.385 272.448 129.287 272.282 131.176C273.285 128.688 273.985 126.249 274.383 123.857C274.756 121.314 274.324 118.588 273.087 115.679C279.162 115.804 281.085 119.613 278.856 127.107C280.618 127.449 282.288 128.194 283.867 129.341C285.446 130.488 286.985 131.874 288.485 133.5C289.282 134.615 290.028 135.895 290.723 137.337C291.544 138.604 292.151 139.983 292.542 141.473C292.909 142.812 293.05 144.187 292.963 145.598C293.003 146.834 292.629 147.902 291.84 148.803C290.542 150.406 289.167 152.021 287.717 153.648C286.243 155.123 284.869 156.738 283.594 158.493L281.455 161.16C281.806 161.415 281.994 161.618 282.018 161.77L295.486 146.829C296.858 148.63 296.592 150.379 294.687 152.078C292.297 154.63 289.947 156.943 287.636 159.017C285.325 161.09 283.326 163.658 281.637 166.72C280.387 168.626 279.383 171.113 278.628 174.183C277.848 177.101 278.307 179.512 280.006 181.416C283.368 177.158 286.806 172.887 290.319 168.605C293.832 164.323 297.394 160.343 301.003 156.667ZM415.535 78.2141C417.893 73.4939 421.047 68.4146 424.998 62.9762C428.925 57.3863 433.203 52.0514 437.832 46.9714C442.437 41.74 447.126 37.0386 451.899 32.8672C456.648 28.5445 460.947 25.302 464.796 23.1399C467.506 21.6241 469.415 20.9336 470.523 21.0686C471.607 21.0521 472.285 21.4105 472.556 22.1438C469.392 23.7316 466.734 25.084 464.583 26.2011C462.431 27.3181 460.455 28.5626 458.654 29.9345C456.98 31.131 455.343 32.5547 453.741 34.2056C452.14 35.8564 450.359 37.8461 448.399 40.1747C451.953 37.1279 455.706 34.3601 459.659 31.8711C463.588 29.2307 467.692 26.7177 471.971 24.3322L480.255 19.2943L482.192 18.289C480.829 18.5049 479.844 18.6608 479.238 18.7567C478.633 18.8527 478.987 18.6412 480.302 18.1225C484.957 16.1433 489.619 14.7063 494.29 13.8112C498.961 12.9162 503.74 12.7027 508.626 13.1707C509.735 13.3056 510.855 13.5163 511.987 13.8028C513.27 14.0652 514.339 14.4394 515.192 14.9252C519.114 16.1669 521.71 17.8516 522.978 19.9794C524.398 22.0831 524.148 24.9171 522.229 28.4812C521.512 29.8367 520.935 31.0925 520.497 32.2486C520.211 33.3806 519.597 34.4092 518.657 35.3344C517.844 36.0841 517.056 36.9852 516.291 38.0378C515.526 39.0904 514.837 40.131 514.224 41.1596C515.291 40.0591 516.295 39.0462 517.236 38.1211C518.303 37.0205 519.283 35.8562 520.175 34.6282C520.916 33.4241 521.657 32.2201 522.398 31.0161C523.266 29.6366 524.21 28.2451 525.229 26.8417C524.291 30.7162 522.662 34.1567 520.344 37.163C517.102 42.1786 513.198 46.4452 508.632 49.9628C504.066 53.4803 499.213 56.6553 494.073 59.4876C490.072 61.6737 486.087 63.4691 482.118 64.874C478.149 66.2789 473.921 67.0262 469.433 67.116C467.265 67.149 465.036 66.8033 462.748 66.079C460.588 65.1792 458.503 64.2675 456.493 63.3438C455.241 62.3001 454.101 61.4716 453.072 60.8583C452.171 60.0696 451.35 58.8025 450.607 57.0571C456.722 58.4173 462.784 58.4662 468.794 57.2039C471.823 56.7242 474.74 56.0292 477.546 55.1192C480.479 54.0337 483.288 52.6572 485.974 50.9899C481.247 52.5147 476.485 53.8124 471.687 54.8828C466.889 55.9533 462.05 55.7882 457.171 54.3876C461.611 53.9948 466.014 53.3749 470.382 52.5279C474.902 51.6568 479.449 50.4709 484.024 48.9701C488.75 47.4453 493.329 45.4782 497.76 43.0687C502.167 40.5077 506.338 37.4407 510.274 33.8677C510.912 32.9905 511.573 32.2648 512.258 31.6905C512.92 30.9648 513.569 30.1634 514.206 29.2862C516.827 26.2319 517.822 23.2023 517.191 20.1973C518.842 21.7988 519.118 23.5404 518.019 25.4222C517.453 26.7537 516.673 28.1969 515.677 29.7518C514.833 31.2827 513.889 32.6742 512.845 33.9262C511.116 35.7525 509.288 37.4393 507.359 38.9867C505.558 40.3587 503.706 41.894 501.801 43.5929C501.929 43.4174 502.22 43.2937 502.674 43.2218L503.929 42.3244C506.208 41.0319 508.324 39.6877 510.277 38.2918C512.205 36.7444 514.085 34.8942 515.918 32.741C516.404 31.8878 516.953 30.9469 517.566 29.9183C518.18 28.8897 518.729 27.9488 519.215 27.0957C521.484 20.837 519.557 17.4939 513.435 17.0664C511.219 16.7964 508.987 16.917 506.739 17.4283C504.643 17.9155 502.583 18.63 500.558 19.5716C502.631 18.9329 504.651 18.4576 506.62 18.1458C508.589 17.834 510.693 17.8887 512.933 18.3102C495.63 22.7585 479.921 29.4381 465.808 38.3489C451.846 47.2358 439.584 59.5017 429.022 75.1466C429.204 74.3414 429.399 73.612 429.606 72.9582C429.965 72.2805 430.463 71.503 431.1 70.6258C429.849 72.5316 428.599 74.4374 427.348 76.3431C426.074 78.0975 424.962 79.9035 424.015 81.7613C423.935 82.2396 423.78 82.73 423.549 83.2323C423.318 83.7346 422.848 84.1971 422.139 84.62C420.45 87.6818 418.782 91.3614 417.134 95.6588C415.462 99.8047 413.806 103.56 412.165 106.925C412.444 106.725 413.608 106.231 415.656 105.44C417.856 104.626 420.51 103.74 423.618 102.782C426.703 101.673 430.026 100.603 433.589 99.5729C437.279 98.3674 440.842 97.3374 444.277 96.4828C447.864 95.6043 451.096 94.9371 453.973 94.4814C456.978 93.8502 459.274 93.6418 460.86 93.8563C459.146 93.8173 457.58 94.2206 456.162 95.0662C454.743 95.9119 453.237 96.6938 451.643 97.412C453.412 96.8212 455.154 96.5454 456.868 96.5844C460.248 96.3596 462.99 97.012 465.095 98.5415C467.352 100.047 468.569 102.338 468.746 105.415C468.922 108.492 467.593 112.351 464.757 116.991C464.503 117.342 464.148 117.554 463.694 117.626C463.391 117.674 463.036 117.885 462.63 118.26C462.765 117.152 462.987 116.108 463.298 115.127C463.736 113.971 464.122 112.978 464.456 112.149C465.411 109.359 465.315 107.278 464.166 105.908C463.018 104.537 461.248 103.653 458.856 103.256C456.464 102.858 453.666 102.836 450.462 103.188C447.409 103.516 444.317 104.084 441.184 104.89C438.028 105.545 435.111 106.24 432.433 106.975C429.906 107.686 427.973 108.225 426.634 108.592C430.875 107.92 434.976 107.348 438.937 106.876C443.05 106.38 447.016 106.916 450.835 108.485C448.667 108.518 446.575 108.539 444.558 108.547C442.541 108.556 440.56 108.792 438.615 109.256C434.12 110.278 429.657 111.994 425.226 114.404C420.771 116.662 416.296 118.302 411.8 119.325C410.286 119.564 409.134 120.135 408.346 121.036C407.708 121.913 407.119 123.093 406.578 124.576C403.489 132.517 400.954 140.526 398.972 148.602C397.119 156.502 395.493 164.367 394.093 172.195C393.886 172.849 393.568 173.288 393.137 173.511L393.216 163.718L394.013 154.045C394.227 152.458 394.442 150.872 394.656 149.285C394.998 147.523 395.189 145.786 395.228 144.072C392.935 150.179 391.464 157.553 390.814 166.195C390.316 174.812 391.165 183.604 393.362 192.571C389.806 192.668 387.415 192.271 386.187 191.378C384.959 190.486 384.268 188.577 384.116 185.652C384.059 183.332 384.022 181.63 384.005 180.546C384.164 179.59 384.26 178.721 384.291 177.94C384.474 177.134 384.633 176.178 384.768 175.07C384.927 174.113 385.054 172.463 385.148 170.119C384.98 169.059 384.809 168.465 384.633 168.338C384.419 169.924 384.172 170.817 383.893 171.017C383.638 171.367 383.435 171.555 383.284 171.579C383.132 171.603 382.929 171.79 382.674 172.141C382.571 172.468 382.412 173.425 382.197 175.011C382.035 170.069 382.209 165.772 382.717 162.121C383.202 158.318 383.874 154.719 384.733 151.323C385.568 147.775 386.543 144.128 387.657 140.381C388.923 136.61 390.244 132.209 391.621 127.178C391.772 127.154 391.585 126.951 391.058 126.568C387.584 129.137 384.122 131.781 380.671 134.501C377.197 137.069 373.607 139.889 369.902 142.96C373.295 137.92 377.124 133.666 381.387 130.196C385.65 126.727 390.001 123.321 394.439 119.978C387.219 124.382 380.45 129.18 374.131 134.373C367.812 139.565 362.829 146.331 359.182 154.671C356.855 155.661 354.807 156.451 353.037 157.041C351.419 157.608 349.929 158 348.566 158.215C347.354 158.407 346.764 158.113 346.796 157.331C346.596 157.053 347.692 155.637 350.082 153.085C352.448 150.382 355.169 147.467 358.244 144.341C361.471 141.19 364.647 138.203 367.77 135.38C370.893 132.557 373.152 130.646 374.547 129.649C377.161 127.528 379.898 125.697 382.759 124.157C385.771 122.593 388.824 120.79 391.915 118.748C392.577 118.022 393.302 117.209 394.09 116.308C395.031 115.383 395.656 114.43 395.966 113.449C399.534 105.588 403.038 97.8138 406.478 90.1277C409.894 82.2902 413.461 74.4287 417.18 66.5432C418.056 64.231 419.473 61.9107 421.433 59.5821C421.816 59.0558 422.286 58.5932 422.844 58.1944C423.401 57.7955 424.25 57.273 425.39 56.6268L412.942 80.9535C413.293 81.2084 413.695 81.2999 414.15 81.228C414.381 80.7257 414.612 80.2233 414.843 79.721C415.049 79.0673 415.28 78.565 415.535 78.2141ZM463.368 36.1739C462.81 36.5727 462.276 37.123 461.766 37.8247C461.232 38.375 461.113 39.0925 461.409 39.9772C464.198 37.983 466.935 36.1522 469.62 34.4849C472.434 32.6422 475.247 30.7995 478.06 28.9567C477.023 29.2761 475.987 29.5954 474.951 29.9148C474.043 30.0587 473.234 30.3421 472.524 30.7649C470.978 31.786 469.42 32.7313 467.85 33.601C466.256 34.3191 464.762 35.1768 463.368 36.1739ZM488.744 17.0184C487.683 17.1863 486.699 17.3422 485.79 17.4861C485.033 17.6061 484.288 17.8017 483.555 18.0731C484.312 17.9532 485.105 18.0604 485.934 18.3948C486.341 18.02 487.277 17.5612 488.744 17.0184ZM448.308 98.406L446.945 98.6219C446.993 98.9248 446.941 99.0882 446.789 99.1122L448.308 98.406ZM448.827 119.515C449.672 117.984 451.137 115.966 453.225 113.462C455.288 110.807 457.491 108.052 459.833 105.197C462.151 102.19 464.406 99.2717 466.597 96.4408C468.787 93.6099 470.432 91.2535 471.531 89.3718C473.833 85.2813 475.765 81.7929 477.326 78.9065C478.863 75.8686 480.145 73.1817 481.172 70.8455C482.327 68.334 483.278 66.0099 484.026 63.8732C484.751 61.585 485.527 59.1334 486.355 56.5184C486.872 54.884 487.314 53.2616 487.679 51.6512C488.045 50.0408 487.71 49.3953 486.674 49.7147C487.941 48.893 488.774 48.7611 489.173 49.3189C489.548 49.7253 489.744 50.4705 489.76 51.5546C489.776 52.6387 489.653 53.8225 489.391 55.106C489.256 56.2141 489.173 57.1588 489.141 57.94C488.696 60.0287 487.609 63.4609 485.882 68.2366C484.306 72.9884 481.316 79.5941 476.912 88.0539C475.223 91.1157 473.192 94.4647 470.818 98.1008C468.596 101.713 466.286 105.261 463.888 108.746C461.618 112.055 459.387 115.125 457.197 117.956C455.157 120.763 453.564 122.956 452.417 124.535C451.907 125.237 451.206 126.201 450.314 127.429C449.422 128.658 448.541 129.961 447.673 131.341C446.805 132.72 445.949 134.175 445.104 135.706C444.388 137.062 443.886 138.306 443.6 139.438C442.589 142.858 442.048 145.816 441.978 148.311C442.035 150.63 442.011 151.954 441.908 152.28L445.039 148.524C446.058 147.121 447.026 145.881 447.943 144.804C448.835 143.576 449.6 142.524 450.237 141.647C450.388 141.623 450.452 141.535 450.428 141.383C452.946 138.656 455.3 135.877 457.491 133.046C459.833 130.191 462.123 127.5 464.362 124.972C466.601 122.444 468.688 119.94 470.624 117.459C472.687 114.804 474.839 112.212 477.077 109.684C475.261 112.922 473.27 116.031 471.103 119.014C468.912 121.845 466.734 124.751 464.567 127.734L466.168 126.083L465.404 127.135L467.997 124.396C468.172 124.523 468.336 124.575 468.487 124.551C467.444 125.803 466.209 127.318 464.783 129.097C463.333 130.723 461.831 132.514 460.277 134.467C458.851 136.246 457.425 138.024 455.999 139.802C454.573 141.581 453.414 143.084 452.522 144.312C451.423 146.194 450.26 148.163 449.033 150.22C447.934 152.102 447.022 154.187 446.298 156.475C446.067 156.978 445.378 158.018 444.231 159.597C443.06 161.025 441.701 162.249 440.155 163.27C439.9 163.621 439.697 163.808 439.546 163.832C439.267 164.032 438.988 164.231 438.709 164.43C438.454 164.781 438.076 164.841 437.573 164.61C437.27 164.658 436.943 164.555 436.593 164.3L433.734 162.424C433.232 162.193 432.769 161.723 432.346 161.014L431.485 159.986C430.12 157.252 430.071 154 431.337 150.229C431.91 147.965 432.932 144.62 434.405 140.195C435.726 135.794 437.226 131.055 438.906 125.976C440.562 120.746 442.229 115.592 443.909 110.513C445.588 105.435 447.085 101.161 448.398 97.693C449.839 94.0494 450.843 91.5618 451.408 90.2303C452.125 88.8748 452.284 89.3929 451.887 91.7845C453.408 87.6626 454.864 83.6283 456.258 79.6818C457.778 75.5599 459.41 71.6531 461.154 67.9615C461.306 67.9375 461.445 67.8378 461.573 67.6624L469.434 54.0753C470.605 52.6479 471.776 51.2204 472.947 49.793C474.27 48.3415 475.692 47.0296 477.214 45.857C478.537 44.4056 480.242 43.9026 482.331 44.348C484.396 44.6419 486.015 45.5499 487.187 47.0719L473.289 63.7109C473.313 63.8624 473.337 64.0138 473.361 64.1652C473.512 64.1413 473.6 64.205 473.624 64.3564C474.923 62.7536 476.233 61.2264 477.556 59.775C478.854 58.1721 480.253 56.7087 481.751 55.3847C482.946 54.1087 484.073 53.3868 485.133 53.2188C486.345 53.027 486.632 53.3696 485.995 54.2467C484.393 55.8976 482.433 58.2262 480.115 61.2325C477.924 64.0634 475.578 67.3846 473.077 71.1962C470.727 74.9837 468.262 79.0224 465.682 83.3123C463.101 87.6021 460.684 91.9437 458.43 96.3371C456.152 100.579 454.165 104.697 452.469 108.692C450.773 112.686 449.559 116.294 448.827 119.515ZM434.863 148.972C436.646 143.566 437.876 139.568 438.553 136.977C439.38 134.362 439.778 131.97 439.745 129.802C438.956 130.703 438.212 132.374 437.511 134.813C436.811 137.253 436.186 139.68 435.637 142.096C435.089 144.512 434.783 146.501 434.72 148.063C434.505 149.649 434.553 149.952 434.863 148.972ZM454.852 89.9178C457.894 84.6233 460.005 80.796 461.183 78.4359C462.338 75.9244 463.038 73.4848 463.284 71.1172C462.496 72.0183 461.512 73.6489 460.333 76.009C459.306 78.3451 458.291 80.757 457.288 83.2445C456.412 85.5567 455.703 87.4542 455.162 88.9372C454.621 90.4201 454.517 90.747 454.852 89.9178ZM495.506 120.039C500.096 116.673 503.574 113.638 505.94 110.935C508.457 108.207 511.099 105.771 513.864 103.625C511.57 106.783 509.407 109.299 507.375 111.173C505.47 112.872 503.208 115.248 500.587 118.303L502.069 117.369L501.686 117.896C501.965 117.696 502.511 117.222 503.324 116.472C504.137 115.722 504.718 115.475 505.069 115.73C502.352 118.178 500.093 120.089 498.292 121.461C496.619 122.657 495.499 123.921 494.934 125.253C494.034 127.413 493.366 129.072 492.928 130.228C492.466 131.232 491.94 132.325 491.351 133.505C490.762 134.685 489.842 136.228 488.591 138.133C487.492 140.015 485.843 142.838 483.645 146.601C484.345 144.162 485.197 141.698 486.2 139.211C487.331 136.548 488.398 133.972 489.401 131.485C490.38 128.846 491.144 126.319 491.693 123.903C492.369 121.312 492.655 118.705 492.55 116.083C492.397 113.157 491.926 110.67 491.136 108.622C490.322 106.422 489.476 105.004 488.599 104.366C486.494 102.837 484.7 101.802 483.217 101.26C481.885 100.695 480.108 100.744 477.884 101.406C479.901 101.397 481.85 101.942 483.732 103.042C485.613 104.141 487.177 105.678 488.421 107.655C489.666 109.631 490.492 111.907 490.899 114.481C491.435 116.88 491.376 119.451 490.724 122.194C489.761 125.917 488.507 129.763 486.963 133.734C485.394 137.553 484.244 141.073 483.512 144.294L481.875 145.717C481.612 147.001 481.405 147.655 481.254 147.679C481.23 147.527 481.373 146.961 481.684 145.981C479.652 147.855 477.744 150.02 475.959 152.476C474.151 154.781 472.924 156.838 472.279 158.648C472.048 159.15 470.877 159.103 468.764 158.506C466.675 158.06 465.057 157.152 463.908 155.782C463.334 155.097 462.664 153.806 461.897 151.909C461.131 150.012 460.492 147.94 459.981 145.692C459.319 143.468 458.947 141.121 458.866 138.65C458.634 136.203 458.84 134.074 459.485 132.264C459.946 131.26 460.42 130.331 460.906 129.478C461.241 128.649 461.726 127.795 462.364 126.918L463.021 125.184C461.897 126.914 460.814 128.406 459.77 129.658C460.288 128.023 461.112 125.875 462.242 123.212C463.373 120.549 464.579 117.874 465.862 115.187C467.12 112.348 468.338 109.749 469.517 107.389C470.823 104.853 471.922 102.971 472.814 101.743C473.173 101.066 473.973 100.24 475.216 99.2671C476.587 98.1186 478.145 97.1732 479.89 96.4311C481.636 95.6889 483.353 95.2616 485.043 95.1492C486.861 94.8614 488.483 95.303 489.91 96.4741C490.963 97.2389 491.872 98.5697 492.638 100.466C493.556 102.339 494.259 104.324 494.746 106.42C495.384 108.492 495.784 110.525 495.944 112.518C496.256 114.486 496.408 115.937 496.401 116.87L496.09 117.851C495.987 118.177 495.895 118.58 495.816 119.058C495.713 119.385 495.609 119.712 495.506 120.039ZM485.938 115.5C486.073 114.392 485.753 113.356 484.98 112.391C484.182 111.276 483.42 110.387 482.695 109.726C482.567 109.901 482.2 110.037 481.595 110.133C480.431 110.628 479.2 111.677 477.901 113.28C476.603 114.882 475.097 117.139 473.385 120.05C471.8 122.784 470.378 125.571 469.12 128.41C467.838 131.097 467.357 134.433 467.678 138.418C467.87 139.63 468.05 140.766 468.218 141.826C468.386 142.886 468.605 143.783 468.877 144.516C469.276 145.074 469.854 145.293 470.611 145.173C471.368 145.053 472.496 144.331 473.994 143.007C474.249 142.656 474.516 142.381 474.794 142.181C475.049 141.831 475.253 141.643 475.404 141.619C475.659 141.268 475.85 141.005 475.978 140.83C476.256 140.63 476.511 140.279 476.742 139.777L476.969 139.741L478.535 137.863C478.264 137.13 478.068 136.385 477.948 135.627C477.956 134.695 477.975 133.838 478.007 133.057C478.038 132.275 478.336 131.219 478.902 129.888C479.595 128.381 480.287 126.874 480.98 125.367C481.824 123.836 482.681 122.381 483.549 121.001C484.545 119.446 485.425 118.143 486.19 117.09L485.938 115.5ZM472.525 146.965C471.202 148.417 470.035 149.378 469.023 149.849C468.011 150.32 467.185 149.519 466.547 147.447C465.74 144.314 465.117 141.851 464.678 140.058C464.087 138.289 463.727 136.017 463.598 133.243C463.631 135.411 463.852 137.783 464.259 140.357C464.516 142.956 465.087 145.582 465.973 148.236C466.636 150.46 467.561 151.4 468.748 151.057C470.087 150.689 471.267 149.804 472.286 148.4L472.525 146.965ZM483.409 128.941C484.715 126.405 485.416 123.966 485.51 121.622C482.444 126.765 481.138 130.775 481.594 133.653L481.785 133.39C482.016 132.887 482.223 132.234 482.406 131.428C482.74 130.599 483.075 129.77 483.409 128.941ZM482.113 144.282C482.496 143.756 482.842 143.003 483.152 142.022C483.025 142.197 482.81 142.309 482.507 142.357L482.113 144.282ZM502.714 117.034C502.587 117.21 502.372 117.321 502.069 117.369C502.22 117.345 502.296 117.333 502.296 117.333C502.272 117.182 502.336 117.094 502.487 117.07L502.714 117.034ZM488.016 110.979C487.889 111.154 487.837 111.318 487.861 111.469L488.052 111.206L488.016 110.979ZM548.296 124.02C548.376 123.541 548.507 122.9 548.69 122.094C548.849 121.138 549.16 120.157 549.621 119.152C547.455 122.135 545.324 125.344 543.229 128.781C541.286 132.194 539.47 135.431 537.781 138.493C536.22 141.379 534.902 143.839 533.827 145.872C532.752 147.905 532.063 148.946 531.76 148.994C530.548 149.186 528.942 148.354 526.94 146.497C524.938 144.641 523.745 142.501 523.362 140.078C522.522 134.777 523.372 129.364 525.913 123.839C528.604 118.29 531.79 112.429 535.47 106.257C532.387 110.316 529.547 113.949 526.95 117.154C524.504 120.336 523.205 121.939 523.054 121.963L523.018 121.736C522.915 122.063 522.162 123.191 520.76 125.121C519.485 126.875 517.956 128.98 516.171 131.436C514.514 133.717 512.869 136.073 511.236 138.505C509.579 140.786 508.444 142.441 507.831 143.469C507.369 144.474 506.816 145.881 506.171 147.691C505.677 149.477 504.976 150.442 504.068 150.586C503.462 150.682 502.732 150.487 501.879 150.001C500.875 149.539 499.922 148.914 499.021 148.125C497.944 147.209 497.095 146.256 496.472 145.268C495.826 144.129 495.559 142.929 495.67 141.67C495.812 139.629 496.309 137.377 497.161 134.913C497.837 132.322 498.601 129.795 499.453 127.331C500.305 124.868 501.093 122.492 501.817 120.204C502.542 117.915 502.923 115.914 502.962 114.201L499.856 119.583C499.705 119.607 499.629 119.619 499.629 119.619C499.605 119.467 499.517 119.404 499.366 119.428C499.58 117.841 500.141 115.501 501.048 112.408C502.107 109.291 503.393 106.137 504.906 102.948C506.419 99.7587 508.219 96.912 510.306 94.408C512.394 91.904 514.573 90.4721 516.845 90.1123C518.208 89.8964 519.854 90.4895 521.784 91.8915C523.865 93.2696 524.978 94.413 525.122 95.3216C524.939 96.1268 524.389 97.0677 523.473 98.1443C521.386 100.648 519.844 102.678 518.849 104.233C517.853 105.788 516.957 107.482 516.161 109.316C515.34 110.998 514.365 113.171 513.234 115.834C512.231 118.321 510.602 121.762 508.349 126.155L510.627 115.548C509.297 117.932 508.067 120.456 506.936 123.119C505.806 125.782 505.408 128.173 505.744 130.294C505.888 131.202 506.339 131.597 507.096 131.477C507.072 131.325 507.669 130.687 508.888 129.563C510.083 128.287 511.534 126.66 513.238 124.682C515.095 122.68 516.979 120.364 518.891 117.732C520.93 114.925 522.794 111.991 524.483 108.929C524.507 109.081 524.312 109.81 523.898 111.118C528.438 104.499 532.505 98.8096 536.098 94.0489C539.691 89.2883 542.396 86.764 544.213 86.4762C544.97 86.3563 545.664 86.324 546.294 86.3795C547.075 86.4111 547.78 86.4546 548.41 86.5101C548.458 86.813 549.196 87.55 550.623 88.7211C552.027 89.7407 552.764 90.4777 552.836 90.9321C552.653 91.7373 552.104 92.6782 551.188 93.7548C549.1 96.2588 547.559 98.2882 546.563 99.8431C545.567 101.398 544.671 103.092 543.875 104.926C543.055 106.609 542.079 108.781 540.949 111.444C539.946 113.932 538.317 117.372 536.063 121.766L538.342 111.159C537.012 113.543 535.793 116.142 534.687 118.956C533.556 121.619 533.147 123.935 533.459 125.904C533.602 126.813 534.053 127.207 534.81 127.087C535.416 126.991 535.771 126.78 535.874 126.453C536.105 125.951 536.715 125.388 537.703 124.766C537.599 125.093 537.584 125.484 537.656 125.938C537.727 126.392 537.851 126.683 538.027 126.811C539.684 124.53 541.918 120.994 544.729 116.201C547.693 111.385 550.731 106.557 553.846 101.717C556.96 96.8768 559.78 92.6267 562.305 88.9666C564.982 85.2825 566.85 83.3565 567.911 83.1886C571.091 82.6849 572.813 83.266 573.077 84.9319C573.021 85.5617 572.548 86.4906 571.655 87.7186C569.799 89.7203 567.66 92.3878 565.238 95.721C562.968 99.0302 560.797 102.479 558.726 106.067C556.783 109.48 555.131 112.769 553.769 115.934C552.535 118.924 552.014 121.025 552.206 122.236C552.397 123.448 552.841 124.775 553.535 126.217C554.205 127.508 554.843 128.106 555.449 128.01C556.963 127.77 558.661 126.725 560.541 124.875C562.397 122.873 564.293 120.632 566.229 118.152C568.165 115.672 569.962 113.292 571.619 111.011C573.276 108.73 574.638 107.04 575.706 105.939C577.992 103.714 579.964 101.461 581.621 99.1807C583.254 96.7486 585.126 94.3563 587.237 92.0037C585.573 95.217 583.494 98.2631 581 101.142C578.507 104.021 576.176 106.951 574.01 109.934L578.659 105.472C578.683 105.623 578.695 105.699 578.695 105.699C578.846 105.675 578.934 105.738 578.958 105.89C577.763 107.166 576.146 109.207 574.106 112.014C572.067 114.821 569.888 117.728 567.57 120.734C565.379 123.565 563.228 126.157 561.117 128.509C558.981 130.711 557.308 131.907 556.096 132.099C555.036 132.267 553.553 131.725 551.648 130.475C549.893 129.2 548.776 127.049 548.296 124.02ZM567.793 88.3302C564.973 91.1056 562.798 93.5459 561.268 95.6511C559.739 97.7563 558.488 99.6621 557.517 101.368C556.696 103.051 556.015 104.633 555.474 106.116C555.06 107.424 554.419 108.767 553.551 110.147C555.718 107.165 557.148 104.92 557.84 103.413C558.685 101.882 559.401 100.527 559.991 99.3465C560.58 98.1664 561.373 96.799 562.368 95.2441C563.364 93.6892 565.172 91.3845 567.793 88.3302ZM544.096 91.6178C541.602 94.4967 539.618 96.6738 538.144 98.1493C536.798 99.4492 535.679 100.713 534.786 101.941C534.022 102.994 533.205 104.21 532.337 105.589C531.596 106.793 530.509 108.751 529.075 111.462C529.944 110.082 530.76 108.866 531.525 107.814C532.417 106.586 533.449 105.258 534.62 103.831C535.791 102.403 537.089 100.8 538.516 99.0219C540.069 97.0682 541.929 94.6002 544.096 91.6178ZM518.138 93.8662C516.289 94.9353 514.64 96.2832 513.19 97.9101C511.891 99.513 510.605 101.192 509.33 102.946C510.525 101.67 512.151 100.17 514.206 98.4477C516.262 96.7249 517.573 95.1977 518.138 93.8662ZM516.262 96.7249C514.485 98.2482 512.984 100.039 511.757 102.096C510.682 104.129 509.706 106.302 508.831 108.614C510.161 106.23 511.451 104.085 512.702 102.179C513.952 100.273 515.139 98.4552 516.262 96.7249Z" fill="url(#paint0_radial_215_1236)"/>
<defs>
<radialGradient id="paint0_radial_215_1236" cx="0" cy="0" r="1" gradientUnits="userSpaceOnUse" gradientTransform="translate(324 117) rotate(79.6551) scale(192.123 466.107)">
<stop offset="0.0664626" stop-color="#0E2A36"/>
<stop offset="0.870486" stop-color="#095579"/>
</radialGradient>
</defs>
</svg>
