<svg width="50" height="50" viewBox="0 0 50 50" fill="none" xmlns="http://www.w3.org/2000/svg">
<path fill-rule="evenodd" clip-rule="evenodd" d="M8.78558 1.56247H41.2144C45.2035 1.56247 48.4375 4.79637 48.4375 8.78555V41.2144C48.4375 45.2035 45.2035 48.4375 41.2144 48.4375H8.78558C4.7964 48.4375 1.5625 45.2035 1.5625 41.2144V8.78555C1.5625 4.79637 4.7964 1.56247 8.78558 1.56247Z" fill="#49D4A6"/>
<path fill-rule="evenodd" clip-rule="evenodd" d="M24.6067 34.3764H26.5241C26.5241 34.3764 27.1031 34.3126 27.3992 33.994C27.6713 33.7012 27.6626 33.1518 27.6626 33.1518C27.6626 33.1518 27.6251 30.5789 28.819 30.2001C29.9965 29.8266 31.508 32.6866 33.1101 33.7864C34.3216 34.6184 35.2422 34.4363 35.2422 34.4363L39.5264 34.3764C39.5264 34.3764 41.7673 34.2381 40.7047 32.4761C40.6177 32.3322 40.0856 31.1728 37.5192 28.7906C34.8327 26.2973 35.1929 26.7007 38.4287 22.3879C40.3993 19.7614 41.187 18.158 40.9409 17.4713C40.7064 16.817 39.2568 16.9898 39.2568 16.9898L34.4333 17.0196C34.4333 17.0196 34.0754 16.971 33.8104 17.1296C33.5512 17.2847 33.3848 17.647 33.3848 17.647C33.3848 17.647 32.621 19.6794 31.6032 21.408C29.4554 25.0552 28.5964 25.2482 28.2453 25.0214C27.4285 24.4935 27.6326 22.9012 27.6326 21.7696C27.6326 18.235 28.1687 16.7613 26.5886 16.3798C26.0643 16.2533 25.6781 16.1696 24.3371 16.1559C22.6159 16.1384 21.1595 16.1612 20.3346 16.5653C19.7858 16.8341 19.3625 17.4328 19.6205 17.4672C19.9394 17.5097 20.6612 17.6621 21.0439 18.1828C21.5384 18.8555 21.5211 20.3656 21.5211 20.3656C21.5211 20.3656 21.8052 24.5264 20.8578 25.0431C20.2077 25.3975 19.3157 24.6739 17.4007 21.365C16.4198 19.6701 15.6789 17.7964 15.6789 17.7964C15.6789 17.7964 15.5362 17.4463 15.2813 17.2589C14.9723 17.0318 14.5404 16.9599 14.5404 16.9599L9.95661 16.9898C9.95661 16.9898 9.26866 17.009 9.01585 17.3083C8.79094 17.5746 8.99789 18.1249 8.99789 18.1249C8.99789 18.1249 12.5863 26.5205 16.6498 30.7514C20.3761 34.631 24.6067 34.3764 24.6067 34.3764Z" fill="white"/>
</svg>
