<svg width="42" height="41" viewBox="0 0 42 41" fill="none" xmlns="http://www.w3.org/2000/svg">
<path d="M12.202 29.4361C12.6496 26.1533 12.8362 23.2808 13.5076 20.4829C14.1045 17.9462 12.6123 16.2302 11.6797 14.2903C11.5678 14.0665 10.7098 14.0292 10.2621 14.1784C7.76269 14.9245 5.30057 15.7825 2.83845 16.6032C1.75661 16.9763 0.674772 17.1628 0.152504 15.8944C-0.369764 14.5142 0.525552 13.88 1.682 13.4323C5.41249 11.9401 9.14297 10.4106 12.9108 8.91844C14.7387 8.17234 16.5293 8.24695 18.2827 9.17957C19.551 9.85106 20.8194 10.5225 22.0505 11.194C24.326 12.4624 25.4452 12.6489 28.4669 12.3505C28.2431 11.3806 27.9446 10.4479 27.8327 9.47801C27.7581 9.06765 27.9073 8.43347 28.2058 8.20964C28.4296 8.02312 29.1011 8.28425 29.4741 8.50808C31.5632 9.73914 33.503 11.1567 35.6667 12.2013C36.6367 12.6489 37.9423 12.3505 39.1361 12.4251C39.6583 12.4624 40.1433 12.4997 40.6656 12.537C40.6656 12.6862 40.7029 12.8728 40.7029 13.022C40.3298 13.1712 39.9941 13.4323 39.621 13.4323C35.7413 13.395 33.988 16.2675 32.0108 18.8788C31.787 19.1773 31.3767 19.5876 31.0782 19.5503C30.7425 19.513 30.2202 19.0654 30.1829 18.7669C30.1083 15.2603 27.5716 15.8198 25.3333 15.7079C23.5053 15.6333 21.6774 15.223 19.7376 14.9618C21.6401 19.1027 23.58 23.2435 25.4079 27.1978C28.3177 27.1978 31.414 27.2351 34.5103 27.1978C37.7185 27.1605 39.9195 28.69 40.964 31.749C41.8593 34.3603 41.0013 35.8152 38.3154 36.3002C33.9134 37.0463 29.5114 37.867 25.0721 38.4266C19.5883 39.0981 14.0672 39.5457 8.5834 40.068C4.55448 40.4783 2.83845 38.3893 1.34626 34.4723C0.712077 32.8308 1.94314 31.9355 3.43533 31.5625C6.15859 30.891 8.88184 30.2941 11.6051 29.6599C11.9408 29.5107 12.2766 29.3988 12.202 29.4361ZM32.9808 28.7273C28.728 29.1377 24.4007 29.3242 20.1852 29.9957C14.8506 30.8164 9.55333 31.9728 4.29334 33.092C3.84568 33.2039 3.09959 33.95 3.1742 34.323C3.50994 36.5613 5.93476 38.5012 8.24766 38.2401C18.1707 37.0463 28.0938 35.7406 38.0169 34.5096C39.7703 34.2857 39.8822 33.3158 39.2853 32.0474C38.0169 29.3242 35.8532 28.4289 32.9808 28.7273ZM18.32 22.6466C18.0588 22.7212 17.7604 22.7958 17.4993 22.8705C17.1262 24.6984 16.7532 26.5636 16.3428 28.7646C18.2454 28.5035 19.551 28.317 21.4909 28.0185C20.2971 25.9668 19.2899 24.288 18.32 22.6466ZM30.0337 10.336C30.5933 12.6116 31.0782 14.4769 31.6005 16.6032C32.9435 15.4095 34.0253 14.4396 35.2564 13.3577C33.503 12.3132 31.9735 11.4552 30.0337 10.336Z" fill="#0E2A36"/>
<path d="M14.4511 0.00250067C16.5401 0.0771104 18.0323 1.68122 17.995 3.73299C17.9577 5.74745 16.0925 7.53808 14.1153 7.42617C12.1755 7.31425 10.4968 5.56092 10.5341 3.58377C10.6087 1.532 12.3247 -0.0721091 14.4511 0.00250067Z" fill="#0E2A36"/>
<path d="M7.43823 35.2183C9.49 34.8079 11.1314 34.4722 13.034 34.0991C11.7283 36.3001 10.0123 36.6359 7.43823 35.2183Z" fill="#0E2A36"/>
</svg>
