<svg width="30" height="38" viewBox="0 0 30 38" fill="none" xmlns="http://www.w3.org/2000/svg">
<path d="M22.7518 0.249023C23.9626 0.91496 25.1734 1.42955 26.2025 2.18629C31.2576 5.84894 30.4403 5.45544 28.4728 9.9051C24.0534 20.0152 17.6967 28.7632 9.58439 36.2399C7.61685 38.0561 7.37469 38.1166 5.13472 36.7544C3.59096 35.8161 2.19854 34.6356 0.775862 33.5156C-0.0111544 32.8799 -0.192772 32.1232 0.200736 31.094C4.86229 19.4098 11.8546 9.39051 21.2686 1.0663C21.6621 0.793875 22.1766 0.581992 22.7518 0.249023ZM14.5184 27.2497C14.7605 27.0681 15.033 26.947 15.154 26.7654C17.5454 23.3752 19.9064 20.0152 22.2372 16.5947C22.3885 16.3526 22.2069 15.8985 22.1766 15.5353C21.8134 15.7169 21.3291 15.8077 21.1172 16.0801C20.1788 17.4423 19.3616 18.8952 18.3929 20.2574C17.061 22.1644 15.6384 23.9806 14.2762 25.8573C14.0946 26.1297 13.9735 26.4627 13.9735 26.7957C13.9735 26.947 14.3065 27.0984 14.5184 27.2497ZM7.64712 22.6487C7.88928 22.7698 8.13143 22.8606 8.34332 22.9817C8.49467 22.679 8.61575 22.3157 8.82764 22.0433C11.0979 18.7742 13.3984 15.5353 15.6384 12.2359C15.8502 11.9332 15.7594 11.4489 15.7897 11.0554C15.3962 11.2067 14.9119 11.237 14.6697 11.5094C13.6708 12.6899 12.6719 13.931 11.7941 15.2023C10.4017 17.2304 9.03953 19.319 7.73793 21.4076C7.55631 21.7406 7.67739 22.2552 7.64712 22.6487ZM2.7434 31.3664C2.80394 31.6994 2.80394 31.8507 2.86448 31.9113C4.28716 32.8799 5.67958 33.8788 7.13253 34.8172C7.22334 34.8777 7.61684 34.6356 7.67738 34.4842C7.73792 34.3026 7.67738 33.9394 7.52603 33.8486C6.2547 32.9102 4.9531 32.0021 3.62123 31.1243C3.43961 31.0032 3.01583 31.2756 2.7434 31.3664ZM23.0847 3.06412C22.6307 3.36681 22.2977 3.48789 22.2977 3.63924C22.2675 3.8814 22.3583 4.27491 22.5399 4.39599C23.7507 5.30408 24.9917 6.15164 26.2328 6.9992C26.3842 7.12028 26.8382 7.12028 26.8987 6.9992C27.0501 6.78731 27.1409 6.30299 27.0198 6.21218C25.7182 5.15273 24.3863 4.12356 23.0847 3.06412Z" fill="white"/>
</svg>
