<svg width="36" height="34" viewBox="0 0 36 34" fill="none" xmlns="http://www.w3.org/2000/svg">
<path d="M1.71973 33.5814C2.09358 32.1199 2.90927 31.7461 4.06483 31.78C7.49752 31.814 10.9642 31.78 14.6688 31.78C14.3629 29.231 14.3969 26.9199 13.7511 24.8127C13.3433 23.5552 12.0178 22.4676 10.8622 21.584C8.75503 19.9526 8.04131 18.0833 8.82301 15.5003C9.26484 14.0388 9.3668 12.5094 9.6387 11.014C10.2844 7.6153 11.9498 6.8336 14.9067 8.46497C16.0282 9.07674 17.0479 9.9604 18.2374 10.5042C19.393 11.048 20.6505 11.2859 21.874 11.6937C21.942 11.5238 22.0439 11.3199 22.1119 11.1499C21.908 10.8441 21.6361 10.6062 21.4662 10.2663C21.3302 9.99439 21.2283 9.51857 21.3642 9.41661C21.6361 9.21269 22.0779 9.04275 22.3838 9.14471C26.3263 10.4702 30.2688 11.5578 34.4832 10.7761C34.6531 10.7421 34.8231 10.7761 34.959 10.8441C35.027 10.878 35.095 11.014 35.3668 11.3539C34.6871 11.5238 34.1093 11.7957 33.5315 11.7957C31.5263 11.7957 30.0989 12.7813 28.8753 14.2088C28.6374 14.4807 28.6714 14.9905 28.5694 15.3643C28.4675 15.7042 28.4335 16.248 28.1956 16.316C27.9237 16.4179 27.3459 16.282 27.176 16.0441C25.8845 14.2767 24.1172 14.5826 22.2819 14.6166C20.0047 14.6506 17.7616 14.2767 15.2465 14.0728C14.5328 16.0101 13.5132 18.2872 15.7224 20.4964C17.7956 22.5696 17.9655 25.1866 17.7956 27.9055C17.7276 29.0271 17.7956 30.1487 17.7956 31.3042C23.6753 31.3042 29.4531 31.3042 35.3329 31.3042C35.095 33.2075 33.7695 33.5474 32.41 33.6153C29.827 33.7513 27.21 33.7513 24.593 33.7513C17.6256 33.7513 10.6583 33.7513 3.69097 33.7173C3.11319 33.6833 2.50143 33.6153 1.71973 33.5814ZM29.861 11.8977C28.0257 11.5578 26.6662 11.2859 25.1028 11.014C26.0544 12.1016 26.8021 12.9852 27.6178 13.9029C28.3655 13.2232 28.9433 12.7133 29.861 11.8977Z" fill="#0E2A36"/>
<path d="M19.5423 3.36685C19.5763 5.23613 18.0469 6.83352 16.1776 6.90149C14.3083 6.90149 12.7109 5.33809 12.7109 3.43482C12.7109 1.63351 14.1724 0.0701103 16.0077 0.00213633C17.843 -0.0658376 19.5083 1.49756 19.5423 3.36685Z" fill="#0E2A36"/>
<path d="M11.5556 23.5891C13.9347 25.0166 13.4249 27.3617 13.7647 29.7068C9.17649 29.9447 4.65622 30.1486 0 30.3865C0.203922 28.8571 0.985622 28.4153 2.10719 28.3473C4.31635 28.1774 6.49151 27.9055 8.70067 27.8375C10.2301 27.8035 10.9778 27.1917 11.1137 25.6963C11.2157 25.0166 11.4196 24.3368 11.5556 23.5891Z" fill="#0E2A36"/>
<path d="M20.9358 29.4688C20.9358 28.5171 20.9358 27.8714 20.9358 26.9877C23.8247 26.6478 26.7136 26.308 29.6025 26.0021C30.5541 25.9001 31.5057 25.7642 32.4574 25.6962C33.5789 25.6282 33.8508 26.3759 33.3071 27.0557C32.6953 27.8034 31.7776 28.6191 30.928 28.7211C27.6992 29.0949 24.4025 29.2309 20.9358 29.4688Z" fill="#0E2A36"/>
</svg>
